<?xml version="1.0" encoding="UTF-8" standalone="no"?>
<!DOCTYPE svg PUBLIC "-//W3C//DTD SVG 1.1//EN"
 "http://www.w3.org/Graphics/SVG/1.1/DTD/svg11.dtd">
<!-- Generated by graphviz version 2.26.3 (20100126.1600)
 -->
<!-- Title: G Pages: 1 -->
<svg width="269pt" height="194pt"
 viewBox="0.00 0.00 269.00 194.00" xmlns="http://www.w3.org/2000/svg" xmlns:xlink="http://www.w3.org/1999/xlink">
<g id="graph1" class="graph" transform="scale(1 1) rotate(0) translate(4 190)">
<title>G</title>
<polygon fill="white" stroke="white" points="-4,5 -4,-190 266,-190 266,5 -4,5"/>
<!-- PhpDaTest\\Stub\\C -->
<g id="node1" class="node"><title>PhpDaTest\\Stub\\C</title>
<ellipse fill="none" stroke="black" cx="162" cy="-167" rx="99.201" ry="18.3848"/>
<text text-anchor="middle" x="162" y="-163.4" font-family="Times Roman,serif" font-size="14.00">PhpDaTest\Stub\C</text>
</g>
<!-- PhpDaTest\\Stub\\B -->
<g id="node3" class="node"><title>PhpDaTest\\Stub\\B</title>
<ellipse fill="none" stroke="black" cx="99" cy="-93" rx="99.201" ry="18.3848"/>
<text text-anchor="middle" x="99" y="-89.4" font-family="Times Roman,serif" font-size="14.00">PhpDaTest\Stub\B</text>
</g>
<!-- PhpDaTest\\Stub\\C&#45;&gt;PhpDaTest\\Stub\\B -->
<g id="edge2" class="edge"><title>PhpDaTest\\Stub\\C&#45;&gt;PhpDaTest\\Stub\\B</title>
<path fill="none" stroke="black" d="M146.427,-148.708C138.855,-139.814 129.616,-128.962 121.311,-119.207"/>
<polygon fill="black" stroke="black" points="123.76,-116.684 114.612,-111.338 118.43,-121.221 123.76,-116.684"/>
</g>
<!-- PhpDaTest\\Stub\\A -->
<g id="node5" class="node"><title>PhpDaTest\\Stub\\A</title>
<ellipse fill="none" stroke="black" cx="162" cy="-19" rx="99.201" ry="18.3848"/>
<text text-anchor="middle" x="162" y="-15.4" font-family="Times Roman,serif" font-size="14.00">PhpDaTest\Stub\A</text>
</g>
<!-- PhpDaTest\\Stub\\B&#45;&gt;PhpDaTest\\Stub\\A -->
<g id="edge4" class="edge"><title>PhpDaTest\\Stub\\B&#45;&gt;PhpDaTest\\Stub\\A</title>
<path fill="none" stroke="black" d="M114.573,-74.7079C122.145,-65.8135 131.384,-54.9619 139.689,-45.2071"/>
<polygon fill="black" stroke="black" points="142.57,-47.2214 146.388,-37.3382 137.24,-42.6836 142.57,-47.2214"/>
</g>
<!-- PhpDaTest\\Stub\\A&#45;&gt;PhpDaTest\\Stub\\C -->
<g id="edge6" class="edge"><title>PhpDaTest\\Stub\\A&#45;&gt;PhpDaTest\\Stub\\C</title>
<path fill="none" stroke="black" d="M182.393,-37.2694C191.824,-47.1004 202.023,-60.0568 207,-74 212.678,-89.9059 212.678,-96.0941 207,-112 203.228,-122.566 196.458,-132.566 189.295,-141.068"/>
<polygon fill="black" stroke="black" points="186.485,-138.958 182.393,-148.731 191.686,-143.643 186.485,-138.958"/>
</g>
</g>
</svg>
