<?xml version="1.0" encoding="UTF-8" standalone="no"?>
<!DOCTYPE svg PUBLIC "-//W3C//DTD SVG 1.1//EN"
 "http://www.w3.org/Graphics/SVG/1.1/DTD/svg11.dtd">
<!-- Generated by graphviz version 2.26.3 (20100126.1600)
 -->
<!-- Title: G Pages: 1 -->
<svg width="350pt" height="191pt"
 viewBox="0.00 0.00 350.00 191.00" xmlns="http://www.w3.org/2000/svg" xmlns:xlink="http://www.w3.org/1999/xlink">
<g id="graph1" class="graph" transform="scale(1 1) rotate(0) translate(4 187)">
<title>G</title>
<polygon fill="white" stroke="white" points="-4,5 -4,-187 347,-187 347,5 -4,5"/>
<text text-anchor="middle" x="171" y="-6.8" font-family="Times Roman,serif" font-size="8.00">PhpDependencyAnalyse by Marco Muths (dev&#45;master)</text>
<!-- PackageX\\AnonymousClass -->
<g id="node1" class="node"><title>PackageX\\AnonymousClass</title>
<polygon fill="#9999cc" stroke="#9999cc" points="136,-118 12,-118 4.73695e-14,-106 2.36848e-14,-94 12,-82 136,-82 148,-94 148,-106 136,-118"/>
<path fill="#9999cc" stroke="#9999cc" d="M12,-118C6,-118 5.92119e-14,-112 4.73695e-14,-106"/>
<path fill="#9999cc" stroke="#9999cc" d="M2.36848e-14,-94C1.18424e-14,-88 6,-82 12,-82"/>
<path fill="#9999cc" stroke="#9999cc" d="M136,-82C142,-82 148,-88 148,-94"/>
<path fill="#9999cc" stroke="#9999cc" d="M148,-106C148,-112 142,-118 136,-118"/>
<polyline fill="none" stroke="black" points="136,-118 12,-118 "/>
<path fill="none" stroke="black" d="M12,-118C6,-118 5.92119e-14,-112 4.73695e-14,-106"/>
<polyline fill="none" stroke="black" points="4.73695e-14,-106 2.36848e-14,-94 "/>
<path fill="none" stroke="black" d="M2.36848e-14,-94C1.18424e-14,-88 6,-82 12,-82"/>
<polyline fill="none" stroke="black" points="12,-82 136,-82 "/>
<path fill="none" stroke="black" d="M136,-82C142,-82 148,-88 148,-94"/>
<polyline fill="none" stroke="black" points="148,-94 148,-106 "/>
<path fill="none" stroke="black" d="M148,-106C148,-112 142,-118 136,-118"/>
<text text-anchor="middle" x="74" y="-97.5" font-family="Times Roman,serif" font-size="10.00" fill="#000033">PackageX\AnonymousClass</text>
</g>
<!-- IteratorAggregate -->
<g id="node2" class="node"><title>IteratorAggregate</title>
<polygon fill="#9999cc" stroke="#9999cc" points="320,-183 242,-183 230,-171 230,-159 242,-147 320,-147 332,-159 332,-171 320,-183"/>
<path fill="#9999cc" stroke="#9999cc" d="M242,-183C236,-183 230,-177 230,-171"/>
<path fill="#9999cc" stroke="#9999cc" d="M230,-159C230,-153 236,-147 242,-147"/>
<path fill="#9999cc" stroke="#9999cc" d="M320,-147C326,-147 332,-153 332,-159"/>
<path fill="#9999cc" stroke="#9999cc" d="M332,-171C332,-177 326,-183 320,-183"/>
<polyline fill="none" stroke="black" points="320,-183 242,-183 "/>
<path fill="none" stroke="black" d="M242,-183C236,-183 230,-177 230,-171"/>
<polyline fill="none" stroke="black" points="230,-171 230,-159 "/>
<path fill="none" stroke="black" d="M230,-159C230,-153 236,-147 242,-147"/>
<polyline fill="none" stroke="black" points="242,-147 320,-147 "/>
<path fill="none" stroke="black" d="M320,-147C326,-147 332,-153 332,-159"/>
<polyline fill="none" stroke="black" points="332,-159 332,-171 "/>
<path fill="none" stroke="black" d="M332,-171C332,-177 326,-183 320,-183"/>
<text text-anchor="middle" x="281" y="-162.5" font-family="Times Roman,serif" font-size="10.00" fill="#000033">IteratorAggregate</text>
</g>
<!-- PackageX\\AnonymousClass&#45;&gt;IteratorAggregate -->
<g id="edge2" class="edge"><title>PackageX\\AnonymousClass&#45;&gt;IteratorAggregate</title>
<path fill="none" stroke="#999999" stroke-dasharray="5,2" d="M131.386,-118.02C160.206,-127.069 195.022,-138.002 223.813,-147.043"/>
<polygon fill="#999999" stroke="#999999" points="223.508,-149.148 229.862,-148.942 224.766,-145.141 223.508,-149.148"/>
</g>
<!-- ArrayIterator -->
<g id="node3" class="node"><title>ArrayIterator</title>
<polygon fill="#9999cc" stroke="#9999cc" points="307,-140 255,-140 243,-128 243,-116 255,-104 307,-104 319,-116 319,-128 307,-140"/>
<path fill="#9999cc" stroke="#9999cc" d="M255,-140C249,-140 243,-134 243,-128"/>
<path fill="#9999cc" stroke="#9999cc" d="M243,-116C243,-110 249,-104 255,-104"/>
<path fill="#9999cc" stroke="#9999cc" d="M307,-104C313,-104 319,-110 319,-116"/>
<path fill="#9999cc" stroke="#9999cc" d="M319,-128C319,-134 313,-140 307,-140"/>
<polyline fill="none" stroke="black" points="307,-140 255,-140 "/>
<path fill="none" stroke="black" d="M255,-140C249,-140 243,-134 243,-128"/>
<polyline fill="none" stroke="black" points="243,-128 243,-116 "/>
<path fill="none" stroke="black" d="M243,-116C243,-110 249,-104 255,-104"/>
<polyline fill="none" stroke="black" points="255,-104 307,-104 "/>
<path fill="none" stroke="black" d="M307,-104C313,-104 319,-110 319,-116"/>
<polyline fill="none" stroke="black" points="319,-116 319,-128 "/>
<path fill="none" stroke="black" d="M319,-128C319,-134 313,-140 307,-140"/>
<text text-anchor="middle" x="281" y="-119.5" font-family="Times Roman,serif" font-size="10.00" fill="#000033">ArrayIterator</text>
</g>
<!-- PackageX\\AnonymousClass&#45;&gt;ArrayIterator -->
<g id="edge4" class="edge"><title>PackageX\\AnonymousClass&#45;&gt;ArrayIterator</title>
<path fill="none" stroke="#999999" stroke-dasharray="5,2" d="M148.147,-107.88C177.682,-111.019 210.693,-114.528 236.42,-117.262"/>
<polygon fill="#999999" stroke="#999999" points="236.274,-119.358 242.462,-117.904 236.718,-115.182 236.274,-119.358"/>
</g>
<!-- RecursiveArrayIterator -->
<g id="node4" class="node"><title>RecursiveArrayIterator</title>
<polygon fill="#9999cc" stroke="#9999cc" points="330,-97 232,-97 220,-85 220,-73 232,-61 330,-61 342,-73 342,-85 330,-97"/>
<path fill="#9999cc" stroke="#9999cc" d="M232,-97C226,-97 220,-91 220,-85"/>
<path fill="#9999cc" stroke="#9999cc" d="M220,-73C220,-67 226,-61 232,-61"/>
<path fill="#9999cc" stroke="#9999cc" d="M330,-61C336,-61 342,-67 342,-73"/>
<path fill="#9999cc" stroke="#9999cc" d="M342,-85C342,-91 336,-97 330,-97"/>
<polyline fill="none" stroke="black" points="330,-97 232,-97 "/>
<path fill="none" stroke="black" d="M232,-97C226,-97 220,-91 220,-85"/>
<polyline fill="none" stroke="black" points="220,-85 220,-73 "/>
<path fill="none" stroke="black" d="M220,-73C220,-67 226,-61 232,-61"/>
<polyline fill="none" stroke="black" points="232,-61 330,-61 "/>
<path fill="none" stroke="black" d="M330,-61C336,-61 342,-67 342,-73"/>
<polyline fill="none" stroke="black" points="342,-73 342,-85 "/>
<path fill="none" stroke="black" d="M342,-85C342,-91 336,-97 330,-97"/>
<text text-anchor="middle" x="281" y="-76.5" font-family="Times Roman,serif" font-size="10.00" fill="#000033">RecursiveArrayIterator</text>
</g>
<!-- PackageX\\AnonymousClass&#45;&gt;RecursiveArrayIterator -->
<g id="edge6" class="edge"><title>PackageX\\AnonymousClass&#45;&gt;RecursiveArrayIterator</title>
<path fill="none" stroke="#999999" stroke-dasharray="5,2" d="M148.147,-92.4778C169.581,-90.3034 192.846,-87.9432 213.829,-85.8144"/>
<polygon fill="#999999" stroke="#999999" points="214.215,-87.8862 219.972,-85.1912 213.791,-83.7076 214.215,-87.8862"/>
</g>
<!-- EmptyIterator -->
<g id="node5" class="node"><title>EmptyIterator</title>
<polygon fill="#9999cc" stroke="#9999cc" points="310,-54 252,-54 240,-42 240,-30 252,-18 310,-18 322,-30 322,-42 310,-54"/>
<path fill="#9999cc" stroke="#9999cc" d="M252,-54C246,-54 240,-48 240,-42"/>
<path fill="#9999cc" stroke="#9999cc" d="M240,-30C240,-24 246,-18 252,-18"/>
<path fill="#9999cc" stroke="#9999cc" d="M310,-18C316,-18 322,-24 322,-30"/>
<path fill="#9999cc" stroke="#9999cc" d="M322,-42C322,-48 316,-54 310,-54"/>
<polyline fill="none" stroke="black" points="310,-54 252,-54 "/>
<path fill="none" stroke="black" d="M252,-54C246,-54 240,-48 240,-42"/>
<polyline fill="none" stroke="black" points="240,-42 240,-30 "/>
<path fill="none" stroke="black" d="M240,-30C240,-24 246,-18 252,-18"/>
<polyline fill="none" stroke="black" points="252,-18 310,-18 "/>
<path fill="none" stroke="black" d="M310,-18C316,-18 322,-24 322,-30"/>
<polyline fill="none" stroke="black" points="322,-30 322,-42 "/>
<path fill="none" stroke="black" d="M322,-42C322,-48 316,-54 310,-54"/>
<text text-anchor="middle" x="281" y="-33.5" font-family="Times Roman,serif" font-size="10.00" fill="#000033">EmptyIterator</text>
</g>
<!-- PackageX\\AnonymousClass&#45;&gt;EmptyIterator -->
<g id="edge8" class="edge"><title>PackageX\\AnonymousClass&#45;&gt;EmptyIterator</title>
<path fill="none" stroke="#999999" stroke-dasharray="5,2" d="M132.488,-81.9168C164.432,-72.0405 203.48,-59.9677 233.518,-50.6804"/>
<polygon fill="#999999" stroke="#999999" points="234.289,-52.6403 239.401,-48.8616 233.048,-48.6277 234.289,-52.6403"/>
</g>
</g>
</svg>
