<?xml version="1.0" encoding="UTF-8" standalone="no"?>
<!DOCTYPE svg PUBLIC "-//W3C//DTD SVG 1.1//EN"
 "http://www.w3.org/Graphics/SVG/1.1/DTD/svg11.dtd">
<!-- Generated by graphviz version 2.26.3 (20100126.1600)
 -->
<!-- Title: G Pages: 1 -->
<svg width="380pt" height="120pt"
 viewBox="0.00 0.00 380.00 120.00" xmlns="http://www.w3.org/2000/svg" xmlns:xlink="http://www.w3.org/1999/xlink">
<g id="graph1" class="graph" transform="scale(1 1) rotate(0) translate(4 116)">
<title>G</title>
<polygon fill="white" stroke="white" points="-4,5 -4,-116 377,-116 377,5 -4,5"/>
<!-- Symfony -->
<g id="node1" class="node"><title>Symfony</title>
<ellipse fill="none" stroke="black" cx="54" cy="-93" rx="53.9477" ry="18.3848"/>
<text text-anchor="middle" x="54" y="-89.4" font-family="Times Roman,serif" font-size="14.00">Symfony</text>
</g>
<!-- PhpDA -->
<g id="node3" class="node"><title>PhpDA</title>
<ellipse fill="none" stroke="black" cx="179" cy="-19" rx="44.7575" ry="18.3848"/>
<text text-anchor="middle" x="179" y="-15.4" font-family="Times Roman,serif" font-size="14.00">PhpDA</text>
</g>
<!-- Symfony&#45;&gt;PhpDA -->
<g id="edge2" class="edge"><title>Symfony&#45;&gt;PhpDA</title>
<path fill="none" stroke="black" d="M81.1231,-76.9431C99.6788,-65.9582 124.438,-51.3009 144.411,-39.4769"/>
<polygon fill="black" stroke="black" points="146.389,-42.373 153.211,-34.2669 142.823,-36.3494 146.389,-42.373"/>
</g>
<!-- Fhaculty -->
<g id="node4" class="node"><title>Fhaculty</title>
<ellipse fill="none" stroke="black" cx="179" cy="-93" rx="53.2379" ry="18.3848"/>
<text text-anchor="middle" x="179" y="-89.4" font-family="Times Roman,serif" font-size="14.00">Fhaculty</text>
</g>
<!-- Fhaculty&#45;&gt;PhpDA -->
<g id="edge4" class="edge"><title>Fhaculty&#45;&gt;PhpDA</title>
<path fill="none" stroke="black" d="M179,-74.3267C179,-66.2639 179,-56.6477 179,-47.7115"/>
<polygon fill="black" stroke="black" points="182.5,-47.6673 179,-37.6674 175.5,-47.6674 182.5,-47.6673"/>
</g>
<!-- PhpParser -->
<g id="node6" class="node"><title>PhpParser</title>
<ellipse fill="none" stroke="black" cx="311" cy="-93" rx="60.8112" ry="18.3848"/>
<text text-anchor="middle" x="311" y="-89.4" font-family="Times Roman,serif" font-size="14.00">PhpParser</text>
</g>
<!-- PhpParser&#45;&gt;PhpDA -->
<g id="edge6" class="edge"><title>PhpParser&#45;&gt;PhpDA</title>
<path fill="none" stroke="black" d="M281.705,-76.577C261.988,-65.5238 235.864,-50.8783 214.898,-39.1244"/>
<polygon fill="black" stroke="black" points="216.4,-35.9544 205.966,-34.1172 212.977,-42.0603 216.4,-35.9544"/>
</g>
</g>
</svg>
