<?xml version="1.0" encoding="UTF-8" standalone="no"?>
<!DOCTYPE svg PUBLIC "-//W3C//DTD SVG 1.1//EN"
 "http://www.w3.org/Graphics/SVG/1.1/DTD/svg11.dtd">
<!-- Generated by graphviz version 2.26.3 (20100126.1600)
 -->
<!-- Title: G Pages: 1 -->
<svg width="424pt" height="148pt"
 viewBox="0.00 0.00 424.00 148.00" xmlns="http://www.w3.org/2000/svg" xmlns:xlink="http://www.w3.org/1999/xlink">
<g id="graph1" class="graph" transform="scale(1 1) rotate(0) translate(4 144)">
<title>G</title>
<polygon fill="white" stroke="white" points="-4,5 -4,-144 421,-144 421,5 -4,5"/>
<text text-anchor="middle" x="208" y="-6.8" font-family="Times Roman,serif" font-size="8.00">PhpDependencyAnalyse by Marco Muths (dev&#45;master)</text>
<!-- PhpDA\\Plugin\\ConfigurableInterface -->
<g id="node1" class="node"><title>PhpDA\\Plugin\\ConfigurableInterface</title>
<polygon fill="#eeeeee" stroke="#eeeeee" points="403,-140 243,-140 231,-128 231,-116 243,-104 403,-104 415,-116 415,-128 403,-140"/>
<path fill="#eeeeee" stroke="#eeeeee" d="M243,-140C237,-140 231,-134 231,-128"/>
<path fill="#eeeeee" stroke="#eeeeee" d="M231,-116C231,-110 237,-104 243,-104"/>
<path fill="#eeeeee" stroke="#eeeeee" d="M403,-104C409,-104 415,-110 415,-116"/>
<path fill="#eeeeee" stroke="#eeeeee" d="M415,-128C415,-134 409,-140 403,-140"/>
<polyline fill="none" stroke="black" points="403,-140 243,-140 "/>
<path fill="none" stroke="black" d="M243,-140C237,-140 231,-134 231,-128"/>
<polyline fill="none" stroke="black" points="231,-128 231,-116 "/>
<path fill="none" stroke="black" d="M231,-116C231,-110 237,-104 243,-104"/>
<polyline fill="none" stroke="black" points="243,-104 403,-104 "/>
<path fill="none" stroke="black" d="M403,-104C409,-104 415,-110 415,-116"/>
<polyline fill="none" stroke="black" points="415,-116 415,-128 "/>
<path fill="none" stroke="black" d="M415,-128C415,-134 409,-140 403,-140"/>
<text text-anchor="middle" x="323" y="-119.5" font-family="Times Roman,serif" font-size="10.00" fill="#314b5f">PhpDA\Plugin\ConfigurableInterface</text>
</g>
<!-- PhpDA\\Plugin\\LoaderInterface -->
<g id="node2" class="node"><title>PhpDA\\Plugin\\LoaderInterface</title>
<polygon fill="#eeeeee" stroke="#eeeeee" points="146,-140 12,-140 4.73695e-14,-128 2.36848e-14,-116 12,-104 146,-104 158,-116 158,-128 146,-140"/>
<path fill="#eeeeee" stroke="#eeeeee" d="M12,-140C6,-140 5.92119e-14,-134 4.73695e-14,-128"/>
<path fill="#eeeeee" stroke="#eeeeee" d="M2.36848e-14,-116C1.18424e-14,-110 6,-104 12,-104"/>
<path fill="#eeeeee" stroke="#eeeeee" d="M146,-104C152,-104 158,-110 158,-116"/>
<path fill="#eeeeee" stroke="#eeeeee" d="M158,-128C158,-134 152,-140 146,-140"/>
<polyline fill="none" stroke="black" points="146,-140 12,-140 "/>
<path fill="none" stroke="black" d="M12,-140C6,-140 5.92119e-14,-134 4.73695e-14,-128"/>
<polyline fill="none" stroke="black" points="4.73695e-14,-128 2.36848e-14,-116 "/>
<path fill="none" stroke="black" d="M2.36848e-14,-116C1.18424e-14,-110 6,-104 12,-104"/>
<polyline fill="none" stroke="black" points="12,-104 146,-104 "/>
<path fill="none" stroke="black" d="M146,-104C152,-104 158,-110 158,-116"/>
<polyline fill="none" stroke="black" points="158,-116 158,-128 "/>
<path fill="none" stroke="black" d="M158,-128C158,-134 152,-140 146,-140"/>
<text text-anchor="middle" x="79" y="-119.5" font-family="Times Roman,serif" font-size="10.00" fill="#314b5f">PhpDA\Plugin\LoaderInterface</text>
</g>
<!-- PhpDA\\Plugin\\FactoryInterface -->
<g id="node3" class="node"><title>PhpDA\\Plugin\\FactoryInterface</title>
<polygon fill="#eeeeee" stroke="#eeeeee" points="391,-97 255,-97 243,-85 243,-73 255,-61 391,-61 403,-73 403,-85 391,-97"/>
<path fill="#eeeeee" stroke="#eeeeee" d="M255,-97C249,-97 243,-91 243,-85"/>
<path fill="#eeeeee" stroke="#eeeeee" d="M243,-73C243,-67 249,-61 255,-61"/>
<path fill="#eeeeee" stroke="#eeeeee" d="M391,-61C397,-61 403,-67 403,-73"/>
<path fill="#eeeeee" stroke="#eeeeee" d="M403,-85C403,-91 397,-97 391,-97"/>
<polyline fill="none" stroke="black" points="391,-97 255,-97 "/>
<path fill="none" stroke="black" d="M255,-97C249,-97 243,-91 243,-85"/>
<polyline fill="none" stroke="black" points="243,-85 243,-73 "/>
<path fill="none" stroke="black" d="M243,-73C243,-67 249,-61 255,-61"/>
<polyline fill="none" stroke="black" points="255,-61 391,-61 "/>
<path fill="none" stroke="black" d="M391,-61C397,-61 403,-67 403,-73"/>
<polyline fill="none" stroke="black" points="403,-73 403,-85 "/>
<path fill="none" stroke="black" d="M403,-85C403,-91 397,-97 391,-97"/>
<text text-anchor="middle" x="323" y="-76.5" font-family="Times Roman,serif" font-size="10.00" fill="#314b5f">PhpDA\Plugin\FactoryInterface</text>
</g>
<!-- PhpDA\\Plugin\\Loader -->
<g id="node4" class="node"><title>PhpDA\\Plugin\\Loader</title>
<polygon fill="#eeeeee" stroke="#eeeeee" points="125,-97 33,-97 21,-85 21,-73 33,-61 125,-61 137,-73 137,-85 125,-97"/>
<path fill="#eeeeee" stroke="#eeeeee" d="M33,-97C27,-97 21,-91 21,-85"/>
<path fill="#eeeeee" stroke="#eeeeee" d="M21,-73C21,-67 27,-61 33,-61"/>
<path fill="#eeeeee" stroke="#eeeeee" d="M125,-61C131,-61 137,-67 137,-73"/>
<path fill="#eeeeee" stroke="#eeeeee" d="M137,-85C137,-91 131,-97 125,-97"/>
<polyline fill="none" stroke="black" points="125,-97 33,-97 "/>
<path fill="none" stroke="black" d="M33,-97C27,-97 21,-91 21,-85"/>
<polyline fill="none" stroke="black" points="21,-85 21,-73 "/>
<path fill="none" stroke="black" d="M21,-73C21,-67 27,-61 33,-61"/>
<polyline fill="none" stroke="black" points="33,-61 125,-61 "/>
<path fill="none" stroke="black" d="M125,-61C131,-61 137,-67 137,-73"/>
<polyline fill="none" stroke="black" points="137,-73 137,-85 "/>
<path fill="none" stroke="black" d="M137,-85C137,-91 131,-97 125,-97"/>
<text text-anchor="middle" x="79" y="-76.5" font-family="Times Roman,serif" font-size="10.00" fill="#314b5f">PhpDA\Plugin\Loader</text>
</g>
<!-- PhpDA\\Plugin\\Loader&#45;&gt;PhpDA\\Plugin\\ConfigurableInterface -->
<g id="edge6" class="edge"><title>PhpDA\\Plugin\\Loader&#45;&gt;PhpDA\\Plugin\\ConfigurableInterface</title>
<path fill="none" stroke="#1a2833" d="M137.134,-89.2449C163.059,-93.8136 194.342,-99.3266 223.788,-104.516"/>
<polygon fill="#1a2833" stroke="#1a2833" points="223.768,-106.645 230.041,-105.618 224.497,-102.508 223.768,-106.645"/>
</g>
<!-- PhpDA\\Plugin\\Loader&#45;&gt;PhpDA\\Plugin\\FactoryInterface -->
<g id="edge4" class="edge"><title>PhpDA\\Plugin\\Loader&#45;&gt;PhpDA\\Plugin\\FactoryInterface</title>
<path fill="none" stroke="#1a2833" d="M137.134,-79C166.858,-79 203.627,-79 236.595,-79"/>
<polygon fill="#1a2833" stroke="#1a2833" points="236.704,-81.1001 242.704,-79 236.704,-76.9001 236.704,-81.1001"/>
</g>
<!-- Psr\\Log\\LoggerInterface -->
<g id="node5" class="node"><title>Psr\\Log\\LoggerInterface</title>
<polygon fill="#eeeeee" stroke="#eeeeee" points="376,-54 270,-54 258,-42 258,-30 270,-18 376,-18 388,-30 388,-42 376,-54"/>
<path fill="#eeeeee" stroke="#eeeeee" d="M270,-54C264,-54 258,-48 258,-42"/>
<path fill="#eeeeee" stroke="#eeeeee" d="M258,-30C258,-24 264,-18 270,-18"/>
<path fill="#eeeeee" stroke="#eeeeee" d="M376,-18C382,-18 388,-24 388,-30"/>
<path fill="#eeeeee" stroke="#eeeeee" d="M388,-42C388,-48 382,-54 376,-54"/>
<polyline fill="none" stroke="black" points="376,-54 270,-54 "/>
<path fill="none" stroke="black" d="M270,-54C264,-54 258,-48 258,-42"/>
<polyline fill="none" stroke="black" points="258,-42 258,-30 "/>
<path fill="none" stroke="black" d="M258,-30C258,-24 264,-18 270,-18"/>
<polyline fill="none" stroke="black" points="270,-18 376,-18 "/>
<path fill="none" stroke="black" d="M376,-18C382,-18 388,-24 388,-30"/>
<polyline fill="none" stroke="black" points="388,-30 388,-42 "/>
<path fill="none" stroke="black" d="M388,-42C388,-48 382,-54 376,-54"/>
<text text-anchor="middle" x="323" y="-33.5" font-family="Times Roman,serif" font-size="10.00" fill="#314b5f">Psr\Log\LoggerInterface</text>
</g>
<!-- PhpDA\\Plugin\\Loader&#45;&gt;Psr\\Log\\LoggerInterface -->
<g id="edge2" class="edge"><title>PhpDA\\Plugin\\Loader&#45;&gt;Psr\\Log\\LoggerInterface</title>
<path fill="none" stroke="#1a2833" d="M137.134,-68.7551C171.379,-62.7201 214.974,-55.0375 251.335,-48.6296"/>
<polygon fill="#1a2833" stroke="#1a2833" points="252.025,-50.6404 257.569,-47.5308 251.296,-46.5041 252.025,-50.6404"/>
</g>
</g>
</svg>
