<?xml version="1.0" encoding="UTF-8" standalone="no"?>
<!DOCTYPE svg PUBLIC "-//W3C//DTD SVG 1.1//EN"
 "http://www.w3.org/Graphics/SVG/1.1/DTD/svg11.dtd">
<!-- Generated by graphviz version 2.26.3 (20100126.1600)
 -->
<!-- Title: G Pages: 1 -->
<svg width="424pt" height="320pt"
 viewBox="0.00 0.00 424.00 320.00" xmlns="http://www.w3.org/2000/svg" xmlns:xlink="http://www.w3.org/1999/xlink">
<g id="graph1" class="graph" transform="scale(1 1) rotate(0) translate(4 316)">
<title>G</title>
<polygon fill="white" stroke="white" points="-4,5 -4,-316 421,-316 421,5 -4,5"/>
<text text-anchor="middle" x="208" y="-6.8" font-family="Times Roman,serif" font-size="8.00">PhpDependencyAnalyse by Marco Muths (dev&#45;master)</text>
<!-- PhpDA\\Plugin\\ConfigurableInterface -->
<g id="node1" class="node"><title>PhpDA\\Plugin\\ConfigurableInterface</title>
<polygon fill="#eeeeee" stroke="#eeeeee" points="403,-269 243,-269 231,-257 231,-245 243,-233 403,-233 415,-245 415,-257 403,-269"/>
<path fill="#eeeeee" stroke="#eeeeee" d="M243,-269C237,-269 231,-263 231,-257"/>
<path fill="#eeeeee" stroke="#eeeeee" d="M231,-245C231,-239 237,-233 243,-233"/>
<path fill="#eeeeee" stroke="#eeeeee" d="M403,-233C409,-233 415,-239 415,-245"/>
<path fill="#eeeeee" stroke="#eeeeee" d="M415,-257C415,-263 409,-269 403,-269"/>
<polyline fill="none" stroke="black" points="403,-269 243,-269 "/>
<path fill="none" stroke="black" d="M243,-269C237,-269 231,-263 231,-257"/>
<polyline fill="none" stroke="black" points="231,-257 231,-245 "/>
<path fill="none" stroke="black" d="M231,-245C231,-239 237,-233 243,-233"/>
<polyline fill="none" stroke="black" points="243,-233 403,-233 "/>
<path fill="none" stroke="black" d="M403,-233C409,-233 415,-239 415,-245"/>
<polyline fill="none" stroke="black" points="415,-245 415,-257 "/>
<path fill="none" stroke="black" d="M415,-257C415,-263 409,-269 403,-269"/>
<text text-anchor="middle" x="323" y="-248.5" font-family="Times Roman,serif" font-size="10.00" fill="#314b5f">PhpDA\Plugin\ConfigurableInterface</text>
</g>
<!-- PhpDA\\Plugin\\LoaderInterface -->
<g id="node2" class="node"><title>PhpDA\\Plugin\\LoaderInterface</title>
<polygon fill="#eeeeee" stroke="#eeeeee" points="146,-312 12,-312 4.73695e-14,-300 2.36848e-14,-288 12,-276 146,-276 158,-288 158,-300 146,-312"/>
<path fill="#eeeeee" stroke="#eeeeee" d="M12,-312C6,-312 5.92119e-14,-306 4.73695e-14,-300"/>
<path fill="#eeeeee" stroke="#eeeeee" d="M2.36848e-14,-288C1.18424e-14,-282 6,-276 12,-276"/>
<path fill="#eeeeee" stroke="#eeeeee" d="M146,-276C152,-276 158,-282 158,-288"/>
<path fill="#eeeeee" stroke="#eeeeee" d="M158,-300C158,-306 152,-312 146,-312"/>
<polyline fill="none" stroke="black" points="146,-312 12,-312 "/>
<path fill="none" stroke="black" d="M12,-312C6,-312 5.92119e-14,-306 4.73695e-14,-300"/>
<polyline fill="none" stroke="black" points="4.73695e-14,-300 2.36848e-14,-288 "/>
<path fill="none" stroke="black" d="M2.36848e-14,-288C1.18424e-14,-282 6,-276 12,-276"/>
<polyline fill="none" stroke="black" points="12,-276 146,-276 "/>
<path fill="none" stroke="black" d="M146,-276C152,-276 158,-282 158,-288"/>
<polyline fill="none" stroke="black" points="158,-288 158,-300 "/>
<path fill="none" stroke="black" d="M158,-300C158,-306 152,-312 146,-312"/>
<text text-anchor="middle" x="79" y="-291.5" font-family="Times Roman,serif" font-size="10.00" fill="#314b5f">PhpDA\Plugin\LoaderInterface</text>
</g>
<!-- RuntimeException -->
<g id="node3" class="node"><title>RuntimeException</title>
<polygon fill="#eeeeee" stroke="#eeeeee" points="362,-312 284,-312 272,-300 272,-288 284,-276 362,-276 374,-288 374,-300 362,-312"/>
<path fill="#eeeeee" stroke="#eeeeee" d="M284,-312C278,-312 272,-306 272,-300"/>
<path fill="#eeeeee" stroke="#eeeeee" d="M272,-288C272,-282 278,-276 284,-276"/>
<path fill="#eeeeee" stroke="#eeeeee" d="M362,-276C368,-276 374,-282 374,-288"/>
<path fill="#eeeeee" stroke="#eeeeee" d="M374,-300C374,-306 368,-312 362,-312"/>
<polyline fill="none" stroke="black" points="362,-312 284,-312 "/>
<path fill="none" stroke="black" d="M284,-312C278,-312 272,-306 272,-300"/>
<polyline fill="none" stroke="black" points="272,-300 272,-288 "/>
<path fill="none" stroke="black" d="M272,-288C272,-282 278,-276 284,-276"/>
<polyline fill="none" stroke="black" points="284,-276 362,-276 "/>
<path fill="none" stroke="black" d="M362,-276C368,-276 374,-282 374,-288"/>
<polyline fill="none" stroke="black" points="374,-288 374,-300 "/>
<path fill="none" stroke="black" d="M374,-300C374,-306 368,-312 362,-312"/>
<text text-anchor="middle" x="323" y="-291.5" font-family="Times Roman,serif" font-size="10.00" fill="#314b5f">RuntimeException</text>
</g>
<!-- PhpDA\\Plugin\\LoaderInterface&#45;&gt;RuntimeException -->
<g id="edge2" class="edge"><title>PhpDA\\Plugin\\LoaderInterface&#45;&gt;RuntimeException</title>
<path fill="none" stroke="#1a2833" d="M158.22,-294C193.182,-294 233.511,-294 265.521,-294"/>
<polygon fill="#1a2833" stroke="#1a2833" points="265.808,-296.1 271.808,-294 265.808,-291.9 265.808,-296.1"/>
</g>
<!-- PhpDA\\Plugin\\FactoryInterface -->
<g id="node4" class="node"><title>PhpDA\\Plugin\\FactoryInterface</title>
<polygon fill="#eeeeee" stroke="#eeeeee" points="391,-226 255,-226 243,-214 243,-202 255,-190 391,-190 403,-202 403,-214 391,-226"/>
<path fill="#eeeeee" stroke="#eeeeee" d="M255,-226C249,-226 243,-220 243,-214"/>
<path fill="#eeeeee" stroke="#eeeeee" d="M243,-202C243,-196 249,-190 255,-190"/>
<path fill="#eeeeee" stroke="#eeeeee" d="M391,-190C397,-190 403,-196 403,-202"/>
<path fill="#eeeeee" stroke="#eeeeee" d="M403,-214C403,-220 397,-226 391,-226"/>
<polyline fill="none" stroke="black" points="391,-226 255,-226 "/>
<path fill="none" stroke="black" d="M255,-226C249,-226 243,-220 243,-214"/>
<polyline fill="none" stroke="black" points="243,-214 243,-202 "/>
<path fill="none" stroke="black" d="M243,-202C243,-196 249,-190 255,-190"/>
<polyline fill="none" stroke="black" points="255,-190 391,-190 "/>
<path fill="none" stroke="black" d="M391,-190C397,-190 403,-196 403,-202"/>
<polyline fill="none" stroke="black" points="403,-202 403,-214 "/>
<path fill="none" stroke="black" d="M403,-214C403,-220 397,-226 391,-226"/>
<text text-anchor="middle" x="323" y="-205.5" font-family="Times Roman,serif" font-size="10.00" fill="#314b5f">PhpDA\Plugin\FactoryInterface</text>
</g>
<!-- PhpDA\\Plugin\\Loader -->
<g id="node5" class="node"><title>PhpDA\\Plugin\\Loader</title>
<polygon fill="#eeeeee" stroke="#eeeeee" points="125,-183 33,-183 21,-171 21,-159 33,-147 125,-147 137,-159 137,-171 125,-183"/>
<path fill="#eeeeee" stroke="#eeeeee" d="M33,-183C27,-183 21,-177 21,-171"/>
<path fill="#eeeeee" stroke="#eeeeee" d="M21,-159C21,-153 27,-147 33,-147"/>
<path fill="#eeeeee" stroke="#eeeeee" d="M125,-147C131,-147 137,-153 137,-159"/>
<path fill="#eeeeee" stroke="#eeeeee" d="M137,-171C137,-177 131,-183 125,-183"/>
<polyline fill="none" stroke="black" points="125,-183 33,-183 "/>
<path fill="none" stroke="black" d="M33,-183C27,-183 21,-177 21,-171"/>
<polyline fill="none" stroke="black" points="21,-171 21,-159 "/>
<path fill="none" stroke="black" d="M21,-159C21,-153 27,-147 33,-147"/>
<polyline fill="none" stroke="black" points="33,-147 125,-147 "/>
<path fill="none" stroke="black" d="M125,-147C131,-147 137,-153 137,-159"/>
<polyline fill="none" stroke="black" points="137,-159 137,-171 "/>
<path fill="none" stroke="black" d="M137,-171C137,-177 131,-183 125,-183"/>
<text text-anchor="middle" x="79" y="-162.5" font-family="Times Roman,serif" font-size="10.00" fill="#314b5f">PhpDA\Plugin\Loader</text>
</g>
<!-- PhpDA\\Plugin\\Loader&#45;&gt;PhpDA\\Plugin\\ConfigurableInterface -->
<g id="edge16" class="edge"><title>PhpDA\\Plugin\\Loader&#45;&gt;PhpDA\\Plugin\\ConfigurableInterface</title>
<path fill="none" stroke="#1a2833" d="M116.798,-183.126C146.937,-197.062 190.496,-216.058 230,-229 232.178,-229.713 234.391,-230.414 236.63,-231.101"/>
<polygon fill="#1a2833" stroke="#1a2833" points="236.26,-233.182 242.61,-232.887 237.462,-229.157 236.26,-233.182"/>
</g>
<!-- PhpDA\\Plugin\\Loader&#45;&gt;RuntimeException -->
<g id="edge8" class="edge"><title>PhpDA\\Plugin\\Loader&#45;&gt;RuntimeException</title>
<path fill="none" stroke="#1a2833" d="M99.3957,-183.404C127.013,-207.348 178.761,-248.848 230,-272 241.174,-277.049 253.648,-281.016 265.739,-284.106"/>
<polygon fill="#1a2833" stroke="#1a2833" points="265.309,-286.163 271.637,-285.553 266.31,-282.084 265.309,-286.163"/>
</g>
<!-- PhpDA\\Plugin\\Loader&#45;&gt;PhpDA\\Plugin\\FactoryInterface -->
<g id="edge14" class="edge"><title>PhpDA\\Plugin\\Loader&#45;&gt;PhpDA\\Plugin\\FactoryInterface</title>
<path fill="none" stroke="#1a2833" d="M137.134,-175.245C166.858,-180.483 203.627,-186.963 236.595,-192.773"/>
<polygon fill="#1a2833" stroke="#1a2833" points="236.43,-194.876 242.704,-193.849 237.159,-190.74 236.43,-194.876"/>
</g>
<!-- Psr\\Log\\LoggerInterface -->
<g id="node6" class="node"><title>Psr\\Log\\LoggerInterface</title>
<polygon fill="#eeeeee" stroke="#eeeeee" points="376,-183 270,-183 258,-171 258,-159 270,-147 376,-147 388,-159 388,-171 376,-183"/>
<path fill="#eeeeee" stroke="#eeeeee" d="M270,-183C264,-183 258,-177 258,-171"/>
<path fill="#eeeeee" stroke="#eeeeee" d="M258,-159C258,-153 264,-147 270,-147"/>
<path fill="#eeeeee" stroke="#eeeeee" d="M376,-147C382,-147 388,-153 388,-159"/>
<path fill="#eeeeee" stroke="#eeeeee" d="M388,-171C388,-177 382,-183 376,-183"/>
<polyline fill="none" stroke="black" points="376,-183 270,-183 "/>
<path fill="none" stroke="black" d="M270,-183C264,-183 258,-177 258,-171"/>
<polyline fill="none" stroke="black" points="258,-171 258,-159 "/>
<path fill="none" stroke="black" d="M258,-159C258,-153 264,-147 270,-147"/>
<polyline fill="none" stroke="black" points="270,-147 376,-147 "/>
<path fill="none" stroke="black" d="M376,-147C382,-147 388,-153 388,-159"/>
<polyline fill="none" stroke="black" points="388,-159 388,-171 "/>
<path fill="none" stroke="black" d="M388,-171C388,-177 382,-183 376,-183"/>
<text text-anchor="middle" x="323" y="-162.5" font-family="Times Roman,serif" font-size="10.00" fill="#314b5f">Psr\Log\LoggerInterface</text>
</g>
<!-- PhpDA\\Plugin\\Loader&#45;&gt;Psr\\Log\\LoggerInterface -->
<g id="edge4" class="edge"><title>PhpDA\\Plugin\\Loader&#45;&gt;Psr\\Log\\LoggerInterface</title>
<path fill="none" stroke="#1a2833" d="M137.134,-165C171.379,-165 214.974,-165 251.335,-165"/>
<polygon fill="#1a2833" stroke="#1a2833" points="251.569,-167.1 257.569,-165 251.569,-162.9 251.569,-167.1"/>
</g>
<!-- class_exists -->
<g id="node7" class="node"><title>class_exists</title>
<polygon fill="#eeeeee" stroke="#eeeeee" points="348,-140 298,-140 286,-128 286,-116 298,-104 348,-104 360,-116 360,-128 348,-140"/>
<path fill="#eeeeee" stroke="#eeeeee" d="M298,-140C292,-140 286,-134 286,-128"/>
<path fill="#eeeeee" stroke="#eeeeee" d="M286,-116C286,-110 292,-104 298,-104"/>
<path fill="#eeeeee" stroke="#eeeeee" d="M348,-104C354,-104 360,-110 360,-116"/>
<path fill="#eeeeee" stroke="#eeeeee" d="M360,-128C360,-134 354,-140 348,-140"/>
<polyline fill="none" stroke="black" points="348,-140 298,-140 "/>
<path fill="none" stroke="black" d="M298,-140C292,-140 286,-134 286,-128"/>
<polyline fill="none" stroke="black" points="286,-128 286,-116 "/>
<path fill="none" stroke="black" d="M286,-116C286,-110 292,-104 298,-104"/>
<polyline fill="none" stroke="black" points="298,-104 348,-104 "/>
<path fill="none" stroke="black" d="M348,-104C354,-104 360,-110 360,-116"/>
<polyline fill="none" stroke="black" points="360,-116 360,-128 "/>
<path fill="none" stroke="black" d="M360,-128C360,-134 354,-140 348,-140"/>
<text text-anchor="middle" x="323" y="-119.5" font-family="Times Roman,serif" font-size="10.00" fill="#314b5f">class_exists</text>
</g>
<!-- PhpDA\\Plugin\\Loader&#45;&gt;class_exists -->
<g id="edge6" class="edge"><title>PhpDA\\Plugin\\Loader&#45;&gt;class_exists</title>
<path fill="none" stroke="#1a2833" d="M137.134,-154.755C180.886,-147.045 239.901,-136.645 279.592,-129.65"/>
<polygon fill="#1a2833" stroke="#1a2833" points="280.246,-131.667 285.791,-128.557 279.517,-127.531 280.246,-131.667"/>
</g>
<!-- sprintf -->
<g id="node8" class="node"><title>sprintf</title>
<polygon fill="#eeeeee" stroke="#eeeeee" points="338,-97 308,-97 296,-85 296,-73 308,-61 338,-61 350,-73 350,-85 338,-97"/>
<path fill="#eeeeee" stroke="#eeeeee" d="M308,-97C302,-97 296,-91 296,-85"/>
<path fill="#eeeeee" stroke="#eeeeee" d="M296,-73C296,-67 302,-61 308,-61"/>
<path fill="#eeeeee" stroke="#eeeeee" d="M338,-61C344,-61 350,-67 350,-73"/>
<path fill="#eeeeee" stroke="#eeeeee" d="M350,-85C350,-91 344,-97 338,-97"/>
<polyline fill="none" stroke="black" points="338,-97 308,-97 "/>
<path fill="none" stroke="black" d="M308,-97C302,-97 296,-91 296,-85"/>
<polyline fill="none" stroke="black" points="296,-85 296,-73 "/>
<path fill="none" stroke="black" d="M296,-73C296,-67 302,-61 308,-61"/>
<polyline fill="none" stroke="black" points="308,-61 338,-61 "/>
<path fill="none" stroke="black" d="M338,-61C344,-61 350,-67 350,-73"/>
<polyline fill="none" stroke="black" points="350,-73 350,-85 "/>
<path fill="none" stroke="black" d="M350,-85C350,-91 344,-97 338,-97"/>
<text text-anchor="middle" x="323" y="-76.5" font-family="Times Roman,serif" font-size="10.00" fill="#314b5f">sprintf</text>
</g>
<!-- PhpDA\\Plugin\\Loader&#45;&gt;sprintf -->
<g id="edge10" class="edge"><title>PhpDA\\Plugin\\Loader&#45;&gt;sprintf</title>
<path fill="none" stroke="#1a2833" d="M116.798,-146.874C146.937,-132.938 190.496,-113.942 230,-101 249.548,-94.5958 271.976,-89.2345 289.908,-85.4082"/>
<polygon fill="#1a2833" stroke="#1a2833" points="290.366,-87.4579 295.807,-84.1701 289.503,-83.3475 290.366,-87.4579"/>
</g>
<!-- ReflectionClass -->
<g id="node9" class="node"><title>ReflectionClass</title>
<polygon fill="#eeeeee" stroke="#eeeeee" points="355,-54 291,-54 279,-42 279,-30 291,-18 355,-18 367,-30 367,-42 355,-54"/>
<path fill="#eeeeee" stroke="#eeeeee" d="M291,-54C285,-54 279,-48 279,-42"/>
<path fill="#eeeeee" stroke="#eeeeee" d="M279,-30C279,-24 285,-18 291,-18"/>
<path fill="#eeeeee" stroke="#eeeeee" d="M355,-18C361,-18 367,-24 367,-30"/>
<path fill="#eeeeee" stroke="#eeeeee" d="M367,-42C367,-48 361,-54 355,-54"/>
<polyline fill="none" stroke="black" points="355,-54 291,-54 "/>
<path fill="none" stroke="black" d="M291,-54C285,-54 279,-48 279,-42"/>
<polyline fill="none" stroke="black" points="279,-42 279,-30 "/>
<path fill="none" stroke="black" d="M279,-30C279,-24 285,-18 291,-18"/>
<polyline fill="none" stroke="black" points="291,-18 355,-18 "/>
<path fill="none" stroke="black" d="M355,-18C361,-18 367,-24 367,-30"/>
<polyline fill="none" stroke="black" points="367,-30 367,-42 "/>
<path fill="none" stroke="black" d="M367,-42C367,-48 361,-54 355,-54"/>
<text text-anchor="middle" x="323" y="-33.5" font-family="Times Roman,serif" font-size="10.00" fill="#314b5f">ReflectionClass</text>
</g>
<!-- PhpDA\\Plugin\\Loader&#45;&gt;ReflectionClass -->
<g id="edge12" class="edge"><title>PhpDA\\Plugin\\Loader&#45;&gt;ReflectionClass</title>
<path fill="none" stroke="#1a2833" d="M99.3957,-146.596C127.013,-122.652 178.761,-81.1521 230,-58 243.362,-51.9625 258.582,-47.4716 272.784,-44.1791"/>
<polygon fill="#1a2833" stroke="#1a2833" points="273.399,-46.1936 278.8,-42.8404 272.487,-42.0939 273.399,-46.1936"/>
</g>
</g>
</svg>
