<?xml version="1.0" encoding="UTF-8" standalone="no"?>
<!DOCTYPE svg PUBLIC "-//W3C//DTD SVG 1.1//EN"
 "http://www.w3.org/Graphics/SVG/1.1/DTD/svg11.dtd">
<!-- Generated by graphviz version 2.26.3 (20100126.1600)
 -->
<!-- Title: G Pages: 1 -->
<svg width="424pt" height="363pt"
 viewBox="0.00 0.00 424.00 363.00" xmlns="http://www.w3.org/2000/svg" xmlns:xlink="http://www.w3.org/1999/xlink">
<g id="graph1" class="graph" transform="scale(1 1) rotate(0) translate(4 359)">
<title>G</title>
<polygon fill="white" stroke="white" points="-4,5 -4,-359 421,-359 421,5 -4,5"/>
<text text-anchor="middle" x="208" y="-6.8" font-family="Times Roman,serif" font-size="8.00">PhpDependencyAnalyse by Marco Muths (dev&#45;master)</text>
<!-- PhpDA\\Plugin\\ConfigurableInterface -->
<g id="node1" class="node"><title>PhpDA\\Plugin\\ConfigurableInterface</title>
<polygon fill="#9999cc" stroke="#9999cc" points="403,-312 243,-312 231,-300 231,-288 243,-276 403,-276 415,-288 415,-300 403,-312"/>
<path fill="#9999cc" stroke="#9999cc" d="M243,-312C237,-312 231,-306 231,-300"/>
<path fill="#9999cc" stroke="#9999cc" d="M231,-288C231,-282 237,-276 243,-276"/>
<path fill="#9999cc" stroke="#9999cc" d="M403,-276C409,-276 415,-282 415,-288"/>
<path fill="#9999cc" stroke="#9999cc" d="M415,-300C415,-306 409,-312 403,-312"/>
<polyline fill="none" stroke="black" points="403,-312 243,-312 "/>
<path fill="none" stroke="black" d="M243,-312C237,-312 231,-306 231,-300"/>
<polyline fill="none" stroke="black" points="231,-300 231,-288 "/>
<path fill="none" stroke="black" d="M231,-288C231,-282 237,-276 243,-276"/>
<polyline fill="none" stroke="black" points="243,-276 403,-276 "/>
<path fill="none" stroke="black" d="M403,-276C409,-276 415,-282 415,-288"/>
<polyline fill="none" stroke="black" points="415,-288 415,-300 "/>
<path fill="none" stroke="black" d="M415,-300C415,-306 409,-312 403,-312"/>
<text text-anchor="middle" x="323" y="-291.5" font-family="Times Roman,serif" font-size="10.00" fill="#000033">PhpDA\Plugin\ConfigurableInterface</text>
</g>
<!-- PhpDA\\Plugin\\LoaderInterface -->
<g id="node2" class="node"><title>PhpDA\\Plugin\\LoaderInterface</title>
<polygon fill="#9999cc" stroke="#9999cc" points="146,-355 12,-355 4.73695e-14,-343 2.36848e-14,-331 12,-319 146,-319 158,-331 158,-343 146,-355"/>
<path fill="#9999cc" stroke="#9999cc" d="M12,-355C6,-355 5.92119e-14,-349 4.73695e-14,-343"/>
<path fill="#9999cc" stroke="#9999cc" d="M2.36848e-14,-331C1.18424e-14,-325 6,-319 12,-319"/>
<path fill="#9999cc" stroke="#9999cc" d="M146,-319C152,-319 158,-325 158,-331"/>
<path fill="#9999cc" stroke="#9999cc" d="M158,-343C158,-349 152,-355 146,-355"/>
<polyline fill="none" stroke="black" points="146,-355 12,-355 "/>
<path fill="none" stroke="black" d="M12,-355C6,-355 5.92119e-14,-349 4.73695e-14,-343"/>
<polyline fill="none" stroke="black" points="4.73695e-14,-343 2.36848e-14,-331 "/>
<path fill="none" stroke="black" d="M2.36848e-14,-331C1.18424e-14,-325 6,-319 12,-319"/>
<polyline fill="none" stroke="black" points="12,-319 146,-319 "/>
<path fill="none" stroke="black" d="M146,-319C152,-319 158,-325 158,-331"/>
<polyline fill="none" stroke="black" points="158,-331 158,-343 "/>
<path fill="none" stroke="black" d="M158,-343C158,-349 152,-355 146,-355"/>
<text text-anchor="middle" x="79" y="-334.5" font-family="Times Roman,serif" font-size="10.00" fill="#000033">PhpDA\Plugin\LoaderInterface</text>
</g>
<!-- RuntimeException -->
<g id="node3" class="node"><title>RuntimeException</title>
<polygon fill="#9999cc" stroke="#9999cc" points="362,-355 284,-355 272,-343 272,-331 284,-319 362,-319 374,-331 374,-343 362,-355"/>
<path fill="#9999cc" stroke="#9999cc" d="M284,-355C278,-355 272,-349 272,-343"/>
<path fill="#9999cc" stroke="#9999cc" d="M272,-331C272,-325 278,-319 284,-319"/>
<path fill="#9999cc" stroke="#9999cc" d="M362,-319C368,-319 374,-325 374,-331"/>
<path fill="#9999cc" stroke="#9999cc" d="M374,-343C374,-349 368,-355 362,-355"/>
<polyline fill="none" stroke="black" points="362,-355 284,-355 "/>
<path fill="none" stroke="black" d="M284,-355C278,-355 272,-349 272,-343"/>
<polyline fill="none" stroke="black" points="272,-343 272,-331 "/>
<path fill="none" stroke="black" d="M272,-331C272,-325 278,-319 284,-319"/>
<polyline fill="none" stroke="black" points="284,-319 362,-319 "/>
<path fill="none" stroke="black" d="M362,-319C368,-319 374,-325 374,-331"/>
<polyline fill="none" stroke="black" points="374,-331 374,-343 "/>
<path fill="none" stroke="black" d="M374,-343C374,-349 368,-355 362,-355"/>
<text text-anchor="middle" x="323" y="-334.5" font-family="Times Roman,serif" font-size="10.00" fill="#000033">RuntimeException</text>
</g>
<!-- PhpDA\\Plugin\\LoaderInterface&#45;&gt;RuntimeException -->
<g id="edge2" class="edge"><title>PhpDA\\Plugin\\LoaderInterface&#45;&gt;RuntimeException</title>
<path fill="none" stroke="#999999" d="M158.22,-337C193.182,-337 233.511,-337 265.521,-337"/>
<polygon fill="#999999" stroke="#999999" points="265.808,-339.1 271.808,-337 265.808,-334.9 265.808,-339.1"/>
</g>
<!-- PhpDA\\Plugin\\FactoryInterface -->
<g id="node4" class="node"><title>PhpDA\\Plugin\\FactoryInterface</title>
<polygon fill="#9999cc" stroke="#9999cc" points="391,-269 255,-269 243,-257 243,-245 255,-233 391,-233 403,-245 403,-257 391,-269"/>
<path fill="#9999cc" stroke="#9999cc" d="M255,-269C249,-269 243,-263 243,-257"/>
<path fill="#9999cc" stroke="#9999cc" d="M243,-245C243,-239 249,-233 255,-233"/>
<path fill="#9999cc" stroke="#9999cc" d="M391,-233C397,-233 403,-239 403,-245"/>
<path fill="#9999cc" stroke="#9999cc" d="M403,-257C403,-263 397,-269 391,-269"/>
<polyline fill="none" stroke="black" points="391,-269 255,-269 "/>
<path fill="none" stroke="black" d="M255,-269C249,-269 243,-263 243,-257"/>
<polyline fill="none" stroke="black" points="243,-257 243,-245 "/>
<path fill="none" stroke="black" d="M243,-245C243,-239 249,-233 255,-233"/>
<polyline fill="none" stroke="black" points="255,-233 391,-233 "/>
<path fill="none" stroke="black" d="M391,-233C397,-233 403,-239 403,-245"/>
<polyline fill="none" stroke="black" points="403,-245 403,-257 "/>
<path fill="none" stroke="black" d="M403,-257C403,-263 397,-269 391,-269"/>
<text text-anchor="middle" x="323" y="-248.5" font-family="Times Roman,serif" font-size="10.00" fill="#000033">PhpDA\Plugin\FactoryInterface</text>
</g>
<!-- PhpDA\\Plugin\\Loader -->
<g id="node5" class="node"><title>PhpDA\\Plugin\\Loader</title>
<polygon fill="#9999cc" stroke="#9999cc" points="125,-204 33,-204 21,-192 21,-180 33,-168 125,-168 137,-180 137,-192 125,-204"/>
<path fill="#9999cc" stroke="#9999cc" d="M33,-204C27,-204 21,-198 21,-192"/>
<path fill="#9999cc" stroke="#9999cc" d="M21,-180C21,-174 27,-168 33,-168"/>
<path fill="#9999cc" stroke="#9999cc" d="M125,-168C131,-168 137,-174 137,-180"/>
<path fill="#9999cc" stroke="#9999cc" d="M137,-192C137,-198 131,-204 125,-204"/>
<polyline fill="none" stroke="black" points="125,-204 33,-204 "/>
<path fill="none" stroke="black" d="M33,-204C27,-204 21,-198 21,-192"/>
<polyline fill="none" stroke="black" points="21,-192 21,-180 "/>
<path fill="none" stroke="black" d="M21,-180C21,-174 27,-168 33,-168"/>
<polyline fill="none" stroke="black" points="33,-168 125,-168 "/>
<path fill="none" stroke="black" d="M125,-168C131,-168 137,-174 137,-180"/>
<polyline fill="none" stroke="black" points="137,-180 137,-192 "/>
<path fill="none" stroke="black" d="M137,-192C137,-198 131,-204 125,-204"/>
<text text-anchor="middle" x="79" y="-183.5" font-family="Times Roman,serif" font-size="10.00" fill="#000033">PhpDA\Plugin\Loader</text>
</g>
<!-- PhpDA\\Plugin\\Loader&#45;&gt;PhpDA\\Plugin\\ConfigurableInterface -->
<g id="edge18" class="edge"><title>PhpDA\\Plugin\\Loader&#45;&gt;PhpDA\\Plugin\\ConfigurableInterface</title>
<path fill="none" stroke="#999999" d="M105.383,-204.139C134.64,-223.496 183.821,-253.823 230,-272 231.664,-272.655 233.354,-273.294 235.063,-273.917"/>
<polygon fill="#999999" stroke="#999999" points="234.585,-275.975 240.942,-275.974 235.972,-272.01 234.585,-275.975"/>
</g>
<!-- PhpDA\\Plugin\\Loader&#45;&gt;RuntimeException -->
<g id="edge12" class="edge"><title>PhpDA\\Plugin\\Loader&#45;&gt;RuntimeException</title>
<path fill="none" stroke="#999999" d="M94.6893,-204.059C120.171,-232.208 173.427,-286.289 230,-315 241.062,-320.614 253.595,-324.825 265.796,-327.974"/>
<polygon fill="#999999" stroke="#999999" points="265.423,-330.045 271.751,-329.436 266.425,-325.966 265.423,-330.045"/>
</g>
<!-- PhpDA\\Plugin\\Loader&#45;&gt;PhpDA\\Plugin\\FactoryInterface -->
<g id="edge6" class="edge"><title>PhpDA\\Plugin\\Loader&#45;&gt;PhpDA\\Plugin\\FactoryInterface</title>
<path fill="none" stroke="#999999" d="M137.273,-203.258C165.238,-211.37 199.271,-220.994 230,-229 233.161,-229.823 236.386,-230.65 239.646,-231.475"/>
<polygon fill="#999999" stroke="#999999" points="239.215,-233.532 245.546,-232.957 240.238,-229.459 239.215,-233.532"/>
</g>
<!-- Psr\\Log\\LoggerInterface -->
<g id="node6" class="node"><title>Psr\\Log\\LoggerInterface</title>
<polygon fill="#9999cc" stroke="#9999cc" points="376,-226 270,-226 258,-214 258,-202 270,-190 376,-190 388,-202 388,-214 376,-226"/>
<path fill="#9999cc" stroke="#9999cc" d="M270,-226C264,-226 258,-220 258,-214"/>
<path fill="#9999cc" stroke="#9999cc" d="M258,-202C258,-196 264,-190 270,-190"/>
<path fill="#9999cc" stroke="#9999cc" d="M376,-190C382,-190 388,-196 388,-202"/>
<path fill="#9999cc" stroke="#9999cc" d="M388,-214C388,-220 382,-226 376,-226"/>
<polyline fill="none" stroke="black" points="376,-226 270,-226 "/>
<path fill="none" stroke="black" d="M270,-226C264,-226 258,-220 258,-214"/>
<polyline fill="none" stroke="black" points="258,-214 258,-202 "/>
<path fill="none" stroke="black" d="M258,-202C258,-196 264,-190 270,-190"/>
<polyline fill="none" stroke="black" points="270,-190 376,-190 "/>
<path fill="none" stroke="black" d="M376,-190C382,-190 388,-196 388,-202"/>
<polyline fill="none" stroke="black" points="388,-202 388,-214 "/>
<path fill="none" stroke="black" d="M388,-214C388,-220 382,-226 376,-226"/>
<text text-anchor="middle" x="323" y="-205.5" font-family="Times Roman,serif" font-size="10.00" fill="#000033">Psr\Log\LoggerInterface</text>
</g>
<!-- PhpDA\\Plugin\\Loader&#45;&gt;Psr\\Log\\LoggerInterface -->
<g id="edge4" class="edge"><title>PhpDA\\Plugin\\Loader&#45;&gt;Psr\\Log\\LoggerInterface</title>
<path fill="none" stroke="#999999" d="M137.134,-191.242C171.379,-194.329 214.974,-198.26 251.335,-201.538"/>
<polygon fill="#999999" stroke="#999999" points="251.405,-203.653 257.569,-202.101 251.782,-199.47 251.405,-203.653"/>
</g>
<!-- is_array -->
<g id="node7" class="node"><title>is_array</title>
<polygon fill="#9999cc" stroke="#9999cc" points="338,-183 308,-183 296,-171 296,-159 308,-147 338,-147 350,-159 350,-171 338,-183"/>
<path fill="#9999cc" stroke="#9999cc" d="M308,-183C302,-183 296,-177 296,-171"/>
<path fill="#9999cc" stroke="#9999cc" d="M296,-159C296,-153 302,-147 308,-147"/>
<path fill="#9999cc" stroke="#9999cc" d="M338,-147C344,-147 350,-153 350,-159"/>
<path fill="#9999cc" stroke="#9999cc" d="M350,-171C350,-177 344,-183 338,-183"/>
<polyline fill="none" stroke="black" points="338,-183 308,-183 "/>
<path fill="none" stroke="black" d="M308,-183C302,-183 296,-177 296,-171"/>
<polyline fill="none" stroke="black" points="296,-171 296,-159 "/>
<path fill="none" stroke="black" d="M296,-159C296,-153 302,-147 308,-147"/>
<polyline fill="none" stroke="black" points="308,-147 338,-147 "/>
<path fill="none" stroke="black" d="M338,-147C344,-147 350,-153 350,-159"/>
<polyline fill="none" stroke="black" points="350,-159 350,-171 "/>
<path fill="none" stroke="black" d="M350,-171C350,-177 344,-183 338,-183"/>
<text text-anchor="middle" x="323" y="-162.5" font-family="Times Roman,serif" font-size="10.00" fill="#000033">is_array</text>
</g>
<!-- PhpDA\\Plugin\\Loader&#45;&gt;is_array -->
<g id="edge8" class="edge"><title>PhpDA\\Plugin\\Loader&#45;&gt;is_array</title>
<path fill="none" stroke="#999999" d="M137.134,-180.997C184.767,-176.897 250.488,-171.241 289.672,-167.868"/>
<polygon fill="#999999" stroke="#999999" points="289.928,-169.954 295.726,-167.347 289.568,-165.77 289.928,-169.954"/>
</g>
<!-- class_exists -->
<g id="node8" class="node"><title>class_exists</title>
<polygon fill="#9999cc" stroke="#9999cc" points="348,-140 298,-140 286,-128 286,-116 298,-104 348,-104 360,-116 360,-128 348,-140"/>
<path fill="#9999cc" stroke="#9999cc" d="M298,-140C292,-140 286,-134 286,-128"/>
<path fill="#9999cc" stroke="#9999cc" d="M286,-116C286,-110 292,-104 298,-104"/>
<path fill="#9999cc" stroke="#9999cc" d="M348,-104C354,-104 360,-110 360,-116"/>
<path fill="#9999cc" stroke="#9999cc" d="M360,-128C360,-134 354,-140 348,-140"/>
<polyline fill="none" stroke="black" points="348,-140 298,-140 "/>
<path fill="none" stroke="black" d="M298,-140C292,-140 286,-134 286,-128"/>
<polyline fill="none" stroke="black" points="286,-128 286,-116 "/>
<path fill="none" stroke="black" d="M286,-116C286,-110 292,-104 298,-104"/>
<polyline fill="none" stroke="black" points="298,-104 348,-104 "/>
<path fill="none" stroke="black" d="M348,-104C354,-104 360,-110 360,-116"/>
<polyline fill="none" stroke="black" points="360,-116 360,-128 "/>
<path fill="none" stroke="black" d="M360,-128C360,-134 354,-140 348,-140"/>
<text text-anchor="middle" x="323" y="-119.5" font-family="Times Roman,serif" font-size="10.00" fill="#000033">class_exists</text>
</g>
<!-- PhpDA\\Plugin\\Loader&#45;&gt;class_exists -->
<g id="edge10" class="edge"><title>PhpDA\\Plugin\\Loader&#45;&gt;class_exists</title>
<path fill="none" stroke="#999999" d="M137.299,-169.213C165.27,-161.305 199.299,-151.898 230,-144 246.171,-139.84 264.001,-135.551 279.686,-131.877"/>
<polygon fill="#999999" stroke="#999999" points="280.444,-133.856 285.81,-130.448 279.489,-129.766 280.444,-133.856"/>
</g>
<!-- sprintf -->
<g id="node9" class="node"><title>sprintf</title>
<polygon fill="#9999cc" stroke="#9999cc" points="338,-97 308,-97 296,-85 296,-73 308,-61 338,-61 350,-73 350,-85 338,-97"/>
<path fill="#9999cc" stroke="#9999cc" d="M308,-97C302,-97 296,-91 296,-85"/>
<path fill="#9999cc" stroke="#9999cc" d="M296,-73C296,-67 302,-61 308,-61"/>
<path fill="#9999cc" stroke="#9999cc" d="M338,-61C344,-61 350,-67 350,-73"/>
<path fill="#9999cc" stroke="#9999cc" d="M350,-85C350,-91 344,-97 338,-97"/>
<polyline fill="none" stroke="black" points="338,-97 308,-97 "/>
<path fill="none" stroke="black" d="M308,-97C302,-97 296,-91 296,-85"/>
<polyline fill="none" stroke="black" points="296,-85 296,-73 "/>
<path fill="none" stroke="black" d="M296,-73C296,-67 302,-61 308,-61"/>
<polyline fill="none" stroke="black" points="308,-61 338,-61 "/>
<path fill="none" stroke="black" d="M338,-61C344,-61 350,-67 350,-73"/>
<polyline fill="none" stroke="black" points="350,-73 350,-85 "/>
<path fill="none" stroke="black" d="M350,-85C350,-91 344,-97 338,-97"/>
<text text-anchor="middle" x="323" y="-76.5" font-family="Times Roman,serif" font-size="10.00" fill="#000033">sprintf</text>
</g>
<!-- PhpDA\\Plugin\\Loader&#45;&gt;sprintf -->
<g id="edge14" class="edge"><title>PhpDA\\Plugin\\Loader&#45;&gt;sprintf</title>
<path fill="none" stroke="#999999" d="M105.684,-167.914C135.001,-148.79 184.047,-118.956 230,-101 249.299,-93.4592 271.9,-88.0402 289.989,-84.4673"/>
<polygon fill="#999999" stroke="#999999" points="290.443,-86.5187 295.94,-83.326 289.652,-82.3939 290.443,-86.5187"/>
</g>
<!-- ReflectionClass -->
<g id="node10" class="node"><title>ReflectionClass</title>
<polygon fill="#9999cc" stroke="#9999cc" points="355,-54 291,-54 279,-42 279,-30 291,-18 355,-18 367,-30 367,-42 355,-54"/>
<path fill="#9999cc" stroke="#9999cc" d="M291,-54C285,-54 279,-48 279,-42"/>
<path fill="#9999cc" stroke="#9999cc" d="M279,-30C279,-24 285,-18 291,-18"/>
<path fill="#9999cc" stroke="#9999cc" d="M355,-18C361,-18 367,-24 367,-30"/>
<path fill="#9999cc" stroke="#9999cc" d="M367,-42C367,-48 361,-54 355,-54"/>
<polyline fill="none" stroke="black" points="355,-54 291,-54 "/>
<path fill="none" stroke="black" d="M291,-54C285,-54 279,-48 279,-42"/>
<polyline fill="none" stroke="black" points="279,-42 279,-30 "/>
<path fill="none" stroke="black" d="M279,-30C279,-24 285,-18 291,-18"/>
<polyline fill="none" stroke="black" points="291,-18 355,-18 "/>
<path fill="none" stroke="black" d="M355,-18C361,-18 367,-24 367,-30"/>
<polyline fill="none" stroke="black" points="367,-30 367,-42 "/>
<path fill="none" stroke="black" d="M367,-42C367,-48 361,-54 355,-54"/>
<text text-anchor="middle" x="323" y="-33.5" font-family="Times Roman,serif" font-size="10.00" fill="#000033">ReflectionClass</text>
</g>
<!-- PhpDA\\Plugin\\Loader&#45;&gt;ReflectionClass -->
<g id="edge16" class="edge"><title>PhpDA\\Plugin\\Loader&#45;&gt;ReflectionClass</title>
<path fill="none" stroke="#999999" d="M95.1387,-167.628C120.823,-139.579 173.864,-86.3544 230,-58 243.217,-51.3239 258.523,-46.6288 272.853,-43.3449"/>
<polygon fill="#999999" stroke="#999999" points="273.51,-45.351 278.926,-42.0222 272.617,-41.2472 273.51,-45.351"/>
</g>
</g>
</svg>
