<?xml version="1.0" encoding="UTF-8" standalone="no"?>
<!DOCTYPE svg PUBLIC "-//W3C//DTD SVG 1.1//EN"
 "http://www.w3.org/Graphics/SVG/1.1/DTD/svg11.dtd">
<!-- Generated by graphviz version 2.26.3 (20100126.1600)
 -->
<!-- Title: G Pages: 1 -->
<svg width="413pt" height="378pt"
 viewBox="0.00 0.00 413.00 378.00" xmlns="http://www.w3.org/2000/svg" xmlns:xlink="http://www.w3.org/1999/xlink">
<g id="graph1" class="graph" transform="scale(1 1) rotate(0) translate(4 374)">
<title>G</title>
<polygon fill="white" stroke="white" points="-4,5 -4,-374 410,-374 410,5 -4,5"/>
<!-- PhpDA\\Plugin\\ConfigurableInterface -->
<g id="node1" class="node"><title>PhpDA\\Plugin\\ConfigurableInterface</title>
<ellipse fill="#eeeeee" stroke="black" cx="90" cy="-91" rx="90.1138" ry="90.6144"/>
<text text-anchor="middle" x="90" y="-88.5" font-family="Times Roman,serif" font-size="10.00" fill="#314b5f">PhpDA\Plugin\ConfigurableInterface</text>
</g>
<!-- PhpDA\\Plugin\\LoaderInterface -->
<g id="node2" class="node"><title>PhpDA\\Plugin\\LoaderInterface</title>
<ellipse fill="#eeeeee" stroke="black" cx="329" cy="-294" rx="76.1375" ry="76.1375"/>
<text text-anchor="middle" x="329" y="-291.5" font-family="Times Roman,serif" font-size="10.00" fill="#314b5f">PhpDA\Plugin\LoaderInterface</text>
</g>
<!-- PhpDA\\Plugin\\FactoryInterface -->
<g id="node3" class="node"><title>PhpDA\\Plugin\\FactoryInterface</title>
<ellipse fill="#eeeeee" stroke="black" cx="275" cy="-91" rx="77.2099" ry="77.2099"/>
<text text-anchor="middle" x="275" y="-88.5" font-family="Times Roman,serif" font-size="10.00" fill="#314b5f">PhpDA\Plugin\FactoryInterface</text>
</g>
<!-- PhpDA\\Plugin\\Loader -->
<g id="node4" class="node"><title>PhpDA\\Plugin\\Loader</title>
<ellipse fill="#eeeeee" stroke="black" cx="182" cy="-294" rx="53.1169" ry="53.618"/>
<text text-anchor="middle" x="182" y="-291.5" font-family="Times Roman,serif" font-size="10.00" fill="#314b5f">PhpDA\Plugin\Loader</text>
</g>
<!-- PhpDA\\Plugin\\Loader&#45;&gt;PhpDA\\Plugin\\ConfigurableInterface -->
<g id="edge4" class="edge"><title>PhpDA\\Plugin\\Loader&#45;&gt;PhpDA\\Plugin\\ConfigurableInterface</title>
<path fill="none" stroke="#1a2833" d="M159.847,-245.118C150.877,-225.326 140.235,-201.844 129.997,-179.253"/>
<polygon fill="#1a2833" stroke="#1a2833" points="131.793,-178.13 127.404,-173.532 127.968,-179.864 131.793,-178.13"/>
</g>
<!-- PhpDA\\Plugin\\Loader&#45;&gt;PhpDA\\Plugin\\FactoryInterface -->
<g id="edge2" class="edge"><title>PhpDA\\Plugin\\Loader&#45;&gt;PhpDA\\Plugin\\FactoryInterface</title>
<path fill="none" stroke="#1a2833" d="M204.276,-245.376C215.062,-221.832 228.261,-193.022 240.323,-166.693"/>
<polygon fill="#1a2833" stroke="#1a2833" points="242.288,-167.445 242.878,-161.115 238.47,-165.695 242.288,-167.445"/>
</g>
</g>
</svg>
