<?xml version="1.0" encoding="UTF-8" standalone="no"?>
<!DOCTYPE svg PUBLIC "-//W3C//DTD SVG 1.1//EN"
 "http://www.w3.org/Graphics/SVG/1.1/DTD/svg11.dtd">
<!-- Generated by graphviz version 2.26.3 (20100126.1600)
 -->
<!-- Title: G Pages: 1 -->
<svg width="1292pt" height="120pt"
 viewBox="0.00 0.00 1292.00 120.00" xmlns="http://www.w3.org/2000/svg" xmlns:xlink="http://www.w3.org/1999/xlink">
<g id="graph1" class="graph" transform="scale(1 1) rotate(0) translate(4 116)">
<title>G</title>
<polygon fill="white" stroke="white" points="-4,5 -4,-116 1289,-116 1289,5 -4,5"/>
<!-- PackageA\\Service\\Command -->
<g id="node1" class="node"><title>PackageA\\Service\\Command</title>
<ellipse fill="none" stroke="black" cx="839" cy="-93" rx="149.2" ry="18.3848"/>
<text text-anchor="middle" x="839" y="-89.4" font-family="Times Roman,serif" font-size="14.00">PackageA\Service\Command</text>
</g>
<!-- PackageA\\Service\\AbstractService -->
<g id="node3" class="node"><title>PackageA\\Service\\AbstractService</title>
<ellipse fill="none" stroke="black" cx="177" cy="-19" rx="176.777" ry="18.3848"/>
<text text-anchor="middle" x="177" y="-15.4" font-family="Times Roman,serif" font-size="14.00">PackageA\Service\AbstractService</text>
</g>
<!-- PackageA\\Service\\Command&#45;&gt;PackageA\\Service\\AbstractService -->
<g id="edge2" class="edge"><title>PackageA\\Service\\Command&#45;&gt;PackageA\\Service\\AbstractService</title>
<path fill="none" stroke="black" d="M728.196,-80.6141C612.469,-67.6778 431.018,-47.3948 308.205,-33.6664"/>
<polygon fill="black" stroke="black" points="308.316,-30.1571 297.989,-32.5244 307.538,-37.1137 308.316,-30.1571"/>
</g>
<!-- PackageA\\Mapper\\CommandInterface -->
<g id="node5" class="node"><title>PackageA\\Mapper\\CommandInterface</title>
<ellipse fill="none" stroke="black" cx="565" cy="-19" rx="193.04" ry="18.3848"/>
<text text-anchor="middle" x="565" y="-15.4" font-family="Times Roman,serif" font-size="14.00">PackageA\Mapper\CommandInterface</text>
</g>
<!-- PackageA\\Service\\Command&#45;&gt;PackageA\\Mapper\\CommandInterface -->
<g id="edge4" class="edge"><title>PackageA\\Service\\Command&#45;&gt;PackageA\\Mapper\\CommandInterface</title>
<path fill="none" stroke="black" d="M776.482,-76.1157C735.746,-65.114 682.388,-50.7033 639.46,-39.1096"/>
<polygon fill="black" stroke="black" points="640.196,-35.683 629.629,-36.4546 638.371,-42.4409 640.196,-35.683"/>
</g>
<!-- array_map -->
<g id="node7" class="node"><title>array_map</title>
<ellipse fill="none" stroke="black" cx="839" cy="-19" rx="63.1385" ry="18.3848"/>
<text text-anchor="middle" x="839" y="-15.4" font-family="Times Roman,serif" font-size="14.00">array_map</text>
</g>
<!-- PackageA\\Service\\Command&#45;&gt;array_map -->
<g id="edge6" class="edge"><title>PackageA\\Service\\Command&#45;&gt;array_map</title>
<path fill="none" stroke="black" d="M839,-74.3267C839,-66.2639 839,-56.6477 839,-47.7115"/>
<polygon fill="black" stroke="black" points="842.5,-47.6673 839,-37.6674 835.5,-47.6674 842.5,-47.6673"/>
</g>
<!-- PackageA\\Entity\\Package -->
<g id="node9" class="node"><title>PackageA\\Entity\\Package</title>
<ellipse fill="none" stroke="black" cx="1054" cy="-19" rx="133.851" ry="18.3848"/>
<text text-anchor="middle" x="1054" y="-15.4" font-family="Times Roman,serif" font-size="14.00">PackageA\Entity\Package</text>
</g>
<!-- PackageA\\Service\\Command&#45;&gt;PackageA\\Entity\\Package -->
<g id="edge8" class="edge"><title>PackageA\\Service\\Command&#45;&gt;PackageA\\Entity\\Package</title>
<path fill="none" stroke="black" d="M889.68,-75.5567C921.092,-64.7451 961.587,-50.8071 994.517,-39.4732"/>
<polygon fill="black" stroke="black" points="995.715,-42.7624 1004.03,-36.1984 993.437,-36.1435 995.715,-42.7624"/>
</g>
<!-- intval -->
<g id="node11" class="node"><title>intval</title>
<ellipse fill="none" stroke="black" cx="1245" cy="-19" rx="39.0967" ry="18.3848"/>
<text text-anchor="middle" x="1245" y="-15.4" font-family="Times Roman,serif" font-size="14.00">intval</text>
</g>
<!-- PackageA\\Service\\Command&#45;&gt;intval -->
<g id="edge10" class="edge"><title>PackageA\\Service\\Command&#45;&gt;intval</title>
<path fill="none" stroke="black" d="M956.872,-81.6367C1027.36,-73.1801 1118.25,-59.3434 1197,-38 1200.16,-37.1442 1203.39,-36.1463 1206.61,-35.064"/>
<polygon fill="black" stroke="black" points="1207.94,-38.3053 1216.16,-31.6225 1205.57,-31.7197 1207.94,-38.3053"/>
</g>
</g>
</svg>
