<?xml version="1.0" encoding="UTF-8" standalone="no"?>
<!DOCTYPE svg PUBLIC "-//W3C//DTD SVG 1.1//EN"
 "http://www.w3.org/Graphics/SVG/1.1/DTD/svg11.dtd">
<!-- Generated by graphviz version 2.26.3 (20100126.1600)
 -->
<!-- Title: G Pages: 1 -->
<svg width="434pt" height="234pt"
 viewBox="0.00 0.00 434.00 234.00" xmlns="http://www.w3.org/2000/svg" xmlns:xlink="http://www.w3.org/1999/xlink">
<g id="graph1" class="graph" transform="scale(1 1) rotate(0) translate(4 230)">
<title>G</title>
<polygon fill="white" stroke="white" points="-4,5 -4,-230 431,-230 431,5 -4,5"/>
<text text-anchor="middle" x="213" y="-6.8" font-family="Times Roman,serif" font-size="8.00">PhpDependencyAnalyse by Marco Muths (dev&#45;master)</text>
<!-- PackageA\\Service\\Command -->
<g id="node1" class="node"><title>PackageA\\Service\\Command</title>
<polygon fill="#9999cc" stroke="#9999cc" points="143,-140 13,-140 1,-128 1,-116 13,-104 143,-104 155,-116 155,-128 143,-140"/>
<path fill="#9999cc" stroke="#9999cc" d="M13,-140C7,-140 1,-134 1,-128"/>
<path fill="#9999cc" stroke="#9999cc" d="M1,-116C1,-110 7,-104 13,-104"/>
<path fill="#9999cc" stroke="#9999cc" d="M143,-104C149,-104 155,-110 155,-116"/>
<path fill="#9999cc" stroke="#9999cc" d="M155,-128C155,-134 149,-140 143,-140"/>
<polyline fill="none" stroke="black" points="143,-140 13,-140 "/>
<path fill="none" stroke="black" d="M13,-140C7,-140 1,-134 1,-128"/>
<polyline fill="none" stroke="black" points="1,-128 1,-116 "/>
<path fill="none" stroke="black" d="M1,-116C1,-110 7,-104 13,-104"/>
<polyline fill="none" stroke="black" points="13,-104 143,-104 "/>
<path fill="none" stroke="black" d="M143,-104C149,-104 155,-110 155,-116"/>
<polyline fill="none" stroke="black" points="155,-116 155,-128 "/>
<path fill="none" stroke="black" d="M155,-128C155,-134 149,-140 143,-140"/>
<text text-anchor="middle" x="78" y="-119.5" font-family="Times Roman,serif" font-size="10.00" fill="#000033">PackageA\Service\Command</text>
</g>
<!-- PackageA\\Service\\AbstractService -->
<g id="node2" class="node"><title>PackageA\\Service\\AbstractService</title>
<polygon fill="#9999cc" stroke="#9999cc" points="405,-226 249,-226 237,-214 237,-202 249,-190 405,-190 417,-202 417,-214 405,-226"/>
<path fill="#9999cc" stroke="#9999cc" d="M249,-226C243,-226 237,-220 237,-214"/>
<path fill="#9999cc" stroke="#9999cc" d="M237,-202C237,-196 243,-190 249,-190"/>
<path fill="#9999cc" stroke="#9999cc" d="M405,-190C411,-190 417,-196 417,-202"/>
<path fill="#9999cc" stroke="#9999cc" d="M417,-214C417,-220 411,-226 405,-226"/>
<polyline fill="none" stroke="black" points="405,-226 249,-226 "/>
<path fill="none" stroke="black" d="M249,-226C243,-226 237,-220 237,-214"/>
<polyline fill="none" stroke="black" points="237,-214 237,-202 "/>
<path fill="none" stroke="black" d="M237,-202C237,-196 243,-190 249,-190"/>
<polyline fill="none" stroke="black" points="249,-190 405,-190 "/>
<path fill="none" stroke="black" d="M405,-190C411,-190 417,-196 417,-202"/>
<polyline fill="none" stroke="black" points="417,-202 417,-214 "/>
<path fill="none" stroke="black" d="M417,-214C417,-220 411,-226 405,-226"/>
<text text-anchor="middle" x="327" y="-205.5" font-family="Times Roman,serif" font-size="10.00" fill="#000033">PackageA\Service\AbstractService</text>
</g>
<!-- PackageA\\Service\\Command&#45;&gt;PackageA\\Service\\AbstractService -->
<g id="edge2" class="edge"><title>PackageA\\Service\\Command&#45;&gt;PackageA\\Service\\AbstractService</title>
<path fill="none" stroke="#999999" stroke-dasharray="5,2" d="M114.873,-140.001C144.799,-154.053 188.376,-173.265 228,-186 230.404,-186.773 232.85,-187.528 235.325,-188.265"/>
<polygon fill="#999999" stroke="#999999" points="234.799,-190.299 241.147,-189.953 235.969,-186.265 234.799,-190.299"/>
</g>
<!-- PackageA\\Mapper\\CommandInterface -->
<g id="node3" class="node"><title>PackageA\\Mapper\\CommandInterface</title>
<polygon fill="#9999cc" stroke="#9999cc" points="413,-183 241,-183 229,-171 229,-159 241,-147 413,-147 425,-159 425,-171 413,-183"/>
<path fill="#9999cc" stroke="#9999cc" d="M241,-183C235,-183 229,-177 229,-171"/>
<path fill="#9999cc" stroke="#9999cc" d="M229,-159C229,-153 235,-147 241,-147"/>
<path fill="#9999cc" stroke="#9999cc" d="M413,-147C419,-147 425,-153 425,-159"/>
<path fill="#9999cc" stroke="#9999cc" d="M425,-171C425,-177 419,-183 413,-183"/>
<polyline fill="none" stroke="black" points="413,-183 241,-183 "/>
<path fill="none" stroke="black" d="M241,-183C235,-183 229,-177 229,-171"/>
<polyline fill="none" stroke="black" points="229,-171 229,-159 "/>
<path fill="none" stroke="black" d="M229,-159C229,-153 235,-147 241,-147"/>
<polyline fill="none" stroke="black" points="241,-147 413,-147 "/>
<path fill="none" stroke="black" d="M413,-147C419,-147 425,-153 425,-159"/>
<polyline fill="none" stroke="black" points="425,-159 425,-171 "/>
<path fill="none" stroke="black" d="M425,-171C425,-177 419,-183 413,-183"/>
<text text-anchor="middle" x="327" y="-162.5" font-family="Times Roman,serif" font-size="10.00" fill="#000033">PackageA\Mapper\CommandInterface</text>
</g>
<!-- PackageA\\Service\\Command&#45;&gt;PackageA\\Mapper\\CommandInterface -->
<g id="edge4" class="edge"><title>PackageA\\Service\\Command&#45;&gt;PackageA\\Mapper\\CommandInterface</title>
<path fill="none" stroke="#999999" d="M155.761,-135.429C176.85,-139.071 200.032,-143.074 222.342,-146.927"/>
<polygon fill="#999999" stroke="#999999" points="222.03,-149.004 228.3,-147.955 222.745,-144.865 222.03,-149.004"/>
</g>
<!-- array_map -->
<g id="node4" class="node"><title>array_map</title>
<polygon fill="#9999cc" stroke="#9999cc" points="349,-140 305,-140 293,-128 293,-116 305,-104 349,-104 361,-116 361,-128 349,-140"/>
<path fill="#9999cc" stroke="#9999cc" d="M305,-140C299,-140 293,-134 293,-128"/>
<path fill="#9999cc" stroke="#9999cc" d="M293,-116C293,-110 299,-104 305,-104"/>
<path fill="#9999cc" stroke="#9999cc" d="M349,-104C355,-104 361,-110 361,-116"/>
<path fill="#9999cc" stroke="#9999cc" d="M361,-128C361,-134 355,-140 349,-140"/>
<polyline fill="none" stroke="black" points="349,-140 305,-140 "/>
<path fill="none" stroke="black" d="M305,-140C299,-140 293,-134 293,-128"/>
<polyline fill="none" stroke="black" points="293,-128 293,-116 "/>
<path fill="none" stroke="black" d="M293,-116C293,-110 299,-104 305,-104"/>
<polyline fill="none" stroke="black" points="305,-104 349,-104 "/>
<path fill="none" stroke="black" d="M349,-104C355,-104 361,-110 361,-116"/>
<polyline fill="none" stroke="black" points="361,-116 361,-128 "/>
<path fill="none" stroke="black" d="M361,-128C361,-134 355,-140 349,-140"/>
<text text-anchor="middle" x="327" y="-119.5" font-family="Times Roman,serif" font-size="10.00" fill="#000033">array_map</text>
</g>
<!-- PackageA\\Service\\Command&#45;&gt;array_map -->
<g id="edge6" class="edge"><title>PackageA\\Service\\Command&#45;&gt;array_map</title>
<path fill="none" stroke="#999999" d="M155.761,-122C199.016,-122 251.077,-122 286.354,-122"/>
<polygon fill="#999999" stroke="#999999" points="286.74,-124.1 292.74,-122 286.74,-119.9 286.74,-124.1"/>
</g>
<!-- PackageA\\Entity\\Package -->
<g id="node5" class="node"><title>PackageA\\Entity\\Package</title>
<polygon fill="#9999cc" stroke="#9999cc" points="383,-97 271,-97 259,-85 259,-73 271,-61 383,-61 395,-73 395,-85 383,-97"/>
<path fill="#9999cc" stroke="#9999cc" d="M271,-97C265,-97 259,-91 259,-85"/>
<path fill="#9999cc" stroke="#9999cc" d="M259,-73C259,-67 265,-61 271,-61"/>
<path fill="#9999cc" stroke="#9999cc" d="M383,-61C389,-61 395,-67 395,-73"/>
<path fill="#9999cc" stroke="#9999cc" d="M395,-85C395,-91 389,-97 383,-97"/>
<polyline fill="none" stroke="black" points="383,-97 271,-97 "/>
<path fill="none" stroke="black" d="M271,-97C265,-97 259,-91 259,-85"/>
<polyline fill="none" stroke="black" points="259,-85 259,-73 "/>
<path fill="none" stroke="black" d="M259,-73C259,-67 265,-61 271,-61"/>
<polyline fill="none" stroke="black" points="271,-61 383,-61 "/>
<path fill="none" stroke="black" d="M383,-61C389,-61 395,-67 395,-73"/>
<polyline fill="none" stroke="black" points="395,-73 395,-85 "/>
<path fill="none" stroke="black" d="M395,-85C395,-91 389,-97 383,-97"/>
<text text-anchor="middle" x="327" y="-76.5" font-family="Times Roman,serif" font-size="10.00" fill="#000033">PackageA\Entity\Package</text>
</g>
<!-- PackageA\\Service\\Command&#45;&gt;PackageA\\Entity\\Package -->
<g id="edge8" class="edge"><title>PackageA\\Service\\Command&#45;&gt;PackageA\\Entity\\Package</title>
<path fill="none" stroke="#999999" d="M155.761,-108.571C186.663,-103.235 222.06,-97.1222 252.62,-91.8448"/>
<polygon fill="#999999" stroke="#999999" points="253.109,-93.8914 258.664,-90.8009 252.395,-89.7527 253.109,-93.8914"/>
</g>
<!-- intval -->
<g id="node6" class="node"><title>intval</title>
<polygon fill="#9999cc" stroke="#9999cc" points="342,-54 312,-54 300,-42 300,-30 312,-18 342,-18 354,-30 354,-42 342,-54"/>
<path fill="#9999cc" stroke="#9999cc" d="M312,-54C306,-54 300,-48 300,-42"/>
<path fill="#9999cc" stroke="#9999cc" d="M300,-30C300,-24 306,-18 312,-18"/>
<path fill="#9999cc" stroke="#9999cc" d="M342,-18C348,-18 354,-24 354,-30"/>
<path fill="#9999cc" stroke="#9999cc" d="M354,-42C354,-48 348,-54 342,-54"/>
<polyline fill="none" stroke="black" points="342,-54 312,-54 "/>
<path fill="none" stroke="black" d="M312,-54C306,-54 300,-48 300,-42"/>
<polyline fill="none" stroke="black" points="300,-42 300,-30 "/>
<path fill="none" stroke="black" d="M300,-30C300,-24 306,-18 312,-18"/>
<polyline fill="none" stroke="black" points="312,-18 342,-18 "/>
<path fill="none" stroke="black" d="M342,-18C348,-18 354,-24 354,-30"/>
<polyline fill="none" stroke="black" points="354,-30 354,-42 "/>
<path fill="none" stroke="black" d="M354,-42C354,-48 348,-54 342,-54"/>
<text text-anchor="middle" x="327" y="-33.5" font-family="Times Roman,serif" font-size="10.00" fill="#000033">intval</text>
</g>
<!-- PackageA\\Service\\Command&#45;&gt;intval -->
<g id="edge10" class="edge"><title>PackageA\\Service\\Command&#45;&gt;intval</title>
<path fill="none" stroke="#999999" d="M114.873,-103.999C144.799,-89.9474 188.376,-70.7352 228,-58 249.478,-51.0969 274.257,-45.5927 293.652,-41.8163"/>
<polygon fill="#999999" stroke="#999999" points="294.25,-43.8402 299.749,-40.6513 293.461,-39.7148 294.25,-43.8402"/>
</g>
</g>
</svg>
