<?xml version="1.0" encoding="UTF-8" standalone="no"?>
<!DOCTYPE svg PUBLIC "-//W3C//DTD SVG 1.1//EN"
 "http://www.w3.org/Graphics/SVG/1.1/DTD/svg11.dtd">
<!-- Generated by graphviz version 2.26.3 (20100126.1600)
 -->
<!-- Title: G Pages: 1 -->
<svg width="670pt" height="388pt"
 viewBox="0.00 0.00 670.00 388.00" xmlns="http://www.w3.org/2000/svg" xmlns:xlink="http://www.w3.org/1999/xlink">
<g id="graph1" class="graph" transform="scale(1 1) rotate(0) translate(4 384)">
<title>G</title>
<polygon fill="white" stroke="white" points="-4,5 -4,-384 667,-384 667,5 -4,5"/>
<!-- PackageA\\Service\\Command -->
<g id="node1" class="node"><title>PackageA\\Service\\Command</title>
<ellipse fill="#eeeeee" stroke="black" cx="434" cy="-305" rx="74.0288" ry="74.529"/>
<text text-anchor="middle" x="434" y="-302.5" font-family="Times Roman,serif" font-size="10.00" fill="#314b5f">PackageA\Service\Command</text>
</g>
<!-- PackageA\\Service\\AbstractService -->
<g id="node2" class="node"><title>PackageA\\Service\\AbstractService</title>
<ellipse fill="#eeeeee" stroke="black" cx="88" cy="-97" rx="87.9335" ry="87.9335"/>
<text text-anchor="middle" x="88" y="-94.5" font-family="Times Roman,serif" font-size="10.00" fill="#314b5f">PackageA\Service\AbstractService</text>
</g>
<!-- PackageA\\Service\\Command&#45;&gt;PackageA\\Service\\AbstractService -->
<g id="edge2" class="edge"><title>PackageA\\Service\\Command&#45;&gt;PackageA\\Service\\AbstractService</title>
<path fill="none" stroke="#1a2833" stroke-dasharray="5,2" d="M363.61,-281.526C311.68,-262.384 240.672,-232.281 185,-194 173.41,-186.03 162.004,-176.575 151.315,-166.743"/>
<polygon fill="#1a2833" stroke="#1a2833" points="152.599,-165.069 146.78,-162.51 149.733,-168.139 152.599,-165.069"/>
</g>
<!-- PackageA\\Mapper\\CommandInterface -->
<g id="node3" class="node"><title>PackageA\\Mapper\\CommandInterface</title>
<ellipse fill="#eeeeee" stroke="black" cx="291" cy="-97" rx="97.0486" ry="97.0486"/>
<text text-anchor="middle" x="291" y="-94.5" font-family="Times Roman,serif" font-size="10.00" fill="#314b5f">PackageA\Mapper\CommandInterface</text>
</g>
<!-- PackageA\\Service\\Command&#45;&gt;PackageA\\Mapper\\CommandInterface -->
<g id="edge4" class="edge"><title>PackageA\\Service\\Command&#45;&gt;PackageA\\Mapper\\CommandInterface</title>
<path fill="none" stroke="#1a2833" d="M391.869,-243.718C378.598,-224.415 363.693,-202.735 349.495,-182.084"/>
<polygon fill="#1a2833" stroke="#1a2833" points="351.225,-180.894 346.096,-177.139 347.764,-183.273 351.225,-180.894"/>
</g>
<!-- array_map -->
<g id="node4" class="node"><title>array_map</title>
<ellipse fill="#eeeeee" stroke="black" cx="434" cy="-97" rx="27.8814" ry="27.8814"/>
<text text-anchor="middle" x="434" y="-94.5" font-family="Times Roman,serif" font-size="10.00" fill="#314b5f">array_map</text>
</g>
<!-- PackageA\\Service\\Command&#45;&gt;array_map -->
<g id="edge6" class="edge"><title>PackageA\\Service\\Command&#45;&gt;array_map</title>
<path fill="none" stroke="#1a2833" d="M434,-230.495C434,-196.609 434,-158.168 434,-131.269"/>
<polygon fill="#1a2833" stroke="#1a2833" points="436.1,-131.03 434,-125.03 431.9,-131.03 436.1,-131.03"/>
</g>
<!-- PackageA\\Entity\\Package -->
<g id="node5" class="node"><title>PackageA\\Entity\\Package</title>
<ellipse fill="#eeeeee" stroke="black" cx="544" cy="-97" rx="63.8428" ry="64.3416"/>
<text text-anchor="middle" x="544" y="-94.5" font-family="Times Roman,serif" font-size="10.00" fill="#314b5f">PackageA\Entity\Package</text>
</g>
<!-- PackageA\\Service\\Command&#45;&gt;PackageA\\Entity\\Package -->
<g id="edge8" class="edge"><title>PackageA\\Service\\Command&#45;&gt;PackageA\\Entity\\Package</title>
<path fill="none" stroke="#1a2833" d="M468.805,-239.188C482.32,-213.631 497.725,-184.502 511.057,-159.292"/>
<polygon fill="#1a2833" stroke="#1a2833" points="512.921,-160.26 513.869,-153.974 509.208,-158.297 512.921,-160.26"/>
</g>
<!-- intval -->
<g id="node6" class="node"><title>intval</title>
<ellipse fill="#eeeeee" stroke="black" cx="644" cy="-97" rx="18" ry="18"/>
<text text-anchor="middle" x="644" y="-94.5" font-family="Times Roman,serif" font-size="10.00" fill="#314b5f">intval</text>
</g>
<!-- PackageA\\Service\\Command&#45;&gt;intval -->
<g id="edge10" class="edge"><title>PackageA\\Service\\Command&#45;&gt;intval</title>
<path fill="none" stroke="#1a2833" d="M503.502,-278.144C542.164,-259.873 588.159,-232.055 617,-194 633.075,-172.789 639.58,-142.499 642.211,-121.431"/>
<polygon fill="#1a2833" stroke="#1a2833" points="644.327,-121.406 642.91,-115.209 640.154,-120.937 644.327,-121.406"/>
</g>
</g>
</svg>
