<?xml version="1.0" encoding="UTF-8" standalone="no"?>
<!DOCTYPE svg PUBLIC "-//W3C//DTD SVG 1.1//EN"
 "http://www.w3.org/Graphics/SVG/1.1/DTD/svg11.dtd">
<!-- Generated by graphviz version 2.26.3 (20100126.1600)
 -->
<!-- Title: G Pages: 1 -->
<svg width="226pt" height="906pt"
 viewBox="0.00 0.00 226.36 906.00" xmlns="http://www.w3.org/2000/svg" xmlns:xlink="http://www.w3.org/1999/xlink">
<g id="graph1" class="graph" transform="scale(1 1) rotate(0) translate(4 902)">
<title>G</title>
<polygon fill="white" stroke="white" points="-4,5 -4,-902 223.363,-902 223.363,5 -4,5"/>
<!-- PackageC\\Filter\\FilterA -->
<g id="node1" class="node"><title>PackageC\\Filter\\FilterA</title>
<ellipse fill="#eeeeee" stroke="black" cx="56" cy="-693" rx="55.8007" ry="56.2989"/>
<text text-anchor="middle" x="56" y="-690.5" font-family="Times Roman,serif" font-size="10.00" fill="#314b5f">PackageC\Filter\FilterA</text>
</g>
<!-- PackageC\\Filter\\FilterInterface -->
<g id="node2" class="node"><title>PackageC\\Filter\\FilterInterface</title>
<ellipse fill="#eeeeee" stroke="black" cx="143" cy="-75" rx="75.0652" ry="75.0652"/>
<text text-anchor="middle" x="143" y="-72.5" font-family="Times Roman,serif" font-size="10.00" fill="#314b5f">PackageC\Filter\FilterInterface</text>
</g>
<!-- PackageC\\Filter\\FilterA&#45;&gt;PackageC\\Filter\\FilterInterface -->
<g id="edge2" class="edge"><title>PackageC\\Filter\\FilterA&#45;&gt;PackageC\\Filter\\FilterInterface</title>
<path fill="none" stroke="#1a2833" stroke-dasharray="5,2" d="M39.5611,-638.693C13.6463,-543.091 -27.6625,-340.261 35,-186 44.3751,-162.921 61.1099,-142.008 78.6494,-124.717"/>
<polygon fill="#1a2833" stroke="#1a2833" points="80.2634,-126.078 83.1219,-120.4 77.3465,-123.056 80.2634,-126.078"/>
</g>
<!-- PackageC\\Filter\\FilterB -->
<g id="node3" class="node"><title>PackageC\\Filter\\FilterB</title>
<ellipse fill="#eeeeee" stroke="black" cx="140" cy="-543" rx="55.8007" ry="56.2989"/>
<text text-anchor="middle" x="140" y="-540.5" font-family="Times Roman,serif" font-size="10.00" fill="#314b5f">PackageC\Filter\FilterB</text>
</g>
<!-- PackageC\\Filter\\FilterA&#45;&gt;PackageC\\Filter\\FilterB -->
<g id="edge4" class="edge"><title>PackageC\\Filter\\FilterA&#45;&gt;PackageC\\Filter\\FilterB</title>
<path fill="none" stroke="#1a2833" d="M83.7375,-643.469C91.9518,-628.8 100.992,-612.657 109.378,-597.683"/>
<polygon fill="#1a2833" stroke="#1a2833" points="111.335,-598.485 112.435,-592.224 107.671,-596.432 111.335,-598.485"/>
</g>
<!-- PackageC\\Filter\\FilterB&#45;&gt;PackageC\\Filter\\FilterInterface -->
<g id="edge14" class="edge"><title>PackageC\\Filter\\FilterB&#45;&gt;PackageC\\Filter\\FilterInterface</title>
<path fill="none" stroke="#1a2833" stroke-dasharray="5,2" d="M177.779,-500.564C188.761,-485.625 199.321,-468.038 205,-450 236.914,-348.629 204.134,-226.385 175.429,-149.654"/>
<polygon fill="#1a2833" stroke="#1a2833" points="177.282,-148.619 173.195,-143.75 173.354,-150.105 177.282,-148.619"/>
</g>
<!-- PackageC\\Filter\\FilterC -->
<g id="node6" class="node"><title>PackageC\\Filter\\FilterC</title>
<ellipse fill="#eeeeee" stroke="black" cx="140" cy="-393" rx="55.8007" ry="56.2989"/>
<text text-anchor="middle" x="140" y="-390.5" font-family="Times Roman,serif" font-size="10.00" fill="#314b5f">PackageC\Filter\FilterC</text>
</g>
<!-- PackageC\\Filter\\FilterB&#45;&gt;PackageC\\Filter\\FilterC -->
<g id="edge16" class="edge"><title>PackageC\\Filter\\FilterB&#45;&gt;PackageC\\Filter\\FilterC</title>
<path fill="none" stroke="#1a2833" d="M140,-486.291C140,-476.398 140,-466.052 140,-456.002"/>
<polygon fill="#1a2833" stroke="#1a2833" points="142.1,-455.789 140,-449.789 137.9,-455.789 142.1,-455.789"/>
</g>
<!-- PackageC\\Filter\\FilterE -->
<g id="node4" class="node"><title>PackageC\\Filter\\FilterE</title>
<ellipse fill="#eeeeee" stroke="black" cx="98" cy="-842" rx="55.7627" ry="55.7627"/>
<text text-anchor="middle" x="98" y="-839.5" font-family="Times Roman,serif" font-size="10.00" fill="#314b5f">PackageC\Filter\FilterE</text>
</g>
<!-- PackageC\\Filter\\FilterE&#45;&gt;PackageC\\Filter\\FilterA -->
<g id="edge8" class="edge"><title>PackageC\\Filter\\FilterE&#45;&gt;PackageC\\Filter\\FilterA</title>
<path fill="none" stroke="#1a2833" d="M82.7182,-787.786C79.5625,-776.591 76.2202,-764.734 73.0074,-753.336"/>
<polygon fill="#1a2833" stroke="#1a2833" points="74.9899,-752.628 71.3408,-747.423 70.9475,-753.768 74.9899,-752.628"/>
</g>
<!-- PackageC\\Filter\\FilterE&#45;&gt;PackageC\\Filter\\FilterB -->
<g id="edge6" class="edge"><title>PackageC\\Filter\\FilterE&#45;&gt;PackageC\\Filter\\FilterB</title>
<path fill="none" stroke="#1a2833" stroke-dasharray="5,2" d="M113.015,-787.807C116.026,-775.456 118.905,-762.336 121,-750 129.163,-701.945 134.001,-646.976 136.751,-605.766"/>
<polygon fill="#1a2833" stroke="#1a2833" points="138.862,-605.655 137.158,-599.531 134.671,-605.382 138.862,-605.655"/>
</g>
<!-- PackageC\\Filter\\FilterD -->
<g id="node5" class="node"><title>PackageC\\Filter\\FilterD</title>
<ellipse fill="#eeeeee" stroke="black" cx="101" cy="-243" rx="56.8351" ry="56.8351"/>
<text text-anchor="middle" x="101" y="-240.5" font-family="Times Roman,serif" font-size="10.00" fill="#314b5f">PackageC\Filter\FilterD</text>
</g>
<!-- PackageC\\Filter\\FilterD&#45;&gt;PackageC\\Filter\\FilterA -->
<g id="edge12" class="edge"><title>PackageC\\Filter\\FilterD&#45;&gt;PackageC\\Filter\\FilterA</title>
<path fill="none" stroke="#1a2833" d="M83.5785,-297.63C80.1972,-310.123 77.0663,-323.427 75,-336 58.2435,-437.958 55.2455,-558.28 55.198,-629.966"/>
<polygon fill="#1a2833" stroke="#1a2833" points="53.0981,-630.323 55.2014,-636.322 57.2981,-630.32 53.0981,-630.323"/>
</g>
<!-- PackageC\\Filter\\FilterD&#45;&gt;PackageC\\Filter\\FilterInterface -->
<g id="edge10" class="edge"><title>PackageC\\Filter\\FilterD&#45;&gt;PackageC\\Filter\\FilterInterface</title>
<path fill="none" stroke="#1a2833" stroke-dasharray="5,2" d="M114.869,-187.525C117.575,-176.7 120.46,-165.158 123.313,-153.746"/>
<polygon fill="#1a2833" stroke="#1a2833" points="125.383,-154.125 124.801,-147.795 121.309,-153.107 125.383,-154.125"/>
</g>
<!-- PackageC\\Filter\\FilterC&#45;&gt;PackageC\\Filter\\FilterInterface -->
<g id="edge18" class="edge"><title>PackageC\\Filter\\FilterC&#45;&gt;PackageC\\Filter\\FilterInterface</title>
<path fill="none" stroke="#1a2833" stroke-dasharray="5,2" d="M158.33,-339.47C161.926,-326.688 165.153,-312.983 167,-300 174.134,-249.838 172.384,-236.38 167,-186 165.886,-175.579 164.2,-164.7 162.228,-154.002"/>
<polygon fill="#1a2833" stroke="#1a2833" points="164.286,-153.585 161.104,-148.082 160.16,-154.368 164.286,-153.585"/>
</g>
<!-- PackageC\\Filter\\FilterC&#45;&gt;PackageC\\Filter\\FilterD -->
<g id="edge20" class="edge"><title>PackageC\\Filter\\FilterC&#45;&gt;PackageC\\Filter\\FilterD</title>
<path fill="none" stroke="#1a2833" d="M125.699,-337.997C122.83,-326.961 119.798,-315.301 116.879,-304.074"/>
<polygon fill="#1a2833" stroke="#1a2833" points="118.907,-303.525 115.364,-298.247 114.842,-304.582 118.907,-303.525"/>
</g>
</g>
</svg>
