<?xml version="1.0" encoding="UTF-8" standalone="no"?>
<!DOCTYPE svg PUBLIC "-//W3C//DTD SVG 1.1//EN"
 "http://www.w3.org/Graphics/SVG/1.1/DTD/svg11.dtd">
<!-- Generated by graphviz version 2.26.3 (20100126.1600)
 -->
<!-- Title: G Pages: 1 -->
<svg width="704pt" height="378pt"
 viewBox="0.00 0.00 704.00 378.00" xmlns="http://www.w3.org/2000/svg" xmlns:xlink="http://www.w3.org/1999/xlink">
<g id="graph1" class="graph" transform="scale(1 1) rotate(0) translate(4 374)">
<title>G</title>
<polygon fill="white" stroke="white" points="-4,5 -4,-374 701,-374 701,5 -4,5"/>
<text text-anchor="middle" x="348" y="-6.8" font-family="Times Roman,serif" font-size="8.00">PhpDependencyAnalyse by Marco Muths (dev&#45;master)</text>
<g id="graph2" class="cluster"><title>cluster_0</title>
<polygon fill="#ccccff" stroke="#ccccff" points="247,-284 395,-284 407,-296 407,-350 395,-362 247,-362 235,-350 235,-296 247,-284"/>
<path fill="#ccccff" stroke="#ccccff" d="M395,-284C401,-284 407,-290 407,-296"/>
<path fill="#ccccff" stroke="#ccccff" d="M407,-350C407,-356 401,-362 395,-362"/>
<path fill="#ccccff" stroke="#ccccff" d="M247,-362C241,-362 235,-356 235,-350"/>
<path fill="#ccccff" stroke="#ccccff" d="M235,-296C235,-290 241,-284 247,-284"/>
<polyline fill="none" stroke="#000033" points="247,-284 395,-284 "/>
<path fill="none" stroke="#000033" d="M395,-284C401,-284 407,-290 407,-296"/>
<polyline fill="none" stroke="#000033" points="407,-296 407,-350 "/>
<path fill="none" stroke="#000033" d="M407,-350C407,-356 401,-362 395,-362"/>
<polyline fill="none" stroke="#000033" points="395,-362 247,-362 "/>
<path fill="none" stroke="#000033" d="M247,-362C241,-362 235,-356 235,-350"/>
<polyline fill="none" stroke="#000033" points="235,-350 235,-296 "/>
<path fill="none" stroke="#000033" d="M235,-296C235,-290 241,-284 247,-284"/>
<text text-anchor="middle" x="321" y="-345.4" font-family="Times Roman,serif" font-size="14.00" fill="#000033">PackageC\Filter\FilterA</text>
</g>
<g id="graph3" class="cluster"><title>cluster_1</title>
<polygon fill="#ccccff" stroke="#ccccff" points="476,-155 676,-155 688,-167 688,-221 676,-233 476,-233 464,-221 464,-167 476,-155"/>
<path fill="#ccccff" stroke="#ccccff" d="M676,-155C682,-155 688,-161 688,-167"/>
<path fill="#ccccff" stroke="#ccccff" d="M688,-221C688,-227 682,-233 676,-233"/>
<path fill="#ccccff" stroke="#ccccff" d="M476,-233C470,-233 464,-227 464,-221"/>
<path fill="#ccccff" stroke="#ccccff" d="M464,-167C464,-161 470,-155 476,-155"/>
<polyline fill="none" stroke="#000033" points="476,-155 676,-155 "/>
<path fill="none" stroke="#000033" d="M676,-155C682,-155 688,-161 688,-167"/>
<polyline fill="none" stroke="#000033" points="688,-167 688,-221 "/>
<path fill="none" stroke="#000033" d="M688,-221C688,-227 682,-233 676,-233"/>
<polyline fill="none" stroke="#000033" points="676,-233 476,-233 "/>
<path fill="none" stroke="#000033" d="M476,-233C470,-233 464,-227 464,-221"/>
<polyline fill="none" stroke="#000033" points="464,-221 464,-167 "/>
<path fill="none" stroke="#000033" d="M464,-167C464,-161 470,-155 476,-155"/>
<text text-anchor="middle" x="576" y="-216.4" font-family="Times Roman,serif" font-size="14.00" fill="#000033">PackageC\Filter\FilterInterface</text>
</g>
<g id="graph4" class="cluster"><title>cluster_2</title>
<polygon fill="#ccccff" stroke="#ccccff" points="247,-198 395,-198 407,-210 407,-264 395,-276 247,-276 235,-264 235,-210 247,-198"/>
<path fill="#ccccff" stroke="#ccccff" d="M395,-198C401,-198 407,-204 407,-210"/>
<path fill="#ccccff" stroke="#ccccff" d="M407,-264C407,-270 401,-276 395,-276"/>
<path fill="#ccccff" stroke="#ccccff" d="M247,-276C241,-276 235,-270 235,-264"/>
<path fill="#ccccff" stroke="#ccccff" d="M235,-210C235,-204 241,-198 247,-198"/>
<polyline fill="none" stroke="#000033" points="247,-198 395,-198 "/>
<path fill="none" stroke="#000033" d="M395,-198C401,-198 407,-204 407,-210"/>
<polyline fill="none" stroke="#000033" points="407,-210 407,-264 "/>
<path fill="none" stroke="#000033" d="M407,-264C407,-270 401,-276 395,-276"/>
<polyline fill="none" stroke="#000033" points="395,-276 247,-276 "/>
<path fill="none" stroke="#000033" d="M247,-276C241,-276 235,-270 235,-264"/>
<polyline fill="none" stroke="#000033" points="235,-264 235,-210 "/>
<path fill="none" stroke="#000033" d="M235,-210C235,-204 241,-198 247,-198"/>
<text text-anchor="middle" x="321" y="-259.4" font-family="Times Roman,serif" font-size="14.00" fill="#000033">PackageC\Filter\FilterB</text>
</g>
<g id="graph5" class="cluster"><title>cluster_3</title>
<polygon fill="#ccccff" stroke="#ccccff" points="20,-241 167,-241 179,-253 179,-307 167,-319 20,-319 8,-307 8,-253 20,-241"/>
<path fill="#ccccff" stroke="#ccccff" d="M167,-241C173,-241 179,-247 179,-253"/>
<path fill="#ccccff" stroke="#ccccff" d="M179,-307C179,-313 173,-319 167,-319"/>
<path fill="#ccccff" stroke="#ccccff" d="M20,-319C14,-319 8,-313 8,-307"/>
<path fill="#ccccff" stroke="#ccccff" d="M8,-253C8,-247 14,-241 20,-241"/>
<polyline fill="none" stroke="#000033" points="20,-241 167,-241 "/>
<path fill="none" stroke="#000033" d="M167,-241C173,-241 179,-247 179,-253"/>
<polyline fill="none" stroke="#000033" points="179,-253 179,-307 "/>
<path fill="none" stroke="#000033" d="M179,-307C179,-313 173,-319 167,-319"/>
<polyline fill="none" stroke="#000033" points="167,-319 20,-319 "/>
<path fill="none" stroke="#000033" d="M20,-319C14,-319 8,-313 8,-307"/>
<polyline fill="none" stroke="#000033" points="8,-307 8,-253 "/>
<path fill="none" stroke="#000033" d="M8,-253C8,-247 14,-241 20,-241"/>
<text text-anchor="middle" x="93.5" y="-302.4" font-family="Times Roman,serif" font-size="14.00" fill="#000033">PackageC\Filter\FilterE</text>
</g>
<g id="graph6" class="cluster"><title>cluster_4</title>
<polygon fill="#ccccff" stroke="#ccccff" points="247,-112 396,-112 408,-124 408,-178 396,-190 247,-190 235,-178 235,-124 247,-112"/>
<path fill="#ccccff" stroke="#ccccff" d="M396,-112C402,-112 408,-118 408,-124"/>
<path fill="#ccccff" stroke="#ccccff" d="M408,-178C408,-184 402,-190 396,-190"/>
<path fill="#ccccff" stroke="#ccccff" d="M247,-190C241,-190 235,-184 235,-178"/>
<path fill="#ccccff" stroke="#ccccff" d="M235,-124C235,-118 241,-112 247,-112"/>
<polyline fill="none" stroke="#000033" points="247,-112 396,-112 "/>
<path fill="none" stroke="#000033" d="M396,-112C402,-112 408,-118 408,-124"/>
<polyline fill="none" stroke="#000033" points="408,-124 408,-178 "/>
<path fill="none" stroke="#000033" d="M408,-178C408,-184 402,-190 396,-190"/>
<polyline fill="none" stroke="#000033" points="396,-190 247,-190 "/>
<path fill="none" stroke="#000033" d="M247,-190C241,-190 235,-184 235,-178"/>
<polyline fill="none" stroke="#000033" points="235,-178 235,-124 "/>
<path fill="none" stroke="#000033" d="M235,-124C235,-118 241,-112 247,-112"/>
<text text-anchor="middle" x="321.5" y="-173.4" font-family="Times Roman,serif" font-size="14.00" fill="#000033">PackageC\Filter\FilterD</text>
</g>
<g id="graph7" class="cluster"><title>cluster_5</title>
<polygon fill="#ccccff" stroke="#ccccff" points="247,-26 395,-26 407,-38 407,-92 395,-104 247,-104 235,-92 235,-38 247,-26"/>
<path fill="#ccccff" stroke="#ccccff" d="M395,-26C401,-26 407,-32 407,-38"/>
<path fill="#ccccff" stroke="#ccccff" d="M407,-92C407,-98 401,-104 395,-104"/>
<path fill="#ccccff" stroke="#ccccff" d="M247,-104C241,-104 235,-98 235,-92"/>
<path fill="#ccccff" stroke="#ccccff" d="M235,-38C235,-32 241,-26 247,-26"/>
<polyline fill="none" stroke="#000033" points="247,-26 395,-26 "/>
<path fill="none" stroke="#000033" d="M395,-26C401,-26 407,-32 407,-38"/>
<polyline fill="none" stroke="#000033" points="407,-38 407,-92 "/>
<path fill="none" stroke="#000033" d="M407,-92C407,-98 401,-104 395,-104"/>
<polyline fill="none" stroke="#000033" points="395,-104 247,-104 "/>
<path fill="none" stroke="#000033" d="M247,-104C241,-104 235,-98 235,-92"/>
<polyline fill="none" stroke="#000033" points="235,-92 235,-38 "/>
<path fill="none" stroke="#000033" d="M235,-38C235,-32 241,-26 247,-26"/>
<text text-anchor="middle" x="321" y="-87.4" font-family="Times Roman,serif" font-size="14.00" fill="#000033">PackageC\Filter\FilterC</text>
</g>
<!-- PackageC\\Filter\\FilterA -->
<g id="node2" class="node"><title>PackageC\\Filter\\FilterA</title>
<polygon fill="#9999cc" stroke="#9999cc" points="369,-328 273,-328 261,-316 261,-304 273,-292 369,-292 381,-304 381,-316 369,-328"/>
<path fill="#9999cc" stroke="#9999cc" d="M273,-328C267,-328 261,-322 261,-316"/>
<path fill="#9999cc" stroke="#9999cc" d="M261,-304C261,-298 267,-292 273,-292"/>
<path fill="#9999cc" stroke="#9999cc" d="M369,-292C375,-292 381,-298 381,-304"/>
<path fill="#9999cc" stroke="#9999cc" d="M381,-316C381,-322 375,-328 369,-328"/>
<polyline fill="none" stroke="black" points="369,-328 273,-328 "/>
<path fill="none" stroke="black" d="M273,-328C267,-328 261,-322 261,-316"/>
<polyline fill="none" stroke="black" points="261,-316 261,-304 "/>
<path fill="none" stroke="black" d="M261,-304C261,-298 267,-292 273,-292"/>
<polyline fill="none" stroke="black" points="273,-292 369,-292 "/>
<path fill="none" stroke="black" d="M369,-292C375,-292 381,-298 381,-304"/>
<polyline fill="none" stroke="black" points="381,-304 381,-316 "/>
<path fill="none" stroke="black" d="M381,-316C381,-322 375,-328 369,-328"/>
<text text-anchor="middle" x="321" y="-307.5" font-family="Times Roman,serif" font-size="10.00" fill="#000033">PackageC\Filter\FilterA</text>
</g>
<!-- PackageC\\Filter\\FilterInterface -->
<g id="node4" class="node"><title>PackageC\\Filter\\FilterInterface</title>
<polygon fill="#9999cc" stroke="#9999cc" points="642,-199 510,-199 498,-187 498,-175 510,-163 642,-163 654,-175 654,-187 642,-199"/>
<path fill="#9999cc" stroke="#9999cc" d="M510,-199C504,-199 498,-193 498,-187"/>
<path fill="#9999cc" stroke="#9999cc" d="M498,-175C498,-169 504,-163 510,-163"/>
<path fill="#9999cc" stroke="#9999cc" d="M642,-163C648,-163 654,-169 654,-175"/>
<path fill="#9999cc" stroke="#9999cc" d="M654,-187C654,-193 648,-199 642,-199"/>
<polyline fill="none" stroke="black" points="642,-199 510,-199 "/>
<path fill="none" stroke="black" d="M510,-199C504,-199 498,-193 498,-187"/>
<polyline fill="none" stroke="black" points="498,-187 498,-175 "/>
<path fill="none" stroke="black" d="M498,-175C498,-169 504,-163 510,-163"/>
<polyline fill="none" stroke="black" points="510,-163 642,-163 "/>
<path fill="none" stroke="black" d="M642,-163C648,-163 654,-169 654,-175"/>
<polyline fill="none" stroke="black" points="654,-175 654,-187 "/>
<path fill="none" stroke="black" d="M654,-187C654,-193 648,-199 642,-199"/>
<text text-anchor="middle" x="576" y="-178.5" font-family="Times Roman,serif" font-size="10.00" fill="#000033">PackageC\Filter\FilterInterface</text>
</g>
<!-- PackageC\\Filter\\FilterA&#45;&gt;PackageC\\Filter\\FilterInterface -->
<g id="edge8" class="edge"><title>PackageC\\Filter\\FilterA&#45;&gt;PackageC\\Filter\\FilterInterface</title>
<path fill="none" stroke="#999999" stroke-dasharray="5,2" d="M372.622,-291.945C384.397,-287.408 396.75,-282.308 408,-277 456.16,-254.278 509.093,-222.886 542.422,-202.274"/>
<polygon fill="#999999" stroke="#999999" points="543.608,-204.01 547.599,-199.062 541.394,-200.441 543.608,-204.01"/>
</g>
<!-- PackageC\\Filter\\FilterB -->
<g id="node6" class="node"><title>PackageC\\Filter\\FilterB</title>
<polygon fill="#9999cc" stroke="#9999cc" points="369,-242 273,-242 261,-230 261,-218 273,-206 369,-206 381,-218 381,-230 369,-242"/>
<path fill="#9999cc" stroke="#9999cc" d="M273,-242C267,-242 261,-236 261,-230"/>
<path fill="#9999cc" stroke="#9999cc" d="M261,-218C261,-212 267,-206 273,-206"/>
<path fill="#9999cc" stroke="#9999cc" d="M369,-206C375,-206 381,-212 381,-218"/>
<path fill="#9999cc" stroke="#9999cc" d="M381,-230C381,-236 375,-242 369,-242"/>
<polyline fill="none" stroke="black" points="369,-242 273,-242 "/>
<path fill="none" stroke="black" d="M273,-242C267,-242 261,-236 261,-230"/>
<polyline fill="none" stroke="black" points="261,-230 261,-218 "/>
<path fill="none" stroke="black" d="M261,-218C261,-212 267,-206 273,-206"/>
<polyline fill="none" stroke="black" points="273,-206 369,-206 "/>
<path fill="none" stroke="black" d="M369,-206C375,-206 381,-212 381,-218"/>
<polyline fill="none" stroke="black" points="381,-218 381,-230 "/>
<path fill="none" stroke="black" d="M381,-230C381,-236 375,-242 369,-242"/>
<text text-anchor="middle" x="321" y="-221.5" font-family="Times Roman,serif" font-size="10.00" fill="#000033">PackageC\Filter\FilterB</text>
</g>
<!-- PackageC\\Filter\\FilterA&#45;&gt;PackageC\\Filter\\FilterB -->
<g id="edge10" class="edge"><title>PackageC\\Filter\\FilterA&#45;&gt;PackageC\\Filter\\FilterB</title>
<path fill="none" stroke="#ff0099" stroke-width="2" d="M321,-291.975C321,-278.089 321,-264.203 321,-250.317"/>
<polygon fill="#ff0099" stroke="#ff0099" points="323.8,-250.141 321,-242.141 318.2,-250.141 323.8,-250.141"/>
</g>
<!-- PackageC\\Filter\\FilterB&#45;&gt;PackageC\\Filter\\FilterInterface -->
<g id="edge20" class="edge"><title>PackageC\\Filter\\FilterB&#45;&gt;PackageC\\Filter\\FilterInterface</title>
<path fill="none" stroke="#999999" stroke-dasharray="5,2" d="M381.755,-213.755C414.619,-208.213 455.723,-201.282 491.646,-195.224"/>
<polygon fill="#999999" stroke="#999999" points="492.259,-197.251 497.827,-194.182 491.561,-193.109 492.259,-197.251"/>
</g>
<!-- PackageC\\Filter\\FilterC -->
<g id="node12" class="node"><title>PackageC\\Filter\\FilterC</title>
<polygon fill="#9999cc" stroke="#9999cc" points="369,-70 273,-70 261,-58 261,-46 273,-34 369,-34 381,-46 381,-58 369,-70"/>
<path fill="#9999cc" stroke="#9999cc" d="M273,-70C267,-70 261,-64 261,-58"/>
<path fill="#9999cc" stroke="#9999cc" d="M261,-46C261,-40 267,-34 273,-34"/>
<path fill="#9999cc" stroke="#9999cc" d="M369,-34C375,-34 381,-40 381,-46"/>
<path fill="#9999cc" stroke="#9999cc" d="M381,-58C381,-64 375,-70 369,-70"/>
<polyline fill="none" stroke="black" points="369,-70 273,-70 "/>
<path fill="none" stroke="black" d="M273,-70C267,-70 261,-64 261,-58"/>
<polyline fill="none" stroke="black" points="261,-58 261,-46 "/>
<path fill="none" stroke="black" d="M261,-46C261,-40 267,-34 273,-34"/>
<polyline fill="none" stroke="black" points="273,-34 369,-34 "/>
<path fill="none" stroke="black" d="M369,-34C375,-34 381,-40 381,-46"/>
<polyline fill="none" stroke="black" points="381,-46 381,-58 "/>
<path fill="none" stroke="black" d="M381,-58C381,-64 375,-70 369,-70"/>
<text text-anchor="middle" x="321" y="-49.5" font-family="Times Roman,serif" font-size="10.00" fill="#000033">PackageC\Filter\FilterC</text>
</g>
<!-- PackageC\\Filter\\FilterB&#45;&gt;PackageC\\Filter\\FilterC -->
<g id="edge22" class="edge"><title>PackageC\\Filter\\FilterB&#45;&gt;PackageC\\Filter\\FilterC</title>
<path fill="none" stroke="#ff0099" stroke-width="2" d="M260.458,-219.129C240.154,-214.259 219.514,-205.075 207,-188 187.558,-161.473 190.194,-142.271 207,-114 217.671,-96.0487 235.561,-82.9686 254.043,-73.5857"/>
<polygon fill="#ff0099" stroke="#ff0099" points="255.421,-76.0303 261.419,-70.0418 252.995,-70.9827 255.421,-76.0303"/>
</g>
<!-- PackageC\\Filter\\FilterE -->
<g id="node8" class="node"><title>PackageC\\Filter\\FilterE</title>
<polygon fill="#9999cc" stroke="#9999cc" points="141,-285 45,-285 33,-273 33,-261 45,-249 141,-249 153,-261 153,-273 141,-285"/>
<path fill="#9999cc" stroke="#9999cc" d="M45,-285C39,-285 33,-279 33,-273"/>
<path fill="#9999cc" stroke="#9999cc" d="M33,-261C33,-255 39,-249 45,-249"/>
<path fill="#9999cc" stroke="#9999cc" d="M141,-249C147,-249 153,-255 153,-261"/>
<path fill="#9999cc" stroke="#9999cc" d="M153,-273C153,-279 147,-285 141,-285"/>
<polyline fill="none" stroke="black" points="141,-285 45,-285 "/>
<path fill="none" stroke="black" d="M45,-285C39,-285 33,-279 33,-273"/>
<polyline fill="none" stroke="black" points="33,-273 33,-261 "/>
<path fill="none" stroke="black" d="M33,-261C33,-255 39,-249 45,-249"/>
<polyline fill="none" stroke="black" points="45,-249 141,-249 "/>
<path fill="none" stroke="black" d="M141,-249C147,-249 153,-255 153,-261"/>
<polyline fill="none" stroke="black" points="153,-261 153,-273 "/>
<path fill="none" stroke="black" d="M153,-273C153,-279 147,-285 141,-285"/>
<text text-anchor="middle" x="93" y="-264.5" font-family="Times Roman,serif" font-size="10.00" fill="#000033">PackageC\Filter\FilterE</text>
</g>
<!-- PackageC\\Filter\\FilterE&#45;&gt;PackageC\\Filter\\FilterA -->
<g id="edge14" class="edge"><title>PackageC\\Filter\\FilterE&#45;&gt;PackageC\\Filter\\FilterA</title>
<path fill="none" stroke="#999999" d="M153.203,-278.354C184.377,-284.233 222.517,-291.426 254.552,-297.468"/>
<polygon fill="#999999" stroke="#999999" points="254.174,-299.534 260.46,-298.582 254.953,-295.407 254.174,-299.534"/>
</g>
<!-- PackageC\\Filter\\FilterE&#45;&gt;PackageC\\Filter\\FilterB -->
<g id="edge12" class="edge"><title>PackageC\\Filter\\FilterE&#45;&gt;PackageC\\Filter\\FilterB</title>
<path fill="none" stroke="#999999" stroke-dasharray="5,2" d="M153.203,-255.646C184.377,-249.767 222.517,-242.574 254.552,-236.532"/>
<polygon fill="#999999" stroke="#999999" points="254.953,-238.593 260.46,-235.418 254.174,-234.466 254.953,-238.593"/>
</g>
<!-- PackageC\\Filter\\FilterD -->
<g id="node10" class="node"><title>PackageC\\Filter\\FilterD</title>
<polygon fill="#9999cc" stroke="#9999cc" points="370,-156 272,-156 260,-144 260,-132 272,-120 370,-120 382,-132 382,-144 370,-156"/>
<path fill="#9999cc" stroke="#9999cc" d="M272,-156C266,-156 260,-150 260,-144"/>
<path fill="#9999cc" stroke="#9999cc" d="M260,-132C260,-126 266,-120 272,-120"/>
<path fill="#9999cc" stroke="#9999cc" d="M370,-120C376,-120 382,-126 382,-132"/>
<path fill="#9999cc" stroke="#9999cc" d="M382,-144C382,-150 376,-156 370,-156"/>
<polyline fill="none" stroke="black" points="370,-156 272,-156 "/>
<path fill="none" stroke="black" d="M272,-156C266,-156 260,-150 260,-144"/>
<polyline fill="none" stroke="black" points="260,-144 260,-132 "/>
<path fill="none" stroke="black" d="M260,-132C260,-126 266,-120 272,-120"/>
<polyline fill="none" stroke="black" points="272,-120 370,-120 "/>
<path fill="none" stroke="black" d="M370,-120C376,-120 382,-126 382,-132"/>
<polyline fill="none" stroke="black" points="382,-132 382,-144 "/>
<path fill="none" stroke="black" d="M382,-144C382,-150 376,-156 370,-156"/>
<text text-anchor="middle" x="321" y="-135.5" font-family="Times Roman,serif" font-size="10.00" fill="#000033">PackageC\Filter\FilterD</text>
</g>
<!-- PackageC\\Filter\\FilterD&#45;&gt;PackageC\\Filter\\FilterA -->
<g id="edge18" class="edge"><title>PackageC\\Filter\\FilterD&#45;&gt;PackageC\\Filter\\FilterA</title>
<path fill="none" stroke="#ff0099" stroke-width="2" d="M261.419,-156.042C240.438,-165.582 219.088,-179.666 207,-200 190.194,-228.271 187.558,-247.473 207,-274 217.852,-288.808 234.815,-297.68 252.37,-302.952"/>
<polygon fill="#ff0099" stroke="#ff0099" points="252.005,-305.753 260.458,-305.129 253.46,-300.345 252.005,-305.753"/>
</g>
<!-- PackageC\\Filter\\FilterD&#45;&gt;PackageC\\Filter\\FilterInterface -->
<g id="edge16" class="edge"><title>PackageC\\Filter\\FilterD&#45;&gt;PackageC\\Filter\\FilterInterface</title>
<path fill="none" stroke="#999999" stroke-dasharray="5,2" d="M382.079,-148.3C414.811,-153.819 455.646,-160.705 491.39,-166.732"/>
<polygon fill="#999999" stroke="#999999" points="491.274,-168.842 497.54,-167.769 491.973,-164.701 491.274,-168.842"/>
</g>
<!-- PackageC\\Filter\\FilterC&#45;&gt;PackageC\\Filter\\FilterInterface -->
<g id="edge24" class="edge"><title>PackageC\\Filter\\FilterC&#45;&gt;PackageC\\Filter\\FilterInterface</title>
<path fill="none" stroke="#999999" stroke-dasharray="5,2" d="M356.725,-70.0727C403.447,-93.7085 485.146,-135.039 534.542,-160.027"/>
<polygon fill="#999999" stroke="#999999" points="533.804,-162.007 540.106,-162.842 535.7,-158.259 533.804,-162.007"/>
</g>
<!-- PackageC\\Filter\\FilterC&#45;&gt;PackageC\\Filter\\FilterD -->
<g id="edge26" class="edge"><title>PackageC\\Filter\\FilterC&#45;&gt;PackageC\\Filter\\FilterD</title>
<path fill="none" stroke="#ff0099" stroke-width="2" d="M321,-70.1406C321,-84.0267 321,-97.9128 321,-111.799"/>
<polygon fill="#ff0099" stroke="#ff0099" points="318.2,-111.975 321,-119.975 323.8,-111.975 318.2,-111.975"/>
</g>
</g>
</svg>
