<?xml version="1.0" encoding="UTF-8" standalone="no"?>
<!DOCTYPE svg PUBLIC "-//W3C//DTD SVG 1.1//EN"
 "http://www.w3.org/Graphics/SVG/1.1/DTD/svg11.dtd">
<!-- Generated by graphviz version 2.26.3 (20100126.1600)
 -->
<!-- Title: G Pages: 1 -->
<svg width="253pt" height="105pt"
 viewBox="0.00 0.00 253.00 105.00" xmlns="http://www.w3.org/2000/svg" xmlns:xlink="http://www.w3.org/1999/xlink">
<g id="graph1" class="graph" transform="scale(1 1) rotate(0) translate(4 101)">
<title>G</title>
<polygon fill="white" stroke="white" points="-4,5 -4,-101 250,-101 250,5 -4,5"/>
<text text-anchor="middle" x="122.5" y="-6.8" font-family="Times Roman,serif" font-size="8.00">PhpDependencyAnalyse by Marco Muths (dev&#45;master)</text>
<!-- PackageX\\Constant -->
<g id="node1" class="node"><title>PackageX\\Constant</title>
<polygon fill="#9999cc" stroke="#9999cc" points="98.5,-75 14.5,-75 2.5,-63 2.5,-51 14.5,-39 98.5,-39 110.5,-51 110.5,-63 98.5,-75"/>
<path fill="#9999cc" stroke="#9999cc" d="M14.5,-75C8.5,-75 2.5,-69 2.5,-63"/>
<path fill="#9999cc" stroke="#9999cc" d="M2.5,-51C2.5,-45 8.5,-39 14.5,-39"/>
<path fill="#9999cc" stroke="#9999cc" d="M98.5,-39C104.5,-39 110.5,-45 110.5,-51"/>
<path fill="#9999cc" stroke="#9999cc" d="M110.5,-63C110.5,-69 104.5,-75 98.5,-75"/>
<polyline fill="none" stroke="black" points="98.5,-75 14.5,-75 "/>
<path fill="none" stroke="black" d="M14.5,-75C8.5,-75 2.5,-69 2.5,-63"/>
<polyline fill="none" stroke="black" points="2.5,-63 2.5,-51 "/>
<path fill="none" stroke="black" d="M2.5,-51C2.5,-45 8.5,-39 14.5,-39"/>
<polyline fill="none" stroke="black" points="14.5,-39 98.5,-39 "/>
<path fill="none" stroke="black" d="M98.5,-39C104.5,-39 110.5,-45 110.5,-51"/>
<polyline fill="none" stroke="black" points="110.5,-51 110.5,-63 "/>
<path fill="none" stroke="black" d="M110.5,-63C110.5,-69 104.5,-75 98.5,-75"/>
<text text-anchor="middle" x="56.5" y="-54.5" font-family="Times Roman,serif" font-size="10.00" fill="#000033">PackageX\Constant</text>
</g>
<!-- PHP_EOL -->
<g id="node2" class="node"><title>PHP_EOL</title>
<polygon fill="#9999cc" stroke="#9999cc" points="231.5,-97 195.5,-97 183.5,-85 183.5,-73 195.5,-61 231.5,-61 243.5,-73 243.5,-85 231.5,-97"/>
<path fill="#9999cc" stroke="#9999cc" d="M195.5,-97C189.5,-97 183.5,-91 183.5,-85"/>
<path fill="#9999cc" stroke="#9999cc" d="M183.5,-73C183.5,-67 189.5,-61 195.5,-61"/>
<path fill="#9999cc" stroke="#9999cc" d="M231.5,-61C237.5,-61 243.5,-67 243.5,-73"/>
<path fill="#9999cc" stroke="#9999cc" d="M243.5,-85C243.5,-91 237.5,-97 231.5,-97"/>
<polyline fill="none" stroke="black" points="231.5,-97 195.5,-97 "/>
<path fill="none" stroke="black" d="M195.5,-97C189.5,-97 183.5,-91 183.5,-85"/>
<polyline fill="none" stroke="black" points="183.5,-85 183.5,-73 "/>
<path fill="none" stroke="black" d="M183.5,-73C183.5,-67 189.5,-61 195.5,-61"/>
<polyline fill="none" stroke="black" points="195.5,-61 231.5,-61 "/>
<path fill="none" stroke="black" d="M231.5,-61C237.5,-61 243.5,-67 243.5,-73"/>
<polyline fill="none" stroke="black" points="243.5,-73 243.5,-85 "/>
<path fill="none" stroke="black" d="M243.5,-85C243.5,-91 237.5,-97 231.5,-97"/>
<text text-anchor="middle" x="213.5" y="-76.5" font-family="Times Roman,serif" font-size="10.00" fill="#000033">PHP_EOL</text>
</g>
<!-- PackageX\\Constant&#45;&gt;PHP_EOL -->
<g id="edge2" class="edge"><title>PackageX\\Constant&#45;&gt;PHP_EOL</title>
<path fill="none" stroke="#999999" d="M111.411,-64.6945C133.114,-67.7357 157.469,-71.1485 176.946,-73.8778"/>
<polygon fill="#999999" stroke="#999999" points="176.856,-75.9856 183.089,-74.7386 177.439,-71.8262 176.856,-75.9856"/>
</g>
<!-- Locale -->
<g id="node3" class="node"><title>Locale</title>
<polygon fill="#9999cc" stroke="#9999cc" points="228.5,-54 198.5,-54 186.5,-42 186.5,-30 198.5,-18 228.5,-18 240.5,-30 240.5,-42 228.5,-54"/>
<path fill="#9999cc" stroke="#9999cc" d="M198.5,-54C192.5,-54 186.5,-48 186.5,-42"/>
<path fill="#9999cc" stroke="#9999cc" d="M186.5,-30C186.5,-24 192.5,-18 198.5,-18"/>
<path fill="#9999cc" stroke="#9999cc" d="M228.5,-18C234.5,-18 240.5,-24 240.5,-30"/>
<path fill="#9999cc" stroke="#9999cc" d="M240.5,-42C240.5,-48 234.5,-54 228.5,-54"/>
<polyline fill="none" stroke="black" points="228.5,-54 198.5,-54 "/>
<path fill="none" stroke="black" d="M198.5,-54C192.5,-54 186.5,-48 186.5,-42"/>
<polyline fill="none" stroke="black" points="186.5,-42 186.5,-30 "/>
<path fill="none" stroke="black" d="M186.5,-30C186.5,-24 192.5,-18 198.5,-18"/>
<polyline fill="none" stroke="black" points="198.5,-18 228.5,-18 "/>
<path fill="none" stroke="black" d="M228.5,-18C234.5,-18 240.5,-24 240.5,-30"/>
<polyline fill="none" stroke="black" points="240.5,-30 240.5,-42 "/>
<path fill="none" stroke="black" d="M240.5,-42C240.5,-48 234.5,-54 228.5,-54"/>
<text text-anchor="middle" x="213.5" y="-33.5" font-family="Times Roman,serif" font-size="10.00" fill="#000033">Locale</text>
</g>
<!-- PackageX\\Constant&#45;&gt;Locale -->
<g id="edge4" class="edge"><title>PackageX\\Constant&#45;&gt;Locale</title>
<path fill="none" stroke="#999999" d="M111.411,-49.6552C134.33,-46.5896 160.206,-43.1284 180.173,-40.4578"/>
<polygon fill="#999999" stroke="#999999" points="180.501,-42.5327 186.17,-39.6557 179.944,-38.3698 180.501,-42.5327"/>
</g>
</g>
</svg>
