<?xml version="1.0" encoding="UTF-8" standalone="no"?>
<!DOCTYPE svg PUBLIC "-//W3C//DTD SVG 1.1//EN"
 "http://www.w3.org/Graphics/SVG/1.1/DTD/svg11.dtd">
<!-- Generated by graphviz version 2.26.3 (20100126.1600)
 -->
<!-- Title: G Pages: 1 -->
<svg width="110pt" height="192pt"
 viewBox="0.00 0.00 110.00 192.00" xmlns="http://www.w3.org/2000/svg" xmlns:xlink="http://www.w3.org/1999/xlink">
<g id="graph1" class="graph" transform="scale(1 1) rotate(0) translate(4 188)">
<title>G</title>
<polygon fill="white" stroke="white" points="-4,5 -4,-188 107,-188 107,5 -4,5"/>
<!-- PackageX\\Constant -->
<g id="node1" class="node"><title>PackageX\\Constant</title>
<ellipse fill="#eeeeee" stroke="black" cx="52" cy="-134" rx="49.8647" ry="49.8647"/>
<text text-anchor="middle" x="52" y="-131.5" font-family="Times Roman,serif" font-size="10.00" fill="#314b5f">PackageX\Constant</text>
</g>
<!-- PHP_EOL -->
<g id="node2" class="node"><title>PHP_EOL</title>
<ellipse fill="#eeeeee" stroke="black" cx="23" cy="-24" rx="23.09" ry="23.5919"/>
<text text-anchor="middle" x="23" y="-21.5" font-family="Times Roman,serif" font-size="10.00" fill="#314b5f">PHP_EOL</text>
</g>
<!-- PackageX\\Constant&#45;&gt;PHP_EOL -->
<g id="edge2" class="edge"><title>PackageX\\Constant&#45;&gt;PHP_EOL</title>
<path fill="none" stroke="#1a2833" d="M39.1958,-85.4322C36.2555,-74.2794 33.2209,-62.7688 30.5845,-52.769"/>
<polygon fill="#1a2833" stroke="#1a2833" points="32.5592,-52.0209 28.9989,-46.7545 28.4979,-53.0917 32.5592,-52.0209"/>
</g>
<!-- Locale -->
<g id="node3" class="node"><title>Locale</title>
<ellipse fill="#eeeeee" stroke="black" cx="82" cy="-24" rx="18" ry="18"/>
<text text-anchor="middle" x="82" y="-21.5" font-family="Times Roman,serif" font-size="10.00" fill="#314b5f">Locale</text>
</g>
<!-- PackageX\\Constant&#45;&gt;Locale -->
<g id="edge4" class="edge"><title>PackageX\\Constant&#45;&gt;Locale</title>
<path fill="none" stroke="#1a2833" d="M65.1584,-85.7524C68.7981,-72.4069 72.5847,-58.5229 75.6434,-47.3077"/>
<polygon fill="#1a2833" stroke="#1a2833" points="77.7094,-47.7131 77.2622,-41.372 73.6574,-46.608 77.7094,-47.7131"/>
</g>
</g>
</svg>
