<?xml version="1.0" encoding="UTF-8" standalone="no"?>
<!DOCTYPE svg PUBLIC "-//W3C//DTD SVG 1.1//EN"
 "http://www.w3.org/Graphics/SVG/1.1/DTD/svg11.dtd">
<!-- Generated by graphviz version 2.26.3 (20100126.1600)
 -->
<!-- Title: G Pages: 1 -->
<svg width="255pt" height="105pt"
 viewBox="0.00 0.00 255.00 105.00" xmlns="http://www.w3.org/2000/svg" xmlns:xlink="http://www.w3.org/1999/xlink">
<g id="graph1" class="graph" transform="scale(1 1) rotate(0) translate(4 101)">
<title>G</title>
<polygon fill="white" stroke="white" points="-4,5 -4,-101 252,-101 252,5 -4,5"/>
<text text-anchor="middle" x="123.5" y="-6.8" font-family="Times Roman,serif" font-size="8.00">PhpDependencyAnalysis by Marco Muths (dev&#45;master)</text>
<!-- PackageX\\Constant -->
<g id="node1" class="node"><title>PackageX\\Constant</title>
<polygon fill="#9999cc" stroke="#9999cc" points="99.5,-75 15.5,-75 3.5,-63 3.5,-51 15.5,-39 99.5,-39 111.5,-51 111.5,-63 99.5,-75"/>
<path fill="#9999cc" stroke="#9999cc" d="M15.5,-75C9.5,-75 3.5,-69 3.5,-63"/>
<path fill="#9999cc" stroke="#9999cc" d="M3.5,-51C3.5,-45 9.5,-39 15.5,-39"/>
<path fill="#9999cc" stroke="#9999cc" d="M99.5,-39C105.5,-39 111.5,-45 111.5,-51"/>
<path fill="#9999cc" stroke="#9999cc" d="M111.5,-63C111.5,-69 105.5,-75 99.5,-75"/>
<polyline fill="none" stroke="black" points="99.5,-75 15.5,-75 "/>
<path fill="none" stroke="black" d="M15.5,-75C9.5,-75 3.5,-69 3.5,-63"/>
<polyline fill="none" stroke="black" points="3.5,-63 3.5,-51 "/>
<path fill="none" stroke="black" d="M3.5,-51C3.5,-45 9.5,-39 15.5,-39"/>
<polyline fill="none" stroke="black" points="15.5,-39 99.5,-39 "/>
<path fill="none" stroke="black" d="M99.5,-39C105.5,-39 111.5,-45 111.5,-51"/>
<polyline fill="none" stroke="black" points="111.5,-51 111.5,-63 "/>
<path fill="none" stroke="black" d="M111.5,-63C111.5,-69 105.5,-75 99.5,-75"/>
<text text-anchor="middle" x="57.5" y="-54.5" font-family="Times Roman,serif" font-size="10.00" fill="#000033">PackageX\Constant</text>
</g>
<!-- PHP_EOL -->
<g id="node2" class="node"><title>PHP_EOL</title>
<polygon fill="#9999cc" stroke="#9999cc" points="232.5,-97 196.5,-97 184.5,-85 184.5,-73 196.5,-61 232.5,-61 244.5,-73 244.5,-85 232.5,-97"/>
<path fill="#9999cc" stroke="#9999cc" d="M196.5,-97C190.5,-97 184.5,-91 184.5,-85"/>
<path fill="#9999cc" stroke="#9999cc" d="M184.5,-73C184.5,-67 190.5,-61 196.5,-61"/>
<path fill="#9999cc" stroke="#9999cc" d="M232.5,-61C238.5,-61 244.5,-67 244.5,-73"/>
<path fill="#9999cc" stroke="#9999cc" d="M244.5,-85C244.5,-91 238.5,-97 232.5,-97"/>
<polyline fill="none" stroke="black" points="232.5,-97 196.5,-97 "/>
<path fill="none" stroke="black" d="M196.5,-97C190.5,-97 184.5,-91 184.5,-85"/>
<polyline fill="none" stroke="black" points="184.5,-85 184.5,-73 "/>
<path fill="none" stroke="black" d="M184.5,-73C184.5,-67 190.5,-61 196.5,-61"/>
<polyline fill="none" stroke="black" points="196.5,-61 232.5,-61 "/>
<path fill="none" stroke="black" d="M232.5,-61C238.5,-61 244.5,-67 244.5,-73"/>
<polyline fill="none" stroke="black" points="244.5,-73 244.5,-85 "/>
<path fill="none" stroke="black" d="M244.5,-85C244.5,-91 238.5,-97 232.5,-97"/>
<text text-anchor="middle" x="214.5" y="-76.5" font-family="Times Roman,serif" font-size="10.00" fill="#000033">PHP_EOL</text>
</g>
<!-- PackageX\\Constant&#45;&gt;PHP_EOL -->
<g id="edge2" class="edge"><title>PackageX\\Constant&#45;&gt;PHP_EOL</title>
<path fill="none" stroke="#999999" d="M112.411,-64.6945C134.114,-67.7357 158.469,-71.1485 177.946,-73.8778"/>
<polygon fill="#999999" stroke="#999999" points="177.856,-75.9856 184.089,-74.7386 178.439,-71.8262 177.856,-75.9856"/>
</g>
<!-- Locale -->
<g id="node3" class="node"><title>Locale</title>
<polygon fill="#9999cc" stroke="#9999cc" points="229.5,-54 199.5,-54 187.5,-42 187.5,-30 199.5,-18 229.5,-18 241.5,-30 241.5,-42 229.5,-54"/>
<path fill="#9999cc" stroke="#9999cc" d="M199.5,-54C193.5,-54 187.5,-48 187.5,-42"/>
<path fill="#9999cc" stroke="#9999cc" d="M187.5,-30C187.5,-24 193.5,-18 199.5,-18"/>
<path fill="#9999cc" stroke="#9999cc" d="M229.5,-18C235.5,-18 241.5,-24 241.5,-30"/>
<path fill="#9999cc" stroke="#9999cc" d="M241.5,-42C241.5,-48 235.5,-54 229.5,-54"/>
<polyline fill="none" stroke="black" points="229.5,-54 199.5,-54 "/>
<path fill="none" stroke="black" d="M199.5,-54C193.5,-54 187.5,-48 187.5,-42"/>
<polyline fill="none" stroke="black" points="187.5,-42 187.5,-30 "/>
<path fill="none" stroke="black" d="M187.5,-30C187.5,-24 193.5,-18 199.5,-18"/>
<polyline fill="none" stroke="black" points="199.5,-18 229.5,-18 "/>
<path fill="none" stroke="black" d="M229.5,-18C235.5,-18 241.5,-24 241.5,-30"/>
<polyline fill="none" stroke="black" points="241.5,-30 241.5,-42 "/>
<path fill="none" stroke="black" d="M241.5,-42C241.5,-48 235.5,-54 229.5,-54"/>
<text text-anchor="middle" x="214.5" y="-33.5" font-family="Times Roman,serif" font-size="10.00" fill="#000033">Locale</text>
</g>
<!-- PackageX\\Constant&#45;&gt;Locale -->
<g id="edge4" class="edge"><title>PackageX\\Constant&#45;&gt;Locale</title>
<path fill="none" stroke="#999999" d="M112.411,-49.6552C135.33,-46.5896 161.206,-43.1284 181.173,-40.4578"/>
<polygon fill="#999999" stroke="#999999" points="181.501,-42.5327 187.17,-39.6557 180.944,-38.3698 181.501,-42.5327"/>
</g>
</g>
</svg>
