<?xml version="1.0" encoding="UTF-8" standalone="no"?>
<!DOCTYPE svg PUBLIC "-//W3C//DTD SVG 1.1//EN"
 "http://www.w3.org/Graphics/SVG/1.1/DTD/svg11.dtd">
<!-- Generated by graphviz version 2.26.3 (20100126.1600)
 -->
<!-- Title: G Pages: 1 -->
<svg width="404pt" height="363pt"
 viewBox="0.00 0.00 404.00 363.00" xmlns="http://www.w3.org/2000/svg" xmlns:xlink="http://www.w3.org/1999/xlink">
<g id="graph1" class="graph" transform="scale(1 1) rotate(0) translate(4 359)">
<title>G</title>
<polygon fill="white" stroke="white" points="-4,5 -4,-359 401,-359 401,5 -4,5"/>
<text text-anchor="middle" x="198" y="-6.8" font-family="Times Roman,serif" font-size="8.00">PhpDependencyAnalyse by Marco Muths (dev&#45;master)</text>
<!-- PackageX\\DocBlockTag -->
<g id="node1" class="node"><title>PackageX\\DocBlockTag</title>
<polygon fill="#eeeeee" stroke="#eeeeee" points="113,-204 13,-204 1,-192 1,-180 13,-168 113,-168 125,-180 125,-192 113,-204"/>
<path fill="#eeeeee" stroke="#eeeeee" d="M13,-204C7,-204 1,-198 1,-192"/>
<path fill="#eeeeee" stroke="#eeeeee" d="M1,-180C1,-174 7,-168 13,-168"/>
<path fill="#eeeeee" stroke="#eeeeee" d="M113,-168C119,-168 125,-174 125,-180"/>
<path fill="#eeeeee" stroke="#eeeeee" d="M125,-192C125,-198 119,-204 113,-204"/>
<polyline fill="none" stroke="black" points="113,-204 13,-204 "/>
<path fill="none" stroke="black" d="M13,-204C7,-204 1,-198 1,-192"/>
<polyline fill="none" stroke="black" points="1,-192 1,-180 "/>
<path fill="none" stroke="black" d="M1,-180C1,-174 7,-168 13,-168"/>
<polyline fill="none" stroke="black" points="13,-168 113,-168 "/>
<path fill="none" stroke="black" d="M113,-168C119,-168 125,-174 125,-180"/>
<polyline fill="none" stroke="black" points="125,-180 125,-192 "/>
<path fill="none" stroke="black" d="M125,-192C125,-198 119,-204 113,-204"/>
<text text-anchor="middle" x="63" y="-183.5" font-family="Times Roman,serif" font-size="10.00" fill="#314b5f">PackageX\DocBlockTag</text>
</g>
<!-- PackageC\\Filter\\FilterInterface -->
<g id="node2" class="node"><title>PackageC\\Filter\\FilterInterface</title>
<polygon fill="#eeeeee" stroke="#eeeeee" points="363,-355 231,-355 219,-343 219,-331 231,-319 363,-319 375,-331 375,-343 363,-355"/>
<path fill="#eeeeee" stroke="#eeeeee" d="M231,-355C225,-355 219,-349 219,-343"/>
<path fill="#eeeeee" stroke="#eeeeee" d="M219,-331C219,-325 225,-319 231,-319"/>
<path fill="#eeeeee" stroke="#eeeeee" d="M363,-319C369,-319 375,-325 375,-331"/>
<path fill="#eeeeee" stroke="#eeeeee" d="M375,-343C375,-349 369,-355 363,-355"/>
<polyline fill="none" stroke="black" points="363,-355 231,-355 "/>
<path fill="none" stroke="black" d="M231,-355C225,-355 219,-349 219,-343"/>
<polyline fill="none" stroke="black" points="219,-343 219,-331 "/>
<path fill="none" stroke="black" d="M219,-331C219,-325 225,-319 231,-319"/>
<polyline fill="none" stroke="black" points="231,-319 363,-319 "/>
<path fill="none" stroke="black" d="M363,-319C369,-319 375,-325 375,-331"/>
<polyline fill="none" stroke="black" points="375,-331 375,-343 "/>
<path fill="none" stroke="black" d="M375,-343C375,-349 369,-355 363,-355"/>
<text text-anchor="middle" x="297" y="-334.5" font-family="Times Roman,serif" font-size="10.00" fill="#314b5f">PackageC\Filter\FilterInterface</text>
</g>
<!-- PackageX\\DocBlockTag&#45;&gt;PackageC\\Filter\\FilterInterface -->
<g id="edge2" class="edge"><title>PackageX\\DocBlockTag&#45;&gt;PackageC\\Filter\\FilterInterface</title>
<path fill="none" stroke="#1a2833" d="M76.5446,-204.203C98.6653,-232.548 145.389,-286.893 198,-315 202.79,-317.559 207.863,-319.821 213.081,-321.82"/>
<polygon fill="#1a2833" stroke="#1a2833" points="212.437,-323.82 218.793,-323.887 213.866,-319.871 212.437,-323.82"/>
</g>
<!-- PackageA\\Mapper\\Query -->
<g id="node3" class="node"><title>PackageA\\Mapper\\Query</title>
<polygon fill="#eeeeee" stroke="#eeeeee" points="352,-312 242,-312 230,-300 230,-288 242,-276 352,-276 364,-288 364,-300 352,-312"/>
<path fill="#eeeeee" stroke="#eeeeee" d="M242,-312C236,-312 230,-306 230,-300"/>
<path fill="#eeeeee" stroke="#eeeeee" d="M230,-288C230,-282 236,-276 242,-276"/>
<path fill="#eeeeee" stroke="#eeeeee" d="M352,-276C358,-276 364,-282 364,-288"/>
<path fill="#eeeeee" stroke="#eeeeee" d="M364,-300C364,-306 358,-312 352,-312"/>
<polyline fill="none" stroke="black" points="352,-312 242,-312 "/>
<path fill="none" stroke="black" d="M242,-312C236,-312 230,-306 230,-300"/>
<polyline fill="none" stroke="black" points="230,-300 230,-288 "/>
<path fill="none" stroke="black" d="M230,-288C230,-282 236,-276 242,-276"/>
<polyline fill="none" stroke="black" points="242,-276 352,-276 "/>
<path fill="none" stroke="black" d="M352,-276C358,-276 364,-282 364,-288"/>
<polyline fill="none" stroke="black" points="364,-288 364,-300 "/>
<path fill="none" stroke="black" d="M364,-300C364,-306 358,-312 352,-312"/>
<text text-anchor="middle" x="297" y="-291.5" font-family="Times Roman,serif" font-size="10.00" fill="#314b5f">PackageA\Mapper\Query</text>
</g>
<!-- PackageX\\DocBlockTag&#45;&gt;PackageA\\Mapper\\Query -->
<g id="edge4" class="edge"><title>PackageX\\DocBlockTag&#45;&gt;PackageA\\Mapper\\Query</title>
<path fill="none" stroke="#1a2833" d="M85.9909,-204.219C111.805,-223.792 155.642,-254.443 198,-272 206.272,-275.429 215.165,-278.364 224.105,-280.865"/>
<polygon fill="#1a2833" stroke="#1a2833" points="223.642,-282.915 229.981,-282.447 224.734,-278.859 223.642,-282.915"/>
</g>
<!-- PackageA\\Entity\\Package -->
<g id="node4" class="node"><title>PackageA\\Entity\\Package</title>
<polygon fill="#eeeeee" stroke="#eeeeee" points="353,-269 241,-269 229,-257 229,-245 241,-233 353,-233 365,-245 365,-257 353,-269"/>
<path fill="#eeeeee" stroke="#eeeeee" d="M241,-269C235,-269 229,-263 229,-257"/>
<path fill="#eeeeee" stroke="#eeeeee" d="M229,-245C229,-239 235,-233 241,-233"/>
<path fill="#eeeeee" stroke="#eeeeee" d="M353,-233C359,-233 365,-239 365,-245"/>
<path fill="#eeeeee" stroke="#eeeeee" d="M365,-257C365,-263 359,-269 353,-269"/>
<polyline fill="none" stroke="black" points="353,-269 241,-269 "/>
<path fill="none" stroke="black" d="M241,-269C235,-269 229,-263 229,-257"/>
<polyline fill="none" stroke="black" points="229,-257 229,-245 "/>
<path fill="none" stroke="black" d="M229,-245C229,-239 235,-233 241,-233"/>
<polyline fill="none" stroke="black" points="241,-233 353,-233 "/>
<path fill="none" stroke="black" d="M353,-233C359,-233 365,-239 365,-245"/>
<polyline fill="none" stroke="black" points="365,-245 365,-257 "/>
<path fill="none" stroke="black" d="M365,-257C365,-263 359,-269 353,-269"/>
<text text-anchor="middle" x="297" y="-248.5" font-family="Times Roman,serif" font-size="10.00" fill="#314b5f">PackageA\Entity\Package</text>
</g>
<!-- PackageX\\DocBlockTag&#45;&gt;PackageA\\Entity\\Package -->
<g id="edge6" class="edge"><title>PackageX\\DocBlockTag&#45;&gt;PackageA\\Entity\\Package</title>
<path fill="none" stroke="#1a2833" d="M115.893,-204.059C140.673,-212.206 170.689,-221.632 198,-229 206.08,-231.18 214.572,-233.309 223.045,-235.33"/>
<polygon fill="#1a2833" stroke="#1a2833" points="222.581,-237.378 228.903,-236.712 223.545,-233.29 222.581,-237.378"/>
</g>
<!-- PackageB\\Mapper\\CommandInterface -->
<g id="node5" class="node"><title>PackageB\\Mapper\\CommandInterface</title>
<polygon fill="#eeeeee" stroke="#eeeeee" points="383,-226 211,-226 199,-214 199,-202 211,-190 383,-190 395,-202 395,-214 383,-226"/>
<path fill="#eeeeee" stroke="#eeeeee" d="M211,-226C205,-226 199,-220 199,-214"/>
<path fill="#eeeeee" stroke="#eeeeee" d="M199,-202C199,-196 205,-190 211,-190"/>
<path fill="#eeeeee" stroke="#eeeeee" d="M383,-190C389,-190 395,-196 395,-202"/>
<path fill="#eeeeee" stroke="#eeeeee" d="M395,-214C395,-220 389,-226 383,-226"/>
<polyline fill="none" stroke="black" points="383,-226 211,-226 "/>
<path fill="none" stroke="black" d="M211,-226C205,-226 199,-220 199,-214"/>
<polyline fill="none" stroke="black" points="199,-214 199,-202 "/>
<path fill="none" stroke="black" d="M199,-202C199,-196 205,-190 211,-190"/>
<polyline fill="none" stroke="black" points="211,-190 383,-190 "/>
<path fill="none" stroke="black" d="M383,-190C389,-190 395,-196 395,-202"/>
<polyline fill="none" stroke="black" points="395,-202 395,-214 "/>
<path fill="none" stroke="black" d="M395,-214C395,-220 389,-226 383,-226"/>
<text text-anchor="middle" x="297" y="-205.5" font-family="Times Roman,serif" font-size="10.00" fill="#314b5f">PackageB\Mapper\CommandInterface</text>
</g>
<!-- PackageX\\DocBlockTag&#45;&gt;PackageB\\Mapper\\CommandInterface -->
<g id="edge8" class="edge"><title>PackageX\\DocBlockTag&#45;&gt;PackageB\\Mapper\\CommandInterface</title>
<path fill="none" stroke="#1a2833" d="M125.708,-191.896C146.213,-193.823 169.576,-196.02 192.313,-198.158"/>
<polygon fill="#1a2833" stroke="#1a2833" points="192.221,-200.258 198.391,-198.729 192.614,-196.077 192.221,-200.258"/>
</g>
<!-- PackageA\\Service\\Message -->
<g id="node6" class="node"><title>PackageA\\Service\\Message</title>
<polygon fill="#eeeeee" stroke="#eeeeee" points="358,-183 236,-183 224,-171 224,-159 236,-147 358,-147 370,-159 370,-171 358,-183"/>
<path fill="#eeeeee" stroke="#eeeeee" d="M236,-183C230,-183 224,-177 224,-171"/>
<path fill="#eeeeee" stroke="#eeeeee" d="M224,-159C224,-153 230,-147 236,-147"/>
<path fill="#eeeeee" stroke="#eeeeee" d="M358,-147C364,-147 370,-153 370,-159"/>
<path fill="#eeeeee" stroke="#eeeeee" d="M370,-171C370,-177 364,-183 358,-183"/>
<polyline fill="none" stroke="black" points="358,-183 236,-183 "/>
<path fill="none" stroke="black" d="M236,-183C230,-183 224,-177 224,-171"/>
<polyline fill="none" stroke="black" points="224,-171 224,-159 "/>
<path fill="none" stroke="black" d="M224,-159C224,-153 230,-147 236,-147"/>
<polyline fill="none" stroke="black" points="236,-147 358,-147 "/>
<path fill="none" stroke="black" d="M358,-147C364,-147 370,-153 370,-159"/>
<polyline fill="none" stroke="black" points="370,-159 370,-171 "/>
<path fill="none" stroke="black" d="M370,-171C370,-177 364,-183 358,-183"/>
<text text-anchor="middle" x="297" y="-162.5" font-family="Times Roman,serif" font-size="10.00" fill="#314b5f">PackageA\Service\Message</text>
</g>
<!-- PackageX\\DocBlockTag&#45;&gt;PackageA\\Service\\Message -->
<g id="edge10" class="edge"><title>PackageX\\DocBlockTag&#45;&gt;PackageA\\Service\\Message</title>
<path fill="none" stroke="#1a2833" d="M125.708,-180.372C153.766,-177.854 187.177,-174.856 217.009,-172.179"/>
<polygon fill="#1a2833" stroke="#1a2833" points="217.529,-174.241 223.317,-171.613 217.154,-170.057 217.529,-174.241"/>
</g>
<!-- PackageB\\Service\\Message -->
<g id="node7" class="node"><title>PackageB\\Service\\Message</title>
<polygon fill="#eeeeee" stroke="#eeeeee" points="358,-140 236,-140 224,-128 224,-116 236,-104 358,-104 370,-116 370,-128 358,-140"/>
<path fill="#eeeeee" stroke="#eeeeee" d="M236,-140C230,-140 224,-134 224,-128"/>
<path fill="#eeeeee" stroke="#eeeeee" d="M224,-116C224,-110 230,-104 236,-104"/>
<path fill="#eeeeee" stroke="#eeeeee" d="M358,-104C364,-104 370,-110 370,-116"/>
<path fill="#eeeeee" stroke="#eeeeee" d="M370,-128C370,-134 364,-140 358,-140"/>
<polyline fill="none" stroke="black" points="358,-140 236,-140 "/>
<path fill="none" stroke="black" d="M236,-140C230,-140 224,-134 224,-128"/>
<polyline fill="none" stroke="black" points="224,-128 224,-116 "/>
<path fill="none" stroke="black" d="M224,-116C224,-110 230,-104 236,-104"/>
<polyline fill="none" stroke="black" points="236,-104 358,-104 "/>
<path fill="none" stroke="black" d="M358,-104C364,-104 370,-110 370,-116"/>
<polyline fill="none" stroke="black" points="370,-116 370,-128 "/>
<path fill="none" stroke="black" d="M370,-128C370,-134 364,-140 358,-140"/>
<text text-anchor="middle" x="297" y="-119.5" font-family="Times Roman,serif" font-size="10.00" fill="#314b5f">PackageB\Service\Message</text>
</g>
<!-- PackageX\\DocBlockTag&#45;&gt;PackageB\\Service\\Message -->
<g id="edge12" class="edge"><title>PackageX\\DocBlockTag&#45;&gt;PackageB\\Service\\Message</title>
<path fill="none" stroke="#1a2833" d="M117.547,-167.9C142.013,-160.074 171.315,-151.103 198,-144 204.253,-142.336 210.751,-140.696 217.294,-139.108"/>
<polygon fill="#1a2833" stroke="#1a2833" points="217.966,-141.106 223.31,-137.665 216.986,-137.022 217.966,-141.106"/>
</g>
<!-- Foo\\Bar -->
<g id="node8" class="node"><title>Foo\\Bar</title>
<polygon fill="#eeeeee" stroke="#eeeeee" points="312,-97 282,-97 270,-85 270,-73 282,-61 312,-61 324,-73 324,-85 312,-97"/>
<path fill="#eeeeee" stroke="#eeeeee" d="M282,-97C276,-97 270,-91 270,-85"/>
<path fill="#eeeeee" stroke="#eeeeee" d="M270,-73C270,-67 276,-61 282,-61"/>
<path fill="#eeeeee" stroke="#eeeeee" d="M312,-61C318,-61 324,-67 324,-73"/>
<path fill="#eeeeee" stroke="#eeeeee" d="M324,-85C324,-91 318,-97 312,-97"/>
<polyline fill="none" stroke="black" points="312,-97 282,-97 "/>
<path fill="none" stroke="black" d="M282,-97C276,-97 270,-91 270,-85"/>
<polyline fill="none" stroke="black" points="270,-85 270,-73 "/>
<path fill="none" stroke="black" d="M270,-73C270,-67 276,-61 282,-61"/>
<polyline fill="none" stroke="black" points="282,-61 312,-61 "/>
<path fill="none" stroke="black" d="M312,-61C318,-61 324,-67 324,-73"/>
<polyline fill="none" stroke="black" points="324,-73 324,-85 "/>
<path fill="none" stroke="black" d="M324,-85C324,-91 318,-97 312,-97"/>
<text text-anchor="middle" x="297" y="-76.5" font-family="Times Roman,serif" font-size="10.00" fill="#314b5f">Foo\Bar</text>
</g>
<!-- PackageX\\DocBlockTag&#45;&gt;Foo\\Bar -->
<g id="edge14" class="edge"><title>PackageX\\DocBlockTag&#45;&gt;Foo\\Bar</title>
<path fill="none" stroke="#1a2833" d="M86.499,-167.653C112.404,-148.305 155.994,-118.281 198,-101 219.01,-92.3563 243.992,-86.8369 263.604,-83.4882"/>
<polygon fill="#1a2833" stroke="#1a2833" points="264.191,-85.5202 269.771,-82.4761 263.51,-81.3756 264.191,-85.5202"/>
</g>
<!-- PackageX\\Constant -->
<g id="node9" class="node"><title>PackageX\\Constant</title>
<polygon fill="#eeeeee" stroke="#eeeeee" points="339,-54 255,-54 243,-42 243,-30 255,-18 339,-18 351,-30 351,-42 339,-54"/>
<path fill="#eeeeee" stroke="#eeeeee" d="M255,-54C249,-54 243,-48 243,-42"/>
<path fill="#eeeeee" stroke="#eeeeee" d="M243,-30C243,-24 249,-18 255,-18"/>
<path fill="#eeeeee" stroke="#eeeeee" d="M339,-18C345,-18 351,-24 351,-30"/>
<path fill="#eeeeee" stroke="#eeeeee" d="M351,-42C351,-48 345,-54 339,-54"/>
<polyline fill="none" stroke="black" points="339,-54 255,-54 "/>
<path fill="none" stroke="black" d="M255,-54C249,-54 243,-48 243,-42"/>
<polyline fill="none" stroke="black" points="243,-42 243,-30 "/>
<path fill="none" stroke="black" d="M243,-30C243,-24 249,-18 255,-18"/>
<polyline fill="none" stroke="black" points="255,-18 339,-18 "/>
<path fill="none" stroke="black" d="M339,-18C345,-18 351,-24 351,-30"/>
<polyline fill="none" stroke="black" points="351,-30 351,-42 "/>
<path fill="none" stroke="black" d="M351,-42C351,-48 345,-54 339,-54"/>
<text text-anchor="middle" x="297" y="-33.5" font-family="Times Roman,serif" font-size="10.00" fill="#314b5f">PackageX\Constant</text>
</g>
<!-- PackageX\\DocBlockTag&#45;&gt;PackageX\\Constant -->
<g id="edge16" class="edge"><title>PackageX\\DocBlockTag&#45;&gt;PackageX\\Constant</title>
<path fill="none" stroke="#1a2833" d="M76.5778,-167.941C98.7441,-139.82 145.529,-85.9016 198,-58 209.796,-51.7275 223.297,-47.2406 236.455,-44.0318"/>
<polygon fill="#1a2833" stroke="#1a2833" points="237.095,-46.0396 242.47,-42.6456 236.151,-41.9469 237.095,-46.0396"/>
</g>
</g>
</svg>
