<?xml version="1.0" encoding="UTF-8" standalone="no"?>
<!DOCTYPE svg PUBLIC "-//W3C//DTD SVG 1.1//EN"
 "http://www.w3.org/Graphics/SVG/1.1/DTD/svg11.dtd">
<!-- Generated by graphviz version 2.26.3 (20100126.1600)
 -->
<!-- Title: G Pages: 1 -->
<svg width="1248pt" height="356pt"
 viewBox="0.00 0.00 1248.00 356.00" xmlns="http://www.w3.org/2000/svg" xmlns:xlink="http://www.w3.org/1999/xlink">
<g id="graph1" class="graph" transform="scale(1 1) rotate(0) translate(4 352)">
<title>G</title>
<polygon fill="white" stroke="white" points="-4,5 -4,-352 1245,-352 1245,5 -4,5"/>
<!-- PackageX\\DocBlockTag -->
<g id="node1" class="node"><title>PackageX\\DocBlockTag</title>
<ellipse fill="#eeeeee" stroke="black" cx="740" cy="-289" rx="57.9441" ry="58.4436"/>
<text text-anchor="middle" x="740" y="-286.5" font-family="Times Roman,serif" font-size="10.00" fill="#314b5f">PackageX\DocBlockTag</text>
</g>
<!-- PackageC\\Filter\\FilterInterface -->
<g id="node2" class="node"><title>PackageC\\Filter\\FilterInterface</title>
<ellipse fill="#eeeeee" stroke="black" cx="75" cy="-97" rx="75.0652" ry="75.0652"/>
<text text-anchor="middle" x="75" y="-94.5" font-family="Times Roman,serif" font-size="10.00" fill="#314b5f">PackageC\Filter\FilterInterface</text>
</g>
<!-- PackageX\\DocBlockTag&#45;&gt;PackageC\\Filter\\FilterInterface -->
<g id="edge2" class="edge"><title>PackageX\\DocBlockTag&#45;&gt;PackageC\\Filter\\FilterInterface</title>
<path fill="none" stroke="#1a2833" d="M682.049,-284.549C553.41,-273.871 248.333,-243.921 159,-194 145.266,-186.325 132.716,-175.502 121.743,-163.853"/>
<polygon fill="#1a2833" stroke="#1a2833" points="123.059,-162.18 117.458,-159.175 119.963,-165.018 123.059,-162.18"/>
</g>
<!-- PackageA\\Mapper\\Query -->
<g id="node3" class="node"><title>PackageA\\Mapper\\Query</title>
<ellipse fill="#eeeeee" stroke="black" cx="231" cy="-97" rx="62.771" ry="63.2692"/>
<text text-anchor="middle" x="231" y="-94.5" font-family="Times Roman,serif" font-size="10.00" fill="#314b5f">PackageA\Mapper\Query</text>
</g>
<!-- PackageX\\DocBlockTag&#45;&gt;PackageA\\Mapper\\Query -->
<g id="edge4" class="edge"><title>PackageX\\DocBlockTag&#45;&gt;PackageA\\Mapper\\Query</title>
<path fill="none" stroke="#1a2833" d="M682.245,-281.569C578.451,-267.387 365.379,-234.261 303,-194 288.562,-184.681 275.99,-171.391 265.569,-157.625"/>
<polygon fill="#1a2833" stroke="#1a2833" points="267.075,-156.128 261.828,-152.539 263.691,-158.617 267.075,-156.128"/>
</g>
<!-- PackageA\\Entity\\Package -->
<g id="node4" class="node"><title>PackageA\\Entity\\Package</title>
<ellipse fill="#eeeeee" stroke="black" cx="376" cy="-97" rx="63.8428" ry="64.3416"/>
<text text-anchor="middle" x="376" y="-94.5" font-family="Times Roman,serif" font-size="10.00" fill="#314b5f">PackageA\Entity\Package</text>
</g>
<!-- PackageX\\DocBlockTag&#45;&gt;PackageA\\Entity\\Package -->
<g id="edge6" class="edge"><title>PackageX\\DocBlockTag&#45;&gt;PackageA\\Entity\\Package</title>
<path fill="none" stroke="#1a2833" d="M682.306,-280.751C619.997,-269.568 520.121,-244.839 449,-194 435.256,-184.176 422.962,-170.994 412.558,-157.52"/>
<polygon fill="#1a2833" stroke="#1a2833" points="414.099,-156.076 408.811,-152.549 410.745,-158.604 414.099,-156.076"/>
</g>
<!-- PackageB\\Mapper\\CommandInterface -->
<g id="node5" class="node"><title>PackageB\\Mapper\\CommandInterface</title>
<ellipse fill="#eeeeee" stroke="black" cx="555" cy="-97" rx="97.0486" ry="97.0486"/>
<text text-anchor="middle" x="555" y="-94.5" font-family="Times Roman,serif" font-size="10.00" fill="#314b5f">PackageB\Mapper\CommandInterface</text>
</g>
<!-- PackageX\\DocBlockTag&#45;&gt;PackageB\\Mapper\\CommandInterface -->
<g id="edge8" class="edge"><title>PackageX\\DocBlockTag&#45;&gt;PackageB\\Mapper\\CommandInterface</title>
<path fill="none" stroke="#1a2833" d="M699.401,-246.865C678.085,-224.742 651.333,-196.978 626.665,-171.377"/>
<polygon fill="#1a2833" stroke="#1a2833" points="628.082,-169.821 622.407,-166.957 625.058,-172.735 628.082,-169.821"/>
</g>
<!-- PackageA\\Service\\Message -->
<g id="node6" class="node"><title>PackageA\\Service\\Message</title>
<ellipse fill="#eeeeee" stroke="black" cx="740" cy="-97" rx="70.2396" ry="70.2396"/>
<text text-anchor="middle" x="740" y="-94.5" font-family="Times Roman,serif" font-size="10.00" fill="#314b5f">PackageA\Service\Message</text>
</g>
<!-- PackageX\\DocBlockTag&#45;&gt;PackageA\\Service\\Message -->
<g id="edge10" class="edge"><title>PackageX\\DocBlockTag&#45;&gt;PackageA\\Service\\Message</title>
<path fill="none" stroke="#1a2833" d="M740,-230.35C740,-212.417 740,-192.423 740,-173.487"/>
<polygon fill="#1a2833" stroke="#1a2833" points="742.1,-173.11 740,-167.11 737.9,-173.11 742.1,-173.11"/>
</g>
<!-- PackageB\\Service\\Message -->
<g id="node7" class="node"><title>PackageB\\Service\\Message</title>
<ellipse fill="#eeeeee" stroke="black" cx="898" cy="-97" rx="70.2396" ry="70.2396"/>
<text text-anchor="middle" x="898" y="-94.5" font-family="Times Roman,serif" font-size="10.00" fill="#314b5f">PackageB\Service\Message</text>
</g>
<!-- PackageX\\DocBlockTag&#45;&gt;PackageB\\Service\\Message -->
<g id="edge12" class="edge"><title>PackageX\\DocBlockTag&#45;&gt;PackageB\\Service\\Message</title>
<path fill="none" stroke="#1a2833" d="M777.468,-244.135C790.634,-228.32 805.506,-210.397 819,-194 828.991,-181.86 839.648,-168.83 849.796,-156.383"/>
<polygon fill="#1a2833" stroke="#1a2833" points="851.645,-157.438 853.808,-151.461 848.39,-154.785 851.645,-157.438"/>
</g>
<!-- Foo\\Bar -->
<g id="node8" class="node"><title>Foo\\Bar</title>
<ellipse fill="#eeeeee" stroke="black" cx="1006" cy="-97" rx="19.8387" ry="19.8387"/>
<text text-anchor="middle" x="1006" y="-94.5" font-family="Times Roman,serif" font-size="10.00" fill="#314b5f">Foo\Bar</text>
</g>
<!-- PackageX\\DocBlockTag&#45;&gt;Foo\\Bar -->
<g id="edge14" class="edge"><title>PackageX\\DocBlockTag&#45;&gt;Foo\\Bar</title>
<path fill="none" stroke="#1a2833" d="M797.606,-280.476C851.314,-269.556 929.996,-245.474 977,-194 994.691,-174.626 1001.61,-144.868 1004.31,-123.421"/>
<polygon fill="#1a2833" stroke="#1a2833" points="1006.41,-123.527 1004.99,-117.331 1002.23,-123.061 1006.41,-123.527"/>
</g>
<!-- PackageX\\Constant -->
<g id="node9" class="node"><title>PackageX\\Constant</title>
<ellipse fill="#eeeeee" stroke="black" cx="1094" cy="-97" rx="49.8647" ry="49.8647"/>
<text text-anchor="middle" x="1094" y="-94.5" font-family="Times Roman,serif" font-size="10.00" fill="#314b5f">PackageX\Constant</text>
</g>
<!-- PackageX\\DocBlockTag&#45;&gt;PackageX\\Constant -->
<g id="edge16" class="edge"><title>PackageX\\DocBlockTag&#45;&gt;PackageX\\Constant</title>
<path fill="none" stroke="#1a2833" d="M797.745,-282.543C861.656,-272.842 964.877,-249.32 1035,-194 1050.02,-182.154 1062.12,-165.353 1071.37,-149.054"/>
<polygon fill="#1a2833" stroke="#1a2833" points="1073.35,-149.823 1074.4,-143.554 1069.67,-147.798 1073.35,-149.823"/>
</g>
<!-- PackageX\\array -->
<g id="node10" class="node"><title>PackageX\\array</title>
<ellipse fill="#eeeeee" stroke="black" cx="1201" cy="-97" rx="39.1751" ry="39.6773"/>
<text text-anchor="middle" x="1201" y="-94.5" font-family="Times Roman,serif" font-size="10.00" fill="#314b5f">PackageX\array</text>
</g>
<!-- PackageX\\DocBlockTag&#45;&gt;PackageX\\array -->
<g id="edge18" class="edge"><title>PackageX\\DocBlockTag&#45;&gt;PackageX\\array</title>
<path fill="none" stroke="#1a2833" d="M797.658,-281.901C897.753,-268.591 1098.23,-237.275 1153,-194 1169.83,-180.699 1181.2,-159.965 1188.63,-141.075"/>
<polygon fill="#1a2833" stroke="#1a2833" points="1190.66,-141.637 1190.81,-135.282 1186.73,-140.158 1190.66,-141.637"/>
</g>
</g>
</svg>
