<?xml version="1.0" encoding="UTF-8" standalone="no"?>
<!DOCTYPE svg PUBLIC "-//W3C//DTD SVG 1.1//EN"
 "http://www.w3.org/Graphics/SVG/1.1/DTD/svg11.dtd">
<!-- Generated by graphviz version 2.26.3 (20100126.1600)
 -->
<!-- Title: G Pages: 1 -->
<svg width="622pt" height="642pt"
 viewBox="0.00 0.00 622.00 642.00" xmlns="http://www.w3.org/2000/svg" xmlns:xlink="http://www.w3.org/1999/xlink">
<g id="graph1" class="graph" transform="scale(1 1) rotate(0) translate(4 638)">
<title>G</title>
<polygon fill="white" stroke="white" points="-4,5 -4,-638 619,-638 619,5 -4,5"/>
<!-- PhpDA\\Writer\\AdapterInterface -->
<g id="node1" class="node"><title>PhpDA\\Writer\\AdapterInterface</title>
<ellipse fill="#eeeeee" stroke="black" cx="78" cy="-347" rx="77.7837" ry="78.2823"/>
<text text-anchor="middle" x="78" y="-344.5" font-family="Times Roman,serif" font-size="10.00" fill="#314b5f">PhpDA\Writer\AdapterInterface</text>
</g>
<!-- PhpDA\\Writer\\Adapter -->
<g id="node2" class="node"><title>PhpDA\\Writer\\Adapter</title>
<ellipse fill="#eeeeee" stroke="black" cx="78" cy="-560" rx="55.7627" ry="55.7627"/>
<text text-anchor="middle" x="78" y="-557.5" font-family="Times Roman,serif" font-size="10.00" fill="#314b5f">PhpDA\Writer\Adapter</text>
</g>
<!-- PhpDA\\Writer\\Adapter&#45;&gt;PhpDA\\Writer\\AdapterInterface -->
<g id="edge2" class="edge"><title>PhpDA\\Writer\\Adapter&#45;&gt;PhpDA\\Writer\\AdapterInterface</title>
<path fill="none" stroke="#1a2833" stroke-dasharray="5,2" d="M78,-503.758C78,-481.715 78,-455.945 78,-431.741"/>
<polygon fill="#1a2833" stroke="#1a2833" points="80.1001,-431.624 78,-425.624 75.9001,-431.624 80.1001,-431.624"/>
</g>
<!-- PhpDA\\Writer\\Strategy\\Script -->
<g id="node3" class="node"><title>PhpDA\\Writer\\Strategy\\Script</title>
<ellipse fill="#eeeeee" stroke="black" cx="226" cy="-560" rx="73.9928" ry="73.9928"/>
<text text-anchor="middle" x="226" y="-557.5" font-family="Times Roman,serif" font-size="10.00" fill="#314b5f">PhpDA\Writer\Strategy\Script</text>
</g>
<!-- PhpDA\\Writer\\Strategy\\AbstractStrategy -->
<g id="node4" class="node"><title>PhpDA\\Writer\\Strategy\\AbstractStrategy</title>
<ellipse fill="#eeeeee" stroke="black" cx="386" cy="-347" rx="102.947" ry="102.947"/>
<text text-anchor="middle" x="386" y="-344.5" font-family="Times Roman,serif" font-size="10.00" fill="#314b5f">PhpDA\Writer\Strategy\AbstractStrategy</text>
</g>
<!-- PhpDA\\Writer\\Strategy\\Script&#45;&gt;PhpDA\\Writer\\Strategy\\AbstractStrategy -->
<g id="edge4" class="edge"><title>PhpDA\\Writer\\Strategy\\Script&#45;&gt;PhpDA\\Writer\\Strategy\\AbstractStrategy</title>
<path fill="none" stroke="#1a2833" stroke-dasharray="5,2" d="M270.569,-500.668C285.957,-480.183 303.536,-456.78 320.257,-434.521"/>
<polygon fill="#1a2833" stroke="#1a2833" points="322.11,-435.55 324.034,-429.492 318.752,-433.028 322.11,-435.55"/>
</g>
<!-- PhpDA\\Writer\\Strategy\\StrategyInterface -->
<g id="node6" class="node"><title>PhpDA\\Writer\\Strategy\\StrategyInterface</title>
<ellipse fill="#eeeeee" stroke="black" cx="386" cy="-104" rx="102.983" ry="103.483"/>
<text text-anchor="middle" x="386" y="-101.5" font-family="Times Roman,serif" font-size="10.00" fill="#314b5f">PhpDA\Writer\Strategy\StrategyInterface</text>
</g>
<!-- PhpDA\\Writer\\Strategy\\AbstractStrategy&#45;&gt;PhpDA\\Writer\\Strategy\\StrategyInterface -->
<g id="edge8" class="edge"><title>PhpDA\\Writer\\Strategy\\AbstractStrategy&#45;&gt;PhpDA\\Writer\\Strategy\\StrategyInterface</title>
<path fill="none" stroke="#1a2833" stroke-dasharray="5,2" d="M386,-243.946C386,-233.984 386,-223.852 386,-213.827"/>
<polygon fill="#1a2833" stroke="#1a2833" points="388.1,-213.602 386,-207.602 383.9,-213.602 388.1,-213.602"/>
</g>
<!-- PhpDA\\Writer\\Strategy\\Svg -->
<g id="node5" class="node"><title>PhpDA\\Writer\\Strategy\\Svg</title>
<ellipse fill="#eeeeee" stroke="black" cx="386" cy="-560" rx="68.1301" ry="68.631"/>
<text text-anchor="middle" x="386" y="-557.5" font-family="Times Roman,serif" font-size="10.00" fill="#314b5f">PhpDA\Writer\Strategy\Svg</text>
</g>
<!-- PhpDA\\Writer\\Strategy\\Svg&#45;&gt;PhpDA\\Writer\\Strategy\\AbstractStrategy -->
<g id="edge6" class="edge"><title>PhpDA\\Writer\\Strategy\\Svg&#45;&gt;PhpDA\\Writer\\Strategy\\AbstractStrategy</title>
<path fill="none" stroke="#1a2833" stroke-dasharray="5,2" d="M386,-491.433C386,-480.248 386,-468.421 386,-456.544"/>
<polygon fill="#1a2833" stroke="#1a2833" points="388.1,-456.332 386,-450.332 383.9,-456.332 388.1,-456.332"/>
</g>
<!-- PhpDA\\Writer\\Strategy\\Html -->
<g id="node7" class="node"><title>PhpDA\\Writer\\Strategy\\Html</title>
<ellipse fill="#eeeeee" stroke="black" cx="543" cy="-560" rx="70.8132" ry="71.3119"/>
<text text-anchor="middle" x="543" y="-557.5" font-family="Times Roman,serif" font-size="10.00" fill="#314b5f">PhpDA\Writer\Strategy\Html</text>
</g>
<!-- PhpDA\\Writer\\Strategy\\Html&#45;&gt;PhpDA\\Writer\\Strategy\\AbstractStrategy -->
<g id="edge10" class="edge"><title>PhpDA\\Writer\\Strategy\\Html&#45;&gt;PhpDA\\Writer\\Strategy\\AbstractStrategy</title>
<path fill="none" stroke="#1a2833" stroke-dasharray="5,2" d="M500.514,-502.359C485.317,-481.742 467.821,-458.005 451.152,-435.391"/>
<polygon fill="#1a2833" stroke="#1a2833" points="452.636,-433.865 447.385,-430.281 449.255,-436.357 452.636,-433.865"/>
</g>
</g>
</svg>
