<?xml version="1.0" encoding="UTF-8" standalone="no"?>
<!DOCTYPE svg PUBLIC "-//W3C//DTD SVG 1.1//EN"
 "http://www.w3.org/Graphics/SVG/1.1/DTD/svg11.dtd">
<!-- Generated by graphviz version 2.26.3 (20100126.1600)
 -->
<!-- Title: G Pages: 1 -->
<svg width="726pt" height="191pt"
 viewBox="0.00 0.00 726.00 191.00" xmlns="http://www.w3.org/2000/svg" xmlns:xlink="http://www.w3.org/1999/xlink">
<g id="graph1" class="graph" transform="scale(1 1) rotate(0) translate(4 187)">
<title>G</title>
<polygon fill="white" stroke="white" points="-4,5 -4,-187 723,-187 723,5 -4,5"/>
<text text-anchor="middle" x="359" y="-6.8" font-family="Times Roman,serif" font-size="8.00">PhpDependencyAnalyse by Marco Muths (dev&#45;master)</text>
<!-- PhpDA\\Writer\\AdapterInterface -->
<g id="node1" class="node"><title>PhpDA\\Writer\\AdapterInterface</title>
<polygon fill="#9999cc" stroke="#9999cc" points="400,-54 262,-54 250,-42 250,-30 262,-18 400,-18 412,-30 412,-42 400,-54"/>
<path fill="#9999cc" stroke="#9999cc" d="M262,-54C256,-54 250,-48 250,-42"/>
<path fill="#9999cc" stroke="#9999cc" d="M250,-30C250,-24 256,-18 262,-18"/>
<path fill="#9999cc" stroke="#9999cc" d="M400,-18C406,-18 412,-24 412,-30"/>
<path fill="#9999cc" stroke="#9999cc" d="M412,-42C412,-48 406,-54 400,-54"/>
<polyline fill="none" stroke="black" points="400,-54 262,-54 "/>
<path fill="none" stroke="black" d="M262,-54C256,-54 250,-48 250,-42"/>
<polyline fill="none" stroke="black" points="250,-42 250,-30 "/>
<path fill="none" stroke="black" d="M250,-30C250,-24 256,-18 262,-18"/>
<polyline fill="none" stroke="black" points="262,-18 400,-18 "/>
<path fill="none" stroke="black" d="M400,-18C406,-18 412,-24 412,-30"/>
<polyline fill="none" stroke="black" points="412,-30 412,-42 "/>
<path fill="none" stroke="black" d="M412,-42C412,-48 406,-54 400,-54"/>
<text text-anchor="middle" x="331" y="-33.5" font-family="Times Roman,serif" font-size="10.00" fill="#000033">PhpDA\Writer\AdapterInterface</text>
</g>
<!-- PhpDA\\Writer\\Adapter -->
<g id="node2" class="node"><title>PhpDA\\Writer\\Adapter</title>
<polygon fill="#9999cc" stroke="#9999cc" points="125,-54 29,-54 17,-42 17,-30 29,-18 125,-18 137,-30 137,-42 125,-54"/>
<path fill="#9999cc" stroke="#9999cc" d="M29,-54C23,-54 17,-48 17,-42"/>
<path fill="#9999cc" stroke="#9999cc" d="M17,-30C17,-24 23,-18 29,-18"/>
<path fill="#9999cc" stroke="#9999cc" d="M125,-18C131,-18 137,-24 137,-30"/>
<path fill="#9999cc" stroke="#9999cc" d="M137,-42C137,-48 131,-54 125,-54"/>
<polyline fill="none" stroke="black" points="125,-54 29,-54 "/>
<path fill="none" stroke="black" d="M29,-54C23,-54 17,-48 17,-42"/>
<polyline fill="none" stroke="black" points="17,-42 17,-30 "/>
<path fill="none" stroke="black" d="M17,-30C17,-24 23,-18 29,-18"/>
<polyline fill="none" stroke="black" points="29,-18 125,-18 "/>
<path fill="none" stroke="black" d="M125,-18C131,-18 137,-24 137,-30"/>
<polyline fill="none" stroke="black" points="137,-30 137,-42 "/>
<path fill="none" stroke="black" d="M137,-42C137,-48 131,-54 125,-54"/>
<text text-anchor="middle" x="77" y="-33.5" font-family="Times Roman,serif" font-size="10.00" fill="#000033">PhpDA\Writer\Adapter</text>
</g>
<!-- PhpDA\\Writer\\Adapter&#45;&gt;PhpDA\\Writer\\AdapterInterface -->
<g id="edge2" class="edge"><title>PhpDA\\Writer\\Adapter&#45;&gt;PhpDA\\Writer\\AdapterInterface</title>
<path fill="none" stroke="#999999" stroke-dasharray="5,2" d="M137.194,-36C168.952,-36 208.501,-36 243.575,-36"/>
<polygon fill="#999999" stroke="#999999" points="243.615,-38.1001 249.615,-36 243.615,-33.9001 243.615,-38.1001"/>
</g>
<!-- PhpDA\\Writer\\Strategy\\AbstractGraphViz -->
<g id="node3" class="node"><title>PhpDA\\Writer\\Strategy\\AbstractGraphViz</title>
<polygon fill="#9999cc" stroke="#9999cc" points="424,-140 238,-140 226,-128 226,-116 238,-104 424,-104 436,-116 436,-128 424,-140"/>
<path fill="#9999cc" stroke="#9999cc" d="M238,-140C232,-140 226,-134 226,-128"/>
<path fill="#9999cc" stroke="#9999cc" d="M226,-116C226,-110 232,-104 238,-104"/>
<path fill="#9999cc" stroke="#9999cc" d="M424,-104C430,-104 436,-110 436,-116"/>
<path fill="#9999cc" stroke="#9999cc" d="M436,-128C436,-134 430,-140 424,-140"/>
<polyline fill="none" stroke="black" points="424,-140 238,-140 "/>
<path fill="none" stroke="black" d="M238,-140C232,-140 226,-134 226,-128"/>
<polyline fill="none" stroke="black" points="226,-128 226,-116 "/>
<path fill="none" stroke="black" d="M226,-116C226,-110 232,-104 238,-104"/>
<polyline fill="none" stroke="black" points="238,-104 424,-104 "/>
<path fill="none" stroke="black" d="M424,-104C430,-104 436,-110 436,-116"/>
<polyline fill="none" stroke="black" points="436,-116 436,-128 "/>
<path fill="none" stroke="black" d="M436,-128C436,-134 430,-140 424,-140"/>
<text text-anchor="middle" x="331" y="-119.5" font-family="Times Roman,serif" font-size="10.00" fill="#000033">PhpDA\Writer\Strategy\AbstractGraphViz</text>
</g>
<!-- PhpDA\\Writer\\Strategy\\StrategyInterface -->
<g id="node4" class="node"><title>PhpDA\\Writer\\Strategy\\StrategyInterface</title>
<polygon fill="#9999cc" stroke="#9999cc" points="705,-161 521,-161 509,-149 509,-137 521,-125 705,-125 717,-137 717,-149 705,-161"/>
<path fill="#9999cc" stroke="#9999cc" d="M521,-161C515,-161 509,-155 509,-149"/>
<path fill="#9999cc" stroke="#9999cc" d="M509,-137C509,-131 515,-125 521,-125"/>
<path fill="#9999cc" stroke="#9999cc" d="M705,-125C711,-125 717,-131 717,-137"/>
<path fill="#9999cc" stroke="#9999cc" d="M717,-149C717,-155 711,-161 705,-161"/>
<polyline fill="none" stroke="black" points="705,-161 521,-161 "/>
<path fill="none" stroke="black" d="M521,-161C515,-161 509,-155 509,-149"/>
<polyline fill="none" stroke="black" points="509,-149 509,-137 "/>
<path fill="none" stroke="black" d="M509,-137C509,-131 515,-125 521,-125"/>
<polyline fill="none" stroke="black" points="521,-125 705,-125 "/>
<path fill="none" stroke="black" d="M705,-125C711,-125 717,-131 717,-137"/>
<polyline fill="none" stroke="black" points="717,-137 717,-149 "/>
<path fill="none" stroke="black" d="M717,-149C717,-155 711,-161 705,-161"/>
<text text-anchor="middle" x="613" y="-140.5" font-family="Times Roman,serif" font-size="10.00" fill="#000033">PhpDA\Writer\Strategy\StrategyInterface</text>
</g>
<!-- PhpDA\\Writer\\Strategy\\AbstractGraphViz&#45;&gt;PhpDA\\Writer\\Strategy\\StrategyInterface -->
<g id="edge4" class="edge"><title>PhpDA\\Writer\\Strategy\\AbstractGraphViz&#45;&gt;PhpDA\\Writer\\Strategy\\StrategyInterface</title>
<path fill="none" stroke="#999999" stroke-dasharray="5,2" d="M436.006,-129.82C457.62,-131.429 480.443,-133.129 502.253,-134.753"/>
<polygon fill="#999999" stroke="#999999" points="502.236,-136.857 508.376,-135.209 502.548,-132.669 502.236,-136.857"/>
</g>
<!-- PhpDA\\Writer\\Strategy\\Script -->
<g id="node5" class="node"><title>PhpDA\\Writer\\Strategy\\Script</title>
<polygon fill="#9999cc" stroke="#9999cc" points="142,-183 12,-183 5.68434e-14,-171 2.84217e-14,-159 12,-147 142,-147 154,-159 154,-171 142,-183"/>
<path fill="#9999cc" stroke="#9999cc" d="M12,-183C6,-183 7.10543e-14,-177 5.68434e-14,-171"/>
<path fill="#9999cc" stroke="#9999cc" d="M2.84217e-14,-159C1.42109e-14,-153 6,-147 12,-147"/>
<path fill="#9999cc" stroke="#9999cc" d="M142,-147C148,-147 154,-153 154,-159"/>
<path fill="#9999cc" stroke="#9999cc" d="M154,-171C154,-177 148,-183 142,-183"/>
<polyline fill="none" stroke="black" points="142,-183 12,-183 "/>
<path fill="none" stroke="black" d="M12,-183C6,-183 7.10543e-14,-177 5.68434e-14,-171"/>
<polyline fill="none" stroke="black" points="5.68434e-14,-171 2.84217e-14,-159 "/>
<path fill="none" stroke="black" d="M2.84217e-14,-159C1.42109e-14,-153 6,-147 12,-147"/>
<polyline fill="none" stroke="black" points="12,-147 142,-147 "/>
<path fill="none" stroke="black" d="M142,-147C148,-147 154,-153 154,-159"/>
<polyline fill="none" stroke="black" points="154,-159 154,-171 "/>
<path fill="none" stroke="black" d="M154,-171C154,-177 148,-183 142,-183"/>
<text text-anchor="middle" x="77" y="-162.5" font-family="Times Roman,serif" font-size="10.00" fill="#000033">PhpDA\Writer\Strategy\Script</text>
</g>
<!-- PhpDA\\Writer\\Strategy\\Script&#45;&gt;PhpDA\\Writer\\Strategy\\AbstractGraphViz -->
<g id="edge6" class="edge"><title>PhpDA\\Writer\\Strategy\\Script&#45;&gt;PhpDA\\Writer\\Strategy\\AbstractGraphViz</title>
<path fill="none" stroke="#999999" stroke-dasharray="5,2" d="M154.243,-151.923C174.788,-148.445 197.397,-144.618 219.382,-140.896"/>
<polygon fill="#999999" stroke="#999999" points="219.999,-142.922 225.564,-139.849 219.297,-138.78 219.999,-142.922"/>
</g>
<!-- PhpDA\\Writer\\Strategy\\Svg -->
<g id="node6" class="node"><title>PhpDA\\Writer\\Strategy\\Svg</title>
<polygon fill="#9999cc" stroke="#9999cc" points="137,-140 17,-140 5,-128 5,-116 17,-104 137,-104 149,-116 149,-128 137,-140"/>
<path fill="#9999cc" stroke="#9999cc" d="M17,-140C11,-140 5,-134 5,-128"/>
<path fill="#9999cc" stroke="#9999cc" d="M5,-116C5,-110 11,-104 17,-104"/>
<path fill="#9999cc" stroke="#9999cc" d="M137,-104C143,-104 149,-110 149,-116"/>
<path fill="#9999cc" stroke="#9999cc" d="M149,-128C149,-134 143,-140 137,-140"/>
<polyline fill="none" stroke="black" points="137,-140 17,-140 "/>
<path fill="none" stroke="black" d="M17,-140C11,-140 5,-134 5,-128"/>
<polyline fill="none" stroke="black" points="5,-128 5,-116 "/>
<path fill="none" stroke="black" d="M5,-116C5,-110 11,-104 17,-104"/>
<polyline fill="none" stroke="black" points="17,-104 137,-104 "/>
<path fill="none" stroke="black" d="M137,-104C143,-104 149,-110 149,-116"/>
<polyline fill="none" stroke="black" points="149,-116 149,-128 "/>
<path fill="none" stroke="black" d="M149,-128C149,-134 143,-140 137,-140"/>
<text text-anchor="middle" x="77" y="-119.5" font-family="Times Roman,serif" font-size="10.00" fill="#000033">PhpDA\Writer\Strategy\Svg</text>
</g>
<!-- PhpDA\\Writer\\Strategy\\Svg&#45;&gt;PhpDA\\Writer\\Strategy\\AbstractGraphViz -->
<g id="edge8" class="edge"><title>PhpDA\\Writer\\Strategy\\Svg&#45;&gt;PhpDA\\Writer\\Strategy\\AbstractGraphViz</title>
<path fill="none" stroke="#999999" stroke-dasharray="5,2" d="M149.107,-122C171.146,-122 195.916,-122 219.915,-122"/>
<polygon fill="#999999" stroke="#999999" points="219.998,-124.1 225.998,-122 219.998,-119.9 219.998,-124.1"/>
</g>
<!-- PhpDA\\Writer\\Strategy\\Html -->
<g id="node7" class="node"><title>PhpDA\\Writer\\Strategy\\Html</title>
<polygon fill="#9999cc" stroke="#9999cc" points="139,-97 15,-97 3,-85 3,-73 15,-61 139,-61 151,-73 151,-85 139,-97"/>
<path fill="#9999cc" stroke="#9999cc" d="M15,-97C9,-97 3,-91 3,-85"/>
<path fill="#9999cc" stroke="#9999cc" d="M3,-73C3,-67 9,-61 15,-61"/>
<path fill="#9999cc" stroke="#9999cc" d="M139,-61C145,-61 151,-67 151,-73"/>
<path fill="#9999cc" stroke="#9999cc" d="M151,-85C151,-91 145,-97 139,-97"/>
<polyline fill="none" stroke="black" points="139,-97 15,-97 "/>
<path fill="none" stroke="black" d="M15,-97C9,-97 3,-91 3,-85"/>
<polyline fill="none" stroke="black" points="3,-85 3,-73 "/>
<path fill="none" stroke="black" d="M3,-73C3,-67 9,-61 15,-61"/>
<polyline fill="none" stroke="black" points="15,-61 139,-61 "/>
<path fill="none" stroke="black" d="M139,-61C145,-61 151,-67 151,-73"/>
<polyline fill="none" stroke="black" points="151,-73 151,-85 "/>
<path fill="none" stroke="black" d="M151,-85C151,-91 145,-97 139,-97"/>
<text text-anchor="middle" x="77" y="-76.5" font-family="Times Roman,serif" font-size="10.00" fill="#000033">PhpDA\Writer\Strategy\Html</text>
</g>
<!-- PhpDA\\Writer\\Strategy\\Html&#45;&gt;PhpDA\\Writer\\Strategy\\AbstractGraphViz -->
<g id="edge10" class="edge"><title>PhpDA\\Writer\\Strategy\\Html&#45;&gt;PhpDA\\Writer\\Strategy\\AbstractGraphViz</title>
<path fill="none" stroke="#999999" stroke-dasharray="5,2" d="M151.835,-91.6688C173.059,-95.2619 196.636,-99.2533 219.53,-103.129"/>
<polygon fill="#999999" stroke="#999999" points="219.382,-105.234 225.648,-104.165 220.083,-101.093 219.382,-105.234"/>
</g>
<!-- PhpDA\\Writer\\Strategy\\Json -->
<g id="node8" class="node"><title>PhpDA\\Writer\\Strategy\\Json</title>
<polygon fill="#9999cc" stroke="#9999cc" points="392,-183 270,-183 258,-171 258,-159 270,-147 392,-147 404,-159 404,-171 392,-183"/>
<path fill="#9999cc" stroke="#9999cc" d="M270,-183C264,-183 258,-177 258,-171"/>
<path fill="#9999cc" stroke="#9999cc" d="M258,-159C258,-153 264,-147 270,-147"/>
<path fill="#9999cc" stroke="#9999cc" d="M392,-147C398,-147 404,-153 404,-159"/>
<path fill="#9999cc" stroke="#9999cc" d="M404,-171C404,-177 398,-183 392,-183"/>
<polyline fill="none" stroke="black" points="392,-183 270,-183 "/>
<path fill="none" stroke="black" d="M270,-183C264,-183 258,-177 258,-171"/>
<polyline fill="none" stroke="black" points="258,-171 258,-159 "/>
<path fill="none" stroke="black" d="M258,-159C258,-153 264,-147 270,-147"/>
<polyline fill="none" stroke="black" points="270,-147 392,-147 "/>
<path fill="none" stroke="black" d="M392,-147C398,-147 404,-153 404,-159"/>
<polyline fill="none" stroke="black" points="404,-159 404,-171 "/>
<path fill="none" stroke="black" d="M404,-171C404,-177 398,-183 392,-183"/>
<text text-anchor="middle" x="331" y="-162.5" font-family="Times Roman,serif" font-size="10.00" fill="#000033">PhpDA\Writer\Strategy\Json</text>
</g>
<!-- PhpDA\\Writer\\Strategy\\Json&#45;&gt;PhpDA\\Writer\\Strategy\\StrategyInterface -->
<g id="edge12" class="edge"><title>PhpDA\\Writer\\Strategy\\Json&#45;&gt;PhpDA\\Writer\\Strategy\\StrategyInterface</title>
<path fill="none" stroke="#999999" stroke-dasharray="5,2" d="M404.356,-159.277C434.237,-156.946 469.431,-154.2 502.315,-151.635"/>
<polygon fill="#999999" stroke="#999999" points="502.608,-153.719 508.426,-151.158 502.281,-149.531 502.608,-153.719"/>
</g>
</g>
</svg>
