<?xml version="1.0" encoding="UTF-8" standalone="no"?>
<!DOCTYPE svg PUBLIC "-//W3C//DTD SVG 1.1//EN"
 "http://www.w3.org/Graphics/SVG/1.1/DTD/svg11.dtd">
<!-- Generated by graphviz version 2.26.3 (20100126.1600)
 -->
<!-- Title: G Pages: 1 -->
<svg width="738pt" height="234pt"
 viewBox="0.00 0.00 738.00 234.00" xmlns="http://www.w3.org/2000/svg" xmlns:xlink="http://www.w3.org/1999/xlink">
<g id="graph1" class="graph" transform="scale(1 1) rotate(0) translate(4 230)">
<title>G</title>
<polygon fill="white" stroke="white" points="-4,5 -4,-230 735,-230 735,5 -4,5"/>
<text text-anchor="middle" x="365" y="-6.8" font-family="Times Roman,serif" font-size="8.00">PhpDependencyAnalyse by Marco Muths (dev&#45;master)</text>
<!-- PhpDA\\Writer\\Extractor\\Graph -->
<g id="node1" class="node"><title>PhpDA\\Writer\\Extractor\\Graph</title>
<polygon fill="#9999cc" stroke="#9999cc" points="146,-54 12,-54 4.73695e-14,-42 2.36848e-14,-30 12,-18 146,-18 158,-30 158,-42 146,-54"/>
<path fill="#9999cc" stroke="#9999cc" d="M12,-54C6,-54 5.92119e-14,-48 4.73695e-14,-42"/>
<path fill="#9999cc" stroke="#9999cc" d="M2.36848e-14,-30C1.18424e-14,-24 6,-18 12,-18"/>
<path fill="#9999cc" stroke="#9999cc" d="M146,-18C152,-18 158,-24 158,-30"/>
<path fill="#9999cc" stroke="#9999cc" d="M158,-42C158,-48 152,-54 146,-54"/>
<polyline fill="none" stroke="black" points="146,-54 12,-54 "/>
<path fill="none" stroke="black" d="M12,-54C6,-54 5.92119e-14,-48 4.73695e-14,-42"/>
<polyline fill="none" stroke="black" points="4.73695e-14,-42 2.36848e-14,-30 "/>
<path fill="none" stroke="black" d="M2.36848e-14,-30C1.18424e-14,-24 6,-18 12,-18"/>
<polyline fill="none" stroke="black" points="12,-18 146,-18 "/>
<path fill="none" stroke="black" d="M146,-18C152,-18 158,-24 158,-30"/>
<polyline fill="none" stroke="black" points="158,-30 158,-42 "/>
<path fill="none" stroke="black" d="M158,-42C158,-48 152,-54 146,-54"/>
<text text-anchor="middle" x="79" y="-33.5" font-family="Times Roman,serif" font-size="10.00" fill="#000033">PhpDA\Writer\Extractor\Graph</text>
</g>
<!-- PhpDA\\Writer\\Extractor\\ExtractionInterface -->
<g id="node2" class="node"><title>PhpDA\\Writer\\Extractor\\ExtractionInterface</title>
<polygon fill="#9999cc" stroke="#9999cc" points="436,-54 242,-54 230,-42 230,-30 242,-18 436,-18 448,-30 448,-42 436,-54"/>
<path fill="#9999cc" stroke="#9999cc" d="M242,-54C236,-54 230,-48 230,-42"/>
<path fill="#9999cc" stroke="#9999cc" d="M230,-30C230,-24 236,-18 242,-18"/>
<path fill="#9999cc" stroke="#9999cc" d="M436,-18C442,-18 448,-24 448,-30"/>
<path fill="#9999cc" stroke="#9999cc" d="M448,-42C448,-48 442,-54 436,-54"/>
<polyline fill="none" stroke="black" points="436,-54 242,-54 "/>
<path fill="none" stroke="black" d="M242,-54C236,-54 230,-48 230,-42"/>
<polyline fill="none" stroke="black" points="230,-42 230,-30 "/>
<path fill="none" stroke="black" d="M230,-30C230,-24 236,-18 242,-18"/>
<polyline fill="none" stroke="black" points="242,-18 436,-18 "/>
<path fill="none" stroke="black" d="M436,-18C442,-18 448,-24 448,-30"/>
<polyline fill="none" stroke="black" points="448,-30 448,-42 "/>
<path fill="none" stroke="black" d="M448,-42C448,-48 442,-54 436,-54"/>
<text text-anchor="middle" x="339" y="-33.5" font-family="Times Roman,serif" font-size="10.00" fill="#000033">PhpDA\Writer\Extractor\ExtractionInterface</text>
</g>
<!-- PhpDA\\Writer\\Extractor\\Graph&#45;&gt;PhpDA\\Writer\\Extractor\\ExtractionInterface -->
<g id="edge2" class="edge"><title>PhpDA\\Writer\\Extractor\\Graph&#45;&gt;PhpDA\\Writer\\Extractor\\ExtractionInterface</title>
<path fill="none" stroke="#999999" stroke-dasharray="5,2" d="M158.068,-36C178.688,-36 201.34,-36 223.429,-36"/>
<polygon fill="#999999" stroke="#999999" points="223.642,-38.1001 229.642,-36 223.642,-33.9001 223.642,-38.1001"/>
</g>
<!-- PhpDA\\Writer\\AdapterInterface -->
<g id="node3" class="node"><title>PhpDA\\Writer\\AdapterInterface</title>
<polygon fill="#9999cc" stroke="#9999cc" points="408,-97 270,-97 258,-85 258,-73 270,-61 408,-61 420,-73 420,-85 408,-97"/>
<path fill="#9999cc" stroke="#9999cc" d="M270,-97C264,-97 258,-91 258,-85"/>
<path fill="#9999cc" stroke="#9999cc" d="M258,-73C258,-67 264,-61 270,-61"/>
<path fill="#9999cc" stroke="#9999cc" d="M408,-61C414,-61 420,-67 420,-73"/>
<path fill="#9999cc" stroke="#9999cc" d="M420,-85C420,-91 414,-97 408,-97"/>
<polyline fill="none" stroke="black" points="408,-97 270,-97 "/>
<path fill="none" stroke="black" d="M270,-97C264,-97 258,-91 258,-85"/>
<polyline fill="none" stroke="black" points="258,-85 258,-73 "/>
<path fill="none" stroke="black" d="M258,-73C258,-67 264,-61 270,-61"/>
<polyline fill="none" stroke="black" points="270,-61 408,-61 "/>
<path fill="none" stroke="black" d="M408,-61C414,-61 420,-67 420,-73"/>
<polyline fill="none" stroke="black" points="420,-73 420,-85 "/>
<path fill="none" stroke="black" d="M420,-85C420,-91 414,-97 408,-97"/>
<text text-anchor="middle" x="339" y="-76.5" font-family="Times Roman,serif" font-size="10.00" fill="#000033">PhpDA\Writer\AdapterInterface</text>
</g>
<!-- PhpDA\\Writer\\Adapter -->
<g id="node4" class="node"><title>PhpDA\\Writer\\Adapter</title>
<polygon fill="#9999cc" stroke="#9999cc" points="127,-97 31,-97 19,-85 19,-73 31,-61 127,-61 139,-73 139,-85 127,-97"/>
<path fill="#9999cc" stroke="#9999cc" d="M31,-97C25,-97 19,-91 19,-85"/>
<path fill="#9999cc" stroke="#9999cc" d="M19,-73C19,-67 25,-61 31,-61"/>
<path fill="#9999cc" stroke="#9999cc" d="M127,-61C133,-61 139,-67 139,-73"/>
<path fill="#9999cc" stroke="#9999cc" d="M139,-85C139,-91 133,-97 127,-97"/>
<polyline fill="none" stroke="black" points="127,-97 31,-97 "/>
<path fill="none" stroke="black" d="M31,-97C25,-97 19,-91 19,-85"/>
<polyline fill="none" stroke="black" points="19,-85 19,-73 "/>
<path fill="none" stroke="black" d="M19,-73C19,-67 25,-61 31,-61"/>
<polyline fill="none" stroke="black" points="31,-61 127,-61 "/>
<path fill="none" stroke="black" d="M127,-61C133,-61 139,-67 139,-73"/>
<polyline fill="none" stroke="black" points="139,-73 139,-85 "/>
<path fill="none" stroke="black" d="M139,-85C139,-91 133,-97 127,-97"/>
<text text-anchor="middle" x="79" y="-76.5" font-family="Times Roman,serif" font-size="10.00" fill="#000033">PhpDA\Writer\Adapter</text>
</g>
<!-- PhpDA\\Writer\\Adapter&#45;&gt;PhpDA\\Writer\\AdapterInterface -->
<g id="edge4" class="edge"><title>PhpDA\\Writer\\Adapter&#45;&gt;PhpDA\\Writer\\AdapterInterface</title>
<path fill="none" stroke="#999999" stroke-dasharray="5,2" d="M139.303,-79C172.628,-79 214.629,-79 251.503,-79"/>
<polygon fill="#999999" stroke="#999999" points="251.848,-81.1001 257.848,-79 251.848,-76.9001 251.848,-81.1001"/>
</g>
<!-- PhpDA\\Writer\\Strategy\\AbstractGraphViz -->
<g id="node5" class="node"><title>PhpDA\\Writer\\Strategy\\AbstractGraphViz</title>
<polygon fill="#9999cc" stroke="#9999cc" points="432,-183 246,-183 234,-171 234,-159 246,-147 432,-147 444,-159 444,-171 432,-183"/>
<path fill="#9999cc" stroke="#9999cc" d="M246,-183C240,-183 234,-177 234,-171"/>
<path fill="#9999cc" stroke="#9999cc" d="M234,-159C234,-153 240,-147 246,-147"/>
<path fill="#9999cc" stroke="#9999cc" d="M432,-147C438,-147 444,-153 444,-159"/>
<path fill="#9999cc" stroke="#9999cc" d="M444,-171C444,-177 438,-183 432,-183"/>
<polyline fill="none" stroke="black" points="432,-183 246,-183 "/>
<path fill="none" stroke="black" d="M246,-183C240,-183 234,-177 234,-171"/>
<polyline fill="none" stroke="black" points="234,-171 234,-159 "/>
<path fill="none" stroke="black" d="M234,-159C234,-153 240,-147 246,-147"/>
<polyline fill="none" stroke="black" points="246,-147 432,-147 "/>
<path fill="none" stroke="black" d="M432,-147C438,-147 444,-153 444,-159"/>
<polyline fill="none" stroke="black" points="444,-159 444,-171 "/>
<path fill="none" stroke="black" d="M444,-171C444,-177 438,-183 432,-183"/>
<text text-anchor="middle" x="339" y="-162.5" font-family="Times Roman,serif" font-size="10.00" fill="#000033">PhpDA\Writer\Strategy\AbstractGraphViz</text>
</g>
<!-- PhpDA\\Writer\\Strategy\\StrategyInterface -->
<g id="node6" class="node"><title>PhpDA\\Writer\\Strategy\\StrategyInterface</title>
<polygon fill="#9999cc" stroke="#9999cc" points="717,-204 533,-204 521,-192 521,-180 533,-168 717,-168 729,-180 729,-192 717,-204"/>
<path fill="#9999cc" stroke="#9999cc" d="M533,-204C527,-204 521,-198 521,-192"/>
<path fill="#9999cc" stroke="#9999cc" d="M521,-180C521,-174 527,-168 533,-168"/>
<path fill="#9999cc" stroke="#9999cc" d="M717,-168C723,-168 729,-174 729,-180"/>
<path fill="#9999cc" stroke="#9999cc" d="M729,-192C729,-198 723,-204 717,-204"/>
<polyline fill="none" stroke="black" points="717,-204 533,-204 "/>
<path fill="none" stroke="black" d="M533,-204C527,-204 521,-198 521,-192"/>
<polyline fill="none" stroke="black" points="521,-192 521,-180 "/>
<path fill="none" stroke="black" d="M521,-180C521,-174 527,-168 533,-168"/>
<polyline fill="none" stroke="black" points="533,-168 717,-168 "/>
<path fill="none" stroke="black" d="M717,-168C723,-168 729,-174 729,-180"/>
<polyline fill="none" stroke="black" points="729,-180 729,-192 "/>
<path fill="none" stroke="black" d="M729,-192C729,-198 723,-204 717,-204"/>
<text text-anchor="middle" x="625" y="-183.5" font-family="Times Roman,serif" font-size="10.00" fill="#000033">PhpDA\Writer\Strategy\StrategyInterface</text>
</g>
<!-- PhpDA\\Writer\\Strategy\\AbstractGraphViz&#45;&gt;PhpDA\\Writer\\Strategy\\StrategyInterface -->
<g id="edge6" class="edge"><title>PhpDA\\Writer\\Strategy\\AbstractGraphViz&#45;&gt;PhpDA\\Writer\\Strategy\\StrategyInterface</title>
<path fill="none" stroke="#999999" stroke-dasharray="5,2" d="M444.277,-172.73C467.086,-174.405 491.273,-176.181 514.284,-177.87"/>
<polygon fill="#999999" stroke="#999999" points="514.285,-179.976 520.423,-178.321 514.593,-175.787 514.285,-179.976"/>
</g>
<!-- PhpDA\\Writer\\Strategy\\Script -->
<g id="node7" class="node"><title>PhpDA\\Writer\\Strategy\\Script</title>
<polygon fill="#9999cc" stroke="#9999cc" points="144,-226 14,-226 2,-214 2,-202 14,-190 144,-190 156,-202 156,-214 144,-226"/>
<path fill="#9999cc" stroke="#9999cc" d="M14,-226C8,-226 2,-220 2,-214"/>
<path fill="#9999cc" stroke="#9999cc" d="M2,-202C2,-196 8,-190 14,-190"/>
<path fill="#9999cc" stroke="#9999cc" d="M144,-190C150,-190 156,-196 156,-202"/>
<path fill="#9999cc" stroke="#9999cc" d="M156,-214C156,-220 150,-226 144,-226"/>
<polyline fill="none" stroke="black" points="144,-226 14,-226 "/>
<path fill="none" stroke="black" d="M14,-226C8,-226 2,-220 2,-214"/>
<polyline fill="none" stroke="black" points="2,-214 2,-202 "/>
<path fill="none" stroke="black" d="M2,-202C2,-196 8,-190 14,-190"/>
<polyline fill="none" stroke="black" points="14,-190 144,-190 "/>
<path fill="none" stroke="black" d="M144,-190C150,-190 156,-196 156,-202"/>
<polyline fill="none" stroke="black" points="156,-202 156,-214 "/>
<path fill="none" stroke="black" d="M156,-214C156,-220 150,-226 144,-226"/>
<text text-anchor="middle" x="79" y="-205.5" font-family="Times Roman,serif" font-size="10.00" fill="#000033">PhpDA\Writer\Strategy\Script</text>
</g>
<!-- PhpDA\\Writer\\Strategy\\Script&#45;&gt;PhpDA\\Writer\\Strategy\\AbstractGraphViz -->
<g id="edge8" class="edge"><title>PhpDA\\Writer\\Strategy\\Script&#45;&gt;PhpDA\\Writer\\Strategy\\AbstractGraphViz</title>
<path fill="none" stroke="#999999" stroke-dasharray="5,2" d="M156.305,-195.215C178.66,-191.518 203.517,-187.407 227.516,-183.438"/>
<polygon fill="#999999" stroke="#999999" points="228.02,-185.483 233.597,-182.432 227.334,-181.339 228.02,-185.483"/>
</g>
<!-- PhpDA\\Writer\\Strategy\\Svg -->
<g id="node8" class="node"><title>PhpDA\\Writer\\Strategy\\Svg</title>
<polygon fill="#9999cc" stroke="#9999cc" points="139,-183 19,-183 7,-171 7,-159 19,-147 139,-147 151,-159 151,-171 139,-183"/>
<path fill="#9999cc" stroke="#9999cc" d="M19,-183C13,-183 7,-177 7,-171"/>
<path fill="#9999cc" stroke="#9999cc" d="M7,-159C7,-153 13,-147 19,-147"/>
<path fill="#9999cc" stroke="#9999cc" d="M139,-147C145,-147 151,-153 151,-159"/>
<path fill="#9999cc" stroke="#9999cc" d="M151,-171C151,-177 145,-183 139,-183"/>
<polyline fill="none" stroke="black" points="139,-183 19,-183 "/>
<path fill="none" stroke="black" d="M19,-183C13,-183 7,-177 7,-171"/>
<polyline fill="none" stroke="black" points="7,-171 7,-159 "/>
<path fill="none" stroke="black" d="M7,-159C7,-153 13,-147 19,-147"/>
<polyline fill="none" stroke="black" points="19,-147 139,-147 "/>
<path fill="none" stroke="black" d="M139,-147C145,-147 151,-153 151,-159"/>
<polyline fill="none" stroke="black" points="151,-159 151,-171 "/>
<path fill="none" stroke="black" d="M151,-171C151,-177 145,-183 139,-183"/>
<text text-anchor="middle" x="79" y="-162.5" font-family="Times Roman,serif" font-size="10.00" fill="#000033">PhpDA\Writer\Strategy\Svg</text>
</g>
<!-- PhpDA\\Writer\\Strategy\\Svg&#45;&gt;PhpDA\\Writer\\Strategy\\AbstractGraphViz -->
<g id="edge10" class="edge"><title>PhpDA\\Writer\\Strategy\\Svg&#45;&gt;PhpDA\\Writer\\Strategy\\AbstractGraphViz</title>
<path fill="none" stroke="#999999" stroke-dasharray="5,2" d="M151.079,-165C174.731,-165 201.599,-165 227.47,-165"/>
<polygon fill="#999999" stroke="#999999" points="227.671,-167.1 233.671,-165 227.671,-162.9 227.671,-167.1"/>
</g>
<!-- PhpDA\\Writer\\Strategy\\Html -->
<g id="node9" class="node"><title>PhpDA\\Writer\\Strategy\\Html</title>
<polygon fill="#9999cc" stroke="#9999cc" points="141,-140 17,-140 5,-128 5,-116 17,-104 141,-104 153,-116 153,-128 141,-140"/>
<path fill="#9999cc" stroke="#9999cc" d="M17,-140C11,-140 5,-134 5,-128"/>
<path fill="#9999cc" stroke="#9999cc" d="M5,-116C5,-110 11,-104 17,-104"/>
<path fill="#9999cc" stroke="#9999cc" d="M141,-104C147,-104 153,-110 153,-116"/>
<path fill="#9999cc" stroke="#9999cc" d="M153,-128C153,-134 147,-140 141,-140"/>
<polyline fill="none" stroke="black" points="141,-140 17,-140 "/>
<path fill="none" stroke="black" d="M17,-140C11,-140 5,-134 5,-128"/>
<polyline fill="none" stroke="black" points="5,-128 5,-116 "/>
<path fill="none" stroke="black" d="M5,-116C5,-110 11,-104 17,-104"/>
<polyline fill="none" stroke="black" points="17,-104 141,-104 "/>
<path fill="none" stroke="black" d="M141,-104C147,-104 153,-110 153,-116"/>
<polyline fill="none" stroke="black" points="153,-116 153,-128 "/>
<path fill="none" stroke="black" d="M153,-128C153,-134 147,-140 141,-140"/>
<text text-anchor="middle" x="79" y="-119.5" font-family="Times Roman,serif" font-size="10.00" fill="#000033">PhpDA\Writer\Strategy\Html</text>
</g>
<!-- PhpDA\\Writer\\Strategy\\Html&#45;&gt;PhpDA\\Writer\\Strategy\\AbstractGraphViz -->
<g id="edge12" class="edge"><title>PhpDA\\Writer\\Strategy\\Html&#45;&gt;PhpDA\\Writer\\Strategy\\AbstractGraphViz</title>
<path fill="none" stroke="#999999" stroke-dasharray="5,2" d="M153.506,-134.322C176.705,-138.159 202.808,-142.476 227.945,-146.633"/>
<polygon fill="#999999" stroke="#999999" points="227.707,-148.722 233.97,-147.63 228.393,-144.579 227.707,-148.722"/>
</g>
<!-- PhpDA\\Writer\\Strategy\\Json -->
<g id="node10" class="node"><title>PhpDA\\Writer\\Strategy\\Json</title>
<polygon fill="#9999cc" stroke="#9999cc" points="400,-226 278,-226 266,-214 266,-202 278,-190 400,-190 412,-202 412,-214 400,-226"/>
<path fill="#9999cc" stroke="#9999cc" d="M278,-226C272,-226 266,-220 266,-214"/>
<path fill="#9999cc" stroke="#9999cc" d="M266,-202C266,-196 272,-190 278,-190"/>
<path fill="#9999cc" stroke="#9999cc" d="M400,-190C406,-190 412,-196 412,-202"/>
<path fill="#9999cc" stroke="#9999cc" d="M412,-214C412,-220 406,-226 400,-226"/>
<polyline fill="none" stroke="black" points="400,-226 278,-226 "/>
<path fill="none" stroke="black" d="M278,-226C272,-226 266,-220 266,-214"/>
<polyline fill="none" stroke="black" points="266,-214 266,-202 "/>
<path fill="none" stroke="black" d="M266,-202C266,-196 272,-190 278,-190"/>
<polyline fill="none" stroke="black" points="278,-190 400,-190 "/>
<path fill="none" stroke="black" d="M400,-190C406,-190 412,-196 412,-202"/>
<polyline fill="none" stroke="black" points="412,-202 412,-214 "/>
<path fill="none" stroke="black" d="M412,-214C412,-220 406,-226 400,-226"/>
<text text-anchor="middle" x="339" y="-205.5" font-family="Times Roman,serif" font-size="10.00" fill="#000033">PhpDA\Writer\Strategy\Json</text>
</g>
<!-- PhpDA\\Writer\\Strategy\\Json&#45;&gt;PhpDA\\Writer\\Strategy\\StrategyInterface -->
<g id="edge14" class="edge"><title>PhpDA\\Writer\\Strategy\\Json&#45;&gt;PhpDA\\Writer\\Strategy\\StrategyInterface</title>
<path fill="none" stroke="#999999" stroke-dasharray="5,2" d="M412.281,-202.363C443.208,-199.984 479.896,-197.162 514.02,-194.537"/>
<polygon fill="#999999" stroke="#999999" points="514.538,-196.603 520.36,-194.049 514.216,-192.416 514.538,-196.603"/>
</g>
</g>
</svg>
