<?xml version="1.0" encoding="UTF-8" standalone="no"?>
<!DOCTYPE svg PUBLIC "-//W3C//DTD SVG 1.1//EN"
 "http://www.w3.org/Graphics/SVG/1.1/DTD/svg11.dtd">
<!-- Generated by graphviz version 2.26.3 (20100126.1600)
 -->
<!-- Title: G Pages: 1 -->
<svg width="424pt" height="488pt"
 viewBox="0.00 0.00 424.00 488.00" xmlns="http://www.w3.org/2000/svg" xmlns:xlink="http://www.w3.org/1999/xlink">
<g id="graph1" class="graph" transform="scale(1 1) rotate(0) translate(4 484)">
<title>G</title>
<polygon fill="white" stroke="white" points="-4,5 -4,-484 421,-484 421,5 -4,5"/>
<!-- PackageB\\Service -->
<g id="node1" class="node"><title>PackageB\\Service</title>
<ellipse fill="#eeeeee" stroke="black" cx="175" cy="-294" rx="45.0745" ry="45.5753"/>
<text text-anchor="middle" x="175" y="-291.5" font-family="Times Roman,serif" font-size="10.00" fill="#314b5f">PackageB\Service</text>
</g>
<!-- PackageB\\Mapper -->
<g id="node2" class="node"><title>PackageB\\Mapper</title>
<ellipse fill="#eeeeee" stroke="black" cx="46" cy="-166" rx="46.1115" ry="46.1115"/>
<text text-anchor="middle" x="46" y="-163.5" font-family="Times Roman,serif" font-size="10.00" fill="#314b5f">PackageB\Mapper</text>
</g>
<!-- PackageB\\Service&#45;&gt;PackageB\\Mapper -->
<g id="edge2" class="edge"><title>PackageB\\Service&#45;&gt;PackageB\\Mapper</title>
<path fill="none" stroke="#1a2833" d="M142.781,-262.03C124.756,-244.145 102.2,-221.764 83.3986,-203.109"/>
<polygon fill="#1a2833" stroke="#1a2833" points="84.4429,-201.186 78.7046,-198.451 81.4846,-204.168 84.4429,-201.186"/>
</g>
<!-- PackageB\\Entity -->
<g id="node3" class="node"><title>PackageB\\Entity</title>
<ellipse fill="#eeeeee" stroke="black" cx="130" cy="-42" rx="40.7884" ry="41.2859"/>
<text text-anchor="middle" x="130" y="-39.5" font-family="Times Roman,serif" font-size="10.00" fill="#314b5f">PackageB\Entity</text>
</g>
<!-- PackageB\\Service&#45;&gt;PackageB\\Entity -->
<g id="edge4" class="edge"><title>PackageB\\Service&#45;&gt;PackageB\\Entity</title>
<path fill="none" stroke="#1a2833" d="M153.867,-253.712C148.008,-240.736 142.343,-226.068 139,-212 129.384,-171.531 127.621,-124.177 127.982,-89.7408"/>
<polygon fill="#1a2833" stroke="#1a2833" points="130.086,-89.4955 128.073,-83.4657 125.887,-89.4346 130.086,-89.4955"/>
</g>
<!-- PackageC\\Service -->
<g id="node4" class="node"><title>PackageC\\Service</title>
<ellipse fill="#eeeeee" stroke="black" cx="193" cy="-166" rx="45.0745" ry="45.5753"/>
<text text-anchor="middle" x="193" y="-163.5" font-family="Times Roman,serif" font-size="10.00" fill="#314b5f">PackageC\Service</text>
</g>
<!-- PackageB\\Service&#45;&gt;PackageC\\Service -->
<g id="edge6" class="edge"><title>PackageB\\Service&#45;&gt;PackageC\\Service</title>
<path fill="none" stroke="#1a2833" d="M181.346,-248.872C182.785,-238.643 184.322,-227.709 185.793,-217.248"/>
<polygon fill="#1a2833" stroke="#1a2833" points="187.894,-217.386 186.651,-211.152 183.735,-216.801 187.894,-217.386"/>
</g>
<!-- PackageB\\Mapper&#45;&gt;PackageB\\Entity -->
<g id="edge10" class="edge"><title>PackageB\\Mapper&#45;&gt;PackageB\\Entity</title>
<path fill="none" stroke="#1a2833" d="M71.8882,-127.784C81.7628,-113.207 93.0379,-96.5632 103.012,-81.8391"/>
<polygon fill="#1a2833" stroke="#1a2833" points="104.997,-82.6541 106.623,-76.5087 101.519,-80.2985 104.997,-82.6541"/>
</g>
<!-- Doctrine\\ORM -->
<g id="node5" class="node"><title>Doctrine\\ORM</title>
<ellipse fill="#eeeeee" stroke="black" cx="36" cy="-42" rx="34.8895" ry="35.3879"/>
<text text-anchor="middle" x="36" y="-39.5" font-family="Times Roman,serif" font-size="10.00" fill="#314b5f">Doctrine\ORM</text>
</g>
<!-- PackageB\\Mapper&#45;&gt;Doctrine\\ORM -->
<g id="edge8" class="edge"><title>PackageB\\Mapper&#45;&gt;Doctrine\\ORM</title>
<path fill="none" stroke="#1a2833" d="M42.2764,-119.827C41.3299,-108.091 40.3181,-95.5444 39.3893,-84.0272"/>
<polygon fill="#1a2833" stroke="#1a2833" points="41.4584,-83.5581 38.8828,-77.7463 37.272,-83.8958 41.4584,-83.5581"/>
</g>
<!-- PackageB\\Controller -->
<g id="node6" class="node"><title>PackageB\\Controller</title>
<ellipse fill="#eeeeee" stroke="black" cx="266" cy="-428" rx="52.0095" ry="52.0095"/>
<text text-anchor="middle" x="266" y="-425.5" font-family="Times Roman,serif" font-size="10.00" fill="#314b5f">PackageB\Controller</text>
</g>
<!-- PackageB\\Controller&#45;&gt;PackageB\\Service -->
<g id="edge16" class="edge"><title>PackageB\\Controller&#45;&gt;PackageB\\Service</title>
<path fill="none" stroke="#1a2833" d="M236.706,-384.864C226.25,-369.467 214.48,-352.135 204.044,-336.769"/>
<polygon fill="#1a2833" stroke="#1a2833" points="205.669,-335.422 200.56,-331.638 202.194,-337.782 205.669,-335.422"/>
</g>
<!-- PackageB\\Controller&#45;&gt;PackageB\\Mapper -->
<g id="edge18" class="edge"><title>PackageB\\Controller&#45;&gt;PackageB\\Mapper</title>
<path fill="none" stroke="#1a2833" d="M217.618,-408.033C186.57,-393.158 147.291,-370.21 121,-340 90.0474,-304.433 70.2441,-254.149 58.8083,-216.776"/>
<polygon fill="#1a2833" stroke="#1a2833" points="60.7792,-216.037 57.0444,-210.893 56.7562,-217.243 60.7792,-216.037"/>
</g>
<!-- PackageB\\Controller&#45;&gt;PackageB\\Entity -->
<g id="edge20" class="edge"><title>PackageB\\Controller&#45;&gt;PackageB\\Entity</title>
<path fill="none" stroke="#1a2833" d="M275.924,-376.918C285.675,-312.422 293.162,-200.214 247,-120 230.857,-91.9495 200.058,-72.0337 174.11,-59.3498"/>
<polygon fill="#1a2833" stroke="#1a2833" points="174.974,-57.4353 168.654,-56.7526 173.169,-61.2276 174.974,-57.4353"/>
</g>
<!-- Zend\\Mvc -->
<g id="node7" class="node"><title>Zend\\Mvc</title>
<ellipse fill="#eeeeee" stroke="black" cx="319" cy="-294" rx="25.232" ry="25.7366"/>
<text text-anchor="middle" x="319" y="-291.5" font-family="Times Roman,serif" font-size="10.00" fill="#314b5f">Zend\Mvc</text>
</g>
<!-- PackageB\\Controller&#45;&gt;Zend\\Mvc -->
<g id="edge12" class="edge"><title>PackageB\\Controller&#45;&gt;Zend\\Mvc</title>
<path fill="none" stroke="#1a2833" d="M285.134,-379.623C292.528,-360.928 300.754,-340.132 307.246,-323.717"/>
<polygon fill="#1a2833" stroke="#1a2833" points="309.301,-324.231 309.555,-317.879 305.396,-322.686 309.301,-324.231"/>
</g>
<!-- Zend\\Http -->
<g id="node8" class="node"><title>Zend\\Http</title>
<ellipse fill="#eeeeee" stroke="black" cx="389" cy="-294" rx="26.809" ry="26.809"/>
<text text-anchor="middle" x="389" y="-291.5" font-family="Times Roman,serif" font-size="10.00" fill="#314b5f">Zend\Http</text>
</g>
<!-- PackageB\\Controller&#45;&gt;Zend\\Http -->
<g id="edge14" class="edge"><title>PackageB\\Controller&#45;&gt;Zend\\Http</title>
<path fill="none" stroke="#1a2833" d="M303.808,-391.661C319.457,-376.139 337.526,-357.576 353,-340 358.34,-333.935 363.844,-327.188 368.892,-320.772"/>
<polygon fill="#1a2833" stroke="#1a2833" points="370.62,-321.97 372.653,-315.947 367.308,-319.388 370.62,-321.97"/>
</g>
</g>
</svg>
