<?xml version="1.0" encoding="UTF-8" standalone="no"?>
<!DOCTYPE svg PUBLIC "-//W3C//DTD SVG 1.1//EN"
 "http://www.w3.org/Graphics/SVG/1.1/DTD/svg11.dtd">
<!-- Generated by graphviz version 2.26.3 (20100126.1600)
 -->
<!-- Title: G Pages: 1 -->
<svg width="779pt" height="268pt"
 viewBox="0.00 0.00 779.00 268.00" xmlns="http://www.w3.org/2000/svg" xmlns:xlink="http://www.w3.org/1999/xlink">
<g id="graph1" class="graph" transform="scale(1 1) rotate(0) translate(4 264)">
<title>G</title>
<polygon fill="white" stroke="white" points="-4,5 -4,-264 776,-264 776,5 -4,5"/>
<!-- PackageB\\Service -->
<g id="node1" class="node"><title>PackageB\\Service</title>
<ellipse fill="none" stroke="black" cx="331" cy="-167" rx="96.8736" ry="18.3848"/>
<text text-anchor="middle" x="331" y="-163.4" font-family="Times Roman,serif" font-size="14.00">PackageB\Service</text>
</g>
<!-- PackageB\\Mapper -->
<g id="node3" class="node"><title>PackageB\\Mapper</title>
<ellipse fill="none" stroke="black" cx="112" cy="-93" rx="97.0803" ry="18.3848"/>
<text text-anchor="middle" x="112" y="-89.4" font-family="Times Roman,serif" font-size="14.00">PackageB\Mapper</text>
</g>
<!-- PackageB\\Service&#45;&gt;PackageB\\Mapper -->
<g id="edge2" class="edge"><title>PackageB\\Service&#45;&gt;PackageB\\Mapper</title>
<path fill="none" stroke="black" d="M283.21,-150.852C249.733,-139.54 204.831,-124.368 169.41,-112.399"/>
<polygon fill="black" stroke="black" points="170.282,-108.999 159.688,-109.114 168.041,-115.631 170.282,-108.999"/>
</g>
<!-- PackageB\\Entity -->
<g id="node5" class="node"><title>PackageB\\Entity</title>
<ellipse fill="none" stroke="black" cx="269" cy="-19" rx="91.2168" ry="18.3848"/>
<text text-anchor="middle" x="269" y="-15.4" font-family="Times Roman,serif" font-size="14.00">PackageB\Entity</text>
</g>
<!-- PackageB\\Service&#45;&gt;PackageB\\Entity -->
<g id="edge4" class="edge"><title>PackageB\\Service&#45;&gt;PackageB\\Entity</title>
<path fill="none" stroke="black" d="M294.265,-149.683C279.552,-140.675 264.174,-128.131 256,-112 245.771,-91.8146 250.457,-66.1777 256.89,-46.9352"/>
<polygon fill="black" stroke="black" points="260.186,-48.1119 260.344,-37.5182 253.614,-45.7014 260.186,-48.1119"/>
</g>
<!-- PackageC\\Service -->
<g id="node7" class="node"><title>PackageC\\Service</title>
<ellipse fill="none" stroke="black" cx="362" cy="-93" rx="96.8736" ry="18.3848"/>
<text text-anchor="middle" x="362" y="-89.4" font-family="Times Roman,serif" font-size="14.00">PackageC\Service</text>
</g>
<!-- PackageB\\Service&#45;&gt;PackageC\\Service -->
<g id="edge6" class="edge"><title>PackageB\\Service&#45;&gt;PackageC\\Service</title>
<path fill="none" stroke="black" d="M338.823,-148.327C342.274,-140.089 346.404,-130.229 350.216,-121.13"/>
<polygon fill="black" stroke="black" points="353.544,-122.243 354.18,-111.667 347.088,-119.538 353.544,-122.243"/>
</g>
<!-- PackageB\\Mapper&#45;&gt;PackageB\\Entity -->
<g id="edge10" class="edge"><title>PackageB\\Mapper&#45;&gt;PackageB\\Entity</title>
<path fill="none" stroke="black" d="M148.414,-75.8369C170.805,-65.283 199.683,-51.6719 223.564,-40.4155"/>
<polygon fill="black" stroke="black" points="225.231,-43.4995 232.784,-36.07 222.246,-37.1676 225.231,-43.4995"/>
</g>
<!-- Doctrine\\ORM -->
<g id="node9" class="node"><title>Doctrine\\ORM</title>
<ellipse fill="none" stroke="black" cx="80" cy="-19" rx="79.9031" ry="18.3848"/>
<text text-anchor="middle" x="80" y="-15.4" font-family="Times Roman,serif" font-size="14.00">Doctrine\ORM</text>
</g>
<!-- PackageB\\Mapper&#45;&gt;Doctrine\\ORM -->
<g id="edge8" class="edge"><title>PackageB\\Mapper&#45;&gt;Doctrine\\ORM</title>
<path fill="none" stroke="black" d="M103.925,-74.3267C100.297,-65.9374 95.9422,-55.8664 91.9479,-46.6295"/>
<polygon fill="black" stroke="black" points="95.1432,-45.2004 87.9615,-37.411 88.7182,-47.9788 95.1432,-45.2004"/>
</g>
<!-- PackageB\\Controller -->
<g id="node11" class="node"><title>PackageB\\Controller</title>
<ellipse fill="none" stroke="black" cx="487" cy="-241" rx="109.81" ry="18.3848"/>
<text text-anchor="middle" x="487" y="-237.4" font-family="Times Roman,serif" font-size="14.00">PackageB\Controller</text>
</g>
<!-- PackageB\\Controller&#45;&gt;PackageB\\Service -->
<g id="edge16" class="edge"><title>PackageB\\Controller&#45;&gt;PackageB\\Service</title>
<path fill="none" stroke="black" d="M450.03,-223.463C427.997,-213.011 399.858,-199.663 376.472,-188.57"/>
<polygon fill="black" stroke="black" points="377.97,-185.407 367.435,-184.283 374.97,-191.731 377.97,-185.407"/>
</g>
<!-- PackageB\\Controller&#45;&gt;PackageB\\Mapper -->
<g id="edge18" class="edge"><title>PackageB\\Controller&#45;&gt;PackageB\\Mapper</title>
<path fill="none" stroke="black" d="M390.677,-232.023C339.536,-224.525 276.741,-210.851 225,-186 190.376,-169.37 157.239,-139.95 135.907,-118.644"/>
<polygon fill="black" stroke="black" points="138.375,-116.162 128.871,-111.481 133.382,-121.068 138.375,-116.162"/>
</g>
<!-- PackageB\\Controller&#45;&gt;PackageB\\Entity -->
<g id="edge20" class="edge"><title>PackageB\\Controller&#45;&gt;PackageB\\Entity</title>
<path fill="none" stroke="black" d="M490.951,-222.363C496.965,-188.476 504.211,-116.368 468,-74 452.454,-55.8117 399.003,-41.6359 351.408,-32.2341"/>
<polygon fill="black" stroke="black" points="351.838,-28.7526 341.357,-30.3005 350.516,-35.6266 351.838,-28.7526"/>
</g>
<!-- Zend\\Mvc -->
<g id="node13" class="node"><title>Zend\\Mvc</title>
<ellipse fill="none" stroke="black" cx="573" cy="-167" rx="58.1882" ry="18.3848"/>
<text text-anchor="middle" x="573" y="-163.4" font-family="Times Roman,serif" font-size="14.00">Zend\Mvc</text>
</g>
<!-- PackageB\\Controller&#45;&gt;Zend\\Mvc -->
<g id="edge12" class="edge"><title>PackageB\\Controller&#45;&gt;Zend\\Mvc</title>
<path fill="none" stroke="black" d="M508.258,-222.708C519.251,-213.249 532.816,-201.577 544.685,-191.364"/>
<polygon fill="black" stroke="black" points="547.281,-193.748 552.578,-184.572 542.715,-188.442 547.281,-193.748"/>
</g>
<!-- Zend\\Http -->
<g id="node15" class="node"><title>Zend\\Http</title>
<ellipse fill="none" stroke="black" cx="710" cy="-167" rx="61.0181" ry="18.3848"/>
<text text-anchor="middle" x="710" y="-163.4" font-family="Times Roman,serif" font-size="14.00">Zend\Http</text>
</g>
<!-- PackageB\\Controller&#45;&gt;Zend\\Http -->
<g id="edge14" class="edge"><title>PackageB\\Controller&#45;&gt;Zend\\Http</title>
<path fill="none" stroke="black" d="M536.768,-224.485C573.179,-212.402 622.415,-196.064 659.091,-183.894"/>
<polygon fill="black" stroke="black" points="660.215,-187.208 668.604,-180.737 658.011,-180.564 660.215,-187.208"/>
</g>
</g>
</svg>
