<?xml version="1.0" encoding="UTF-8" standalone="no"?>
<!DOCTYPE svg PUBLIC "-//W3C//DTD SVG 1.1//EN"
 "http://www.w3.org/Graphics/SVG/1.1/DTD/svg11.dtd">
<!-- Generated by graphviz version 2.26.3 (20100126.1600)
 -->
<!-- Title: G Pages: 1 -->
<svg width="668pt" height="267pt"
 viewBox="0.00 0.00 668.00 267.00" xmlns="http://www.w3.org/2000/svg" xmlns:xlink="http://www.w3.org/1999/xlink">
<g id="graph1" class="graph" transform="scale(1 1) rotate(0) translate(4 263)">
<title>G</title>
<polygon fill="white" stroke="white" points="-4,5 -4,-263 665,-263 665,5 -4,5"/>
<text text-anchor="middle" x="330" y="-6.8" font-family="Times Roman,serif" font-size="8.00">PhpDependencyAnalyse by Marco Muths (dev&#45;master)</text>
<g id="graph2" class="cluster"><title>cluster_0</title>
<polygon fill="#ccccff" stroke="#ccccff" points="20,-155 640,-155 652,-167 652,-239 640,-251 20,-251 8,-239 8,-167 20,-155"/>
<path fill="#ccccff" stroke="#ccccff" d="M640,-155C646,-155 652,-161 652,-167"/>
<path fill="#ccccff" stroke="#ccccff" d="M652,-239C652,-245 646,-251 640,-251"/>
<path fill="#ccccff" stroke="#ccccff" d="M20,-251C14,-251 8,-245 8,-239"/>
<path fill="#ccccff" stroke="#ccccff" d="M8,-167C8,-161 14,-155 20,-155"/>
<polyline fill="none" stroke="#000033" points="20,-155 640,-155 "/>
<path fill="none" stroke="#000033" d="M640,-155C646,-155 652,-161 652,-167"/>
<polyline fill="none" stroke="#000033" points="652,-167 652,-239 "/>
<path fill="none" stroke="#000033" d="M652,-239C652,-245 646,-251 640,-251"/>
<polyline fill="none" stroke="#000033" points="640,-251 20,-251 "/>
<path fill="none" stroke="#000033" d="M20,-251C14,-251 8,-245 8,-239"/>
<polyline fill="none" stroke="#000033" points="8,-239 8,-167 "/>
<path fill="none" stroke="#000033" d="M8,-167C8,-161 14,-155 20,-155"/>
<text text-anchor="middle" x="49.5" y="-234.4" font-family="Times Roman,serif" font-size="14.00" fill="#000033">PackageB</text>
</g>
<g id="graph3" class="cluster"><title>cluster_1</title>
<polygon fill="#ccccff" stroke="#ccccff" points="380,-69 474,-69 486,-81 486,-135 474,-147 380,-147 368,-135 368,-81 380,-69"/>
<path fill="#ccccff" stroke="#ccccff" d="M474,-69C480,-69 486,-75 486,-81"/>
<path fill="#ccccff" stroke="#ccccff" d="M486,-135C486,-141 480,-147 474,-147"/>
<path fill="#ccccff" stroke="#ccccff" d="M380,-147C374,-147 368,-141 368,-135"/>
<path fill="#ccccff" stroke="#ccccff" d="M368,-81C368,-75 374,-69 380,-69"/>
<polyline fill="none" stroke="#000033" points="380,-69 474,-69 "/>
<path fill="none" stroke="#000033" d="M474,-69C480,-69 486,-75 486,-81"/>
<polyline fill="none" stroke="#000033" points="486,-81 486,-135 "/>
<path fill="none" stroke="#000033" d="M486,-135C486,-141 480,-147 474,-147"/>
<polyline fill="none" stroke="#000033" points="474,-147 380,-147 "/>
<path fill="none" stroke="#000033" d="M380,-147C374,-147 368,-141 368,-135"/>
<polyline fill="none" stroke="#000033" points="368,-135 368,-81 "/>
<path fill="none" stroke="#000033" d="M368,-81C368,-75 374,-69 380,-69"/>
<text text-anchor="middle" x="409.5" y="-130.4" font-family="Times Roman,serif" font-size="14.00" fill="#000033">PackageC</text>
</g>
<g id="graph4" class="cluster"><title>cluster_2</title>
<polygon fill="#ccccff" stroke="#ccccff" points="560,-69 634,-69 646,-81 646,-135 634,-147 560,-147 548,-135 548,-81 560,-69"/>
<path fill="#ccccff" stroke="#ccccff" d="M634,-69C640,-69 646,-75 646,-81"/>
<path fill="#ccccff" stroke="#ccccff" d="M646,-135C646,-141 640,-147 634,-147"/>
<path fill="#ccccff" stroke="#ccccff" d="M560,-147C554,-147 548,-141 548,-135"/>
<path fill="#ccccff" stroke="#ccccff" d="M548,-81C548,-75 554,-69 560,-69"/>
<polyline fill="none" stroke="#000033" points="560,-69 634,-69 "/>
<path fill="none" stroke="#000033" d="M634,-69C640,-69 646,-75 646,-81"/>
<polyline fill="none" stroke="#000033" points="646,-81 646,-135 "/>
<path fill="none" stroke="#000033" d="M646,-135C646,-141 640,-147 634,-147"/>
<polyline fill="none" stroke="#000033" points="634,-147 560,-147 "/>
<path fill="none" stroke="#000033" d="M560,-147C554,-147 548,-141 548,-135"/>
<polyline fill="none" stroke="#000033" points="548,-135 548,-81 "/>
<path fill="none" stroke="#000033" d="M548,-81C548,-75 554,-69 560,-69"/>
<text text-anchor="middle" x="586" y="-130.4" font-family="Times Roman,serif" font-size="14.00" fill="#000033">Doctrine</text>
</g>
<g id="graph5" class="cluster"><title>cluster_3</title>
<polygon fill="#ccccff" stroke="#ccccff" points="224,-26 282,-26 294,-38 294,-135 282,-147 224,-147 212,-135 212,-38 224,-26"/>
<path fill="#ccccff" stroke="#ccccff" d="M282,-26C288,-26 294,-32 294,-38"/>
<path fill="#ccccff" stroke="#ccccff" d="M294,-135C294,-141 288,-147 282,-147"/>
<path fill="#ccccff" stroke="#ccccff" d="M224,-147C218,-147 212,-141 212,-135"/>
<path fill="#ccccff" stroke="#ccccff" d="M212,-38C212,-32 218,-26 224,-26"/>
<polyline fill="none" stroke="#000033" points="224,-26 282,-26 "/>
<path fill="none" stroke="#000033" d="M282,-26C288,-26 294,-32 294,-38"/>
<polyline fill="none" stroke="#000033" points="294,-38 294,-135 "/>
<path fill="none" stroke="#000033" d="M294,-135C294,-141 288,-147 282,-147"/>
<polyline fill="none" stroke="#000033" points="282,-147 224,-147 "/>
<path fill="none" stroke="#000033" d="M224,-147C218,-147 212,-141 212,-135"/>
<polyline fill="none" stroke="#000033" points="212,-135 212,-38 "/>
<path fill="none" stroke="#000033" d="M212,-38C212,-32 218,-26 224,-26"/>
<text text-anchor="middle" x="238" y="-130.4" font-family="Times Roman,serif" font-size="14.00" fill="#000033">Zend</text>
</g>
<!-- PackageB\\Service -->
<g id="node2" class="node"><title>PackageB\\Service</title>
<polygon fill="#9999cc" stroke="#9999cc" points="291,-208 215,-208 203,-196 203,-184 215,-172 291,-172 303,-184 303,-196 291,-208"/>
<path fill="#9999cc" stroke="#9999cc" d="M215,-208C209,-208 203,-202 203,-196"/>
<path fill="#9999cc" stroke="#9999cc" d="M203,-184C203,-178 209,-172 215,-172"/>
<path fill="#9999cc" stroke="#9999cc" d="M291,-172C297,-172 303,-178 303,-184"/>
<path fill="#9999cc" stroke="#9999cc" d="M303,-196C303,-202 297,-208 291,-208"/>
<polyline fill="none" stroke="black" points="291,-208 215,-208 "/>
<path fill="none" stroke="black" d="M215,-208C209,-208 203,-202 203,-196"/>
<polyline fill="none" stroke="black" points="203,-196 203,-184 "/>
<path fill="none" stroke="black" d="M203,-184C203,-178 209,-172 215,-172"/>
<polyline fill="none" stroke="black" points="215,-172 291,-172 "/>
<path fill="none" stroke="black" d="M291,-172C297,-172 303,-178 303,-184"/>
<polyline fill="none" stroke="black" points="303,-184 303,-196 "/>
<path fill="none" stroke="black" d="M303,-196C303,-202 297,-208 291,-208"/>
<text text-anchor="middle" x="253" y="-187.5" font-family="Times Roman,serif" font-size="10.00" fill="#000033">PackageB\Service</text>
</g>
<!-- PackageB\\Mapper -->
<g id="node3" class="node"><title>PackageB\\Mapper</title>
<polygon fill="#9999cc" stroke="#9999cc" points="466,-199 388,-199 376,-187 376,-175 388,-163 466,-163 478,-175 478,-187 466,-199"/>
<path fill="#9999cc" stroke="#9999cc" d="M388,-199C382,-199 376,-193 376,-187"/>
<path fill="#9999cc" stroke="#9999cc" d="M376,-175C376,-169 382,-163 388,-163"/>
<path fill="#9999cc" stroke="#9999cc" d="M466,-163C472,-163 478,-169 478,-175"/>
<path fill="#9999cc" stroke="#9999cc" d="M478,-187C478,-193 472,-199 466,-199"/>
<polyline fill="none" stroke="black" points="466,-199 388,-199 "/>
<path fill="none" stroke="black" d="M388,-199C382,-199 376,-193 376,-187"/>
<polyline fill="none" stroke="black" points="376,-187 376,-175 "/>
<path fill="none" stroke="black" d="M376,-175C376,-169 382,-163 388,-163"/>
<polyline fill="none" stroke="black" points="388,-163 466,-163 "/>
<path fill="none" stroke="black" d="M466,-163C472,-163 478,-169 478,-175"/>
<polyline fill="none" stroke="black" points="478,-175 478,-187 "/>
<path fill="none" stroke="black" d="M478,-187C478,-193 472,-199 466,-199"/>
<text text-anchor="middle" x="427" y="-178.5" font-family="Times Roman,serif" font-size="10.00" fill="#000033">PackageB\Mapper</text>
</g>
<!-- PackageB\\Service&#45;&gt;PackageB\\Mapper -->
<g id="edge6" class="edge"><title>PackageB\\Service&#45;&gt;PackageB\\Mapper</title>
<path fill="none" stroke="#999999" d="M303.796,-187.373C324.429,-186.305 348.369,-185.067 369.628,-183.968"/>
<polygon fill="#999999" stroke="#999999" points="369.956,-186.053 375.84,-183.646 369.739,-181.859 369.956,-186.053"/>
</g>
<!-- PackageB\\Entity -->
<g id="node4" class="node"><title>PackageB\\Entity</title>
<polygon fill="#9999cc" stroke="#9999cc" points="631,-217 563,-217 551,-205 551,-193 563,-181 631,-181 643,-193 643,-205 631,-217"/>
<path fill="#9999cc" stroke="#9999cc" d="M563,-217C557,-217 551,-211 551,-205"/>
<path fill="#9999cc" stroke="#9999cc" d="M551,-193C551,-187 557,-181 563,-181"/>
<path fill="#9999cc" stroke="#9999cc" d="M631,-181C637,-181 643,-187 643,-193"/>
<path fill="#9999cc" stroke="#9999cc" d="M643,-205C643,-211 637,-217 631,-217"/>
<polyline fill="none" stroke="black" points="631,-217 563,-217 "/>
<path fill="none" stroke="black" d="M563,-217C557,-217 551,-211 551,-205"/>
<polyline fill="none" stroke="black" points="551,-205 551,-193 "/>
<path fill="none" stroke="black" d="M551,-193C551,-187 557,-181 563,-181"/>
<polyline fill="none" stroke="black" points="563,-181 631,-181 "/>
<path fill="none" stroke="black" d="M631,-181C637,-181 643,-187 643,-193"/>
<polyline fill="none" stroke="black" points="643,-193 643,-205 "/>
<path fill="none" stroke="black" d="M643,-205C643,-211 637,-217 631,-217"/>
<text text-anchor="middle" x="597" y="-196.5" font-family="Times Roman,serif" font-size="10.00" fill="#000033">PackageB\Entity</text>
</g>
<!-- PackageB\\Service&#45;&gt;PackageB\\Entity -->
<g id="edge8" class="edge"><title>PackageB\\Service&#45;&gt;PackageB\\Entity</title>
<path fill="none" stroke="#999999" d="M303.577,-196.425C323.602,-198.668 346.851,-200.9 368,-202 420.374,-204.725 433.56,-202.709 486,-202 504.964,-201.744 525.745,-201.241 544.146,-200.72"/>
<polygon fill="#999999" stroke="#999999" points="544.352,-202.815 550.289,-200.543 544.231,-198.617 544.352,-202.815"/>
</g>
<!-- PackageC\\Service -->
<g id="node7" class="node"><title>PackageC\\Service</title>
<polygon fill="#9999cc" stroke="#9999cc" points="465,-113 389,-113 377,-101 377,-89 389,-77 465,-77 477,-89 477,-101 465,-113"/>
<path fill="#9999cc" stroke="#9999cc" d="M389,-113C383,-113 377,-107 377,-101"/>
<path fill="#9999cc" stroke="#9999cc" d="M377,-89C377,-83 383,-77 389,-77"/>
<path fill="#9999cc" stroke="#9999cc" d="M465,-77C471,-77 477,-83 477,-89"/>
<path fill="#9999cc" stroke="#9999cc" d="M477,-101C477,-107 471,-113 465,-113"/>
<polyline fill="none" stroke="black" points="465,-113 389,-113 "/>
<path fill="none" stroke="black" d="M389,-113C383,-113 377,-107 377,-101"/>
<polyline fill="none" stroke="black" points="377,-101 377,-89 "/>
<path fill="none" stroke="black" d="M377,-89C377,-83 383,-77 389,-77"/>
<polyline fill="none" stroke="black" points="389,-77 465,-77 "/>
<path fill="none" stroke="black" d="M465,-77C471,-77 477,-83 477,-89"/>
<polyline fill="none" stroke="black" points="477,-89 477,-101 "/>
<path fill="none" stroke="black" d="M477,-101C477,-107 471,-113 465,-113"/>
<text text-anchor="middle" x="427" y="-92.5" font-family="Times Roman,serif" font-size="10.00" fill="#000033">PackageC\Service</text>
</g>
<!-- PackageB\\Service&#45;&gt;PackageC\\Service -->
<g id="edge10" class="edge"><title>PackageB\\Service&#45;&gt;PackageC\\Service</title>
<path fill="none" stroke="#ff0000" stroke-width="2" d="M286.138,-171.908C314.801,-156.258 356.324,-133.587 386.865,-116.913"/>
<polygon fill="#ff0000" stroke="#ff0000" points="388.306,-119.316 393.986,-113.025 385.622,-114.401 388.306,-119.316"/>
</g>
<!-- PackageB\\Mapper&#45;&gt;PackageB\\Entity -->
<g id="edge14" class="edge"><title>PackageB\\Mapper&#45;&gt;PackageB\\Entity</title>
<path fill="none" stroke="#999999" d="M478.006,-186.401C498.924,-188.615 523.131,-191.179 544.229,-193.412"/>
<polygon fill="#999999" stroke="#999999" points="544.192,-195.52 550.38,-194.064 544.634,-191.344 544.192,-195.52"/>
</g>
<!-- Doctrine\\ORM -->
<g id="node9" class="node"><title>Doctrine\\ORM</title>
<polygon fill="#9999cc" stroke="#9999cc" points="626,-113 568,-113 556,-101 556,-89 568,-77 626,-77 638,-89 638,-101 626,-113"/>
<path fill="#9999cc" stroke="#9999cc" d="M568,-113C562,-113 556,-107 556,-101"/>
<path fill="#9999cc" stroke="#9999cc" d="M556,-89C556,-83 562,-77 568,-77"/>
<path fill="#9999cc" stroke="#9999cc" d="M626,-77C632,-77 638,-83 638,-89"/>
<path fill="#9999cc" stroke="#9999cc" d="M638,-101C638,-107 632,-113 626,-113"/>
<polyline fill="none" stroke="black" points="626,-113 568,-113 "/>
<path fill="none" stroke="black" d="M568,-113C562,-113 556,-107 556,-101"/>
<polyline fill="none" stroke="black" points="556,-101 556,-89 "/>
<path fill="none" stroke="black" d="M556,-89C556,-83 562,-77 568,-77"/>
<polyline fill="none" stroke="black" points="568,-77 626,-77 "/>
<path fill="none" stroke="black" d="M626,-77C632,-77 638,-83 638,-89"/>
<polyline fill="none" stroke="black" points="638,-89 638,-101 "/>
<path fill="none" stroke="black" d="M638,-101C638,-107 632,-113 626,-113"/>
<text text-anchor="middle" x="597" y="-92.5" font-family="Times Roman,serif" font-size="10.00" fill="#000033">Doctrine\ORM</text>
</g>
<!-- PackageB\\Mapper&#45;&gt;Doctrine\\ORM -->
<g id="edge12" class="edge"><title>PackageB\\Mapper&#45;&gt;Doctrine\\ORM</title>
<path fill="none" stroke="#999999" d="M462.638,-162.972C489.838,-149.211 527.359,-130.23 555.84,-115.822"/>
<polygon fill="#999999" stroke="#999999" points="557.003,-117.587 561.409,-113.005 555.107,-113.839 557.003,-117.587"/>
</g>
<!-- PackageB\\Controller -->
<g id="node5" class="node"><title>PackageB\\Controller</title>
<polygon fill="#9999cc" stroke="#9999cc" points="117,-208 29,-208 17,-196 17,-184 29,-172 117,-172 129,-184 129,-196 117,-208"/>
<path fill="#9999cc" stroke="#9999cc" d="M29,-208C23,-208 17,-202 17,-196"/>
<path fill="#9999cc" stroke="#9999cc" d="M17,-184C17,-178 23,-172 29,-172"/>
<path fill="#9999cc" stroke="#9999cc" d="M117,-172C123,-172 129,-178 129,-184"/>
<path fill="#9999cc" stroke="#9999cc" d="M129,-196C129,-202 123,-208 117,-208"/>
<polyline fill="none" stroke="black" points="117,-208 29,-208 "/>
<path fill="none" stroke="black" d="M29,-208C23,-208 17,-202 17,-196"/>
<polyline fill="none" stroke="black" points="17,-196 17,-184 "/>
<path fill="none" stroke="black" d="M17,-184C17,-178 23,-172 29,-172"/>
<polyline fill="none" stroke="black" points="29,-172 117,-172 "/>
<path fill="none" stroke="black" d="M117,-172C123,-172 129,-178 129,-184"/>
<polyline fill="none" stroke="black" points="129,-184 129,-196 "/>
<path fill="none" stroke="black" d="M129,-196C129,-202 123,-208 117,-208"/>
<text text-anchor="middle" x="73" y="-187.5" font-family="Times Roman,serif" font-size="10.00" fill="#000033">PackageB\Controller</text>
</g>
<!-- PackageB\\Controller&#45;&gt;PackageB\\Service -->
<g id="edge20" class="edge"><title>PackageB\\Controller&#45;&gt;PackageB\\Service</title>
<path fill="none" stroke="#999999" d="M129.953,-190C151.045,-190 174.95,-190 196.042,-190"/>
<polygon fill="#999999" stroke="#999999" points="196.201,-192.1 202.201,-190 196.201,-187.9 196.201,-192.1"/>
</g>
<!-- PackageB\\Controller&#45;&gt;PackageB\\Mapper -->
<g id="edge22" class="edge"><title>PackageB\\Controller&#45;&gt;PackageB\\Mapper</title>
<path fill="none" stroke="#ff0000" stroke-width="2" d="M129.592,-178.761C152.036,-174.835 178.139,-170.929 202,-169 247.186,-165.346 258.72,-166.796 304,-169 324.813,-170.013 347.537,-171.984 367.726,-174.041"/>
<polygon fill="#ff0000" stroke="#ff0000" points="367.668,-176.85 375.915,-174.894 368.248,-171.28 367.668,-176.85"/>
</g>
<!-- PackageB\\Controller&#45;&gt;PackageB\\Entity -->
<g id="edge24" class="edge"><title>PackageB\\Controller&#45;&gt;PackageB\\Entity</title>
<path fill="none" stroke="#999999" d="M129.592,-201.239C152.036,-205.165 178.139,-209.071 202,-211 324.221,-220.883 468.312,-211.118 544.165,-204.322"/>
<polygon fill="#999999" stroke="#999999" points="544.612,-206.39 550.398,-203.756 544.233,-202.207 544.612,-206.39"/>
</g>
<!-- Zend\\Mvc -->
<g id="node11" class="node"><title>Zend\\Mvc</title>
<polygon fill="#9999cc" stroke="#9999cc" points="273,-113 233,-113 221,-101 221,-89 233,-77 273,-77 285,-89 285,-101 273,-113"/>
<path fill="#9999cc" stroke="#9999cc" d="M233,-113C227,-113 221,-107 221,-101"/>
<path fill="#9999cc" stroke="#9999cc" d="M221,-89C221,-83 227,-77 233,-77"/>
<path fill="#9999cc" stroke="#9999cc" d="M273,-77C279,-77 285,-83 285,-89"/>
<path fill="#9999cc" stroke="#9999cc" d="M285,-101C285,-107 279,-113 273,-113"/>
<polyline fill="none" stroke="black" points="273,-113 233,-113 "/>
<path fill="none" stroke="black" d="M233,-113C227,-113 221,-107 221,-101"/>
<polyline fill="none" stroke="black" points="221,-101 221,-89 "/>
<path fill="none" stroke="black" d="M221,-89C221,-83 227,-77 233,-77"/>
<polyline fill="none" stroke="black" points="233,-77 273,-77 "/>
<path fill="none" stroke="black" d="M273,-77C279,-77 285,-83 285,-89"/>
<polyline fill="none" stroke="black" points="285,-89 285,-101 "/>
<path fill="none" stroke="black" d="M285,-101C285,-107 279,-113 273,-113"/>
<text text-anchor="middle" x="253" y="-92.5" font-family="Times Roman,serif" font-size="10.00" fill="#000033">Zend\Mvc</text>
</g>
<!-- PackageB\\Controller&#45;&gt;Zend\\Mvc -->
<g id="edge16" class="edge"><title>PackageB\\Controller&#45;&gt;Zend\\Mvc</title>
<path fill="none" stroke="#999999" d="M107.28,-171.908C138.233,-155.572 183.681,-131.585 215.57,-114.755"/>
<polygon fill="#999999" stroke="#999999" points="216.637,-116.566 220.963,-111.908 214.677,-112.852 216.637,-116.566"/>
</g>
<!-- Zend\\Http -->
<g id="node12" class="node"><title>Zend\\Http</title>
<polygon fill="#9999cc" stroke="#9999cc" points="274,-70 232,-70 220,-58 220,-46 232,-34 274,-34 286,-46 286,-58 274,-70"/>
<path fill="#9999cc" stroke="#9999cc" d="M232,-70C226,-70 220,-64 220,-58"/>
<path fill="#9999cc" stroke="#9999cc" d="M220,-46C220,-40 226,-34 232,-34"/>
<path fill="#9999cc" stroke="#9999cc" d="M274,-34C280,-34 286,-40 286,-46"/>
<path fill="#9999cc" stroke="#9999cc" d="M286,-58C286,-64 280,-70 274,-70"/>
<polyline fill="none" stroke="black" points="274,-70 232,-70 "/>
<path fill="none" stroke="black" d="M232,-70C226,-70 220,-64 220,-58"/>
<polyline fill="none" stroke="black" points="220,-58 220,-46 "/>
<path fill="none" stroke="black" d="M220,-46C220,-40 226,-34 232,-34"/>
<polyline fill="none" stroke="black" points="232,-34 274,-34 "/>
<path fill="none" stroke="black" d="M274,-34C280,-34 286,-40 286,-46"/>
<polyline fill="none" stroke="black" points="286,-46 286,-58 "/>
<path fill="none" stroke="black" d="M286,-58C286,-64 280,-70 274,-70"/>
<text text-anchor="middle" x="253" y="-49.5" font-family="Times Roman,serif" font-size="10.00" fill="#000033">Zend\Http</text>
</g>
<!-- PackageB\\Controller&#45;&gt;Zend\\Http -->
<g id="edge18" class="edge"><title>PackageB\\Controller&#45;&gt;Zend\\Http</title>
<path fill="none" stroke="#999999" d="M89.4482,-171.894C112.629,-147.203 157.113,-102.76 202,-74 205.882,-71.5127 210.093,-69.1871 214.375,-67.0496"/>
<polygon fill="#999999" stroke="#999999" points="215.311,-68.9295 219.816,-64.4446 213.498,-65.1412 215.311,-68.9295"/>
</g>
</g>
</svg>
