<?xml version="1.0" encoding="UTF-8" standalone="no"?>
<!DOCTYPE svg PUBLIC "-//W3C//DTD SVG 1.1//EN"
 "http://www.w3.org/Graphics/SVG/1.1/DTD/svg11.dtd">
<!-- Generated by graphviz version 2.26.3 (20100126.1600)
 -->
<!-- Title: G Pages: 1 -->
<svg width="310pt" height="191pt"
 viewBox="0.00 0.00 310.00 191.00" xmlns="http://www.w3.org/2000/svg" xmlns:xlink="http://www.w3.org/1999/xlink">
<g id="graph1" class="graph" transform="scale(1 1) rotate(0) translate(4 187)">
<title>G</title>
<polygon fill="white" stroke="white" points="-4,5 -4,-187 307,-187 307,5 -4,5"/>
<text text-anchor="middle" x="151" y="-6.8" font-family="Times Roman,serif" font-size="8.00">PhpDependencyAnalyse by Marco Muths (dev&#45;master)</text>
<!-- PackageX\\NamespacedString -->
<g id="node1" class="node"><title>PackageX\\NamespacedString</title>
<polygon fill="#9999cc" stroke="#9999cc" points="146,-118 12,-118 4.73695e-14,-106 2.36848e-14,-94 12,-82 146,-82 158,-94 158,-106 146,-118"/>
<path fill="#9999cc" stroke="#9999cc" d="M12,-118C6,-118 5.92119e-14,-112 4.73695e-14,-106"/>
<path fill="#9999cc" stroke="#9999cc" d="M2.36848e-14,-94C1.18424e-14,-88 6,-82 12,-82"/>
<path fill="#9999cc" stroke="#9999cc" d="M146,-82C152,-82 158,-88 158,-94"/>
<path fill="#9999cc" stroke="#9999cc" d="M158,-106C158,-112 152,-118 146,-118"/>
<polyline fill="none" stroke="black" points="146,-118 12,-118 "/>
<path fill="none" stroke="black" d="M12,-118C6,-118 5.92119e-14,-112 4.73695e-14,-106"/>
<polyline fill="none" stroke="black" points="4.73695e-14,-106 2.36848e-14,-94 "/>
<path fill="none" stroke="black" d="M2.36848e-14,-94C1.18424e-14,-88 6,-82 12,-82"/>
<polyline fill="none" stroke="black" points="12,-82 146,-82 "/>
<path fill="none" stroke="black" d="M146,-82C152,-82 158,-88 158,-94"/>
<polyline fill="none" stroke="black" points="158,-94 158,-106 "/>
<path fill="none" stroke="black" d="M158,-106C158,-112 152,-118 146,-118"/>
<text text-anchor="middle" x="79" y="-97.5" font-family="Times Roman,serif" font-size="10.00" fill="#000033">PackageX\NamespacedString</text>
</g>
<!-- stdClass -->
<g id="node2" class="node"><title>stdClass</title>
<polygon fill="#9999cc" stroke="#9999cc" points="282,-183 250,-183 238,-171 238,-159 250,-147 282,-147 294,-159 294,-171 282,-183"/>
<path fill="#9999cc" stroke="#9999cc" d="M250,-183C244,-183 238,-177 238,-171"/>
<path fill="#9999cc" stroke="#9999cc" d="M238,-159C238,-153 244,-147 250,-147"/>
<path fill="#9999cc" stroke="#9999cc" d="M282,-147C288,-147 294,-153 294,-159"/>
<path fill="#9999cc" stroke="#9999cc" d="M294,-171C294,-177 288,-183 282,-183"/>
<polyline fill="none" stroke="black" points="282,-183 250,-183 "/>
<path fill="none" stroke="black" d="M250,-183C244,-183 238,-177 238,-171"/>
<polyline fill="none" stroke="black" points="238,-171 238,-159 "/>
<path fill="none" stroke="black" d="M238,-159C238,-153 244,-147 250,-147"/>
<polyline fill="none" stroke="black" points="250,-147 282,-147 "/>
<path fill="none" stroke="black" d="M282,-147C288,-147 294,-153 294,-159"/>
<polyline fill="none" stroke="black" points="294,-159 294,-171 "/>
<path fill="none" stroke="black" d="M294,-171C294,-177 288,-183 282,-183"/>
<text text-anchor="middle" x="266" y="-162.5" font-family="Times Roman,serif" font-size="10.00" fill="#000033">stdClass</text>
</g>
<!-- PackageX\\NamespacedString&#45;&gt;stdClass -->
<g id="edge2" class="edge"><title>PackageX\\NamespacedString&#45;&gt;stdClass</title>
<path fill="none" stroke="#999999" d="M131.09,-118.106C163.174,-129.258 203.41,-143.244 231.557,-153.028"/>
<polygon fill="#999999" stroke="#999999" points="231.016,-155.063 237.373,-155.049 232.395,-151.096 231.016,-155.063"/>
</g>
<!-- \\Test\\Object -->
<g id="node3" class="node"><title>\\Test\\Object</title>
<polygon fill="#ffcc66" stroke="#ffcc66" points="290,-140 242,-140 230,-128 230,-116 242,-104 290,-104 302,-116 302,-128 290,-140"/>
<path fill="#ffcc66" stroke="#ffcc66" d="M242,-140C236,-140 230,-134 230,-128"/>
<path fill="#ffcc66" stroke="#ffcc66" d="M230,-116C230,-110 236,-104 242,-104"/>
<path fill="#ffcc66" stroke="#ffcc66" d="M290,-104C296,-104 302,-110 302,-116"/>
<path fill="#ffcc66" stroke="#ffcc66" d="M302,-128C302,-134 296,-140 290,-140"/>
<polyline fill="none" stroke="black" points="290,-140 242,-140 "/>
<path fill="none" stroke="black" d="M242,-140C236,-140 230,-134 230,-128"/>
<polyline fill="none" stroke="black" points="230,-128 230,-116 "/>
<path fill="none" stroke="black" d="M230,-116C230,-110 236,-104 242,-104"/>
<polyline fill="none" stroke="black" points="242,-104 290,-104 "/>
<path fill="none" stroke="black" d="M290,-104C296,-104 302,-110 302,-116"/>
<polyline fill="none" stroke="black" points="302,-116 302,-128 "/>
<path fill="none" stroke="black" d="M302,-128C302,-134 296,-140 290,-140"/>
<text text-anchor="middle" x="266" y="-119.5" font-family="Times Roman,serif" font-size="10.00" fill="#000033">\Test\Object</text>
</g>
<!-- PackageX\\NamespacedString&#45;&gt;\\Test\\Object -->
<g id="edge4" class="edge"><title>PackageX\\NamespacedString&#45;&gt;\\Test\\Object</title>
<path fill="none" stroke="#ffcc66" d="M158.034,-109.298C180.52,-111.944 204.151,-114.724 223.552,-117.006"/>
<polygon fill="#ffcc66" stroke="#ffcc66" points="223.492,-119.113 229.696,-117.729 223.982,-114.942 223.492,-119.113"/>
</g>
<!-- \\Test -->
<g id="node4" class="node"><title>\\Test</title>
<polygon fill="#ffcc66" stroke="#ffcc66" points="281,-97 251,-97 239,-85 239,-73 251,-61 281,-61 293,-73 293,-85 281,-97"/>
<path fill="#ffcc66" stroke="#ffcc66" d="M251,-97C245,-97 239,-91 239,-85"/>
<path fill="#ffcc66" stroke="#ffcc66" d="M239,-73C239,-67 245,-61 251,-61"/>
<path fill="#ffcc66" stroke="#ffcc66" d="M281,-61C287,-61 293,-67 293,-73"/>
<path fill="#ffcc66" stroke="#ffcc66" d="M293,-85C293,-91 287,-97 281,-97"/>
<polyline fill="none" stroke="black" points="281,-97 251,-97 "/>
<path fill="none" stroke="black" d="M251,-97C245,-97 239,-91 239,-85"/>
<polyline fill="none" stroke="black" points="239,-85 239,-73 "/>
<path fill="none" stroke="black" d="M239,-73C239,-67 245,-61 251,-61"/>
<polyline fill="none" stroke="black" points="251,-61 281,-61 "/>
<path fill="none" stroke="black" d="M281,-61C287,-61 293,-67 293,-73"/>
<polyline fill="none" stroke="black" points="293,-73 293,-85 "/>
<path fill="none" stroke="black" d="M293,-85C293,-91 287,-97 281,-97"/>
<text text-anchor="middle" x="266" y="-76.5" font-family="Times Roman,serif" font-size="10.00" fill="#000033">\Test</text>
</g>
<!-- PackageX\\NamespacedString&#45;&gt;\\Test -->
<g id="edge6" class="edge"><title>PackageX\\NamespacedString&#45;&gt;\\Test</title>
<path fill="none" stroke="#ffcc66" d="M158.034,-91.1245C184.05,-88.2029 211.599,-85.1093 232.356,-82.7782"/>
<polygon fill="#ffcc66" stroke="#ffcc66" points="232.843,-84.8368 238.571,-82.0803 232.374,-80.6631 232.843,-84.8368"/>
</g>
<!-- foo_bar -->
<g id="node5" class="node"><title>foo_bar</title>
<polygon fill="#ffcc66" stroke="#ffcc66" points="281,-54 251,-54 239,-42 239,-30 251,-18 281,-18 293,-30 293,-42 281,-54"/>
<path fill="#ffcc66" stroke="#ffcc66" d="M251,-54C245,-54 239,-48 239,-42"/>
<path fill="#ffcc66" stroke="#ffcc66" d="M239,-30C239,-24 245,-18 251,-18"/>
<path fill="#ffcc66" stroke="#ffcc66" d="M281,-18C287,-18 293,-24 293,-30"/>
<path fill="#ffcc66" stroke="#ffcc66" d="M293,-42C293,-48 287,-54 281,-54"/>
<polyline fill="none" stroke="black" points="281,-54 251,-54 "/>
<path fill="none" stroke="black" d="M251,-54C245,-54 239,-48 239,-42"/>
<polyline fill="none" stroke="black" points="239,-42 239,-30 "/>
<path fill="none" stroke="black" d="M239,-30C239,-24 245,-18 251,-18"/>
<polyline fill="none" stroke="black" points="251,-18 281,-18 "/>
<path fill="none" stroke="black" d="M281,-18C287,-18 293,-24 293,-30"/>
<polyline fill="none" stroke="black" points="293,-30 293,-42 "/>
<path fill="none" stroke="black" d="M293,-42C293,-48 287,-54 281,-54"/>
<text text-anchor="middle" x="266" y="-33.5" font-family="Times Roman,serif" font-size="10.00" fill="#000033">foo_bar</text>
</g>
<!-- PackageX\\NamespacedString&#45;&gt;foo_bar -->
<g id="edge8" class="edge"><title>PackageX\\NamespacedString&#45;&gt;foo_bar</title>
<path fill="none" stroke="#ffcc66" d="M132.086,-81.8314C164.648,-70.6874 205.306,-56.7722 233.229,-47.2158"/>
<polygon fill="#ffcc66" stroke="#ffcc66" points="233.99,-49.175 238.986,-45.2453 232.63,-45.2013 233.99,-49.175"/>
</g>
</g>
</svg>
