<?xml version="1.0" encoding="UTF-8" standalone="no"?>
<!DOCTYPE svg PUBLIC "-//W3C//DTD SVG 1.1//EN"
 "http://www.w3.org/Graphics/SVG/1.1/DTD/svg11.dtd">
<!-- Generated by graphviz version 2.26.3 (20100126.1600)
 -->
<!-- Title: G Pages: 1 -->
<svg width="242pt" height="256pt"
 viewBox="0.00 0.00 242.00 256.00" xmlns="http://www.w3.org/2000/svg" xmlns:xlink="http://www.w3.org/1999/xlink">
<g id="graph1" class="graph" transform="scale(1 1) rotate(0) translate(4 252)">
<title>G</title>
<polygon fill="white" stroke="white" points="-4,5 -4,-252 239,-252 239,5 -4,5"/>
<!-- PackageX\\NamespacedString -->
<g id="node1" class="node"><title>PackageX\\NamespacedString</title>
<ellipse fill="#eeeeee" stroke="black" cx="125" cy="-172" rx="76.1375" ry="76.1375"/>
<text text-anchor="middle" x="125" y="-169.5" font-family="Times Roman,serif" font-size="10.00" fill="#314b5f">PackageX\NamespacedString</text>
</g>
<!-- stdClass -->
<g id="node2" class="node"><title>stdClass</title>
<ellipse fill="#eeeeee" stroke="black" cx="22" cy="-30" rx="21.9834" ry="21.9834"/>
<text text-anchor="middle" x="22" y="-27.5" font-family="Times Roman,serif" font-size="10.00" fill="#314b5f">stdClass</text>
</g>
<!-- PackageX\\NamespacedString&#45;&gt;stdClass -->
<g id="edge2" class="edge"><title>PackageX\\NamespacedString&#45;&gt;stdClass</title>
<path fill="none" stroke="#1a2833" d="M80.1223,-110.13C65.4132,-89.8512 49.9712,-68.5622 38.7039,-53.0286"/>
<polygon fill="#1a2833" stroke="#1a2833" points="40.2728,-51.615 35.0499,-47.9911 36.873,-54.0811 40.2728,-51.615"/>
</g>
<!-- \\Test\\Object -->
<g id="node3" class="node"><title>\\Test\\Object</title>
<ellipse fill="#f1eea6" stroke="black" cx="92" cy="-30" rx="30.0261" ry="30.0261"/>
<text text-anchor="middle" x="92" y="-27.5" font-family="Times Roman,serif" font-size="10.00" fill="#314b5f">\Test\Object</text>
</g>
<!-- PackageX\\NamespacedString&#45;&gt;\\Test\\Object -->
<g id="edge4" class="edge"><title>PackageX\\NamespacedString&#45;&gt;\\Test\\Object</title>
<path fill="none" stroke="#f1eea6" d="M107.727,-97.673C105.118,-86.4478 102.535,-75.3337 100.24,-65.4565"/>
<polygon fill="#f1eea6" stroke="#f1eea6" points="102.254,-64.8452 98.8501,-59.4764 98.1629,-65.796 102.254,-64.8452"/>
</g>
<!-- \\Test -->
<g id="node4" class="node"><title>\\Test</title>
<ellipse fill="#f1eea6" stroke="black" cx="158" cy="-30" rx="18" ry="18"/>
<text text-anchor="middle" x="158" y="-27.5" font-family="Times Roman,serif" font-size="10.00" fill="#314b5f">\Test</text>
</g>
<!-- PackageX\\NamespacedString&#45;&gt;\\Test -->
<g id="edge6" class="edge"><title>PackageX\\NamespacedString&#45;&gt;\\Test</title>
<path fill="none" stroke="#f1eea6" d="M142.273,-97.673C145.965,-81.7872 149.605,-66.1241 152.452,-53.8739"/>
<polygon fill="#f1eea6" stroke="#f1eea6" points="154.552,-54.1154 153.864,-47.7958 150.461,-53.1647 154.552,-54.1154"/>
</g>
<!-- foo_bar -->
<g id="node5" class="node"><title>foo_bar</title>
<ellipse fill="#f1eea6" stroke="black" cx="214" cy="-30" rx="19.8387" ry="19.8387"/>
<text text-anchor="middle" x="214" y="-27.5" font-family="Times Roman,serif" font-size="10.00" fill="#314b5f">foo_bar</text>
</g>
<!-- PackageX\\NamespacedString&#45;&gt;foo_bar -->
<g id="edge8" class="edge"><title>PackageX\\NamespacedString&#45;&gt;foo_bar</title>
<path fill="none" stroke="#f1eea6" d="M165.593,-107.233C177.924,-87.5589 190.658,-67.2415 199.969,-52.3862"/>
<polygon fill="#f1eea6" stroke="#f1eea6" points="201.83,-53.3708 203.238,-47.1716 198.272,-51.1403 201.83,-53.3708"/>
</g>
</g>
</svg>
