<?xml version="1.0" encoding="UTF-8" standalone="no"?>
<!DOCTYPE svg PUBLIC "-//W3C//DTD SVG 1.1//EN"
 "http://www.w3.org/Graphics/SVG/1.1/DTD/svg11.dtd">
<!-- Generated by graphviz version 2.26.3 (20100126.1600)
 -->
<!-- Title: G Pages: 1 -->
<svg width="340pt" height="194pt"
 viewBox="0.00 0.00 340.00 194.00" xmlns="http://www.w3.org/2000/svg" xmlns:xlink="http://www.w3.org/1999/xlink">
<g id="graph1" class="graph" transform="scale(1 1) rotate(0) translate(4 190)">
<title>G</title>
<polygon fill="white" stroke="white" points="-4,5 -4,-190 337,-190 337,5 -4,5"/>
<!-- PackageA -->
<g id="node1" class="node"><title>PackageA</title>
<ellipse fill="none" stroke="black" cx="186" cy="-167" rx="58.1882" ry="18.3848"/>
<text text-anchor="middle" x="186" y="-163.4" font-family="Times Roman,serif" font-size="14.00">PackageA</text>
</g>
<!-- PackageB -->
<g id="node3" class="node"><title>PackageB</title>
<ellipse fill="none" stroke="black" cx="143" cy="-93" rx="58.1882" ry="18.3848"/>
<text text-anchor="middle" x="143" y="-89.4" font-family="Times Roman,serif" font-size="14.00">PackageB</text>
</g>
<!-- PackageA&#45;&gt;PackageB -->
<g id="edge2" class="edge"><title>PackageA&#45;&gt;PackageB</title>
<path fill="none" stroke="black" d="M175.371,-148.708C170.358,-140.08 164.274,-129.611 158.74,-120.088"/>
<polygon fill="black" stroke="black" points="161.706,-118.226 153.656,-111.338 155.654,-121.743 161.706,-118.226"/>
</g>
<!-- Doctrine -->
<g id="node5" class="node"><title>Doctrine</title>
<ellipse fill="none" stroke="black" cx="53" cy="-19" rx="53.2379" ry="18.3848"/>
<text text-anchor="middle" x="53" y="-15.4" font-family="Times Roman,serif" font-size="14.00">Doctrine</text>
</g>
<!-- PackageA&#45;&gt;Doctrine -->
<g id="edge4" class="edge"><title>PackageA&#45;&gt;Doctrine</title>
<path fill="none" stroke="black" d="M141.89,-154.803C119.078,-146.332 92.6071,-132.756 76,-112 61.467,-93.8359 55.9487,-67.76 53.9329,-47.8391"/>
<polygon fill="black" stroke="black" points="57.4153,-47.4762 53.1534,-37.7764 50.4363,-48.0169 57.4153,-47.4762"/>
</g>
<!-- Zend -->
<g id="node7" class="node"><title>Zend</title>
<ellipse fill="none" stroke="black" cx="161" cy="-19" rx="36.7696" ry="18.3848"/>
<text text-anchor="middle" x="161" y="-15.4" font-family="Times Roman,serif" font-size="14.00">Zend</text>
</g>
<!-- PackageA&#45;&gt;Zend -->
<g id="edge6" class="edge"><title>PackageA&#45;&gt;Zend</title>
<path fill="none" stroke="black" d="M197.22,-148.802C207.45,-129.781 219.614,-99.2444 210,-74 205.413,-61.9556 196.843,-50.8704 188.138,-41.8558"/>
<polygon fill="black" stroke="black" points="190.487,-39.258 180.878,-34.795 185.606,-44.2761 190.487,-39.258"/>
</g>
<!-- PackageB&#45;&gt;Doctrine -->
<g id="edge10" class="edge"><title>PackageB&#45;&gt;Doctrine</title>
<path fill="none" stroke="black" d="M121.671,-75.463C109.704,-65.6235 94.615,-53.2168 81.6309,-42.541"/>
<polygon fill="black" stroke="black" points="83.8123,-39.8034 73.8652,-36.1558 79.3666,-45.2104 83.8123,-39.8034"/>
</g>
<!-- PackageB&#45;&gt;Zend -->
<g id="edge12" class="edge"><title>PackageB&#45;&gt;Zend</title>
<path fill="none" stroke="black" d="M147.542,-74.3267C149.54,-66.114 151.93,-56.2897 154.137,-47.2139"/>
<polygon fill="black" stroke="black" points="157.559,-47.9549 156.522,-37.411 150.757,-46.3004 157.559,-47.9549"/>
</g>
<!-- PackageC -->
<g id="node9" class="node"><title>PackageC</title>
<ellipse fill="none" stroke="black" cx="274" cy="-19" rx="58.1882" ry="18.3848"/>
<text text-anchor="middle" x="274" y="-15.4" font-family="Times Roman,serif" font-size="14.00">PackageC</text>
</g>
<!-- PackageB&#45;&gt;PackageC -->
<g id="edge8" class="edge"><title>PackageB&#45;&gt;PackageC</title>
<path fill="none" stroke="black" d="M171.749,-76.7604C190.775,-66.0128 215.918,-51.8097 236.51,-40.1774"/>
<polygon fill="black" stroke="black" points="238.333,-43.1676 245.319,-35.2017 234.89,-37.0728 238.333,-43.1676"/>
</g>
<!-- PackageC&#45;&gt;PackageA -->
<g id="edge14" class="edge"><title>PackageC&#45;&gt;PackageA</title>
<path fill="none" stroke="black" d="M265.118,-37.5729C255.795,-56.6351 240.379,-86.9642 225,-112 219.103,-121.599 212.128,-131.754 205.719,-140.691"/>
<polygon fill="black" stroke="black" points="202.853,-138.681 199.801,-148.827 208.514,-142.799 202.853,-138.681"/>
</g>
</g>
</svg>
