<?xml version="1.0" encoding="UTF-8" standalone="no"?>
<!DOCTYPE svg PUBLIC "-//W3C//DTD SVG 1.1//EN"
 "http://www.w3.org/Graphics/SVG/1.1/DTD/svg11.dtd">
<!-- Generated by graphviz version 2.26.3 (20100126.1600)
 -->
<!-- Title: G Pages: 1 -->
<svg width="1090pt" height="120pt"
 viewBox="0.00 0.00 1090.00 120.00" xmlns="http://www.w3.org/2000/svg" xmlns:xlink="http://www.w3.org/1999/xlink">
<g id="graph1" class="graph" transform="scale(1 1) rotate(0) translate(4 116)">
<title>G</title>
<polygon fill="white" stroke="white" points="-4,5 -4,-116 1087,-116 1087,5 -4,5"/>
<!-- PhpDA -->
<g id="node1" class="node"><title>PhpDA</title>
<ellipse fill="none" stroke="black" cx="566" cy="-93" rx="44.7575" ry="18.3848"/>
<text text-anchor="middle" x="566" y="-89.4" font-family="Times Roman,serif" font-size="14.00">PhpDA</text>
</g>
<!-- PhpDA\\Service -->
<g id="node3" class="node"><title>PhpDA\\Service</title>
<ellipse fill="none" stroke="black" cx="472" cy="-19" rx="84.1457" ry="18.3848"/>
<text text-anchor="middle" x="472" y="-15.4" font-family="Times Roman,serif" font-size="14.00">PhpDA\Service</text>
</g>
<!-- PhpDA&#45;&gt;PhpDA\\Service -->
<g id="edge2" class="edge"><title>PhpDA&#45;&gt;PhpDA\\Service</title>
<path fill="none" stroke="black" d="M545.138,-76.577C532.659,-66.753 516.575,-54.0912 502.669,-43.144"/>
<polygon fill="black" stroke="black" points="504.8,-40.3666 494.777,-36.931 500.47,-45.8668 504.8,-40.3666"/>
</g>
<!-- PhpDA\\Command -->
<g id="node11" class="node"><title>PhpDA\\Command</title>
<ellipse fill="none" stroke="black" cx="273" cy="-19" rx="96.8736" ry="18.3848"/>
<text text-anchor="middle" x="273" y="-15.4" font-family="Times Roman,serif" font-size="14.00">PhpDA\Command</text>
</g>
<!-- PhpDA&#45;&gt;PhpDA\\Command -->
<g id="edge10" class="edge"><title>PhpDA&#45;&gt;PhpDA\\Command</title>
<path fill="none" stroke="black" d="M532.486,-80.5535C525.747,-78.2362 518.682,-75.9376 512,-74 458.456,-58.4725 397.162,-44.4406 350.052,-34.4364"/>
<polygon fill="black" stroke="black" points="350.73,-31.0024 340.223,-32.3637 349.285,-37.8517 350.73,-31.0024"/>
</g>
<!-- PhpDA\\Plugin -->
<g id="node14" class="node"><title>PhpDA\\Plugin</title>
<ellipse fill="none" stroke="black" cx="826" cy="-19" rx="77.9889" ry="18.3848"/>
<text text-anchor="middle" x="826" y="-15.4" font-family="Times Roman,serif" font-size="14.00">PhpDA\Plugin</text>
</g>
<!-- PhpDA&#45;&gt;PhpDA\\Plugin -->
<g id="edge14" class="edge"><title>PhpDA&#45;&gt;PhpDA\\Plugin</title>
<path fill="none" stroke="black" d="M599.858,-80.6367C606.505,-78.3372 613.448,-76.024 620,-74 667.05,-59.4656 720.829,-45.1848 761.638,-34.8188"/>
<polygon fill="black" stroke="black" points="762.619,-38.1808 771.456,-32.3366 760.904,-31.3943 762.619,-38.1808"/>
</g>
<!-- PhpDA\\Parser -->
<g id="node16" class="node"><title>PhpDA\\Parser</title>
<ellipse fill="none" stroke="black" cx="79" cy="-19" rx="79.196" ry="18.3848"/>
<text text-anchor="middle" x="79" y="-15.4" font-family="Times Roman,serif" font-size="14.00">PhpDA\Parser</text>
</g>
<!-- PhpDA&#45;&gt;PhpDA\\Parser -->
<g id="edge16" class="edge"><title>PhpDA&#45;&gt;PhpDA\\Parser</title>
<path fill="none" stroke="black" d="M533.52,-80.1934C526.511,-77.8201 519.078,-75.5914 512,-74 361.589,-40.1838 319.238,-62.3039 167,-38 159.891,-36.865 152.49,-35.5233 145.135,-34.0861"/>
<polygon fill="black" stroke="black" points="145.657,-30.6211 135.163,-32.0774 144.275,-37.4832 145.657,-30.6211"/>
</g>
<!-- PhpDA\\Writer -->
<g id="node20" class="node"><title>PhpDA\\Writer</title>
<ellipse fill="none" stroke="black" cx="1002" cy="-19" rx="79.9031" ry="18.3848"/>
<text text-anchor="middle" x="1002" y="-15.4" font-family="Times Roman,serif" font-size="14.00">PhpDA\Writer</text>
</g>
<!-- PhpDA&#45;&gt;PhpDA\\Writer -->
<g id="edge22" class="edge"><title>PhpDA&#45;&gt;PhpDA\\Writer</title>
<path fill="none" stroke="black" d="M598.791,-80.1947C605.714,-77.8509 613.033,-75.6333 620,-74 747.738,-44.0521 783.608,-59.7171 913,-38 920.07,-36.8133 927.43,-35.4504 934.755,-34.0111"/>
<polygon fill="black" stroke="black" points="935.579,-37.4155 944.691,-32.0102 934.197,-30.5532 935.579,-37.4155"/>
</g>
<!-- PhpDA\\Entity -->
<g id="node23" class="node"><title>PhpDA\\Entity</title>
<ellipse fill="none" stroke="black" cx="652" cy="-19" rx="77.7817" ry="18.3848"/>
<text text-anchor="middle" x="652" y="-15.4" font-family="Times Roman,serif" font-size="14.00">PhpDA\Entity</text>
</g>
<!-- PhpDA&#45;&gt;PhpDA\\Entity -->
<g id="edge26" class="edge"><title>PhpDA&#45;&gt;PhpDA\\Entity</title>
<path fill="none" stroke="black" d="M585.515,-76.2083C596.654,-66.6236 610.826,-54.4292 623.221,-43.7635"/>
<polygon fill="black" stroke="black" points="625.763,-46.1937 631.06,-37.0182 621.197,-40.8876 625.763,-46.1937"/>
</g>
<!-- Symfony -->
<g id="node4" class="node"><title>Symfony</title>
<ellipse fill="none" stroke="black" cx="273" cy="-93" rx="53.9477" ry="18.3848"/>
<text text-anchor="middle" x="273" y="-89.4" font-family="Times Roman,serif" font-size="14.00">Symfony</text>
</g>
<!-- Symfony&#45;&gt;PhpDA\\Service -->
<g id="edge4" class="edge"><title>Symfony&#45;&gt;PhpDA\\Service</title>
<path fill="none" stroke="black" d="M309.964,-79.2546C340.786,-67.793 385.073,-51.3247 419.56,-38.5004"/>
<polygon fill="black" stroke="black" points="420.855,-41.7531 429.008,-34.9871 418.415,-35.1921 420.855,-41.7531"/>
</g>
<!-- Symfony&#45;&gt;PhpDA\\Command -->
<g id="edge12" class="edge"><title>Symfony&#45;&gt;PhpDA\\Command</title>
<path fill="none" stroke="black" d="M273,-74.3267C273,-66.2639 273,-56.6477 273,-47.7115"/>
<polygon fill="black" stroke="black" points="276.5,-47.6673 273,-37.6674 269.5,-47.6674 276.5,-47.6673"/>
</g>
<!-- Symfony&#45;&gt;PhpDA\\Parser -->
<g id="edge20" class="edge"><title>Symfony&#45;&gt;PhpDA\\Parser</title>
<path fill="none" stroke="black" d="M236.51,-79.0812C206.441,-67.6114 163.454,-51.2145 129.983,-38.4471"/>
<polygon fill="black" stroke="black" points="130.961,-35.0744 120.371,-34.7805 128.467,-41.6147 130.961,-35.0744"/>
</g>
<!-- Fhaculty -->
<g id="node6" class="node"><title>Fhaculty</title>
<ellipse fill="none" stroke="black" cx="682" cy="-93" rx="53.2379" ry="18.3848"/>
<text text-anchor="middle" x="682" y="-89.4" font-family="Times Roman,serif" font-size="14.00">Fhaculty</text>
</g>
<!-- Fhaculty&#45;&gt;PhpDA\\Service -->
<g id="edge6" class="edge"><title>Fhaculty&#45;&gt;PhpDA\\Service</title>
<path fill="none" stroke="black" d="M644.456,-79.7703C611.642,-68.2072 563.585,-51.2728 526.531,-38.2155"/>
<polygon fill="black" stroke="black" points="527.474,-34.8371 516.879,-34.8146 525.147,-41.4392 527.474,-34.8371"/>
</g>
<!-- Fhaculty&#45;&gt;PhpDA\\Writer -->
<g id="edge24" class="edge"><title>Fhaculty&#45;&gt;PhpDA\\Writer</title>
<path fill="none" stroke="black" d="M726.495,-82.7106C780.696,-70.1765 872.764,-48.8857 935.418,-34.397"/>
<polygon fill="black" stroke="black" points="936.257,-37.7956 945.211,-32.1325 934.679,-30.9756 936.257,-37.7956"/>
</g>
<!-- Fhaculty&#45;&gt;PhpDA\\Entity -->
<g id="edge30" class="edge"><title>Fhaculty&#45;&gt;PhpDA\\Entity</title>
<path fill="none" stroke="black" d="M674.43,-74.3267C671.09,-66.0886 667.093,-56.2288 663.404,-47.1297"/>
<polygon fill="black" stroke="black" points="666.569,-45.6198 659.568,-37.6674 660.081,-48.2497 666.569,-45.6198"/>
</g>
<!-- PhpParser -->
<g id="node8" class="node"><title>PhpParser</title>
<ellipse fill="none" stroke="black" cx="442" cy="-93" rx="60.8112" ry="18.3848"/>
<text text-anchor="middle" x="442" y="-89.4" font-family="Times Roman,serif" font-size="14.00">PhpParser</text>
</g>
<!-- PhpParser&#45;&gt;PhpDA\\Service -->
<g id="edge8" class="edge"><title>PhpParser&#45;&gt;PhpDA\\Service</title>
<path fill="none" stroke="black" d="M449.57,-74.3267C452.91,-66.0886 456.907,-56.2288 460.596,-47.1297"/>
<polygon fill="black" stroke="black" points="463.919,-48.2497 464.432,-37.6674 457.431,-45.6198 463.919,-48.2497"/>
</g>
<!-- PhpParser&#45;&gt;PhpDA\\Parser -->
<g id="edge18" class="edge"><title>PhpParser&#45;&gt;PhpDA\\Parser</title>
<path fill="none" stroke="black" d="M390.508,-82.945C335.219,-72.0916 244.819,-54.1819 167,-38 160.523,-36.6531 153.782,-35.2322 147.041,-33.7985"/>
<polygon fill="black" stroke="black" points="147.707,-30.3619 137.196,-31.6961 146.245,-37.2075 147.707,-30.3619"/>
</g>
<!-- PhpParser&#45;&gt;PhpDA\\Entity -->
<g id="edge28" class="edge"><title>PhpParser&#45;&gt;PhpDA\\Entity</title>
<path fill="none" stroke="black" d="M481.994,-78.907C515.094,-67.2432 562.403,-50.5722 598.715,-37.7767"/>
<polygon fill="black" stroke="black" points="599.9,-41.0702 608.168,-34.4456 597.573,-34.4681 599.9,-41.0702"/>
</g>
</g>
</svg>
