<?xml version="1.0" encoding="UTF-8" standalone="no"?>
<!DOCTYPE svg PUBLIC "-//W3C//DTD SVG 1.1//EN"
 "http://www.w3.org/Graphics/SVG/1.1/DTD/svg11.dtd">
<!-- Generated by graphviz version 2.26.3 (20100126.1600)
 -->
<!-- Title: G Pages: 1 -->
<svg width="192pt" height="230pt"
 viewBox="0.00 0.00 192.00 230.00" xmlns="http://www.w3.org/2000/svg" xmlns:xlink="http://www.w3.org/1999/xlink">
<g id="graph1" class="graph" transform="scale(1 1) rotate(0) translate(4 226)">
<title>G</title>
<polygon fill="white" stroke="white" points="-4,5 -4,-226 189,-226 189,5 -4,5"/>
<!-- PackageA -->
<g id="node1" class="node"><title>PackageA</title>
<ellipse fill="#eeeeee" stroke="black" cx="98" cy="-197" rx="25.2005" ry="25.2005"/>
<text text-anchor="middle" x="98" y="-194.5" font-family="Times Roman,serif" font-size="10.00" fill="#314b5f">PackageA</text>
</g>
<!-- PackageB -->
<g id="node2" class="node"><title>PackageB</title>
<ellipse fill="#eeeeee" stroke="black" cx="72" cy="-111" rx="25.2005" ry="25.2005"/>
<text text-anchor="middle" x="72" y="-108.5" font-family="Times Roman,serif" font-size="10.00" fill="#314b5f">PackageB</text>
</g>
<!-- PackageA&#45;&gt;PackageB -->
<g id="edge2" class="edge"><title>PackageA&#45;&gt;PackageB</title>
<path fill="none" stroke="#1a2833" d="M90.7576,-173.044C87.7681,-163.156 84.2697,-151.584 81.1092,-141.13"/>
<polygon fill="#1a2833" stroke="#1a2833" points="83.0403,-140.261 79.2938,-135.126 79.02,-141.477 83.0403,-140.261"/>
</g>
<!-- Doctrine -->
<g id="node3" class="node"><title>Doctrine</title>
<ellipse fill="#eeeeee" stroke="black" cx="22" cy="-25" rx="21.9834" ry="21.9834"/>
<text text-anchor="middle" x="22" y="-22.5" font-family="Times Roman,serif" font-size="10.00" fill="#314b5f">Doctrine</text>
</g>
<!-- PackageA&#45;&gt;Doctrine -->
<g id="edge4" class="edge"><title>PackageA&#45;&gt;Doctrine</title>
<path fill="none" stroke="#1a2833" d="M77.6035,-182.015C64.0702,-170.894 47.1693,-154.5 38,-136 25.0628,-109.897 21.7828,-76.3876 21.2907,-53.0468"/>
<polygon fill="#1a2833" stroke="#1a2833" points="23.3907,-53.0207 21.2207,-47.0456 19.191,-53.0697 23.3907,-53.0207"/>
</g>
<!-- Zend -->
<g id="node4" class="node"><title>Zend</title>
<ellipse fill="#eeeeee" stroke="black" cx="86" cy="-25" rx="18" ry="18"/>
<text text-anchor="middle" x="86" y="-22.5" font-family="Times Roman,serif" font-size="10.00" fill="#314b5f">Zend</text>
</g>
<!-- PackageA&#45;&gt;Zend -->
<g id="edge6" class="edge"><title>PackageA&#45;&gt;Zend</title>
<path fill="none" stroke="#1a2833" d="M103.033,-172.171C106.845,-149.582 110.694,-115.382 106,-86 103.904,-72.8795 99.4227,-58.75 95.2323,-47.3968"/>
<polygon fill="#1a2833" stroke="#1a2833" points="97.1749,-46.5967 93.0817,-41.7329 93.2484,-48.0877 97.1749,-46.5967"/>
</g>
<!-- PackageB&#45;&gt;Doctrine -->
<g id="edge10" class="edge"><title>PackageB&#45;&gt;Doctrine</title>
<path fill="none" stroke="#1a2833" d="M59.3829,-89.2986C52.2951,-77.1075 43.4307,-61.8608 36.1129,-49.2742"/>
<polygon fill="#1a2833" stroke="#1a2833" points="37.9123,-48.191 33.0811,-44.0595 34.2814,-50.3021 37.9123,-48.191"/>
</g>
<!-- PackageB&#45;&gt;Zend -->
<g id="edge12" class="edge"><title>PackageB&#45;&gt;Zend</title>
<path fill="none" stroke="#1a2833" d="M76.0494,-86.1252C77.9436,-74.4892 80.1907,-60.6856 82.0698,-49.1428"/>
<polygon fill="#1a2833" stroke="#1a2833" points="84.1799,-49.2503 83.0713,-42.9908 80.0344,-48.5754 84.1799,-49.2503"/>
</g>
<!-- PackageC -->
<g id="node5" class="node"><title>PackageC</title>
<ellipse fill="#eeeeee" stroke="black" cx="159" cy="-25" rx="25.2005" ry="25.2005"/>
<text text-anchor="middle" x="159" y="-22.5" font-family="Times Roman,serif" font-size="10.00" fill="#314b5f">PackageC</text>
</g>
<!-- PackageB&#45;&gt;PackageC -->
<g id="edge8" class="edge"><title>PackageB&#45;&gt;PackageC</title>
<path fill="none" stroke="#1a2833" d="M90.0265,-93.1807C103.558,-79.8047 122.167,-61.4095 136.646,-47.0971"/>
<polygon fill="#1a2833" stroke="#1a2833" points="138.206,-48.508 140.997,-42.7964 135.253,-45.521 138.206,-48.508"/>
</g>
<!-- PackageC&#45;&gt;PackageA -->
<g id="edge14" class="edge"><title>PackageC&#45;&gt;PackageA</title>
<path fill="none" stroke="#1a2833" d="M151.057,-48.892C143.511,-71.4215 131.752,-106.099 121,-136 117.254,-146.417 113.013,-157.778 109.203,-167.841"/>
<polygon fill="#1a2833" stroke="#1a2833" points="107.183,-167.244 107.016,-173.599 111.109,-168.736 107.183,-167.244"/>
</g>
</g>
</svg>
