<?xml version="1.0" encoding="UTF-8" standalone="no"?>
<!DOCTYPE svg PUBLIC "-//W3C//DTD SVG 1.1//EN"
 "http://www.w3.org/Graphics/SVG/1.1/DTD/svg11.dtd">
<!-- Generated by graphviz version 2.26.3 (20100126.1600)
 -->
<!-- Title: G Pages: 1 -->
<svg width="344pt" height="148pt"
 viewBox="0.00 0.00 344.00 148.00" xmlns="http://www.w3.org/2000/svg" xmlns:xlink="http://www.w3.org/1999/xlink">
<g id="graph1" class="graph" transform="scale(1 1) rotate(0) translate(4 144)">
<title>G</title>
<polygon fill="white" stroke="white" points="-4,5 -4,-144 341,-144 341,5 -4,5"/>
<text text-anchor="middle" x="168" y="-6.8" font-family="Times Roman,serif" font-size="8.00">PhpDependencyAnalyse by Marco Muths (dev&#45;master)</text>
<!-- PackageA -->
<g id="node1" class="node"><title>PackageA</title>
<polygon fill="#9999cc" stroke="#9999cc" points="51,-92 13,-92 1,-80 1,-68 13,-56 51,-56 63,-68 63,-80 51,-92"/>
<path fill="#9999cc" stroke="#9999cc" d="M13,-92C7,-92 1,-86 1,-80"/>
<path fill="#9999cc" stroke="#9999cc" d="M1,-68C1,-62 7,-56 13,-56"/>
<path fill="#9999cc" stroke="#9999cc" d="M51,-56C57,-56 63,-62 63,-68"/>
<path fill="#9999cc" stroke="#9999cc" d="M63,-80C63,-86 57,-92 51,-92"/>
<polyline fill="none" stroke="black" points="51,-92 13,-92 "/>
<path fill="none" stroke="black" d="M13,-92C7,-92 1,-86 1,-80"/>
<polyline fill="none" stroke="black" points="1,-80 1,-68 "/>
<path fill="none" stroke="black" d="M1,-68C1,-62 7,-56 13,-56"/>
<polyline fill="none" stroke="black" points="13,-56 51,-56 "/>
<path fill="none" stroke="black" d="M51,-56C57,-56 63,-62 63,-68"/>
<polyline fill="none" stroke="black" points="63,-68 63,-80 "/>
<path fill="none" stroke="black" d="M63,-80C63,-86 57,-92 51,-92"/>
<text text-anchor="middle" x="32" y="-71.5" font-family="Times Roman,serif" font-size="10.00" fill="#000033">PackageA</text>
</g>
<!-- PackageB -->
<g id="node2" class="node"><title>PackageB</title>
<polygon fill="#9999cc" stroke="#9999cc" points="187,-107 149,-107 137,-95 137,-83 149,-71 187,-71 199,-83 199,-95 187,-107"/>
<path fill="#9999cc" stroke="#9999cc" d="M149,-107C143,-107 137,-101 137,-95"/>
<path fill="#9999cc" stroke="#9999cc" d="M137,-83C137,-77 143,-71 149,-71"/>
<path fill="#9999cc" stroke="#9999cc" d="M187,-71C193,-71 199,-77 199,-83"/>
<path fill="#9999cc" stroke="#9999cc" d="M199,-95C199,-101 193,-107 187,-107"/>
<polyline fill="none" stroke="black" points="187,-107 149,-107 "/>
<path fill="none" stroke="black" d="M149,-107C143,-107 137,-101 137,-95"/>
<polyline fill="none" stroke="black" points="137,-95 137,-83 "/>
<path fill="none" stroke="black" d="M137,-83C137,-77 143,-71 149,-71"/>
<polyline fill="none" stroke="black" points="149,-71 187,-71 "/>
<path fill="none" stroke="black" d="M187,-71C193,-71 199,-77 199,-83"/>
<polyline fill="none" stroke="black" points="199,-83 199,-95 "/>
<path fill="none" stroke="black" d="M199,-95C199,-101 193,-107 187,-107"/>
<text text-anchor="middle" x="168" y="-86.5" font-family="Times Roman,serif" font-size="10.00" fill="#000033">PackageB</text>
</g>
<!-- PackageA&#45;&gt;PackageB -->
<g id="edge2" class="edge"><title>PackageA&#45;&gt;PackageB</title>
<path fill="none" stroke="#ff0099" stroke-width="2" d="M63.543,-77.479C82.8008,-79.603 107.597,-82.3379 128.198,-84.6101"/>
<polygon fill="#ff0099" stroke="#ff0099" points="127.898,-87.3939 136.157,-85.4879 128.512,-81.8277 127.898,-87.3939"/>
</g>
<!-- Doctrine -->
<g id="node3" class="node"><title>Doctrine</title>
<polygon fill="#9999cc" stroke="#9999cc" points="320,-140 288,-140 276,-128 276,-116 288,-104 320,-104 332,-116 332,-128 320,-140"/>
<path fill="#9999cc" stroke="#9999cc" d="M288,-140C282,-140 276,-134 276,-128"/>
<path fill="#9999cc" stroke="#9999cc" d="M276,-116C276,-110 282,-104 288,-104"/>
<path fill="#9999cc" stroke="#9999cc" d="M320,-104C326,-104 332,-110 332,-116"/>
<path fill="#9999cc" stroke="#9999cc" d="M332,-128C332,-134 326,-140 320,-140"/>
<polyline fill="none" stroke="black" points="320,-140 288,-140 "/>
<path fill="none" stroke="black" d="M288,-140C282,-140 276,-134 276,-128"/>
<polyline fill="none" stroke="black" points="276,-128 276,-116 "/>
<path fill="none" stroke="black" d="M276,-116C276,-110 282,-104 288,-104"/>
<polyline fill="none" stroke="black" points="288,-104 320,-104 "/>
<path fill="none" stroke="black" d="M320,-104C326,-104 332,-110 332,-116"/>
<polyline fill="none" stroke="black" points="332,-116 332,-128 "/>
<path fill="none" stroke="black" d="M332,-128C332,-134 326,-140 320,-140"/>
<text text-anchor="middle" x="304" y="-119.5" font-family="Times Roman,serif" font-size="10.00" fill="#000033">Doctrine</text>
</g>
<!-- PackageA&#45;&gt;Doctrine -->
<g id="edge4" class="edge"><title>PackageA&#45;&gt;Doctrine</title>
<path fill="none" stroke="#999999" d="M63.6673,-87.8475C83.9422,-96.061 111.038,-105.846 136,-111 181.408,-120.375 235.046,-122.355 269.281,-122.505"/>
<polygon fill="#999999" stroke="#999999" points="269.439,-124.605 275.442,-122.513 269.444,-120.405 269.439,-124.605"/>
</g>
<!-- Zend -->
<g id="node4" class="node"><title>Zend</title>
<polygon fill="#9999cc" stroke="#9999cc" points="319,-97 289,-97 277,-85 277,-73 289,-61 319,-61 331,-73 331,-85 319,-97"/>
<path fill="#9999cc" stroke="#9999cc" d="M289,-97C283,-97 277,-91 277,-85"/>
<path fill="#9999cc" stroke="#9999cc" d="M277,-73C277,-67 283,-61 289,-61"/>
<path fill="#9999cc" stroke="#9999cc" d="M319,-61C325,-61 331,-67 331,-73"/>
<path fill="#9999cc" stroke="#9999cc" d="M331,-85C331,-91 325,-97 319,-97"/>
<polyline fill="none" stroke="black" points="319,-97 289,-97 "/>
<path fill="none" stroke="black" d="M289,-97C283,-97 277,-91 277,-85"/>
<polyline fill="none" stroke="black" points="277,-85 277,-73 "/>
<path fill="none" stroke="black" d="M277,-73C277,-67 283,-61 289,-61"/>
<polyline fill="none" stroke="black" points="289,-61 319,-61 "/>
<path fill="none" stroke="black" d="M319,-61C325,-61 331,-67 331,-73"/>
<polyline fill="none" stroke="black" points="331,-73 331,-85 "/>
<path fill="none" stroke="black" d="M331,-85C331,-91 325,-97 319,-97"/>
<text text-anchor="middle" x="304" y="-76.5" font-family="Times Roman,serif" font-size="10.00" fill="#000033">Zend</text>
</g>
<!-- PackageA&#45;&gt;Zend -->
<g id="edge6" class="edge"><title>PackageA&#45;&gt;Zend</title>
<path fill="none" stroke="#999999" d="M63.597,-71.2079C97.3749,-68.6122 152.494,-65.4947 200,-68 223.661,-69.2478 250.224,-72.0819 270.583,-74.5608"/>
<polygon fill="#999999" stroke="#999999" points="270.479,-76.6639 276.691,-75.3165 270.995,-72.4957 270.479,-76.6639"/>
</g>
<!-- PackageB&#45;&gt;Doctrine -->
<g id="edge10" class="edge"><title>PackageB&#45;&gt;Doctrine</title>
<path fill="none" stroke="#999999" d="M199.543,-96.6538C220.487,-101.736 247.981,-108.407 269.505,-113.63"/>
<polygon fill="#999999" stroke="#999999" points="269.081,-115.688 275.407,-115.062 270.071,-111.606 269.081,-115.688"/>
</g>
<!-- PackageB&#45;&gt;Zend -->
<g id="edge12" class="edge"><title>PackageB&#45;&gt;Zend</title>
<path fill="none" stroke="#999999" d="M199.543,-86.6807C220.826,-85.1158 248.873,-83.0535 270.545,-81.4599"/>
<polygon fill="#999999" stroke="#999999" points="270.935,-83.537 276.764,-81.0026 270.627,-79.3483 270.935,-83.537"/>
</g>
<!-- PackageC -->
<g id="node5" class="node"><title>PackageC</title>
<polygon fill="#9999cc" stroke="#9999cc" points="323,-54 285,-54 273,-42 273,-30 285,-18 323,-18 335,-30 335,-42 323,-54"/>
<path fill="#9999cc" stroke="#9999cc" d="M285,-54C279,-54 273,-48 273,-42"/>
<path fill="#9999cc" stroke="#9999cc" d="M273,-30C273,-24 279,-18 285,-18"/>
<path fill="#9999cc" stroke="#9999cc" d="M323,-18C329,-18 335,-24 335,-30"/>
<path fill="#9999cc" stroke="#9999cc" d="M335,-42C335,-48 329,-54 323,-54"/>
<polyline fill="none" stroke="black" points="323,-54 285,-54 "/>
<path fill="none" stroke="black" d="M285,-54C279,-54 273,-48 273,-42"/>
<polyline fill="none" stroke="black" points="273,-42 273,-30 "/>
<path fill="none" stroke="black" d="M273,-30C273,-24 279,-18 285,-18"/>
<polyline fill="none" stroke="black" points="285,-18 323,-18 "/>
<path fill="none" stroke="black" d="M323,-18C329,-18 335,-24 335,-30"/>
<polyline fill="none" stroke="black" points="335,-30 335,-42 "/>
<path fill="none" stroke="black" d="M335,-42C335,-48 329,-54 323,-54"/>
<text text-anchor="middle" x="304" y="-33.5" font-family="Times Roman,serif" font-size="10.00" fill="#000033">PackageC</text>
</g>
<!-- PackageB&#45;&gt;PackageC -->
<g id="edge8" class="edge"><title>PackageB&#45;&gt;PackageC</title>
<path fill="none" stroke="#ff0099" stroke-width="2" d="M199.543,-76.7075C218.886,-69.1694 243.817,-59.4537 264.471,-51.4047"/>
<polygon fill="#ff0099" stroke="#ff0099" points="265.72,-53.9232 272.157,-48.4094 263.686,-48.7054 265.72,-53.9232"/>
</g>
<!-- PackageC&#45;&gt;PackageA -->
<g id="edge14" class="edge"><title>PackageC&#45;&gt;PackageA</title>
<path fill="none" stroke="#ff0099" stroke-width="2" d="M272.468,-40.4052C222.742,-47.3522 126.183,-60.8421 71.7689,-68.444"/>
<polygon fill="#ff0099" stroke="#ff0099" points="71.2698,-65.6865 63.7342,-69.5665 72.0447,-71.2326 71.2698,-65.6865"/>
</g>
</g>
</svg>
