<?xml version="1.0" encoding="UTF-8" standalone="no"?>
<!DOCTYPE svg PUBLIC "-//W3C//DTD SVG 1.1//EN"
 "http://www.w3.org/Graphics/SVG/1.1/DTD/svg11.dtd">
<!-- Generated by graphviz version 2.26.3 (20100126.1600)
 -->
<!-- Title: G Pages: 1 -->
<svg width="308pt" height="62pt"
 viewBox="0.00 0.00 308.00 62.00" xmlns="http://www.w3.org/2000/svg" xmlns:xlink="http://www.w3.org/1999/xlink">
<g id="graph1" class="graph" transform="scale(1 1) rotate(0) translate(4 58)">
<title>G</title>
<polygon fill="white" stroke="white" points="-4,5 -4,-58 305,-58 305,5 -4,5"/>
<text text-anchor="middle" x="150" y="-6.8" font-family="Times Roman,serif" font-size="8.00">PhpDependencyAnalyse by Marco Muths (dev&#45;master)</text>
<!-- PackageX\\ReturnType -->
<g id="node1" class="node"><title>PackageX\\ReturnType</title>
<polygon fill="#9999cc" stroke="#9999cc" points="105,-54 13,-54 1,-42 1,-30 13,-18 105,-18 117,-30 117,-42 105,-54"/>
<path fill="#9999cc" stroke="#9999cc" d="M13,-54C7,-54 1,-48 1,-42"/>
<path fill="#9999cc" stroke="#9999cc" d="M1,-30C1,-24 7,-18 13,-18"/>
<path fill="#9999cc" stroke="#9999cc" d="M105,-18C111,-18 117,-24 117,-30"/>
<path fill="#9999cc" stroke="#9999cc" d="M117,-42C117,-48 111,-54 105,-54"/>
<polyline fill="none" stroke="black" points="105,-54 13,-54 "/>
<path fill="none" stroke="black" d="M13,-54C7,-54 1,-48 1,-42"/>
<polyline fill="none" stroke="black" points="1,-42 1,-30 "/>
<path fill="none" stroke="black" d="M1,-30C1,-24 7,-18 13,-18"/>
<polyline fill="none" stroke="black" points="13,-18 105,-18 "/>
<path fill="none" stroke="black" d="M105,-18C111,-18 117,-24 117,-30"/>
<polyline fill="none" stroke="black" points="117,-30 117,-42 "/>
<path fill="none" stroke="black" d="M117,-42C117,-48 111,-54 105,-54"/>
<text text-anchor="middle" x="59" y="-33.5" font-family="Times Roman,serif" font-size="10.00" fill="#000033">PackageX\ReturnType</text>
</g>
<!-- PackageX\\MyObject -->
<g id="node2" class="node"><title>PackageX\\MyObject</title>
<polygon fill="#9999cc" stroke="#9999cc" points="288,-54 202,-54 190,-42 190,-30 202,-18 288,-18 300,-30 300,-42 288,-54"/>
<path fill="#9999cc" stroke="#9999cc" d="M202,-54C196,-54 190,-48 190,-42"/>
<path fill="#9999cc" stroke="#9999cc" d="M190,-30C190,-24 196,-18 202,-18"/>
<path fill="#9999cc" stroke="#9999cc" d="M288,-18C294,-18 300,-24 300,-30"/>
<path fill="#9999cc" stroke="#9999cc" d="M300,-42C300,-48 294,-54 288,-54"/>
<polyline fill="none" stroke="black" points="288,-54 202,-54 "/>
<path fill="none" stroke="black" d="M202,-54C196,-54 190,-48 190,-42"/>
<polyline fill="none" stroke="black" points="190,-42 190,-30 "/>
<path fill="none" stroke="black" d="M190,-30C190,-24 196,-18 202,-18"/>
<polyline fill="none" stroke="black" points="202,-18 288,-18 "/>
<path fill="none" stroke="black" d="M288,-18C294,-18 300,-24 300,-30"/>
<polyline fill="none" stroke="black" points="300,-30 300,-42 "/>
<path fill="none" stroke="black" d="M300,-42C300,-48 294,-54 288,-54"/>
<text text-anchor="middle" x="245" y="-33.5" font-family="Times Roman,serif" font-size="10.00" fill="#000033">PackageX\MyObject</text>
</g>
<!-- PackageX\\ReturnType&#45;&gt;PackageX\\MyObject -->
<g id="edge2" class="edge"><title>PackageX\\ReturnType&#45;&gt;PackageX\\MyObject</title>
<path fill="none" stroke="#999999" d="M117.596,-36C138.627,-36 162.391,-36 183.65,-36"/>
<polygon fill="#999999" stroke="#999999" points="183.867,-38.1001 189.867,-36 183.867,-33.9001 183.867,-38.1001"/>
</g>
</g>
</svg>
