<?xml version="1.0" encoding="UTF-8" standalone="no"?>
<!DOCTYPE svg PUBLIC "-//W3C//DTD SVG 1.1//EN"
 "http://www.w3.org/Graphics/SVG/1.1/DTD/svg11.dtd">
<!-- Generated by graphviz version 2.26.3 (20100126.1600)
 -->
<!-- Title: G Pages: 1 -->
<svg width="312pt" height="62pt"
 viewBox="0.00 0.00 312.00 62.00" xmlns="http://www.w3.org/2000/svg" xmlns:xlink="http://www.w3.org/1999/xlink">
<g id="graph1" class="graph" transform="scale(1 1) rotate(0) translate(4 58)">
<title>G</title>
<polygon fill="white" stroke="white" points="-4,5 -4,-58 309,-58 309,5 -4,5"/>
<text text-anchor="middle" x="152" y="-6.8" font-family="Times Roman,serif" font-size="8.00">PhpDependencyAnalyse by Marco Muths (dev&#45;master)</text>
<!-- PackageX\\ReturnValue -->
<g id="node1" class="node"><title>PackageX\\ReturnValue</title>
<polygon fill="#9999cc" stroke="#9999cc" points="110,-54 12,-54 4.02641e-14,-42 2.36848e-14,-30 12,-18 110,-18 122,-30 122,-42 110,-54"/>
<path fill="#9999cc" stroke="#9999cc" d="M12,-54C6,-54 4.85538e-14,-48 4.02641e-14,-42"/>
<path fill="#9999cc" stroke="#9999cc" d="M2.36848e-14,-30C1.53951e-14,-24 6,-18 12,-18"/>
<path fill="#9999cc" stroke="#9999cc" d="M110,-18C116,-18 122,-24 122,-30"/>
<path fill="#9999cc" stroke="#9999cc" d="M122,-42C122,-48 116,-54 110,-54"/>
<polyline fill="none" stroke="black" points="110,-54 12,-54 "/>
<path fill="none" stroke="black" d="M12,-54C6,-54 4.85538e-14,-48 4.02641e-14,-42"/>
<polyline fill="none" stroke="black" points="4.02641e-14,-42 2.36848e-14,-30 "/>
<path fill="none" stroke="black" d="M2.36848e-14,-30C1.53951e-14,-24 6,-18 12,-18"/>
<polyline fill="none" stroke="black" points="12,-18 110,-18 "/>
<path fill="none" stroke="black" d="M110,-18C116,-18 122,-24 122,-30"/>
<polyline fill="none" stroke="black" points="122,-30 122,-42 "/>
<path fill="none" stroke="black" d="M122,-42C122,-48 116,-54 110,-54"/>
<text text-anchor="middle" x="61" y="-33.5" font-family="Times Roman,serif" font-size="10.00" fill="#000033">PackageX\ReturnValue</text>
</g>
<!-- PackageX\\MyObject -->
<g id="node2" class="node"><title>PackageX\\MyObject</title>
<polygon fill="#9999cc" stroke="#9999cc" points="292,-54 206,-54 194,-42 194,-30 206,-18 292,-18 304,-30 304,-42 292,-54"/>
<path fill="#9999cc" stroke="#9999cc" d="M206,-54C200,-54 194,-48 194,-42"/>
<path fill="#9999cc" stroke="#9999cc" d="M194,-30C194,-24 200,-18 206,-18"/>
<path fill="#9999cc" stroke="#9999cc" d="M292,-18C298,-18 304,-24 304,-30"/>
<path fill="#9999cc" stroke="#9999cc" d="M304,-42C304,-48 298,-54 292,-54"/>
<polyline fill="none" stroke="black" points="292,-54 206,-54 "/>
<path fill="none" stroke="black" d="M206,-54C200,-54 194,-48 194,-42"/>
<polyline fill="none" stroke="black" points="194,-42 194,-30 "/>
<path fill="none" stroke="black" d="M194,-30C194,-24 200,-18 206,-18"/>
<polyline fill="none" stroke="black" points="206,-18 292,-18 "/>
<path fill="none" stroke="black" d="M292,-18C298,-18 304,-24 304,-30"/>
<polyline fill="none" stroke="black" points="304,-30 304,-42 "/>
<path fill="none" stroke="black" d="M304,-42C304,-48 298,-54 292,-54"/>
<text text-anchor="middle" x="249" y="-33.5" font-family="Times Roman,serif" font-size="10.00" fill="#000033">PackageX\MyObject</text>
</g>
<!-- PackageX\\ReturnValue&#45;&gt;PackageX\\MyObject -->
<g id="edge2" class="edge"><title>PackageX\\ReturnValue&#45;&gt;PackageX\\MyObject</title>
<path fill="none" stroke="#999999" d="M122.038,-36C143.116,-36 166.726,-36 187.816,-36"/>
<polygon fill="#999999" stroke="#999999" points="187.983,-38.1001 193.983,-36 187.983,-33.9001 187.983,-38.1001"/>
</g>
</g>
</svg>
