<?xml version="1.0" encoding="UTF-8" standalone="no"?>
<!DOCTYPE svg PUBLIC "-//W3C//DTD SVG 1.1//EN"
 "http://www.w3.org/Graphics/SVG/1.1/DTD/svg11.dtd">
<!-- Generated by graphviz version 2.26.3 (20100126.1600)
 -->
<!-- Title: G Pages: 1 -->
<svg width="530pt" height="120pt"
 viewBox="0.00 0.00 530.00 120.00" xmlns="http://www.w3.org/2000/svg" xmlns:xlink="http://www.w3.org/1999/xlink">
<g id="graph1" class="graph" transform="scale(1 1) rotate(0) translate(4 116)">
<title>G</title>
<polygon fill="white" stroke="white" points="-4,5 -4,-116 527,-116 527,5 -4,5"/>
<!-- PhpDA\\Entity -->
<g id="node1" class="node"><title>PhpDA\\Entity</title>
<ellipse fill="none" stroke="black" cx="78" cy="-93" rx="77.7817" ry="18.3848"/>
<text text-anchor="middle" x="78" y="-89.4" font-family="Times Roman,serif" font-size="14.00">PhpDA\Entity</text>
</g>
<!-- PhpDA\\Writer -->
<g id="node3" class="node"><title>PhpDA\\Writer</title>
<ellipse fill="none" stroke="black" cx="252" cy="-19" rx="79.9031" ry="18.3848"/>
<text text-anchor="middle" x="252" y="-15.4" font-family="Times Roman,serif" font-size="14.00">PhpDA\Writer</text>
</g>
<!-- PhpDA\\Entity&#45;&gt;PhpDA\\Writer -->
<g id="edge2" class="edge"><title>PhpDA\\Entity&#45;&gt;PhpDA\\Writer</title>
<path fill="none" stroke="black" d="M116.185,-76.7604C142.047,-65.7616 176.418,-51.1442 204.112,-39.3664"/>
<polygon fill="black" stroke="black" points="205.771,-42.464 213.604,-35.3294 203.032,-36.0223 205.771,-42.464"/>
</g>
<!-- PhpDA\\Plugin -->
<g id="node4" class="node"><title>PhpDA\\Plugin</title>
<ellipse fill="none" stroke="black" cx="252" cy="-93" rx="77.9889" ry="18.3848"/>
<text text-anchor="middle" x="252" y="-89.4" font-family="Times Roman,serif" font-size="14.00">PhpDA\Plugin</text>
</g>
<!-- PhpDA\\Plugin&#45;&gt;PhpDA\\Writer -->
<g id="edge4" class="edge"><title>PhpDA\\Plugin&#45;&gt;PhpDA\\Writer</title>
<path fill="none" stroke="black" d="M252,-74.3267C252,-66.2639 252,-56.6477 252,-47.7115"/>
<polygon fill="black" stroke="black" points="255.5,-47.6673 252,-37.6674 248.5,-47.6674 255.5,-47.6673"/>
</g>
<!-- Fhaculty\\Graph -->
<g id="node6" class="node"><title>Fhaculty\\Graph</title>
<ellipse fill="none" stroke="black" cx="435" cy="-93" rx="86.9741" ry="18.3848"/>
<text text-anchor="middle" x="435" y="-89.4" font-family="Times Roman,serif" font-size="14.00">Fhaculty\Graph</text>
</g>
<!-- Fhaculty\\Graph&#45;&gt;PhpDA\\Writer -->
<g id="edge6" class="edge"><title>Fhaculty\\Graph&#45;&gt;PhpDA\\Writer</title>
<path fill="none" stroke="black" d="M394.386,-76.577C366.951,-65.4829 330.566,-50.7698 301.445,-38.994"/>
<polygon fill="black" stroke="black" points="302.453,-35.6266 291.87,-35.1225 299.829,-42.1161 302.453,-35.6266"/>
</g>
</g>
</svg>
