<?xml version="1.0" encoding="UTF-8" standalone="no"?>
<!DOCTYPE svg PUBLIC "-//W3C//DTD SVG 1.1//EN"
 "http://www.w3.org/Graphics/SVG/1.1/DTD/svg11.dtd">
<!-- Generated by graphviz version 2.26.3 (20100126.1600)
 -->
<!-- Title: G Pages: 1 -->
<svg width="736pt" height="120pt"
 viewBox="0.00 0.00 736.00 120.00" xmlns="http://www.w3.org/2000/svg" xmlns:xlink="http://www.w3.org/1999/xlink">
<g id="graph1" class="graph" transform="scale(1 1) rotate(0) translate(4 116)">
<title>G</title>
<polygon fill="white" stroke="white" points="-4,5 -4,-116 733,-116 733,5 -4,5"/>
<!-- PhpDA\\Service -->
<g id="node1" class="node"><title>PhpDA\\Service</title>
<ellipse fill="none" stroke="black" cx="84" cy="-93" rx="84.1457" ry="18.3848"/>
<text text-anchor="middle" x="84" y="-89.4" font-family="Times Roman,serif" font-size="14.00">PhpDA\Service</text>
</g>
<!-- PhpDA\\Plugin -->
<g id="node3" class="node"><title>PhpDA\\Plugin</title>
<ellipse fill="none" stroke="black" cx="347" cy="-19" rx="77.9889" ry="18.3848"/>
<text text-anchor="middle" x="347" y="-15.4" font-family="Times Roman,serif" font-size="14.00">PhpDA\Plugin</text>
</g>
<!-- PhpDA\\Service&#45;&gt;PhpDA\\Plugin -->
<g id="edge2" class="edge"><title>PhpDA\\Service&#45;&gt;PhpDA\\Plugin</title>
<path fill="none" stroke="black" d="M135.96,-78.38C179.334,-66.1759 241.201,-48.7684 286.741,-35.955"/>
<polygon fill="black" stroke="black" points="287.81,-39.2903 296.488,-33.2125 285.914,-32.5519 287.81,-39.2903"/>
</g>
<!-- class_exists -->
<g id="node4" class="node"><title>class_exists</title>
<ellipse fill="none" stroke="black" cx="254" cy="-93" rx="67.8823" ry="18.3848"/>
<text text-anchor="middle" x="254" y="-89.4" font-family="Times Roman,serif" font-size="14.00">class_exists</text>
</g>
<!-- class_exists&#45;&gt;PhpDA\\Plugin -->
<g id="edge4" class="edge"><title>class_exists&#45;&gt;PhpDA\\Plugin</title>
<path fill="none" stroke="black" d="M276.04,-75.463C288.139,-65.8359 303.326,-53.7512 316.543,-43.2346"/>
<polygon fill="black" stroke="black" points="318.827,-45.8904 324.472,-36.9251 314.468,-40.4128 318.827,-45.8904"/>
</g>
<!-- RuntimeException -->
<g id="node6" class="node"><title>RuntimeException</title>
<ellipse fill="none" stroke="black" cx="440" cy="-93" rx="99.9096" ry="18.3848"/>
<text text-anchor="middle" x="440" y="-89.4" font-family="Times Roman,serif" font-size="14.00">RuntimeException</text>
</g>
<!-- RuntimeException&#45;&gt;PhpDA\\Plugin -->
<g id="edge6" class="edge"><title>RuntimeException&#45;&gt;PhpDA\\Plugin</title>
<path fill="none" stroke="black" d="M417.011,-74.7079C405.098,-65.2284 390.39,-53.5256 377.535,-43.297"/>
<polygon fill="black" stroke="black" points="379.408,-40.314 369.403,-36.8264 375.049,-45.7916 379.408,-40.314"/>
</g>
<!-- ReflectionClass -->
<g id="node8" class="node"><title>ReflectionClass</title>
<ellipse fill="none" stroke="black" cx="643" cy="-93" rx="84.8528" ry="18.3848"/>
<text text-anchor="middle" x="643" y="-89.4" font-family="Times Roman,serif" font-size="14.00">ReflectionClass</text>
</g>
<!-- ReflectionClass&#45;&gt;PhpDA\\Plugin -->
<g id="edge8" class="edge"><title>ReflectionClass&#45;&gt;PhpDA\\Plugin</title>
<path fill="none" stroke="black" d="M586.977,-78.9942C536.748,-66.437 463.103,-48.0256 410.662,-34.9154"/>
<polygon fill="black" stroke="black" points="411.349,-31.4795 400.798,-32.4496 409.651,-38.2705 411.349,-31.4795"/>
</g>
</g>
</svg>
