<?xml version="1.0" encoding="UTF-8" standalone="no"?>
<!DOCTYPE svg PUBLIC "-//W3C//DTD SVG 1.1//EN"
 "http://www.w3.org/Graphics/SVG/1.1/DTD/svg11.dtd">
<!-- Generated by graphviz version 2.26.3 (20100126.1600)
 -->
<!-- Title: G Pages: 1 -->
<svg width="540pt" height="252pt"
 viewBox="0.00 0.00 540.00 252.00" xmlns="http://www.w3.org/2000/svg" xmlns:xlink="http://www.w3.org/1999/xlink">
<g id="graph1" class="graph" transform="scale(1 1) rotate(0) translate(4 248)">
<title>G</title>
<polygon fill="white" stroke="white" points="-4,5 -4,-248 537,-248 537,5 -4,5"/>
<!-- PackageX\\SuperGlobalAccess -->
<g id="node1" class="node"><title>PackageX\\SuperGlobalAccess</title>
<ellipse fill="#eeeeee" stroke="black" cx="260" cy="-168" rx="76.1375" ry="76.1375"/>
<text text-anchor="middle" x="260" y="-165.5" font-family="Times Roman,serif" font-size="10.00" fill="#314b5f">PackageX\SuperGlobalAccess</text>
</g>
<!-- _POST -->
<g id="node2" class="node"><title>_POST</title>
<ellipse fill="#eeeeee" stroke="black" cx="18" cy="-28" rx="18" ry="18"/>
<text text-anchor="middle" x="18" y="-25.5" font-family="Times Roman,serif" font-size="10.00" fill="#314b5f">_POST</text>
</g>
<!-- PackageX\\SuperGlobalAccess&#45;&gt;_POST -->
<g id="edge2" class="edge"><title>PackageX\\SuperGlobalAccess&#45;&gt;_POST</title>
<path fill="none" stroke="#1a2833" d="M189.846,-138.49C146.114,-118.436 89.8342,-89.5146 45,-56 41.2814,-53.2203 37.6129,-49.9142 34.2356,-46.5649"/>
<polygon fill="#1a2833" stroke="#1a2833" points="35.5152,-44.8674 29.8335,-42.0163 32.4971,-47.7882 35.5152,-44.8674"/>
</g>
<!-- _GET -->
<g id="node3" class="node"><title>_GET</title>
<ellipse fill="#eeeeee" stroke="black" cx="72" cy="-28" rx="18" ry="18"/>
<text text-anchor="middle" x="72" y="-25.5" font-family="Times Roman,serif" font-size="10.00" fill="#314b5f">_GET</text>
</g>
<!-- PackageX\\SuperGlobalAccess&#45;&gt;_GET -->
<g id="edge4" class="edge"><title>PackageX\\SuperGlobalAccess&#45;&gt;_GET</title>
<path fill="none" stroke="#1a2833" d="M195.578,-127.391C165.249,-107.233 129.194,-81.7268 99,-56 95.4662,-52.9889 91.8831,-49.5757 88.5321,-46.1936"/>
<polygon fill="#1a2833" stroke="#1a2833" points="89.8125,-44.4966 84.1328,-41.6414 86.7924,-47.4153 89.8125,-44.4966"/>
</g>
<!-- _REQUEST -->
<g id="node4" class="node"><title>_REQUEST</title>
<ellipse fill="#eeeeee" stroke="black" cx="135" cy="-28" rx="26.848" ry="27.3452"/>
<text text-anchor="middle" x="135" y="-25.5" font-family="Times Roman,serif" font-size="10.00" fill="#314b5f">_REQUEST</text>
</g>
<!-- PackageX\\SuperGlobalAccess&#45;&gt;_REQUEST -->
<g id="edge6" class="edge"><title>PackageX\\SuperGlobalAccess&#45;&gt;_REQUEST</title>
<path fill="none" stroke="#1a2833" d="M209.158,-111.057C191.271,-91.0238 172.064,-69.5119 157.68,-53.4011"/>
<polygon fill="#1a2833" stroke="#1a2833" points="158.94,-51.6593 153.377,-48.5823 155.807,-54.4566 158.94,-51.6593"/>
</g>
<!-- _COOKIE -->
<g id="node5" class="node"><title>_COOKIE</title>
<ellipse fill="#eeeeee" stroke="black" cx="202" cy="-28" rx="22.0191" ry="22.5196"/>
<text text-anchor="middle" x="202" y="-25.5" font-family="Times Roman,serif" font-size="10.00" fill="#314b5f">_COOKIE</text>
</g>
<!-- PackageX\\SuperGlobalAccess&#45;&gt;_COOKIE -->
<g id="edge8" class="edge"><title>PackageX\\SuperGlobalAccess&#45;&gt;_COOKIE</title>
<path fill="none" stroke="#1a2833" d="M230.83,-97.5898C224.479,-82.2587 218.138,-66.9537 213.027,-54.6168"/>
<polygon fill="#1a2833" stroke="#1a2833" points="214.859,-53.5511 210.622,-48.8118 210.978,-55.1587 214.859,-53.5511"/>
</g>
<!-- _FILES -->
<g id="node6" class="node"><title>_FILES</title>
<ellipse fill="#eeeeee" stroke="black" cx="260" cy="-28" rx="18" ry="18"/>
<text text-anchor="middle" x="260" y="-25.5" font-family="Times Roman,serif" font-size="10.00" fill="#314b5f">_FILES</text>
</g>
<!-- PackageX\\SuperGlobalAccess&#45;&gt;_FILES -->
<g id="edge10" class="edge"><title>PackageX\\SuperGlobalAccess&#45;&gt;_FILES</title>
<path fill="none" stroke="#1a2833" d="M260,-91.8547C260,-77.5941 260,-63.6764 260,-52.4934"/>
<polygon fill="#1a2833" stroke="#1a2833" points="262.1,-52.243 260,-46.2431 257.9,-52.2431 262.1,-52.243"/>
</g>
<!-- _SERVER -->
<g id="node7" class="node"><title>_SERVER</title>
<ellipse fill="#eeeeee" stroke="black" cx="319" cy="-28" rx="23.0557" ry="23.0557"/>
<text text-anchor="middle" x="319" y="-25.5" font-family="Times Roman,serif" font-size="10.00" fill="#314b5f">_SERVER</text>
</g>
<!-- PackageX\\SuperGlobalAccess&#45;&gt;_SERVER -->
<g id="edge12" class="edge"><title>PackageX\\SuperGlobalAccess&#45;&gt;_SERVER</title>
<path fill="none" stroke="#1a2833" d="M289.673,-97.5898C296.035,-82.4927 302.387,-67.421 307.544,-55.1839"/>
<polygon fill="#1a2833" stroke="#1a2833" points="309.579,-55.7612 309.974,-49.4166 305.709,-54.1301 309.579,-55.7612"/>
</g>
<!-- _ENV -->
<g id="node8" class="node"><title>_ENV</title>
<ellipse fill="#eeeeee" stroke="black" cx="378" cy="-28" rx="18" ry="18"/>
<text text-anchor="middle" x="378" y="-25.5" font-family="Times Roman,serif" font-size="10.00" fill="#314b5f">_ENV</text>
</g>
<!-- PackageX\\SuperGlobalAccess&#45;&gt;_ENV -->
<g id="edge14" class="edge"><title>PackageX\\SuperGlobalAccess&#45;&gt;_ENV</title>
<path fill="none" stroke="#1a2833" d="M309.017,-109.844C328.069,-87.2399 348.551,-62.9393 362.203,-46.7418"/>
<polygon fill="#1a2833" stroke="#1a2833" points="363.951,-47.9272 366.212,-41.986 360.739,-45.2204 363.951,-47.9272"/>
</g>
<!-- GLOBALS -->
<g id="node9" class="node"><title>GLOBALS</title>
<ellipse fill="#eeeeee" stroke="black" cx="438" cy="-28" rx="24.1609" ry="24.6643"/>
<text text-anchor="middle" x="438" y="-25.5" font-family="Times Roman,serif" font-size="10.00" fill="#314b5f">GLOBALS</text>
</g>
<!-- PackageX\\SuperGlobalAccess&#45;&gt;GLOBALS -->
<g id="edge16" class="edge"><title>PackageX\\SuperGlobalAccess&#45;&gt;GLOBALS</title>
<path fill="none" stroke="#1a2833" d="M320.803,-122.023C346.934,-102.01 377.684,-78.1191 405,-56 408.142,-53.4556 411.422,-50.7437 414.642,-48.0471"/>
<polygon fill="#1a2833" stroke="#1a2833" points="416.389,-49.3206 419.624,-43.8485 413.683,-46.1087 416.389,-49.3206"/>
</g>
<!-- _SESSION -->
<g id="node10" class="node"><title>_SESSION</title>
<ellipse fill="#eeeeee" stroke="black" cx="506" cy="-28" rx="25.7771" ry="26.2728"/>
<text text-anchor="middle" x="506" y="-25.5" font-family="Times Roman,serif" font-size="10.00" fill="#314b5f">_SESSION</text>
</g>
<!-- PackageX\\SuperGlobalAccess&#45;&gt;_SESSION -->
<g id="edge18" class="edge"><title>PackageX\\SuperGlobalAccess&#45;&gt;_SESSION</title>
<path fill="none" stroke="#1a2833" d="M328.835,-135.547C370.995,-114.683 425.423,-85.9496 471,-56 474.243,-53.8687 477.552,-51.505 480.776,-49.0805"/>
<polygon fill="#1a2833" stroke="#1a2833" points="482.282,-50.5709 485.753,-45.245 479.719,-47.2442 482.282,-50.5709"/>
</g>
</g>
</svg>
