<?xml version="1.0" encoding="UTF-8" standalone="no"?>
<!DOCTYPE svg PUBLIC "-//W3C//DTD SVG 1.1//EN"
 "http://www.w3.org/Graphics/SVG/1.1/DTD/svg11.dtd">
<!-- Generated by graphviz version 2.26.3 (20100126.1600)
 -->
<!-- Title: G Pages: 1 -->
<svg width="5456pt" height="416pt"
 viewBox="0.00 0.00 5455.61 416.00" xmlns="http://www.w3.org/2000/svg" xmlns:xlink="http://www.w3.org/1999/xlink">
<g id="graph1" class="graph" transform="scale(1 1) rotate(0) translate(4 412)">
<title>G</title>
<polygon fill="white" stroke="white" points="-4,5 -4,-412 5452.61,-412 5452.61,5 -4,5"/>
<!-- PackageA\\Service\\Query -->
<g id="node1" class="node"><title>PackageA\\Service\\Query</title>
<ellipse fill="none" stroke="black" cx="2984.61" cy="-315" rx="130.815" ry="18.3848"/>
<text text-anchor="middle" x="2984.61" y="-311.4" font-family="Times Roman,serif" font-size="14.00">PackageA\Service\Query</text>
</g>
<!-- PackageA\\Service\\AbstractService -->
<g id="node3" class="node"><title>PackageA\\Service\\AbstractService</title>
<ellipse fill="none" stroke="black" cx="3237.61" cy="-241" rx="176.777" ry="18.3848"/>
<text text-anchor="middle" x="3237.61" y="-237.4" font-family="Times Roman,serif" font-size="14.00">PackageA\Service\AbstractService</text>
</g>
<!-- PackageA\\Service\\Query&#45;&gt;PackageA\\Service\\AbstractService -->
<g id="edge2" class="edge"><title>PackageA\\Service\\Query&#45;&gt;PackageA\\Service\\AbstractService</title>
<path fill="none" stroke="black" d="M3041.71,-298.301C3079.14,-287.353 3128.31,-272.97 3168.03,-261.354"/>
<polygon fill="black" stroke="black" points="3169.03,-264.707 3177.65,-258.54 3167.07,-257.988 3169.03,-264.707"/>
</g>
<!-- PackageA\\Mapper\\QueryInterface -->
<g id="node5" class="node"><title>PackageA\\Mapper\\QueryInterface</title>
<ellipse fill="none" stroke="black" cx="2830.61" cy="-241" rx="174.155" ry="18.3848"/>
<text text-anchor="middle" x="2830.61" y="-237.4" font-family="Times Roman,serif" font-size="14.00">PackageA\Mapper\QueryInterface</text>
</g>
<!-- PackageA\\Service\\Query&#45;&gt;PackageA\\Mapper\\QueryInterface -->
<g id="edge4" class="edge"><title>PackageA\\Service\\Query&#45;&gt;PackageA\\Mapper\\QueryInterface</title>
<path fill="none" stroke="black" d="M2947.34,-297.087C2926.38,-287.019 2900.03,-274.354 2877.66,-263.608"/>
<polygon fill="black" stroke="black" points="2878.88,-260.31 2868.35,-259.134 2875.85,-266.619 2878.88,-260.31"/>
</g>
<!-- array_key_exists -->
<g id="node7" class="node"><title>array_key_exists</title>
<ellipse fill="none" stroke="black" cx="1797.61" cy="-241" rx="92.839" ry="18.3848"/>
<text text-anchor="middle" x="1797.61" y="-237.4" font-family="Times Roman,serif" font-size="14.00">array_key_exists</text>
</g>
<!-- PackageA\\Service\\Query&#45;&gt;array_key_exists -->
<g id="edge6" class="edge"><title>PackageA\\Service\\Query&#45;&gt;array_key_exists</title>
<path fill="none" stroke="black" d="M2867.41,-306.708C2815.68,-303.178 2754.13,-299.157 2698.61,-296 2360.56,-276.777 2274.81,-290.797 1937.61,-260 1919.48,-258.344 1900.08,-256.05 1881.69,-253.627"/>
<polygon fill="black" stroke="black" points="1881.96,-250.133 1871.59,-252.272 1881.03,-257.071 1881.96,-250.133"/>
</g>
<!-- PackageA\\Entity\\Package -->
<g id="node9" class="node"><title>PackageA\\Entity\\Package</title>
<ellipse fill="none" stroke="black" cx="3442.61" cy="-167" rx="133.851" ry="18.3848"/>
<text text-anchor="middle" x="3442.61" y="-163.4" font-family="Times Roman,serif" font-size="14.00">PackageA\Entity\Package</text>
</g>
<!-- PackageA\\Service\\Query&#45;&gt;PackageA\\Entity\\Package -->
<g id="edge8" class="edge"><title>PackageA\\Service\\Query&#45;&gt;PackageA\\Entity\\Package</title>
<path fill="none" stroke="black" d="M2995.51,-296.497C3010.28,-272.075 3036.54,-231.102 3051.61,-222 3093.91,-196.466 3212.55,-182.249 3308.14,-174.7"/>
<polygon fill="black" stroke="black" points="3308.5,-178.183 3318.2,-173.924 3307.96,-171.204 3308.5,-178.183"/>
</g>
<!-- PackageA\\Mapper\\QueryInterface&#45;&gt;PackageA\\Entity\\Package -->
<g id="edge38" class="edge"><title>PackageA\\Mapper\\QueryInterface&#45;&gt;PackageA\\Entity\\Package</title>
<path fill="none" stroke="black" d="M2945.73,-227.081C3056.36,-213.704 3222.43,-193.624 3331.65,-180.417"/>
<polygon fill="black" stroke="black" points="3332.21,-183.876 3341.71,-179.2 3331.37,-176.926 3332.21,-183.876"/>
</g>
<!-- PackageA\\Service\\Message -->
<g id="node10" class="node"><title>PackageA\\Service\\Message</title>
<ellipse fill="none" stroke="black" cx="4865.61" cy="-389" rx="140.922" ry="18.3848"/>
<text text-anchor="middle" x="4865.61" y="-385.4" font-family="Times Roman,serif" font-size="14.00">PackageA\Service\Message</text>
</g>
<!-- PackageB\\Service\\Message -->
<g id="node12" class="node"><title>PackageB\\Service\\Message</title>
<ellipse fill="none" stroke="black" cx="4756.61" cy="-315" rx="140.922" ry="18.3848"/>
<text text-anchor="middle" x="4756.61" y="-311.4" font-family="Times Roman,serif" font-size="14.00">PackageB\Service\Message</text>
</g>
<!-- PackageA\\Service\\Message&#45;&gt;PackageB\\Service\\Message -->
<g id="edge10" class="edge"><title>PackageA\\Service\\Message&#45;&gt;PackageB\\Service\\Message</title>
<path fill="none" stroke="black" d="M4838.67,-370.708C4824.65,-361.191 4807.33,-349.433 4792.22,-339.176"/>
<polygon fill="black" stroke="black" points="4793.87,-336.059 4783.63,-333.338 4789.93,-341.851 4793.87,-336.059"/>
</g>
<!-- PackageC\\Service\\Message -->
<g id="node56" class="node"><title>PackageC\\Service\\Message</title>
<ellipse fill="none" stroke="black" cx="4826.61" cy="-241" rx="140.922" ry="18.3848"/>
<text text-anchor="middle" x="4826.61" y="-237.4" font-family="Times Roman,serif" font-size="14.00">PackageC\Service\Message</text>
</g>
<!-- PackageB\\Service\\Message&#45;&gt;PackageC\\Service\\Message -->
<g id="edge60" class="edge"><title>PackageB\\Service\\Message&#45;&gt;PackageC\\Service\\Message</title>
<path fill="none" stroke="black" d="M4774.28,-296.327C4782.72,-287.408 4792.95,-276.588 4802.12,-266.89"/>
<polygon fill="black" stroke="black" points="4804.87,-269.081 4809.2,-259.411 4799.78,-264.271 4804.87,-269.081"/>
</g>
<!-- PackageA\\Service\\Command -->
<g id="node13" class="node"><title>PackageA\\Service\\Command</title>
<ellipse fill="none" stroke="black" cx="3282.61" cy="-315" rx="149.2" ry="18.3848"/>
<text text-anchor="middle" x="3282.61" y="-311.4" font-family="Times Roman,serif" font-size="14.00">PackageA\Service\Command</text>
</g>
<!-- PackageA\\Service\\Command&#45;&gt;PackageA\\Service\\AbstractService -->
<g id="edge12" class="edge"><title>PackageA\\Service\\Command&#45;&gt;PackageA\\Service\\AbstractService</title>
<path fill="none" stroke="black" d="M3271.26,-296.327C3266.09,-287.826 3259.87,-277.598 3254.19,-268.261"/>
<polygon fill="black" stroke="black" points="3257.15,-266.393 3248.97,-259.667 3251.17,-270.03 3257.15,-266.393"/>
</g>
<!-- PackageA\\Service\\Command&#45;&gt;PackageA\\Entity\\Package -->
<g id="edge18" class="edge"><title>PackageA\\Service\\Command&#45;&gt;PackageA\\Entity\\Package</title>
<path fill="none" stroke="black" d="M3362.16,-299.229C3384.95,-291.055 3407.87,-278.687 3423.61,-260 3438.56,-242.268 3442.81,-215.932 3443.62,-195.807"/>
<polygon fill="black" stroke="black" points="3447.12,-195.692 3443.76,-185.645 3440.12,-195.595 3447.12,-195.692"/>
</g>
<!-- PackageA\\Mapper\\CommandInterface -->
<g id="node16" class="node"><title>PackageA\\Mapper\\CommandInterface</title>
<ellipse fill="none" stroke="black" cx="3663.61" cy="-241" rx="193.04" ry="18.3848"/>
<text text-anchor="middle" x="3663.61" y="-237.4" font-family="Times Roman,serif" font-size="14.00">PackageA\Mapper\CommandInterface</text>
</g>
<!-- PackageA\\Service\\Command&#45;&gt;PackageA\\Mapper\\CommandInterface -->
<g id="edge14" class="edge"><title>PackageA\\Service\\Command&#45;&gt;PackageA\\Mapper\\CommandInterface</title>
<path fill="none" stroke="black" d="M3362.95,-299.397C3422.84,-287.765 3504.87,-271.833 3568.11,-259.549"/>
<polygon fill="black" stroke="black" points="3568.95,-262.952 3578.1,-257.61 3567.61,-256.081 3568.95,-262.952"/>
</g>
<!-- array_map -->
<g id="node18" class="node"><title>array_map</title>
<ellipse fill="none" stroke="black" cx="2105.61" cy="-241" rx="63.1385" ry="18.3848"/>
<text text-anchor="middle" x="2105.61" y="-237.4" font-family="Times Roman,serif" font-size="14.00">array_map</text>
</g>
<!-- PackageA\\Service\\Command&#45;&gt;array_map -->
<g id="edge16" class="edge"><title>PackageA\\Service\\Command&#45;&gt;array_map</title>
<path fill="none" stroke="black" d="M3180.32,-301.463C3161.81,-299.365 3142.65,-297.425 3124.61,-296 2704.73,-262.829 2594.2,-322.11 2177.61,-260 2171.8,-259.133 2165.78,-257.974 2159.8,-256.655"/>
<polygon fill="black" stroke="black" points="2160.38,-253.196 2149.85,-254.306 2158.78,-260.009 2160.38,-253.196"/>
</g>
<!-- intval -->
<g id="node21" class="node"><title>intval</title>
<ellipse fill="none" stroke="black" cx="1985.61" cy="-241" rx="39.0967" ry="18.3848"/>
<text text-anchor="middle" x="1985.61" y="-237.4" font-family="Times Roman,serif" font-size="14.00">intval</text>
</g>
<!-- PackageA\\Service\\Command&#45;&gt;intval -->
<g id="edge20" class="edge"><title>PackageA\\Service\\Command&#45;&gt;intval</title>
<path fill="none" stroke="black" d="M3180.75,-301.435C3162.1,-299.327 3142.8,-297.391 3124.61,-296 2882.74,-277.502 2271.11,-309.368 2033.61,-260 2030.18,-259.285 2026.66,-258.344 2023.18,-257.263"/>
<polygon fill="black" stroke="black" points="2024.14,-253.889 2013.54,-253.915 2021.84,-260.501 2024.14,-253.889"/>
</g>
<!-- PackageA\\Mapper\\CommandInterface&#45;&gt;PackageA\\Entity\\Package -->
<g id="edge30" class="edge"><title>PackageA\\Mapper\\CommandInterface&#45;&gt;PackageA\\Entity\\Package</title>
<path fill="none" stroke="black" d="M3610.4,-223.181C3578.2,-212.399 3537.03,-198.613 3503.53,-187.396"/>
<polygon fill="black" stroke="black" points="3504.44,-184.011 3493.85,-184.155 3502.22,-190.649 3504.44,-184.011"/>
</g>
<!-- PackageA\\Mapper\\EntityManagerAwareTrait -->
<g id="node22" class="node"><title>PackageA\\Mapper\\EntityManagerAwareTrait</title>
<ellipse fill="none" stroke="black" cx="2412.61" cy="-241" rx="225.775" ry="18.3848"/>
<text text-anchor="middle" x="2412.61" y="-237.4" font-family="Times Roman,serif" font-size="14.00">PackageA\Mapper\EntityManagerAwareTrait</text>
</g>
<!-- Doctrine\\ORM\\EntityManagerInterface -->
<g id="node24" class="node"><title>Doctrine\\ORM\\EntityManagerInterface</title>
<ellipse fill="none" stroke="black" cx="1600.61" cy="-167" rx="198.197" ry="18.3848"/>
<text text-anchor="middle" x="1600.61" y="-163.4" font-family="Times Roman,serif" font-size="14.00">Doctrine\ORM\EntityManagerInterface</text>
</g>
<!-- PackageA\\Mapper\\EntityManagerAwareTrait&#45;&gt;Doctrine\\ORM\\EntityManagerInterface -->
<g id="edge22" class="edge"><title>PackageA\\Mapper\\EntityManagerAwareTrait&#45;&gt;Doctrine\\ORM\\EntityManagerInterface</title>
<path fill="none" stroke="black" d="M2261.31,-227.211C2116.24,-213.991 1898.41,-194.139 1752.98,-180.886"/>
<polygon fill="black" stroke="black" points="1752.92,-177.365 1742.64,-179.943 1752.28,-184.336 1752.92,-177.365"/>
</g>
<!-- DomainException -->
<g id="node26" class="node"><title>DomainException</title>
<ellipse fill="none" stroke="black" cx="2079.61" cy="-167" rx="96.8736" ry="18.3848"/>
<text text-anchor="middle" x="2079.61" y="-163.4" font-family="Times Roman,serif" font-size="14.00">DomainException</text>
</g>
<!-- PackageA\\Mapper\\EntityManagerAwareTrait&#45;&gt;DomainException -->
<g id="edge24" class="edge"><title>PackageA\\Mapper\\EntityManagerAwareTrait&#45;&gt;DomainException</title>
<path fill="none" stroke="black" d="M2334.12,-223.557C2279.18,-211.348 2206.3,-195.153 2152.62,-183.223"/>
<polygon fill="black" stroke="black" points="2153.34,-179.799 2142.82,-181.046 2151.83,-186.632 2153.34,-179.799"/>
</g>
<!-- PackageA\\Mapper\\Query -->
<g id="node27" class="node"><title>PackageA\\Mapper\\Query</title>
<ellipse fill="none" stroke="black" cx="2558.61" cy="-315" rx="130.815" ry="18.3848"/>
<text text-anchor="middle" x="2558.61" y="-311.4" font-family="Times Roman,serif" font-size="14.00">PackageA\Mapper\Query</text>
</g>
<!-- PackageA\\Mapper\\Query&#45;&gt;PackageA\\Mapper\\QueryInterface -->
<g id="edge26" class="edge"><title>PackageA\\Mapper\\Query&#45;&gt;PackageA\\Mapper\\QueryInterface</title>
<path fill="none" stroke="black" d="M2618.98,-298.577C2659.78,-287.477 2713.9,-272.753 2757.2,-260.974"/>
<polygon fill="black" stroke="black" points="2758.37,-264.281 2767.11,-258.278 2756.54,-257.526 2758.37,-264.281"/>
</g>
<!-- PackageA\\Mapper\\Query&#45;&gt;PackageA\\Mapper\\EntityManagerAwareTrait -->
<g id="edge28" class="edge"><title>PackageA\\Mapper\\Query&#45;&gt;PackageA\\Mapper\\EntityManagerAwareTrait</title>
<path fill="none" stroke="black" d="M2523.27,-297.087C2503.64,-287.138 2479.01,-274.654 2457.98,-263.992"/>
<polygon fill="black" stroke="black" points="2459.4,-260.791 2448.9,-259.392 2456.24,-267.035 2459.4,-260.791"/>
</g>
<!-- PackageA\\Mapper\\Command -->
<g id="node31" class="node"><title>PackageA\\Mapper\\Command</title>
<ellipse fill="none" stroke="black" cx="3599.61" cy="-315" rx="149.907" ry="18.3848"/>
<text text-anchor="middle" x="3599.61" y="-311.4" font-family="Times Roman,serif" font-size="14.00">PackageA\Mapper\Command</text>
</g>
<!-- PackageA\\Mapper\\Command&#45;&gt;PackageA\\Entity\\Package -->
<g id="edge36" class="edge"><title>PackageA\\Mapper\\Command&#45;&gt;PackageA\\Entity\\Package</title>
<path fill="none" stroke="black" d="M3697.27,-300.887C3768.59,-289.578 3854.67,-273.438 3865.61,-260 3876.28,-246.904 3876.76,-234.689 3865.61,-222 3846.43,-200.155 3691.59,-184.414 3574.75,-175.508"/>
<polygon fill="black" stroke="black" points="3574.87,-172.007 3564.64,-174.747 3574.35,-178.988 3574.87,-172.007"/>
</g>
<!-- PackageA\\Mapper\\Command&#45;&gt;PackageA\\Mapper\\CommandInterface -->
<g id="edge32" class="edge"><title>PackageA\\Mapper\\Command&#45;&gt;PackageA\\Mapper\\CommandInterface</title>
<path fill="none" stroke="black" d="M3615.76,-296.327C3623.34,-287.563 3632.51,-276.964 3640.78,-267.397"/>
<polygon fill="black" stroke="black" points="3643.58,-269.521 3647.47,-259.667 3638.28,-264.941 3643.58,-269.521"/>
</g>
<!-- PackageA\\Mapper\\Command&#45;&gt;PackageA\\Mapper\\EntityManagerAwareTrait -->
<g id="edge34" class="edge"><title>PackageA\\Mapper\\Command&#45;&gt;PackageA\\Mapper\\EntityManagerAwareTrait</title>
<path fill="none" stroke="black" d="M3496.24,-301.529C3477.74,-299.438 3458.62,-297.483 3440.61,-296 3089,-267.05 2999.72,-282.22 2647.61,-260 2625.37,-258.597 2601.96,-256.931 2578.89,-255.178"/>
<polygon fill="black" stroke="black" points="2578.91,-251.669 2568.67,-254.394 2578.38,-258.648 2578.91,-251.669"/>
</g>
<!-- PackageA\\Controller\\AbstractController -->
<g id="node36" class="node"><title>PackageA\\Controller\\AbstractController</title>
<ellipse fill="none" stroke="black" cx="4394.61" cy="-315" rx="202.94" ry="18.3848"/>
<text text-anchor="middle" x="4394.61" y="-311.4" font-family="Times Roman,serif" font-size="14.00">PackageA\Controller\AbstractController</text>
</g>
<!-- Zend\\Mvc\\Controller\\AbstractController -->
<g id="node38" class="node"><title>Zend\\Mvc\\Controller\\AbstractController</title>
<ellipse fill="none" stroke="black" cx="4115.61" cy="-241" rx="203.146" ry="18.3848"/>
<text text-anchor="middle" x="4115.61" y="-237.4" font-family="Times Roman,serif" font-size="14.00">Zend\Mvc\Controller\AbstractController</text>
</g>
<!-- PackageA\\Controller\\AbstractController&#45;&gt;Zend\\Mvc\\Controller\\AbstractController -->
<g id="edge40" class="edge"><title>PackageA\\Controller\\AbstractController&#45;&gt;Zend\\Mvc\\Controller\\AbstractController</title>
<path fill="none" stroke="black" d="M4328.5,-297.463C4287.38,-286.559 4234.39,-272.502 4191.55,-261.142"/>
<polygon fill="black" stroke="black" points="4192.3,-257.72 4181.74,-258.539 4190.51,-264.486 4192.3,-257.72"/>
</g>
<!-- Zend\\Http\\Request -->
<g id="node40" class="node"><title>Zend\\Http\\Request</title>
<ellipse fill="none" stroke="black" cx="4440.61" cy="-241" rx="103.945" ry="18.3848"/>
<text text-anchor="middle" x="4440.61" y="-237.4" font-family="Times Roman,serif" font-size="14.00">Zend\Http\Request</text>
</g>
<!-- PackageA\\Controller\\AbstractController&#45;&gt;Zend\\Http\\Request -->
<g id="edge42" class="edge"><title>PackageA\\Controller\\AbstractController&#45;&gt;Zend\\Http\\Request</title>
<path fill="none" stroke="black" d="M4406.22,-296.327C4411.55,-287.761 4417.96,-277.442 4423.8,-268.047"/>
<polygon fill="black" stroke="black" points="4426.86,-269.752 4429.17,-259.411 4420.92,-266.056 4426.86,-269.752"/>
</g>
<!-- PackageA\\Controller\\Query -->
<g id="node41" class="node"><title>PackageA\\Controller\\Query</title>
<ellipse fill="none" stroke="black" cx="3256.61" cy="-389" rx="143.043" ry="18.3848"/>
<text text-anchor="middle" x="3256.61" y="-385.4" font-family="Times Roman,serif" font-size="14.00">PackageA\Controller\Query</text>
</g>
<!-- PackageA\\Controller\\Query&#45;&gt;PackageA\\Service\\Query -->
<g id="edge46" class="edge"><title>PackageA\\Controller\\Query&#45;&gt;PackageA\\Service\\Query</title>
<path fill="none" stroke="black" d="M3194.89,-372.208C3153.3,-360.894 3098.35,-345.942 3055.05,-334.162"/>
<polygon fill="black" stroke="black" points="3055.72,-330.718 3045.15,-331.47 3053.88,-337.473 3055.72,-330.718"/>
</g>
<!-- PackageA\\Controller\\Query&#45;&gt;PackageA\\Controller\\AbstractController -->
<g id="edge44" class="edge"><title>PackageA\\Controller\\Query&#45;&gt;PackageA\\Controller\\AbstractController</title>
<path fill="none" stroke="black" d="M3390.11,-382.333C3570.16,-373.053 3900.76,-354.996 4182.61,-334 4202.08,-332.55 4222.54,-330.889 4242.75,-329.167"/>
<polygon fill="black" stroke="black" points="4243.31,-332.632 4252.97,-328.289 4242.71,-325.658 4243.31,-332.632"/>
</g>
<!-- PackageA\\Controller\\Command -->
<g id="node44" class="node"><title>PackageA\\Controller\\Command</title>
<ellipse fill="none" stroke="black" cx="4122.61" cy="-389" rx="162.134" ry="18.3848"/>
<text text-anchor="middle" x="4122.61" y="-385.4" font-family="Times Roman,serif" font-size="14.00">PackageA\Controller\Command</text>
</g>
<!-- PackageA\\Controller\\Command&#45;&gt;PackageA\\Service\\Command -->
<g id="edge50" class="edge"><title>PackageA\\Controller\\Command&#45;&gt;PackageA\\Service\\Command</title>
<path fill="none" stroke="black" d="M3984.01,-379.422C3846.11,-369.516 3628.54,-352.87 3440.61,-334 3426.65,-332.598 3412.02,-331.005 3397.52,-329.351"/>
<polygon fill="black" stroke="black" points="3397.85,-325.866 3387.51,-328.199 3397.05,-332.82 3397.85,-325.866"/>
</g>
<!-- PackageA\\Controller\\Command&#45;&gt;PackageA\\Controller\\AbstractController -->
<g id="edge48" class="edge"><title>PackageA\\Controller\\Command&#45;&gt;PackageA\\Controller\\AbstractController</title>
<path fill="none" stroke="black" d="M4185.36,-371.93C4225.53,-361.001 4277.86,-346.764 4320.14,-335.262"/>
<polygon fill="black" stroke="black" points="4321.09,-338.63 4329.82,-332.627 4319.25,-331.875 4321.09,-338.63"/>
</g>
<!-- PackageB\\Service\\Query -->
<g id="node47" class="node"><title>PackageB\\Service\\Query</title>
<ellipse fill="none" stroke="black" cx="1509.61" cy="-315" rx="130.815" ry="18.3848"/>
<text text-anchor="middle" x="1509.61" y="-311.4" font-family="Times Roman,serif" font-size="14.00">PackageB\Service\Query</text>
</g>
<!-- PackageB\\Service\\Query&#45;&gt;array_key_exists -->
<g id="edge56" class="edge"><title>PackageB\\Service\\Query&#45;&gt;array_key_exists</title>
<path fill="none" stroke="black" d="M1572.82,-298.76C1619.5,-286.765 1682.94,-270.465 1730.52,-258.239"/>
<polygon fill="black" stroke="black" points="1731.61,-261.574 1740.42,-255.695 1729.87,-254.794 1731.61,-261.574"/>
</g>
<!-- PackageB\\Service\\AbstractService -->
<g id="node49" class="node"><title>PackageB\\Service\\AbstractService</title>
<ellipse fill="none" stroke="black" cx="1509.61" cy="-241" rx="176.777" ry="18.3848"/>
<text text-anchor="middle" x="1509.61" y="-237.4" font-family="Times Roman,serif" font-size="14.00">PackageB\Service\AbstractService</text>
</g>
<!-- PackageB\\Service\\Query&#45;&gt;PackageB\\Service\\AbstractService -->
<g id="edge52" class="edge"><title>PackageB\\Service\\Query&#45;&gt;PackageB\\Service\\AbstractService</title>
<path fill="none" stroke="black" d="M1509.61,-296.327C1509.61,-288.264 1509.61,-278.648 1509.61,-269.711"/>
<polygon fill="black" stroke="black" points="1513.11,-269.667 1509.61,-259.667 1506.11,-269.667 1513.11,-269.667"/>
</g>
<!-- PackageB\\Mapper\\QueryInterface -->
<g id="node51" class="node"><title>PackageB\\Mapper\\QueryInterface</title>
<ellipse fill="none" stroke="black" cx="190.614" cy="-241" rx="174.155" ry="18.3848"/>
<text text-anchor="middle" x="190.614" y="-237.4" font-family="Times Roman,serif" font-size="14.00">PackageB\Mapper\QueryInterface</text>
</g>
<!-- PackageB\\Service\\Query&#45;&gt;PackageB\\Mapper\\QueryInterface -->
<g id="edge54" class="edge"><title>PackageB\\Service\\Query&#45;&gt;PackageB\\Mapper\\QueryInterface</title>
<path fill="none" stroke="black" d="M1383.14,-310.134C1178.74,-301.939 763.185,-283.91 411.614,-260 385.978,-258.256 358.691,-256.131 332.357,-253.941"/>
<polygon fill="black" stroke="black" points="332.573,-250.447 322.316,-253.099 331.988,-257.423 332.573,-250.447"/>
</g>
<!-- PackageB\\Entity\\Package -->
<g id="node54" class="node"><title>PackageB\\Entity\\Package</title>
<ellipse fill="none" stroke="black" cx="738.614" cy="-167" rx="133.851" ry="18.3848"/>
<text text-anchor="middle" x="738.614" y="-163.4" font-family="Times Roman,serif" font-size="14.00">PackageB\Entity\Package</text>
</g>
<!-- PackageB\\Service\\Query&#45;&gt;PackageB\\Entity\\Package -->
<g id="edge58" class="edge"><title>PackageB\\Service\\Query&#45;&gt;PackageB\\Entity\\Package</title>
<path fill="none" stroke="black" d="M1428.66,-300.325C1394.62,-291.865 1355.6,-279.017 1323.61,-260 1303.08,-247.793 1307.2,-232.234 1285.61,-222 1216.36,-189.16 1018.71,-175.878 881.022,-170.539"/>
<polygon fill="black" stroke="black" points="880.926,-167.033 870.801,-170.153 880.662,-174.028 880.926,-167.033"/>
</g>
<!-- PackageB\\Mapper\\QueryInterface&#45;&gt;PackageB\\Entity\\Package -->
<g id="edge88" class="edge"><title>PackageB\\Mapper\\QueryInterface&#45;&gt;PackageB\\Entity\\Package</title>
<path fill="none" stroke="black" d="M298.554,-226.424C395.225,-213.37 536.175,-194.337 632.335,-181.352"/>
<polygon fill="black" stroke="black" points="632.93,-184.803 642.372,-179.996 631.993,-177.866 632.93,-184.803"/>
</g>
<!-- PackageC\\Service\\Message&#45;&gt;PackageA\\Service\\Message -->
<g id="edge104" class="edge"><title>PackageC\\Service\\Message&#45;&gt;PackageA\\Service\\Message</title>
<path fill="none" stroke="black" d="M4867.42,-258.74C4882.58,-267.584 4898.14,-279.89 4906.61,-296 4918.14,-317.901 4904.73,-343.718 4890.25,-362.586"/>
<polygon fill="black" stroke="black" points="4887.43,-360.507 4883.83,-370.471 4892.85,-364.927 4887.43,-360.507"/>
</g>
<!-- PackageB\\Service\\Command -->
<g id="node57" class="node"><title>PackageB\\Service\\Command</title>
<ellipse fill="none" stroke="black" cx="1918.61" cy="-315" rx="149.2" ry="18.3848"/>
<text text-anchor="middle" x="1918.61" y="-311.4" font-family="Times Roman,serif" font-size="14.00">PackageB\Service\Command</text>
</g>
<!-- PackageB\\Service\\Command&#45;&gt;array_map -->
<g id="edge66" class="edge"><title>PackageB\\Service\\Command&#45;&gt;array_map</title>
<path fill="none" stroke="black" d="M1963.41,-297.275C1992.04,-285.943 2029.14,-271.263 2058.26,-259.738"/>
<polygon fill="black" stroke="black" points="2059.8,-262.894 2067.81,-255.96 2057.22,-256.385 2059.8,-262.894"/>
</g>
<!-- PackageB\\Service\\Command&#45;&gt;intval -->
<g id="edge70" class="edge"><title>PackageB\\Service\\Command&#45;&gt;intval</title>
<path fill="none" stroke="black" d="M1935.52,-296.327C1943.84,-287.137 1953.99,-275.93 1962.97,-266.012"/>
<polygon fill="black" stroke="black" points="1965.75,-268.159 1969.86,-258.396 1960.56,-263.46 1965.75,-268.159"/>
</g>
<!-- PackageB\\Service\\Command&#45;&gt;PackageB\\Service\\AbstractService -->
<g id="edge62" class="edge"><title>PackageB\\Service\\Command&#45;&gt;PackageB\\Service\\AbstractService</title>
<path fill="none" stroke="black" d="M1833.87,-299.667C1768.3,-287.804 1677.38,-271.353 1608.49,-258.89"/>
<polygon fill="black" stroke="black" points="1608.96,-255.418 1598.5,-257.081 1607.71,-262.306 1608.96,-255.418"/>
</g>
<!-- PackageB\\Service\\Command&#45;&gt;PackageB\\Entity\\Package -->
<g id="edge68" class="edge"><title>PackageB\\Service\\Command&#45;&gt;PackageB\\Entity\\Package</title>
<path fill="none" stroke="black" d="M1920.85,-296.355C1922.27,-274.844 1920.77,-240.118 1899.61,-222 1880.49,-205.618 1184.92,-181.332 879.737,-171.437"/>
<polygon fill="black" stroke="black" points="879.599,-167.931 869.491,-171.106 879.373,-174.928 879.599,-167.931"/>
</g>
<!-- PackageB\\Mapper\\CommandInterface -->
<g id="node60" class="node"><title>PackageB\\Mapper\\CommandInterface</title>
<ellipse fill="none" stroke="black" cx="1083.61" cy="-241" rx="193.04" ry="18.3848"/>
<text text-anchor="middle" x="1083.61" y="-237.4" font-family="Times Roman,serif" font-size="14.00">PackageB\Mapper\CommandInterface</text>
</g>
<!-- PackageB\\Service\\Command&#45;&gt;PackageB\\Mapper\\CommandInterface -->
<g id="edge64" class="edge"><title>PackageB\\Service\\Command&#45;&gt;PackageB\\Mapper\\CommandInterface</title>
<path fill="none" stroke="black" d="M1797.2,-304.24C1648.56,-291.067 1396.76,-268.752 1235.46,-254.457"/>
<polygon fill="black" stroke="black" points="1235.72,-250.966 1225.45,-253.57 1235.1,-257.939 1235.72,-250.966"/>
</g>
<!-- PackageB\\Mapper\\CommandInterface&#45;&gt;PackageB\\Entity\\Package -->
<g id="edge80" class="edge"><title>PackageB\\Mapper\\CommandInterface&#45;&gt;PackageB\\Entity\\Package</title>
<path fill="none" stroke="black" d="M1004.46,-224.023C949.571,-212.249 876.63,-196.603 821.038,-184.679"/>
<polygon fill="black" stroke="black" points="821.731,-181.248 811.219,-182.573 820.263,-188.093 821.731,-181.248"/>
</g>
<!-- PackageB\\Mapper\\EntityManagerAwareTrait -->
<g id="node64" class="node"><title>PackageB\\Mapper\\EntityManagerAwareTrait</title>
<ellipse fill="none" stroke="black" cx="646.614" cy="-241" rx="225.775" ry="18.3848"/>
<text text-anchor="middle" x="646.614" y="-237.4" font-family="Times Roman,serif" font-size="14.00">PackageB\Mapper\EntityManagerAwareTrait</text>
</g>
<!-- PackageB\\Mapper\\EntityManagerAwareTrait&#45;&gt;Doctrine\\ORM\\EntityManagerInterface -->
<g id="edge72" class="edge"><title>PackageB\\Mapper\\EntityManagerAwareTrait&#45;&gt;Doctrine\\ORM\\EntityManagerInterface</title>
<path fill="none" stroke="black" d="M807.15,-227.927C832.079,-225.924 857.539,-223.894 881.614,-222 1071.75,-207.042 1290.21,-190.409 1435.95,-179.392"/>
<polygon fill="black" stroke="black" points="1436.61,-182.853 1446.32,-178.609 1436.08,-175.872 1436.61,-182.853"/>
</g>
<!-- PackageB\\Mapper\\EntityManagerAwareTrait&#45;&gt;DomainException -->
<g id="edge74" class="edge"><title>PackageB\\Mapper\\EntityManagerAwareTrait&#45;&gt;DomainException</title>
<path fill="none" stroke="black" d="M801.715,-227.536C828.353,-225.488 855.771,-223.546 881.614,-222 1292.75,-197.399 1396.35,-208.353 1807.61,-186 1864.56,-182.905 1928.14,-178.515 1979.51,-174.735"/>
<polygon fill="black" stroke="black" points="1979.9,-178.216 1989.61,-173.988 1979.38,-171.235 1979.9,-178.216"/>
</g>
<!-- PackageB\\Mapper\\Query -->
<g id="node67" class="node"><title>PackageB\\Mapper\\Query</title>
<ellipse fill="none" stroke="black" cx="269.614" cy="-315" rx="130.815" ry="18.3848"/>
<text text-anchor="middle" x="269.614" y="-311.4" font-family="Times Roman,serif" font-size="14.00">PackageB\Mapper\Query</text>
</g>
<!-- PackageB\\Mapper\\Query&#45;&gt;PackageB\\Mapper\\QueryInterface -->
<g id="edge76" class="edge"><title>PackageB\\Mapper\\Query&#45;&gt;PackageB\\Mapper\\QueryInterface</title>
<path fill="none" stroke="black" d="M249.679,-296.327C239.969,-287.231 228.148,-276.158 217.64,-266.315"/>
<polygon fill="black" stroke="black" points="219.96,-263.693 210.269,-259.411 215.175,-268.802 219.96,-263.693"/>
</g>
<!-- PackageB\\Mapper\\Query&#45;&gt;PackageB\\Mapper\\EntityManagerAwareTrait -->
<g id="edge78" class="edge"><title>PackageB\\Mapper\\Query&#45;&gt;PackageB\\Mapper\\EntityManagerAwareTrait</title>
<path fill="none" stroke="black" d="M346.36,-299.936C405.011,-288.423 486.253,-272.477 549.441,-260.074"/>
<polygon fill="black" stroke="black" points="550.282,-263.476 559.421,-258.115 548.934,-256.607 550.282,-263.476"/>
</g>
<!-- PackageB\\Mapper\\Command -->
<g id="node71" class="node"><title>PackageB\\Mapper\\Command</title>
<ellipse fill="none" stroke="black" cx="646.614" cy="-315" rx="149.907" ry="18.3848"/>
<text text-anchor="middle" x="646.614" y="-311.4" font-family="Times Roman,serif" font-size="14.00">PackageB\Mapper\Command</text>
</g>
<!-- PackageB\\Mapper\\Command&#45;&gt;PackageB\\Entity\\Package -->
<g id="edge86" class="edge"><title>PackageB\\Mapper\\Command&#45;&gt;PackageB\\Entity\\Package</title>
<path fill="none" stroke="black" d="M523.974,-304.338C447.812,-292.899 371.448,-269.487 411.614,-222 425.419,-205.679 533.276,-189.783 621.404,-179.312"/>
<polygon fill="black" stroke="black" points="621.976,-182.769 631.499,-178.126 621.159,-175.817 621.976,-182.769"/>
</g>
<!-- PackageB\\Mapper\\Command&#45;&gt;PackageB\\Mapper\\CommandInterface -->
<g id="edge82" class="edge"><title>PackageB\\Mapper\\Command&#45;&gt;PackageB\\Mapper\\CommandInterface</title>
<path fill="none" stroke="black" d="M735.048,-300.025C805.459,-288.102 904.203,-271.381 978.625,-258.779"/>
<polygon fill="black" stroke="black" points="979.222,-262.227 988.497,-257.107 978.053,-255.326 979.222,-262.227"/>
</g>
<!-- PackageB\\Mapper\\Command&#45;&gt;PackageB\\Mapper\\EntityManagerAwareTrait -->
<g id="edge84" class="edge"><title>PackageB\\Mapper\\Command&#45;&gt;PackageB\\Mapper\\EntityManagerAwareTrait</title>
<path fill="none" stroke="black" d="M646.614,-296.327C646.614,-288.264 646.614,-278.648 646.614,-269.711"/>
<polygon fill="black" stroke="black" points="650.114,-269.667 646.614,-259.667 643.114,-269.667 650.114,-269.667"/>
</g>
<!-- PackageB\\Controller\\AbstractController -->
<g id="node76" class="node"><title>PackageB\\Controller\\AbstractController</title>
<ellipse fill="none" stroke="black" cx="3970.61" cy="-315" rx="202.94" ry="18.3848"/>
<text text-anchor="middle" x="3970.61" y="-311.4" font-family="Times Roman,serif" font-size="14.00">PackageB\Controller\AbstractController</text>
</g>
<!-- PackageB\\Controller\\AbstractController&#45;&gt;Zend\\Mvc\\Controller\\AbstractController -->
<g id="edge90" class="edge"><title>PackageB\\Controller\\AbstractController&#45;&gt;Zend\\Mvc\\Controller\\AbstractController</title>
<path fill="none" stroke="black" d="M4006.46,-296.708C4025.89,-286.791 4050.09,-274.44 4070.76,-263.89"/>
<polygon fill="black" stroke="black" points="4072.37,-267.001 4079.68,-259.338 4069.18,-260.766 4072.37,-267.001"/>
</g>
<!-- PackageB\\Controller\\AbstractController&#45;&gt;Zend\\Http\\Request -->
<g id="edge92" class="edge"><title>PackageB\\Controller\\AbstractController&#45;&gt;Zend\\Http\\Request</title>
<path fill="none" stroke="black" d="M4076.12,-299.135C4147.22,-288.347 4243.1,-273.614 4327.61,-260 4336.56,-258.559 4345.89,-257.03 4355.2,-255.49"/>
<polygon fill="black" stroke="black" points="4355.98,-258.909 4365.27,-253.817 4354.83,-252.003 4355.98,-258.909"/>
</g>
<!-- PackageB\\Controller\\Query -->
<g id="node79" class="node"><title>PackageB\\Controller\\Query</title>
<ellipse fill="none" stroke="black" cx="2117.61" cy="-389" rx="143.043" ry="18.3848"/>
<text text-anchor="middle" x="2117.61" y="-385.4" font-family="Times Roman,serif" font-size="14.00">PackageB\Controller\Query</text>
</g>
<!-- PackageB\\Controller\\Query&#45;&gt;PackageB\\Service\\Query -->
<g id="edge96" class="edge"><title>PackageB\\Controller\\Query&#45;&gt;PackageB\\Service\\Query</title>
<path fill="none" stroke="black" d="M2013.44,-376.321C1903.42,-362.93 1730.71,-341.91 1618.82,-328.292"/>
<polygon fill="black" stroke="black" points="1619.21,-324.813 1608.86,-327.079 1618.37,-331.762 1619.21,-324.813"/>
</g>
<!-- PackageB\\Controller\\Query&#45;&gt;PackageB\\Controller\\AbstractController -->
<g id="edge94" class="edge"><title>PackageB\\Controller\\Query&#45;&gt;PackageB\\Controller\\AbstractController</title>
<path fill="none" stroke="black" d="M2259.87,-386.906C2544.62,-382.124 3204.87,-368.067 3758.61,-334 3779.15,-332.737 3800.78,-331.124 3822.06,-329.374"/>
<polygon fill="black" stroke="black" points="3822.47,-332.852 3832.14,-328.532 3821.89,-325.876 3822.47,-332.852"/>
</g>
<!-- PackageB\\Controller\\Command -->
<g id="node82" class="node"><title>PackageB\\Controller\\Command</title>
<ellipse fill="none" stroke="black" cx="1083.61" cy="-389" rx="162.134" ry="18.3848"/>
<text text-anchor="middle" x="1083.61" y="-385.4" font-family="Times Roman,serif" font-size="14.00">PackageB\Controller\Command</text>
</g>
<!-- PackageB\\Controller\\Command&#45;&gt;PackageB\\Entity\\Package -->
<g id="edge102" class="edge"><title>PackageB\\Controller\\Command&#45;&gt;PackageB\\Entity\\Package</title>
<path fill="none" stroke="black" d="M927.184,-384.117C676.041,-375.658 203.478,-356.963 129.614,-334 69.056,-315.174 38.727,-315.261 7.61422,-260 -0.671562,-245.283 -3.8713,-234.382 7.61422,-222 27.4396,-200.627 393.441,-181.671 599.864,-172.623"/>
<polygon fill="black" stroke="black" points="600.037,-176.118 609.875,-172.186 599.732,-169.125 600.037,-176.118"/>
</g>
<!-- PackageB\\Controller\\Command&#45;&gt;PackageB\\Mapper\\CommandInterface -->
<g id="edge100" class="edge"><title>PackageB\\Controller\\Command&#45;&gt;PackageB\\Mapper\\CommandInterface</title>
<path fill="none" stroke="black" d="M1083.61,-370.256C1083.61,-344.901 1083.61,-299.439 1083.61,-269.75"/>
<polygon fill="black" stroke="black" points="1087.11,-269.592 1083.61,-259.592 1080.11,-269.592 1087.11,-269.592"/>
</g>
<!-- PackageB\\Controller\\Command&#45;&gt;PackageB\\Controller\\AbstractController -->
<g id="edge98" class="edge"><title>PackageB\\Controller\\Command&#45;&gt;PackageB\\Controller\\AbstractController</title>
<path fill="none" stroke="black" d="M1242.95,-385.498C1419.59,-381.631 1712.95,-375.258 1965.61,-370 2762.49,-353.417 2962.76,-377.6 3758.61,-334 3779.65,-332.847 3801.84,-331.266 3823.61,-329.503"/>
<polygon fill="black" stroke="black" points="3823.9,-332.991 3833.58,-328.682 3823.33,-326.015 3823.9,-332.991"/>
</g>
<!-- PackageC\\Filter\\FilterA -->
<g id="node87" class="node"><title>PackageC\\Filter\\FilterA</title>
<ellipse fill="none" stroke="black" cx="5104.61" cy="-315" rx="121.122" ry="18.3848"/>
<text text-anchor="middle" x="5104.61" y="-311.4" font-family="Times Roman,serif" font-size="14.00">PackageC\Filter\FilterA</text>
</g>
<!-- PackageC\\Filter\\FilterInterface -->
<g id="node89" class="node"><title>PackageC\\Filter\\FilterInterface</title>
<ellipse fill="none" stroke="black" cx="5289.61" cy="-19" rx="157.892" ry="18.3848"/>
<text text-anchor="middle" x="5289.61" y="-15.4" font-family="Times Roman,serif" font-size="14.00">PackageC\Filter\FilterInterface</text>
</g>
<!-- PackageC\\Filter\\FilterA&#45;&gt;PackageC\\Filter\\FilterInterface -->
<g id="edge106" class="edge"><title>PackageC\\Filter\\FilterA&#45;&gt;PackageC\\Filter\\FilterInterface</title>
<path fill="none" stroke="black" d="M5095.31,-296.335C5074.89,-252.436 5031.94,-141.283 5083.61,-74 5096.45,-57.2841 5138.63,-44.5564 5181.51,-35.5766"/>
<polygon fill="black" stroke="black" points="5182.42,-38.9627 5191.53,-33.5462 5181.03,-32.1022 5182.42,-38.9627"/>
</g>
<!-- PackageC\\Filter\\FilterB -->
<g id="node91" class="node"><title>PackageC\\Filter\\FilterB</title>
<ellipse fill="none" stroke="black" cx="5253.61" cy="-241" rx="121.122" ry="18.3848"/>
<text text-anchor="middle" x="5253.61" y="-237.4" font-family="Times Roman,serif" font-size="14.00">PackageC\Filter\FilterB</text>
</g>
<!-- PackageC\\Filter\\FilterA&#45;&gt;PackageC\\Filter\\FilterB -->
<g id="edge108" class="edge"><title>PackageC\\Filter\\FilterA&#45;&gt;PackageC\\Filter\\FilterB</title>
<path fill="none" stroke="black" d="M5140.3,-297.275C5160.87,-287.061 5186.91,-274.129 5208.84,-263.237"/>
<polygon fill="black" stroke="black" points="5210.56,-266.291 5217.96,-258.708 5207.45,-260.022 5210.56,-266.291"/>
</g>
<!-- PackageC\\Filter\\FilterB&#45;&gt;PackageC\\Filter\\FilterInterface -->
<g id="edge118" class="edge"><title>PackageC\\Filter\\FilterB&#45;&gt;PackageC\\Filter\\FilterInterface</title>
<path fill="none" stroke="black" d="M5327.59,-226.256C5349.31,-218.115 5370.69,-205.508 5383.61,-186 5401.46,-159.067 5363.73,-77.0698 5361.61,-74 5353.35,-62.0169 5341.65,-51.5104 5330.08,-42.9787"/>
<polygon fill="black" stroke="black" points="5331.93,-39.9988 5321.73,-37.1225 5327.91,-45.7299 5331.93,-39.9988"/>
</g>
<!-- PackageC\\Filter\\FilterC -->
<g id="node100" class="node"><title>PackageC\\Filter\\FilterC</title>
<ellipse fill="none" stroke="black" cx="5253.61" cy="-167" rx="121.122" ry="18.3848"/>
<text text-anchor="middle" x="5253.61" y="-163.4" font-family="Times Roman,serif" font-size="14.00">PackageC\Filter\FilterC</text>
</g>
<!-- PackageC\\Filter\\FilterB&#45;&gt;PackageC\\Filter\\FilterC -->
<g id="edge120" class="edge"><title>PackageC\\Filter\\FilterB&#45;&gt;PackageC\\Filter\\FilterC</title>
<path fill="none" stroke="black" d="M5253.61,-222.327C5253.61,-214.264 5253.61,-204.648 5253.61,-195.711"/>
<polygon fill="black" stroke="black" points="5257.11,-195.667 5253.61,-185.667 5250.11,-195.667 5257.11,-195.667"/>
</g>
<!-- PackageC\\Filter\\FilterE -->
<g id="node92" class="node"><title>PackageC\\Filter\\FilterE</title>
<ellipse fill="none" stroke="black" cx="5164.61" cy="-389" rx="120.915" ry="18.3848"/>
<text text-anchor="middle" x="5164.61" y="-385.4" font-family="Times Roman,serif" font-size="14.00">PackageC\Filter\FilterE</text>
</g>
<!-- PackageC\\Filter\\FilterE&#45;&gt;PackageC\\Filter\\FilterA -->
<g id="edge112" class="edge"><title>PackageC\\Filter\\FilterE&#45;&gt;PackageC\\Filter\\FilterA</title>
<path fill="none" stroke="black" d="M5149.47,-370.327C5142.39,-361.584 5133.82,-351.015 5126.07,-341.467"/>
<polygon fill="black" stroke="black" points="5128.56,-338.974 5119.54,-333.411 5123.12,-343.383 5128.56,-338.974"/>
</g>
<!-- PackageC\\Filter\\FilterE&#45;&gt;PackageC\\Filter\\FilterB -->
<g id="edge110" class="edge"><title>PackageC\\Filter\\FilterE&#45;&gt;PackageC\\Filter\\FilterB</title>
<path fill="none" stroke="black" d="M5196.43,-371.088C5210.2,-361.758 5225.28,-349.123 5234.61,-334 5246.52,-314.716 5251.12,-289.31 5252.82,-269.926"/>
<polygon fill="black" stroke="black" points="5256.32,-270.067 5253.5,-259.854 5249.34,-269.597 5256.32,-270.067"/>
</g>
<!-- PackageC\\Filter\\FilterD -->
<g id="node95" class="node"><title>PackageC\\Filter\\FilterD</title>
<ellipse fill="none" stroke="black" cx="5214.61" cy="-93" rx="121.83" ry="18.3848"/>
<text text-anchor="middle" x="5214.61" y="-89.4" font-family="Times Roman,serif" font-size="14.00">PackageC\Filter\FilterD</text>
</g>
<!-- PackageC\\Filter\\FilterD&#45;&gt;PackageC\\Filter\\FilterA -->
<g id="edge116" class="edge"><title>PackageC\\Filter\\FilterD&#45;&gt;PackageC\\Filter\\FilterA</title>
<path fill="none" stroke="black" d="M5168.85,-110.309C5151.92,-119.037 5134.28,-131.373 5123.61,-148 5096.56,-190.184 5097.26,-250.924 5100.64,-286.341"/>
<polygon fill="black" stroke="black" points="5097.18,-286.911 5101.75,-296.471 5104.14,-286.149 5097.18,-286.911"/>
</g>
<!-- PackageC\\Filter\\FilterD&#45;&gt;PackageC\\Filter\\FilterInterface -->
<g id="edge114" class="edge"><title>PackageC\\Filter\\FilterD&#45;&gt;PackageC\\Filter\\FilterInterface</title>
<path fill="none" stroke="black" d="M5233.15,-74.7079C5242.28,-65.7038 5253.44,-54.694 5263.42,-44.8468"/>
<polygon fill="black" stroke="black" points="5266.11,-47.1106 5270.77,-37.5957 5261.19,-42.1278 5266.11,-47.1106"/>
</g>
<!-- PackageC\\Filter\\FilterC&#45;&gt;PackageC\\Filter\\FilterInterface -->
<g id="edge122" class="edge"><title>PackageC\\Filter\\FilterC&#45;&gt;PackageC\\Filter\\FilterInterface</title>
<path fill="none" stroke="black" d="M5301.82,-149.907C5318.76,-141.302 5335.97,-128.995 5345.61,-112 5353.95,-97.31 5352.15,-89.574 5345.61,-74 5340.84,-62.6119 5332.42,-52.3941 5323.55,-43.9452"/>
<polygon fill="black" stroke="black" points="5325.85,-41.3094 5316.05,-37.2773 5321.2,-46.5392 5325.85,-41.3094"/>
</g>
<!-- PackageC\\Filter\\FilterC&#45;&gt;PackageC\\Filter\\FilterD -->
<g id="edge124" class="edge"><title>PackageC\\Filter\\FilterC&#45;&gt;PackageC\\Filter\\FilterD</title>
<path fill="none" stroke="black" d="M5243.77,-148.327C5239.34,-139.913 5234.01,-129.809 5229.13,-120.55"/>
<polygon fill="black" stroke="black" points="5232.21,-118.882 5224.45,-111.667 5226.02,-122.146 5232.21,-118.882"/>
</g>
</g>
</svg>
