<?xml version="1.0" encoding="UTF-8" standalone="no"?>
<!DOCTYPE svg PUBLIC "-//W3C//DTD SVG 1.1//EN"
 "http://www.w3.org/Graphics/SVG/1.1/DTD/svg11.dtd">
<!-- Generated by graphviz version 2.26.3 (20100126.1600)
 -->
<!-- Title: G Pages: 1 -->
<svg width="2953pt" height="1232pt"
 viewBox="0.00 0.00 2952.57 1232.00" xmlns="http://www.w3.org/2000/svg" xmlns:xlink="http://www.w3.org/1999/xlink">
<g id="graph1" class="graph" transform="scale(1 1) rotate(0) translate(4 1228)">
<title>G</title>
<polygon fill="white" stroke="white" points="-4,5 -4,-1228 2949.57,-1228 2949.57,5 -4,5"/>
<!-- PackageA\\Service\\AbstractService -->
<g id="node1" class="node"><title>PackageA\\Service\\AbstractService</title>
<ellipse fill="#eeeeee" stroke="black" cx="592" cy="-677" rx="87.9335" ry="87.9335"/>
<text text-anchor="middle" x="592" y="-674.5" font-family="Times Roman,serif" font-size="10.00" fill="#314b5f">PackageA\Service\AbstractService</text>
</g>
<!-- PackageA\\Service\\Query -->
<g id="node2" class="node"><title>PackageA\\Service\\Query</title>
<ellipse fill="#eeeeee" stroke="black" cx="404" cy="-925" rx="62.2312" ry="62.7331"/>
<text text-anchor="middle" x="404" y="-922.5" font-family="Times Roman,serif" font-size="10.00" fill="#314b5f">PackageA\Service\Query</text>
</g>
<!-- PackageA\\Service\\Query&#45;&gt;PackageA\\Service\\AbstractService -->
<g id="edge2" class="edge"><title>PackageA\\Service\\Query&#45;&gt;PackageA\\Service\\AbstractService</title>
<path fill="none" stroke="#1a2833" stroke-dasharray="5,2" d="M439.353,-873.454C450.556,-857.462 463.12,-839.873 475,-824 493.155,-799.742 513.54,-773.733 532.145,-750.438"/>
<polygon fill="#1a2833" stroke="#1a2833" points="533.979,-751.508 536.087,-745.51 530.699,-748.884 533.979,-751.508"/>
</g>
<!-- PackageA\\Mapper\\QueryInterface -->
<g id="node3" class="node"><title>PackageA\\Mapper\\QueryInterface</title>
<ellipse fill="#eeeeee" stroke="black" cx="86" cy="-677" rx="85.7888" ry="85.7888"/>
<text text-anchor="middle" x="86" y="-674.5" font-family="Times Roman,serif" font-size="10.00" fill="#314b5f">PackageA\Mapper\QueryInterface</text>
</g>
<!-- PackageA\\Service\\Query&#45;&gt;PackageA\\Mapper\\QueryInterface -->
<g id="edge4" class="edge"><title>PackageA\\Service\\Query&#45;&gt;PackageA\\Mapper\\QueryInterface</title>
<path fill="none" stroke="#1a2833" d="M351.512,-891.324C320.595,-871.572 280.673,-846.211 245,-824 218.923,-807.764 209.639,-807.617 186,-788 171.743,-776.169 157.657,-762.299 144.757,-748.449"/>
<polygon fill="#1a2833" stroke="#1a2833" points="146.04,-746.743 140.429,-743.756 142.953,-749.59 146.04,-746.743"/>
</g>
<!-- array_key_exists -->
<g id="node4" class="node"><title>array_key_exists</title>
<ellipse fill="#eeeeee" stroke="black" cx="741" cy="-677" rx="42.8944" ry="42.8944"/>
<text text-anchor="middle" x="741" y="-674.5" font-family="Times Roman,serif" font-size="10.00" fill="#314b5f">array_key_exists</text>
</g>
<!-- PackageA\\Service\\Query&#45;&gt;array_key_exists -->
<g id="edge6" class="edge"><title>PackageA\\Service\\Query&#45;&gt;array_key_exists</title>
<path fill="none" stroke="#1a2833" d="M431.962,-869.078C443.107,-852.094 457.502,-835.028 475,-824 556.594,-772.575 612.201,-846.344 689,-788 709.222,-772.638 721.89,-747.477 729.653,-724.992"/>
<polygon fill="#1a2833" stroke="#1a2833" points="731.732,-725.393 731.619,-719.037 727.744,-724.076 731.732,-725.393"/>
</g>
<!-- PackageA\\Entity\\Package -->
<g id="node5" class="node"><title>PackageA\\Entity\\Package</title>
<ellipse fill="#eeeeee" stroke="black" cx="238" cy="-433" rx="63.8428" ry="64.3416"/>
<text text-anchor="middle" x="238" y="-430.5" font-family="Times Roman,serif" font-size="10.00" fill="#314b5f">PackageA\Entity\Package</text>
</g>
<!-- PackageA\\Service\\Query&#45;&gt;PackageA\\Entity\\Package -->
<g id="edge8" class="edge"><title>PackageA\\Service\\Query&#45;&gt;PackageA\\Entity\\Package</title>
<path fill="none" stroke="#1a2833" d="M346.962,-899.31C304.426,-876.71 249.46,-839.374 224,-788 178.712,-696.618 197.768,-575.181 216.942,-500.638"/>
<polygon fill="#1a2833" stroke="#1a2833" points="219.07,-500.8 218.558,-494.464 215.007,-499.737 219.07,-500.8"/>
</g>
<!-- PackageA\\Mapper\\QueryInterface&#45;&gt;PackageA\\Entity\\Package -->
<g id="edge38" class="edge"><title>PackageA\\Mapper\\QueryInterface&#45;&gt;PackageA\\Entity\\Package</title>
<path fill="none" stroke="#1a2833" d="M131.605,-603.792C153.602,-568.482 179.665,-526.643 200.49,-493.213"/>
<polygon fill="#1a2833" stroke="#1a2833" points="202.396,-494.125 203.786,-487.922 198.831,-491.905 202.396,-494.125"/>
</g>
<!-- PackageA\\Service\\Message -->
<g id="node6" class="node"><title>PackageA\\Service\\Message</title>
<ellipse fill="#eeeeee" stroke="black" cx="2642" cy="-1143" rx="70.2396" ry="70.2396"/>
<text text-anchor="middle" x="2642" y="-1140.5" font-family="Times Roman,serif" font-size="10.00" fill="#314b5f">PackageA\Service\Message</text>
</g>
<!-- PackageB\\Service\\Message -->
<g id="node7" class="node"><title>PackageB\\Service\\Message</title>
<ellipse fill="#eeeeee" stroke="black" cx="2570" cy="-925" rx="70.2396" ry="70.2396"/>
<text text-anchor="middle" x="2570" y="-922.5" font-family="Times Roman,serif" font-size="10.00" fill="#314b5f">PackageB\Service\Message</text>
</g>
<!-- PackageA\\Service\\Message&#45;&gt;PackageB\\Service\\Message -->
<g id="edge10" class="edge"><title>PackageA\\Service\\Message&#45;&gt;PackageB\\Service\\Message</title>
<path fill="none" stroke="#1a2833" d="M2620.01,-1076.41C2611.74,-1051.38 2602.31,-1022.82 2593.88,-997.295"/>
<polygon fill="#1a2833" stroke="#1a2833" points="2595.86,-996.598 2591.98,-991.559 2591.87,-997.915 2595.86,-996.598"/>
</g>
<!-- PackageC\\Service\\Message -->
<g id="node26" class="node"><title>PackageC\\Service\\Message</title>
<ellipse fill="#eeeeee" stroke="black" cx="2606" cy="-677" rx="70.2396" ry="70.2396"/>
<text text-anchor="middle" x="2606" y="-674.5" font-family="Times Roman,serif" font-size="10.00" fill="#314b5f">PackageC\Service\Message</text>
</g>
<!-- PackageB\\Service\\Message&#45;&gt;PackageC\\Service\\Message -->
<g id="edge60" class="edge"><title>PackageB\\Service\\Message&#45;&gt;PackageC\\Service\\Message</title>
<path fill="none" stroke="#1a2833" d="M2580.08,-855.588C2584.74,-823.482 2590.28,-785.276 2595.05,-752.457"/>
<polygon fill="#1a2833" stroke="#1a2833" points="2597.14,-752.634 2595.93,-746.395 2592.99,-752.031 2597.14,-752.634"/>
</g>
<!-- PackageA\\Service\\Command -->
<g id="node8" class="node"><title>PackageA\\Service\\Command</title>
<ellipse fill="#eeeeee" stroke="black" cx="904" cy="-925" rx="74.0288" ry="74.529"/>
<text text-anchor="middle" x="904" y="-922.5" font-family="Times Roman,serif" font-size="10.00" fill="#314b5f">PackageA\Service\Command</text>
</g>
<!-- PackageA\\Service\\Command&#45;&gt;PackageA\\Service\\AbstractService -->
<g id="edge12" class="edge"><title>PackageA\\Service\\Command&#45;&gt;PackageA\\Service\\AbstractService</title>
<path fill="none" stroke="#1a2833" stroke-dasharray="5,2" d="M838.597,-889.887C794.179,-864.512 735.321,-827.812 689,-788 675.835,-776.685 662.836,-763.573 650.84,-750.411"/>
<polygon fill="#1a2833" stroke="#1a2833" points="652.39,-748.994 646.811,-745.948 649.273,-751.809 652.39,-748.994"/>
</g>
<!-- PackageA\\Service\\Command&#45;&gt;PackageA\\Entity\\Package -->
<g id="edge18" class="edge"><title>PackageA\\Service\\Command&#45;&gt;PackageA\\Entity\\Package</title>
<path fill="none" stroke="#1a2833" d="M951.744,-867.875C975.016,-838.619 999.232,-805.545 1005,-788 1035.82,-694.269 1070.7,-639.611 1005,-566 957.938,-513.272 758.744,-541.444 689,-530 552.255,-507.561 394.335,-471.144 306.329,-449.893"/>
<polygon fill="#1a2833" stroke="#1a2833" points="306.7,-447.823 300.375,-448.453 305.713,-451.905 306.7,-447.823"/>
</g>
<!-- PackageA\\Mapper\\CommandInterface -->
<g id="node9" class="node"><title>PackageA\\Mapper\\CommandInterface</title>
<ellipse fill="#eeeeee" stroke="black" cx="899" cy="-677" rx="97.0486" ry="97.0486"/>
<text text-anchor="middle" x="899" y="-674.5" font-family="Times Roman,serif" font-size="10.00" fill="#314b5f">PackageA\Mapper\CommandInterface</text>
</g>
<!-- PackageA\\Service\\Command&#45;&gt;PackageA\\Mapper\\CommandInterface -->
<g id="edge14" class="edge"><title>PackageA\\Service\\Command&#45;&gt;PackageA\\Mapper\\CommandInterface</title>
<path fill="none" stroke="#1a2833" d="M902.493,-850.256C902.05,-828.261 901.556,-803.797 901.084,-780.347"/>
<polygon fill="#1a2833" stroke="#1a2833" points="903.178,-780.044 900.957,-774.088 898.979,-780.129 903.178,-780.044"/>
</g>
<!-- array_map -->
<g id="node10" class="node"><title>array_map</title>
<ellipse fill="#eeeeee" stroke="black" cx="1452" cy="-677" rx="27.8814" ry="27.8814"/>
<text text-anchor="middle" x="1452" y="-674.5" font-family="Times Roman,serif" font-size="10.00" fill="#314b5f">array_map</text>
</g>
<!-- PackageA\\Service\\Command&#45;&gt;array_map -->
<g id="edge16" class="edge"><title>PackageA\\Service\\Command&#45;&gt;array_map</title>
<path fill="none" stroke="#1a2833" d="M943.245,-861.58C955.43,-846.874 970.156,-832.93 987,-824 1140.79,-742.465 1227.19,-876.646 1377,-788 1406.96,-770.272 1427.52,-735.329 1439.44,-709.361"/>
<polygon fill="#1a2833" stroke="#1a2833" points="1441.47,-709.97 1441.99,-703.635 1437.63,-708.258 1441.47,-709.97"/>
</g>
<!-- intval -->
<g id="node11" class="node"><title>intval</title>
<ellipse fill="#eeeeee" stroke="black" cx="1516" cy="-677" rx="18" ry="18"/>
<text text-anchor="middle" x="1516" y="-674.5" font-family="Times Roman,serif" font-size="10.00" fill="#314b5f">intval</text>
</g>
<!-- PackageA\\Service\\Command&#45;&gt;intval -->
<g id="edge20" class="edge"><title>PackageA\\Service\\Command&#45;&gt;intval</title>
<path fill="none" stroke="#1a2833" d="M942.905,-861.609C955.133,-846.807 969.965,-832.809 987,-824 1086.34,-772.626 1403.59,-860.212 1489,-788 1513.85,-766.987 1517.94,-727.306 1517.67,-701.522"/>
<polygon fill="#1a2833" stroke="#1a2833" points="1519.76,-701.233 1517.52,-695.286 1515.56,-701.336 1519.76,-701.233"/>
</g>
<!-- PackageA\\Mapper\\CommandInterface&#45;&gt;PackageA\\Entity\\Package -->
<g id="edge30" class="edge"><title>PackageA\\Mapper\\CommandInterface&#45;&gt;PackageA\\Entity\\Package</title>
<path fill="none" stroke="#1a2833" d="M838.05,-601.083C824.423,-587.81 809.17,-575.297 793,-566 750.787,-541.728 446.152,-476.31 307.003,-447.248"/>
<polygon fill="#1a2833" stroke="#1a2833" points="307.211,-445.146 300.909,-445.976 306.353,-449.257 307.211,-445.146"/>
</g>
<!-- PackageA\\Mapper\\EntityManagerAwareTrait -->
<g id="node12" class="node"><title>PackageA\\Mapper\\EntityManagerAwareTrait</title>
<ellipse fill="#eeeeee" stroke="black" cx="376" cy="-677" rx="109.953" ry="110.453"/>
<text text-anchor="middle" x="376" y="-674.5" font-family="Times Roman,serif" font-size="10.00" fill="#314b5f">PackageA\Mapper\EntityManagerAwareTrait</text>
</g>
<!-- Doctrine\\ORM\\EntityManagerInterface -->
<g id="node13" class="node"><title>Doctrine\\ORM\\EntityManagerInterface</title>
<ellipse fill="#eeeeee" stroke="black" cx="794" cy="-433" rx="96.0123" ry="96.5124"/>
<text text-anchor="middle" x="794" y="-430.5" font-family="Times Roman,serif" font-size="10.00" fill="#314b5f">Doctrine\ORM\EntityManagerInterface</text>
</g>
<!-- PackageA\\Mapper\\EntityManagerAwareTrait&#45;&gt;Doctrine\\ORM\\EntityManagerInterface -->
<g id="edge22" class="edge"><title>PackageA\\Mapper\\EntityManagerAwareTrait&#45;&gt;Doctrine\\ORM\\EntityManagerInterface</title>
<path fill="none" stroke="#1a2833" d="M453.264,-598.171C466.583,-586.606 480.746,-575.433 495,-566 558.111,-524.237 636.496,-489.927 697.174,-466.62"/>
<polygon fill="#1a2833" stroke="#1a2833" points="698.133,-468.502 702.989,-464.399 696.635,-464.578 698.133,-468.502"/>
</g>
<!-- DomainException -->
<g id="node14" class="node"><title>DomainException</title>
<ellipse fill="#eeeeee" stroke="black" cx="1707" cy="-433" rx="45.0745" ry="45.5753"/>
<text text-anchor="middle" x="1707" y="-430.5" font-family="Times Roman,serif" font-size="10.00" fill="#314b5f">DomainException</text>
</g>
<!-- PackageA\\Mapper\\EntityManagerAwareTrait&#45;&gt;DomainException -->
<g id="edge24" class="edge"><title>PackageA\\Mapper\\EntityManagerAwareTrait&#45;&gt;DomainException</title>
<path fill="none" stroke="#1a2833" d="M449.883,-594.677C463.776,-583.33 479.004,-573.139 495,-566 577.309,-529.268 809.355,-539.373 899,-530 1185.39,-500.057 1527.9,-456.31 1655.65,-439.717"/>
<polygon fill="#1a2833" stroke="#1a2833" points="1656.26,-441.756 1661.94,-438.9 1655.72,-437.591 1656.26,-441.756"/>
</g>
<!-- PackageA\\Mapper\\Query -->
<g id="node15" class="node"><title>PackageA\\Mapper\\Query</title>
<ellipse fill="#eeeeee" stroke="black" cx="173" cy="-925" rx="62.771" ry="63.2692"/>
<text text-anchor="middle" x="173" y="-922.5" font-family="Times Roman,serif" font-size="10.00" fill="#314b5f">PackageA\Mapper\Query</text>
</g>
<!-- PackageA\\Mapper\\Query&#45;&gt;PackageA\\Mapper\\QueryInterface -->
<g id="edge26" class="edge"><title>PackageA\\Mapper\\Query&#45;&gt;PackageA\\Mapper\\QueryInterface</title>
<path fill="none" stroke="#1a2833" stroke-dasharray="5,2" d="M151.94,-864.966C141.339,-834.747 128.289,-797.548 116.604,-764.239"/>
<polygon fill="#1a2833" stroke="#1a2833" points="118.558,-763.466 114.591,-758.5 114.595,-764.857 118.558,-763.466"/>
</g>
<!-- PackageA\\Mapper\\Query&#45;&gt;PackageA\\Mapper\\EntityManagerAwareTrait -->
<g id="edge28" class="edge"><title>PackageA\\Mapper\\Query&#45;&gt;PackageA\\Mapper\\EntityManagerAwareTrait</title>
<path fill="none" stroke="#1a2833" stroke-dasharray="5,2" d="M213.106,-876.003C238.43,-845.066 271.92,-804.152 301.946,-767.47"/>
<polygon fill="#1a2833" stroke="#1a2833" points="303.792,-768.529 305.968,-762.556 300.542,-765.869 303.792,-768.529"/>
</g>
<!-- PackageA\\Mapper\\Command -->
<g id="node16" class="node"><title>PackageA\\Mapper\\Command</title>
<ellipse fill="#eeeeee" stroke="black" cx="558" cy="-925" rx="74.0288" ry="74.529"/>
<text text-anchor="middle" x="558" y="-922.5" font-family="Times Roman,serif" font-size="10.00" fill="#314b5f">PackageA\Mapper\Command</text>
</g>
<!-- PackageA\\Mapper\\Command&#45;&gt;PackageA\\Entity\\Package -->
<g id="edge36" class="edge"><title>PackageA\\Mapper\\Command&#45;&gt;PackageA\\Entity\\Package</title>
<path fill="none" stroke="#1a2833" d="M518.09,-862.126C505.952,-847.508 491.415,-833.47 475,-824 389.94,-774.926 322.509,-861.157 257,-788 220.776,-747.548 225.372,-594.993 231.787,-503.549"/>
<polygon fill="#1a2833" stroke="#1a2833" points="233.897,-503.48 232.232,-497.345 229.708,-503.179 233.897,-503.48"/>
</g>
<!-- PackageA\\Mapper\\Command&#45;&gt;PackageA\\Mapper\\CommandInterface -->
<g id="edge32" class="edge"><title>PackageA\\Mapper\\Command&#45;&gt;PackageA\\Mapper\\CommandInterface</title>
<path fill="none" stroke="#1a2833" stroke-dasharray="5,2" d="M624.725,-892.542C673.578,-867.285 740.266,-829.618 793,-788 805.761,-777.929 818.46,-766.354 830.401,-754.564"/>
<polygon fill="#1a2833" stroke="#1a2833" points="831.999,-755.936 834.765,-750.213 829.034,-752.962 831.999,-755.936"/>
</g>
<!-- PackageA\\Mapper\\Command&#45;&gt;PackageA\\Mapper\\EntityManagerAwareTrait -->
<g id="edge34" class="edge"><title>PackageA\\Mapper\\Command&#45;&gt;PackageA\\Mapper\\EntityManagerAwareTrait</title>
<path fill="none" stroke="#1a2833" stroke-dasharray="5,2" d="M513.943,-864.966C493.272,-836.799 468.151,-802.568 445.04,-771.076"/>
<polygon fill="#1a2833" stroke="#1a2833" points="446.592,-769.641 441.349,-766.047 443.206,-772.126 446.592,-769.641"/>
</g>
<!-- PackageA\\Controller\\AbstractController -->
<g id="node17" class="node"><title>PackageA\\Controller\\AbstractController</title>
<ellipse fill="#eeeeee" stroke="black" cx="1096" cy="-925" rx="99.7668" ry="100.266"/>
<text text-anchor="middle" x="1096" y="-922.5" font-family="Times Roman,serif" font-size="10.00" fill="#314b5f">PackageA\Controller\AbstractController</text>
</g>
<!-- Zend\\Mvc\\Controller\\AbstractController -->
<g id="node18" class="node"><title>Zend\\Mvc\\Controller\\AbstractController</title>
<ellipse fill="#eeeeee" stroke="black" cx="1268" cy="-677" rx="99.7668" ry="100.266"/>
<text text-anchor="middle" x="1268" y="-674.5" font-family="Times Roman,serif" font-size="10.00" fill="#314b5f">Zend\Mvc\Controller\AbstractController</text>
</g>
<!-- PackageA\\Controller\\AbstractController&#45;&gt;Zend\\Mvc\\Controller\\AbstractController -->
<g id="edge40" class="edge"><title>PackageA\\Controller\\AbstractController&#45;&gt;Zend\\Mvc\\Controller\\AbstractController</title>
<path fill="none" stroke="#1a2833" stroke-dasharray="5,2" d="M1153.27,-842.42C1170.59,-817.453 1189.66,-789.955 1207.2,-764.669"/>
<polygon fill="#1a2833" stroke="#1a2833" points="1208.99,-765.769 1210.68,-759.642 1205.54,-763.376 1208.99,-765.769"/>
</g>
<!-- Zend\\Http\\Request -->
<g id="node19" class="node"><title>Zend\\Http\\Request</title>
<ellipse fill="#eeeeee" stroke="black" cx="1101" cy="-677" rx="48.7924" ry="48.7924"/>
<text text-anchor="middle" x="1101" y="-674.5" font-family="Times Roman,serif" font-size="10.00" fill="#314b5f">Zend\Http\Request</text>
</g>
<!-- PackageA\\Controller\\AbstractController&#45;&gt;Zend\\Http\\Request -->
<g id="edge42" class="edge"><title>PackageA\\Controller\\AbstractController&#45;&gt;Zend\\Http\\Request</title>
<path fill="none" stroke="#1a2833" d="M1098.03,-824.486C1098.66,-793.03 1099.34,-759.481 1099.88,-732.34"/>
<polygon fill="#1a2833" stroke="#1a2833" points="1101.98,-732.337 1100.01,-726.296 1097.79,-732.252 1101.98,-732.337"/>
</g>
<!-- PackageA\\Controller\\Query -->
<g id="node20" class="node"><title>PackageA\\Controller\\Query</title>
<ellipse fill="#eeeeee" stroke="black" cx="577" cy="-1143" rx="68.1301" ry="68.631"/>
<text text-anchor="middle" x="577" y="-1140.5" font-family="Times Roman,serif" font-size="10.00" fill="#314b5f">PackageA\Controller\Query</text>
</g>
<!-- PackageA\\Controller\\Query&#45;&gt;PackageA\\Service\\Query -->
<g id="edge46" class="edge"><title>PackageA\\Controller\\Query&#45;&gt;PackageA\\Service\\Query</title>
<path fill="none" stroke="#1a2833" d="M530.877,-1092.43C512.946,-1072.18 492.54,-1048.37 475,-1026 464.01,-1011.98 452.674,-996.421 442.373,-981.796"/>
<polygon fill="#1a2833" stroke="#1a2833" points="444.087,-980.582 438.922,-976.876 440.648,-982.994 444.087,-980.582"/>
</g>
<!-- PackageA\\Controller\\Query&#45;&gt;PackageA\\Controller\\AbstractController -->
<g id="edge44" class="edge"><title>PackageA\\Controller\\Query&#45;&gt;PackageA\\Controller\\AbstractController</title>
<path fill="none" stroke="#1a2833" stroke-dasharray="5,2" d="M643.605,-1127.99C743.828,-1104.73 927.977,-1059.22 987,-1026 999.098,-1019.19 1010.93,-1010.78 1022.06,-1001.75"/>
<polygon fill="#1a2833" stroke="#1a2833" points="1023.51,-1003.28 1026.79,-997.837 1020.83,-1000.04 1023.51,-1003.28"/>
</g>
<!-- PackageA\\Controller\\Command -->
<g id="node21" class="node"><title>PackageA\\Controller\\Command</title>
<ellipse fill="#eeeeee" stroke="black" cx="1000" cy="-1143" rx="79.9274" ry="80.427"/>
<text text-anchor="middle" x="1000" y="-1140.5" font-family="Times Roman,serif" font-size="10.00" fill="#314b5f">PackageA\Controller\Command</text>
</g>
<!-- PackageA\\Controller\\Command&#45;&gt;PackageA\\Service\\Command -->
<g id="edge50" class="edge"><title>PackageA\\Controller\\Command&#45;&gt;PackageA\\Service\\Command</title>
<path fill="none" stroke="#1a2833" d="M967.499,-1069.2C957.52,-1046.53 946.54,-1021.6 936.557,-998.932"/>
<polygon fill="#1a2833" stroke="#1a2833" points="938.382,-997.865 934.042,-993.22 934.538,-999.557 938.382,-997.865"/>
</g>
<!-- PackageA\\Controller\\Command&#45;&gt;PackageA\\Controller\\AbstractController -->
<g id="edge48" class="edge"><title>PackageA\\Controller\\Command&#45;&gt;PackageA\\Controller\\AbstractController</title>
<path fill="none" stroke="#1a2833" stroke-dasharray="5,2" d="M1032.5,-1069.2C1039.04,-1054.34 1046.01,-1038.52 1052.85,-1022.99"/>
<polygon fill="#1a2833" stroke="#1a2833" points="1054.87,-1023.62 1055.36,-1017.28 1051.02,-1021.93 1054.87,-1023.62"/>
</g>
<!-- PackageB\\Service\\AbstractService -->
<g id="node22" class="node"><title>PackageB\\Service\\AbstractService</title>
<ellipse fill="#eeeeee" stroke="black" cx="1640" cy="-677" rx="87.9335" ry="87.9335"/>
<text text-anchor="middle" x="1640" y="-674.5" font-family="Times Roman,serif" font-size="10.00" fill="#314b5f">PackageB\Service\AbstractService</text>
</g>
<!-- PackageB\\Service\\Query -->
<g id="node23" class="node"><title>PackageB\\Service\\Query</title>
<ellipse fill="#eeeeee" stroke="black" cx="1494" cy="-925" rx="62.2312" ry="62.7331"/>
<text text-anchor="middle" x="1494" y="-922.5" font-family="Times Roman,serif" font-size="10.00" fill="#314b5f">PackageB\Service\Query</text>
</g>
<!-- PackageB\\Service\\Query&#45;&gt;array_key_exists -->
<g id="edge56" class="edge"><title>PackageB\\Service\\Query&#45;&gt;array_key_exists</title>
<path fill="none" stroke="#1a2833" d="M1467.05,-868.473C1455.91,-851.229 1441.26,-834.158 1423,-824 1300.45,-755.84 909.139,-866.586 793,-788 771.715,-773.598 758.94,-748.082 751.383,-725.143"/>
<polygon fill="#1a2833" stroke="#1a2833" points="753.373,-724.47 749.572,-719.375 749.366,-725.728 753.373,-724.47"/>
</g>
<!-- PackageB\\Service\\Query&#45;&gt;PackageB\\Service\\AbstractService -->
<g id="edge52" class="edge"><title>PackageB\\Service\\Query&#45;&gt;PackageB\\Service\\AbstractService</title>
<path fill="none" stroke="#1a2833" stroke-dasharray="5,2" d="M1525.68,-871.188C1545.02,-838.329 1570.14,-795.665 1591.9,-758.7"/>
<polygon fill="#1a2833" stroke="#1a2833" points="1593.85,-759.525 1595.09,-753.289 1590.23,-757.394 1593.85,-759.525"/>
</g>
<!-- PackageB\\Mapper\\QueryInterface -->
<g id="node24" class="node"><title>PackageB\\Mapper\\QueryInterface</title>
<ellipse fill="#eeeeee" stroke="black" cx="1832" cy="-677" rx="85.7888" ry="85.7888"/>
<text text-anchor="middle" x="1832" y="-674.5" font-family="Times Roman,serif" font-size="10.00" fill="#314b5f">PackageB\Mapper\QueryInterface</text>
</g>
<!-- PackageB\\Service\\Query&#45;&gt;PackageB\\Mapper\\QueryInterface -->
<g id="edge54" class="edge"><title>PackageB\\Service\\Query&#45;&gt;PackageB\\Mapper\\QueryInterface</title>
<path fill="none" stroke="#1a2833" d="M1522.39,-869.216C1533.53,-852.346 1547.81,-835.314 1565,-824 1630.23,-781.055 1669.8,-827.793 1737,-788 1752.49,-778.827 1766.69,-766.208 1779.13,-752.759"/>
<polygon fill="#1a2833" stroke="#1a2833" points="1780.82,-754.029 1783.28,-748.17 1777.7,-751.212 1780.82,-754.029"/>
</g>
<!-- PackageB\\Entity\\Package -->
<g id="node25" class="node"><title>PackageB\\Entity\\Package</title>
<ellipse fill="#eeeeee" stroke="black" cx="2260" cy="-433" rx="63.8428" ry="64.3416"/>
<text text-anchor="middle" x="2260" y="-430.5" font-family="Times Roman,serif" font-size="10.00" fill="#314b5f">PackageB\Entity\Package</text>
</g>
<!-- PackageB\\Service\\Query&#45;&gt;PackageB\\Entity\\Package -->
<g id="edge58" class="edge"><title>PackageB\\Service\\Query&#45;&gt;PackageB\\Entity\\Package</title>
<path fill="none" stroke="#1a2833" d="M1458.32,-873.661C1409.77,-796.929 1337.34,-652.156 1415,-566 1466.76,-508.579 1684.54,-541.387 1761,-530 1915.76,-506.954 2095.49,-469.307 2191.38,-448.335"/>
<polygon fill="#1a2833" stroke="#1a2833" points="2191.88,-450.375 2197.29,-447.04 2190.98,-446.273 2191.88,-450.375"/>
</g>
<!-- PackageB\\Mapper\\QueryInterface&#45;&gt;PackageB\\Entity\\Package -->
<g id="edge88" class="edge"><title>PackageB\\Mapper\\QueryInterface&#45;&gt;PackageB\\Entity\\Package</title>
<path fill="none" stroke="#1a2833" d="M1884.71,-608.633C1898.87,-593.216 1915.01,-577.91 1932,-566 2013.24,-509.053 2122.48,-471.034 2192.08,-450.719"/>
<polygon fill="#1a2833" stroke="#1a2833" points="2192.68,-452.733 2197.86,-449.048 2191.51,-448.699 2192.68,-452.733"/>
</g>
<!-- PackageC\\Service\\Message&#45;&gt;PackageA\\Service\\Message -->
<g id="edge104" class="edge"><title>PackageC\\Service\\Message&#45;&gt;PackageA\\Service\\Message</title>
<path fill="none" stroke="#1a2833" d="M2629.67,-743.073C2637.47,-768.08 2645.13,-797.02 2649,-824 2661.73,-912.87 2651.68,-936.262 2649,-1026 2648.6,-1039.23 2647.96,-1053.29 2647.21,-1066.9"/>
<polygon fill="#1a2833" stroke="#1a2833" points="2645.1,-1067.01 2646.87,-1073.12 2649.3,-1067.25 2645.1,-1067.01"/>
</g>
<!-- PackageB\\Service\\Command -->
<g id="node27" class="node"><title>PackageB\\Service\\Command</title>
<ellipse fill="#eeeeee" stroke="black" cx="1648" cy="-925" rx="74.0288" ry="74.529"/>
<text text-anchor="middle" x="1648" y="-922.5" font-family="Times Roman,serif" font-size="10.00" fill="#314b5f">PackageB\Service\Command</text>
</g>
<!-- PackageB\\Service\\Command&#45;&gt;array_map -->
<g id="edge66" class="edge"><title>PackageB\\Service\\Command&#45;&gt;array_map</title>
<path fill="none" stroke="#1a2833" d="M1605.21,-864.054C1593.29,-849.75 1579.58,-835.38 1565,-824 1535.53,-801.006 1513.79,-815.974 1489,-788 1470,-766.556 1460.7,-735.047 1456.19,-711.073"/>
<polygon fill="#1a2833" stroke="#1a2833" points="1458.25,-710.693 1455.14,-705.15 1454.12,-711.425 1458.25,-710.693"/>
</g>
<!-- PackageB\\Service\\Command&#45;&gt;intval -->
<g id="edge70" class="edge"><title>PackageB\\Service\\Command&#45;&gt;intval</title>
<path fill="none" stroke="#1a2833" d="M1600.29,-867.717C1576.51,-838.219 1551.12,-804.963 1543,-788 1529.54,-759.873 1522.43,-724.428 1518.95,-701.263"/>
<polygon fill="#1a2833" stroke="#1a2833" points="1520.99,-700.712 1518.06,-695.071 1516.83,-701.308 1520.99,-700.712"/>
</g>
<!-- PackageB\\Service\\Command&#45;&gt;PackageB\\Service\\AbstractService -->
<g id="edge62" class="edge"><title>PackageB\\Service\\Command&#45;&gt;PackageB\\Service\\AbstractService</title>
<path fill="none" stroke="#1a2833" stroke-dasharray="5,2" d="M1645.59,-850.256C1644.79,-825.433 1643.89,-797.466 1643.04,-771.36"/>
<polygon fill="#1a2833" stroke="#1a2833" points="1645.14,-771.049 1642.84,-765.12 1640.94,-771.185 1645.14,-771.049"/>
</g>
<!-- PackageB\\Service\\Command&#45;&gt;PackageB\\Entity\\Package -->
<g id="edge68" class="edge"><title>PackageB\\Service\\Command&#45;&gt;PackageB\\Entity\\Package</title>
<path fill="none" stroke="#1a2833" d="M1720.63,-909.135C1785.2,-891.084 1876.92,-854.991 1927,-788 1986.94,-707.825 1903.75,-645.179 1965,-566 2020.22,-494.611 2122.31,-460.445 2190.7,-444.897"/>
<polygon fill="#1a2833" stroke="#1a2833" points="2191.39,-446.893 2196.79,-443.54 2190.48,-442.793 2191.39,-446.893"/>
</g>
<!-- PackageB\\Mapper\\CommandInterface -->
<g id="node28" class="node"><title>PackageB\\Mapper\\CommandInterface</title>
<ellipse fill="#eeeeee" stroke="black" cx="2309" cy="-677" rx="97.0486" ry="97.0486"/>
<text text-anchor="middle" x="2309" y="-674.5" font-family="Times Roman,serif" font-size="10.00" fill="#314b5f">PackageB\Mapper\CommandInterface</text>
</g>
<!-- PackageB\\Service\\Command&#45;&gt;PackageB\\Mapper\\CommandInterface -->
<g id="edge64" class="edge"><title>PackageB\\Service\\Command&#45;&gt;PackageB\\Mapper\\CommandInterface</title>
<path fill="none" stroke="#1a2833" d="M1715.93,-894.94C1770.36,-872.067 1849.22,-841.616 1921,-824 2043.71,-793.885 2090.22,-844.964 2203,-788 2218.04,-780.404 2232.12,-769.787 2244.79,-758.107"/>
<polygon fill="#1a2833" stroke="#1a2833" points="2246.47,-759.405 2249.39,-753.759 2243.59,-756.351 2246.47,-759.405"/>
</g>
<!-- PackageB\\Mapper\\CommandInterface&#45;&gt;PackageB\\Entity\\Package -->
<g id="edge80" class="edge"><title>PackageB\\Mapper\\CommandInterface&#45;&gt;PackageB\\Entity\\Package</title>
<path fill="none" stroke="#1a2833" d="M2289.84,-581.615C2284.55,-555.246 2278.9,-527.133 2273.96,-502.535"/>
<polygon fill="#1a2833" stroke="#1a2833" points="2275.96,-501.83 2272.72,-496.361 2271.85,-502.657 2275.96,-501.83"/>
</g>
<!-- PackageB\\Mapper\\EntityManagerAwareTrait -->
<g id="node29" class="node"><title>PackageB\\Mapper\\EntityManagerAwareTrait</title>
<ellipse fill="#eeeeee" stroke="black" cx="2084" cy="-677" rx="109.953" ry="110.453"/>
<text text-anchor="middle" x="2084" y="-674.5" font-family="Times Roman,serif" font-size="10.00" fill="#314b5f">PackageB\Mapper\EntityManagerAwareTrait</text>
</g>
<!-- PackageB\\Mapper\\EntityManagerAwareTrait&#45;&gt;Doctrine\\ORM\\EntityManagerInterface -->
<g id="edge72" class="edge"><title>PackageB\\Mapper\\EntityManagerAwareTrait&#45;&gt;Doctrine\\ORM\\EntityManagerInterface</title>
<path fill="none" stroke="#1a2833" d="M1999.6,-605.876C1977.23,-590.347 1952.25,-575.68 1927,-566 1902.95,-556.779 1169.4,-474.672 895.67,-444.262"/>
<polygon fill="#1a2833" stroke="#1a2833" points="895.881,-442.173 889.686,-443.598 895.418,-446.347 895.881,-442.173"/>
</g>
<!-- PackageB\\Mapper\\EntityManagerAwareTrait&#45;&gt;DomainException -->
<g id="edge74" class="edge"><title>PackageB\\Mapper\\EntityManagerAwareTrait&#45;&gt;DomainException</title>
<path fill="none" stroke="#1a2833" d="M1994.68,-612.192C1972.76,-596.746 1949.2,-580.534 1927,-566 1867.43,-527.009 1796.68,-484.97 1751.81,-458.82"/>
<polygon fill="#1a2833" stroke="#1a2833" points="1752.71,-456.915 1746.47,-455.711 1750.6,-460.545 1752.71,-456.915"/>
</g>
<!-- PackageB\\Mapper\\Query -->
<g id="node30" class="node"><title>PackageB\\Mapper\\Query</title>
<ellipse fill="#eeeeee" stroke="black" cx="1993" cy="-925" rx="62.771" ry="63.2692"/>
<text text-anchor="middle" x="1993" y="-922.5" font-family="Times Roman,serif" font-size="10.00" fill="#314b5f">PackageB\Mapper\Query</text>
</g>
<!-- PackageB\\Mapper\\Query&#45;&gt;PackageB\\Mapper\\QueryInterface -->
<g id="edge76" class="edge"><title>PackageB\\Mapper\\Query&#45;&gt;PackageB\\Mapper\\QueryInterface</title>
<path fill="none" stroke="#1a2833" stroke-dasharray="5,2" d="M1958.46,-871.798C1936.27,-837.609 1907.06,-792.622 1882.31,-754.495"/>
<polygon fill="#1a2833" stroke="#1a2833" points="1884.03,-753.291 1879,-749.402 1880.51,-755.578 1884.03,-753.291"/>
</g>
<!-- PackageB\\Mapper\\Query&#45;&gt;PackageB\\Mapper\\EntityManagerAwareTrait -->
<g id="edge78" class="edge"><title>PackageB\\Mapper\\Query&#45;&gt;PackageB\\Mapper\\EntityManagerAwareTrait</title>
<path fill="none" stroke="#1a2833" stroke-dasharray="5,2" d="M2014.91,-865.282C2023.6,-841.598 2033.88,-813.59 2043.82,-786.515"/>
<polygon fill="#1a2833" stroke="#1a2833" points="2045.83,-787.11 2045.93,-780.753 2041.89,-785.663 2045.83,-787.11"/>
</g>
<!-- PackageB\\Mapper\\Command -->
<g id="node31" class="node"><title>PackageB\\Mapper\\Command</title>
<ellipse fill="#eeeeee" stroke="black" cx="2258" cy="-925" rx="74.0288" ry="74.529"/>
<text text-anchor="middle" x="2258" y="-922.5" font-family="Times Roman,serif" font-size="10.00" fill="#314b5f">PackageB\Mapper\Command</text>
</g>
<!-- PackageB\\Mapper\\Command&#45;&gt;PackageB\\Entity\\Package -->
<g id="edge86" class="edge"><title>PackageB\\Mapper\\Command&#45;&gt;PackageB\\Entity\\Package</title>
<path fill="none" stroke="#1a2833" d="M2322.53,-887.837C2356.89,-864.136 2395.91,-829.989 2415,-788 2455.83,-698.179 2456.2,-655.651 2415,-566 2395.66,-523.93 2355.73,-490.174 2321.24,-467.197"/>
<polygon fill="#1a2833" stroke="#1a2833" points="2322.36,-465.421 2316.19,-463.885 2320.05,-468.933 2322.36,-465.421"/>
</g>
<!-- PackageB\\Mapper\\Command&#45;&gt;PackageB\\Mapper\\CommandInterface -->
<g id="edge82" class="edge"><title>PackageB\\Mapper\\Command&#45;&gt;PackageB\\Mapper\\CommandInterface</title>
<path fill="none" stroke="#1a2833" stroke-dasharray="5,2" d="M2273.03,-851.933C2277.79,-828.785 2283.14,-802.771 2288.23,-778.022"/>
<polygon fill="#1a2833" stroke="#1a2833" points="2290.29,-778.397 2289.44,-772.096 2286.18,-777.55 2290.29,-778.397"/>
</g>
<!-- PackageB\\Mapper\\Command&#45;&gt;PackageB\\Mapper\\EntityManagerAwareTrait -->
<g id="edge84" class="edge"><title>PackageB\\Mapper\\Command&#45;&gt;PackageB\\Mapper\\EntityManagerAwareTrait</title>
<path fill="none" stroke="#1a2833" stroke-dasharray="5,2" d="M2215.21,-864.015C2196,-836.628 2172.86,-803.657 2151.41,-773.076"/>
<polygon fill="#1a2833" stroke="#1a2833" points="2152.87,-771.499 2147.7,-767.794 2149.43,-773.911 2152.87,-771.499"/>
</g>
<!-- PackageB\\Controller\\AbstractController -->
<g id="node32" class="node"><title>PackageB\\Controller\\AbstractController</title>
<ellipse fill="#eeeeee" stroke="black" cx="1314" cy="-925" rx="99.7668" ry="100.266"/>
<text text-anchor="middle" x="1314" y="-922.5" font-family="Times Roman,serif" font-size="10.00" fill="#314b5f">PackageB\Controller\AbstractController</text>
</g>
<!-- PackageB\\Controller\\AbstractController&#45;&gt;Zend\\Mvc\\Controller\\AbstractController -->
<g id="edge90" class="edge"><title>PackageB\\Controller\\AbstractController&#45;&gt;Zend\\Mvc\\Controller\\AbstractController</title>
<path fill="none" stroke="#1a2833" stroke-dasharray="5,2" d="M1295.62,-825.915C1292.95,-811.512 1290.19,-796.642 1287.5,-782.125"/>
<polygon fill="#1a2833" stroke="#1a2833" points="1289.51,-781.444 1286.35,-775.928 1285.38,-782.21 1289.51,-781.444"/>
</g>
<!-- PackageB\\Controller\\AbstractController&#45;&gt;Zend\\Http\\Request -->
<g id="edge92" class="edge"><title>PackageB\\Controller\\AbstractController&#45;&gt;Zend\\Http\\Request</title>
<path fill="none" stroke="#1a2833" d="M1241.17,-855.967C1229.23,-845.102 1216.88,-834.123 1205,-824 1185.24,-807.163 1175.61,-807.954 1159,-788 1144.19,-770.204 1131.66,-748.006 1122.09,-728.149"/>
<polygon fill="#1a2833" stroke="#1a2833" points="1123.93,-727.138 1119.46,-722.616 1120.13,-728.937 1123.93,-727.138"/>
</g>
<!-- PackageB\\Controller\\Query -->
<g id="node33" class="node"><title>PackageB\\Controller\\Query</title>
<ellipse fill="#eeeeee" stroke="black" cx="1404" cy="-1143" rx="68.1301" ry="68.631"/>
<text text-anchor="middle" x="1404" y="-1140.5" font-family="Times Roman,serif" font-size="10.00" fill="#314b5f">PackageB\Controller\Query</text>
</g>
<!-- PackageB\\Controller\\Query&#45;&gt;PackageB\\Service\\Query -->
<g id="edge96" class="edge"><title>PackageB\\Controller\\Query&#45;&gt;PackageB\\Service\\Query</title>
<path fill="none" stroke="#1a2833" d="M1430.15,-1079.65C1441.98,-1051.01 1455.92,-1017.24 1467.75,-988.576"/>
<polygon fill="#1a2833" stroke="#1a2833" points="1469.74,-989.261 1470.09,-982.914 1465.86,-987.659 1469.74,-989.261"/>
</g>
<!-- PackageB\\Controller\\Query&#45;&gt;PackageB\\Controller\\AbstractController -->
<g id="edge94" class="edge"><title>PackageB\\Controller\\Query&#45;&gt;PackageB\\Controller\\AbstractController</title>
<path fill="none" stroke="#1a2833" stroke-dasharray="5,2" d="M1377.85,-1079.65C1370.65,-1062.22 1362.67,-1042.89 1354.86,-1023.96"/>
<polygon fill="#1a2833" stroke="#1a2833" points="1356.67,-1022.85 1352.44,-1018.11 1352.79,-1024.45 1356.67,-1022.85"/>
</g>
<!-- PackageB\\Controller\\Command -->
<g id="node34" class="node"><title>PackageB\\Controller\\Command</title>
<ellipse fill="#eeeeee" stroke="black" cx="2360" cy="-1143" rx="79.9274" ry="80.427"/>
<text text-anchor="middle" x="2360" y="-1140.5" font-family="Times Roman,serif" font-size="10.00" fill="#314b5f">PackageB\Controller\Command</text>
</g>
<!-- PackageB\\Controller\\Command&#45;&gt;PackageB\\Entity\\Package -->
<g id="edge102" class="edge"><title>PackageB\\Controller\\Command&#45;&gt;PackageB\\Entity\\Package</title>
<path fill="none" stroke="#1a2833" d="M2396.31,-1071.11C2448.28,-957.374 2528.76,-731.858 2444,-566 2419.14,-517.364 2367.28,-482.411 2324.94,-460.579"/>
<polygon fill="#1a2833" stroke="#1a2833" points="2325.86,-458.692 2319.56,-457.85 2323.96,-462.438 2325.86,-458.692"/>
</g>
<!-- PackageB\\Controller\\Command&#45;&gt;PackageB\\Mapper\\CommandInterface -->
<g id="edge100" class="edge"><title>PackageB\\Controller\\Command&#45;&gt;PackageB\\Mapper\\CommandInterface</title>
<path fill="none" stroke="#1a2833" d="M2358.64,-1062.36C2356.73,-997.666 2352.11,-904.655 2341,-824 2338.92,-808.924 2336.13,-793.096 2333.06,-777.639"/>
<polygon fill="#1a2833" stroke="#1a2833" points="2335.07,-776.973 2331.83,-771.506 2330.95,-777.803 2335.07,-776.973"/>
</g>
<!-- PackageB\\Controller\\Command&#45;&gt;PackageB\\Controller\\AbstractController -->
<g id="edge98" class="edge"><title>PackageB\\Controller\\Command&#45;&gt;PackageB\\Controller\\AbstractController</title>
<path fill="none" stroke="#1a2833" stroke-dasharray="5,2" d="M2279.95,-1139.29C2082.06,-1129.13 1574.96,-1096.76 1423,-1026 1410.21,-1020.04 1397.91,-1012.02 1386.47,-1003.09"/>
<polygon fill="#1a2833" stroke="#1a2833" points="1387.62,-1001.32 1381.63,-999.214 1385,-1004.6 1387.62,-1001.32"/>
</g>
<!-- PackageC\\Filter\\FilterA -->
<g id="node35" class="node"><title>PackageC\\Filter\\FilterA</title>
<ellipse fill="#eeeeee" stroke="black" cx="2779" cy="-925" rx="55.8007" ry="56.2989"/>
<text text-anchor="middle" x="2779" y="-922.5" font-family="Times Roman,serif" font-size="10.00" fill="#314b5f">PackageC\Filter\FilterA</text>
</g>
<!-- PackageC\\Filter\\FilterInterface -->
<g id="node36" class="node"><title>PackageC\\Filter\\FilterInterface</title>
<ellipse fill="#eeeeee" stroke="black" cx="2866" cy="-75" rx="75.0652" ry="75.0652"/>
<text text-anchor="middle" x="2866" y="-72.5" font-family="Times Roman,serif" font-size="10.00" fill="#314b5f">PackageC\Filter\FilterInterface</text>
</g>
<!-- PackageC\\Filter\\FilterA&#45;&gt;PackageC\\Filter\\FilterInterface -->
<g id="edge106" class="edge"><title>PackageC\\Filter\\FilterA&#45;&gt;PackageC\\Filter\\FilterInterface</title>
<path fill="none" stroke="#1a2833" stroke-dasharray="5,2" d="M2763.06,-870.423C2729.23,-744.274 2660.91,-425.017 2758,-186 2767.38,-162.921 2784.11,-142.008 2801.65,-124.717"/>
<polygon fill="#1a2833" stroke="#1a2833" points="2803.26,-126.078 2806.12,-120.4 2800.35,-123.056 2803.26,-126.078"/>
</g>
<!-- PackageC\\Filter\\FilterB -->
<g id="node37" class="node"><title>PackageC\\Filter\\FilterB</title>
<ellipse fill="#eeeeee" stroke="black" cx="2863" cy="-677" rx="55.8007" ry="56.2989"/>
<text text-anchor="middle" x="2863" y="-674.5" font-family="Times Roman,serif" font-size="10.00" fill="#314b5f">PackageC\Filter\FilterB</text>
</g>
<!-- PackageC\\Filter\\FilterA&#45;&gt;PackageC\\Filter\\FilterB -->
<g id="edge108" class="edge"><title>PackageC\\Filter\\FilterA&#45;&gt;PackageC\\Filter\\FilterB</title>
<path fill="none" stroke="#1a2833" d="M2797.12,-871.493C2810.57,-831.782 2828.92,-777.627 2842.83,-736.546"/>
<polygon fill="#1a2833" stroke="#1a2833" points="2844.83,-737.195 2844.76,-730.839 2840.85,-735.848 2844.83,-737.195"/>
</g>
<!-- PackageC\\Filter\\FilterB&#45;&gt;PackageC\\Filter\\FilterInterface -->
<g id="edge118" class="edge"><title>PackageC\\Filter\\FilterB&#45;&gt;PackageC\\Filter\\FilterInterface</title>
<path fill="none" stroke="#1a2833" stroke-dasharray="5,2" d="M2890.98,-627.726C2905.13,-599.975 2920.79,-564.128 2928,-530 2959.67,-380.078 2942.17,-334.654 2905,-186 2902.13,-174.505 2898.55,-162.521 2894.74,-150.858"/>
<polygon fill="#1a2833" stroke="#1a2833" points="2896.74,-150.198 2892.86,-145.163 2892.75,-151.519 2896.74,-150.198"/>
</g>
<!-- PackageC\\Filter\\FilterC -->
<g id="node40" class="node"><title>PackageC\\Filter\\FilterC</title>
<ellipse fill="#eeeeee" stroke="black" cx="2863" cy="-433" rx="55.8007" ry="56.2989"/>
<text text-anchor="middle" x="2863" y="-430.5" font-family="Times Roman,serif" font-size="10.00" fill="#314b5f">PackageC\Filter\FilterC</text>
</g>
<!-- PackageC\\Filter\\FilterB&#45;&gt;PackageC\\Filter\\FilterC -->
<g id="edge120" class="edge"><title>PackageC\\Filter\\FilterB&#45;&gt;PackageC\\Filter\\FilterC</title>
<path fill="none" stroke="#1a2833" d="M2863,-620.408C2863,-583.125 2863,-534.27 2863,-495.79"/>
<polygon fill="#1a2833" stroke="#1a2833" points="2865.1,-495.707 2863,-489.707 2860.9,-495.707 2865.1,-495.707"/>
</g>
<!-- PackageC\\Filter\\FilterE -->
<g id="node38" class="node"><title>PackageC\\Filter\\FilterE</title>
<ellipse fill="#eeeeee" stroke="black" cx="2805" cy="-1143" rx="55.7627" ry="55.7627"/>
<text text-anchor="middle" x="2805" y="-1140.5" font-family="Times Roman,serif" font-size="10.00" fill="#314b5f">PackageC\Filter\FilterE</text>
</g>
<!-- PackageC\\Filter\\FilterE&#45;&gt;PackageC\\Filter\\FilterA -->
<g id="edge112" class="edge"><title>PackageC\\Filter\\FilterE&#45;&gt;PackageC\\Filter\\FilterA</title>
<path fill="none" stroke="#1a2833" d="M2798.34,-1087.14C2794.71,-1056.75 2790.22,-1019.05 2786.47,-987.66"/>
<polygon fill="#1a2833" stroke="#1a2833" points="2788.53,-987.179 2785.73,-981.47 2784.36,-987.676 2788.53,-987.179"/>
</g>
<!-- PackageC\\Filter\\FilterE&#45;&gt;PackageC\\Filter\\FilterB -->
<g id="edge110" class="edge"><title>PackageC\\Filter\\FilterE&#45;&gt;PackageC\\Filter\\FilterB</title>
<path fill="none" stroke="#1a2833" stroke-dasharray="5,2" d="M2825.72,-1090.79C2832.76,-1070.84 2839.88,-1047.66 2844,-1026 2862.78,-927.342 2865.22,-810.379 2864.59,-740.016"/>
<polygon fill="#1a2833" stroke="#1a2833" points="2866.69,-739.752 2864.53,-733.774 2862.49,-739.795 2866.69,-739.752"/>
</g>
<!-- PackageC\\Filter\\FilterD -->
<g id="node39" class="node"><title>PackageC\\Filter\\FilterD</title>
<ellipse fill="#eeeeee" stroke="black" cx="2824" cy="-243" rx="56.8351" ry="56.8351"/>
<text text-anchor="middle" x="2824" y="-240.5" font-family="Times Roman,serif" font-size="10.00" fill="#314b5f">PackageC\Filter\FilterD</text>
</g>
<!-- PackageC\\Filter\\FilterD&#45;&gt;PackageC\\Filter\\FilterA -->
<g id="edge116" class="edge"><title>PackageC\\Filter\\FilterD&#45;&gt;PackageC\\Filter\\FilterA</title>
<path fill="none" stroke="#1a2833" d="M2806.38,-297.599C2803.01,-310.094 2799.93,-323.406 2798,-336 2768.8,-526.059 2772.24,-754.52 2776.12,-862.553"/>
<polygon fill="#1a2833" stroke="#1a2833" points="2774.03,-862.632 2776.35,-868.551 2778.22,-862.477 2774.03,-862.632"/>
</g>
<!-- PackageC\\Filter\\FilterD&#45;&gt;PackageC\\Filter\\FilterInterface -->
<g id="edge114" class="edge"><title>PackageC\\Filter\\FilterD&#45;&gt;PackageC\\Filter\\FilterInterface</title>
<path fill="none" stroke="#1a2833" stroke-dasharray="5,2" d="M2837.87,-187.525C2840.57,-176.7 2843.46,-165.158 2846.31,-153.746"/>
<polygon fill="#1a2833" stroke="#1a2833" points="2848.38,-154.125 2847.8,-147.795 2844.31,-153.107 2848.38,-154.125"/>
</g>
<!-- PackageC\\Filter\\FilterC&#45;&gt;PackageC\\Filter\\FilterInterface -->
<g id="edge122" class="edge"><title>PackageC\\Filter\\FilterC&#45;&gt;PackageC\\Filter\\FilterInterface</title>
<path fill="none" stroke="#1a2833" stroke-dasharray="5,2" d="M2876.73,-378.052C2882.01,-354.226 2887.4,-325.905 2890,-300 2895.07,-249.587 2895.38,-236.38 2890,-186 2888.89,-175.579 2887.2,-164.7 2885.23,-154.002"/>
<polygon fill="#1a2833" stroke="#1a2833" points="2887.29,-153.585 2884.1,-148.082 2883.16,-154.368 2887.29,-153.585"/>
</g>
<!-- PackageC\\Filter\\FilterC&#45;&gt;PackageC\\Filter\\FilterD -->
<g id="edge124" class="edge"><title>PackageC\\Filter\\FilterC&#45;&gt;PackageC\\Filter\\FilterD</title>
<path fill="none" stroke="#1a2833" d="M2851.61,-377.533C2846.93,-354.713 2841.49,-328.188 2836.68,-304.752"/>
<polygon fill="#1a2833" stroke="#1a2833" points="2838.73,-304.32 2835.47,-298.865 2834.62,-305.164 2838.73,-304.32"/>
</g>
</g>
</svg>
