<?xml version="1.0" encoding="UTF-8" standalone="no"?>
<!DOCTYPE svg PUBLIC "-//W3C//DTD SVG 1.1//EN"
 "http://www.w3.org/Graphics/SVG/1.1/DTD/svg11.dtd">
<!-- Generated by graphviz version 2.26.3 (20100126.1600)
 -->
<!-- Title: G Pages: 1 -->
<svg width="366pt" height="621pt"
 viewBox="0.00 0.00 366.00 621.00" xmlns="http://www.w3.org/2000/svg" xmlns:xlink="http://www.w3.org/1999/xlink">
<g id="graph1" class="graph" transform="scale(1 1) rotate(0) translate(4 617)">
<title>G</title>
<polygon fill="white" stroke="white" points="-4,5 -4,-617 363,-617 363,5 -4,5"/>
<text text-anchor="middle" x="179" y="-6.8" font-family="Times Roman,serif" font-size="8.00">PhpDependencyAnalyse by Marco Muths (dev&#45;master)</text>
<!-- PackageX\\UnsupportedStmt -->
<g id="node1" class="node"><title>PackageX\\UnsupportedStmt</title>
<polygon fill="#9999cc" stroke="#9999cc" points="140,-226 12,-226 4.73695e-14,-214 2.36848e-14,-202 12,-190 140,-190 152,-202 152,-214 140,-226"/>
<path fill="#9999cc" stroke="#9999cc" d="M12,-226C6,-226 5.92119e-14,-220 4.73695e-14,-214"/>
<path fill="#9999cc" stroke="#9999cc" d="M2.36848e-14,-202C1.18424e-14,-196 6,-190 12,-190"/>
<path fill="#9999cc" stroke="#9999cc" d="M140,-190C146,-190 152,-196 152,-202"/>
<path fill="#9999cc" stroke="#9999cc" d="M152,-214C152,-220 146,-226 140,-226"/>
<polyline fill="none" stroke="black" points="140,-226 12,-226 "/>
<path fill="none" stroke="black" d="M12,-226C6,-226 5.92119e-14,-220 4.73695e-14,-214"/>
<polyline fill="none" stroke="black" points="4.73695e-14,-214 2.36848e-14,-202 "/>
<path fill="none" stroke="black" d="M2.36848e-14,-202C1.18424e-14,-196 6,-190 12,-190"/>
<polyline fill="none" stroke="black" points="12,-190 140,-190 "/>
<path fill="none" stroke="black" d="M140,-190C146,-190 152,-196 152,-202"/>
<polyline fill="none" stroke="black" points="152,-202 152,-214 "/>
<path fill="none" stroke="black" d="M152,-214C152,-220 146,-226 140,-226"/>
<text text-anchor="middle" x="76" y="-205.5" font-family="Times Roman,serif" font-size="10.00" fill="#000033">PackageX\UnsupportedStmt</text>
</g>
<!-- global -->
<g id="node2" class="node"><title>global</title>
<polygon fill="#ff9999" stroke="#ff9999" points="306,-398 276,-398 264,-386 264,-374 276,-362 306,-362 318,-374 318,-386 306,-398"/>
<path fill="#ff9999" stroke="#ff9999" d="M276,-398C270,-398 264,-392 264,-386"/>
<path fill="#ff9999" stroke="#ff9999" d="M264,-374C264,-368 270,-362 276,-362"/>
<path fill="#ff9999" stroke="#ff9999" d="M306,-362C312,-362 318,-368 318,-374"/>
<path fill="#ff9999" stroke="#ff9999" d="M318,-386C318,-392 312,-398 306,-398"/>
<polyline fill="none" stroke="black" points="306,-398 276,-398 "/>
<path fill="none" stroke="black" d="M276,-398C270,-398 264,-392 264,-386"/>
<polyline fill="none" stroke="black" points="264,-386 264,-374 "/>
<path fill="none" stroke="black" d="M264,-374C264,-368 270,-362 276,-362"/>
<polyline fill="none" stroke="black" points="276,-362 306,-362 "/>
<path fill="none" stroke="black" d="M306,-362C312,-362 318,-368 318,-374"/>
<polyline fill="none" stroke="black" points="318,-374 318,-386 "/>
<path fill="none" stroke="black" d="M318,-386C318,-392 312,-398 306,-398"/>
<text text-anchor="middle" x="291" y="-377.5" font-family="Times Roman,serif" font-size="10.00" fill="#000033">global</text>
</g>
<!-- PackageX\\UnsupportedStmt&#45;&gt;global -->
<g id="edge2" class="edge"><title>PackageX\\UnsupportedStmt&#45;&gt;global</title>
<path fill="none" stroke="#ff9999" d="M89.4043,-226.461C113.123,-257.86 165.535,-321.776 224,-358 234.369,-364.424 246.816,-369.181 258.152,-372.594"/>
<polygon fill="#ff9999" stroke="#ff9999" points="257.615,-374.625 263.962,-374.258 258.772,-370.587 257.615,-374.625"/>
</g>
<!-- eval -->
<g id="node3" class="node"><title>eval</title>
<polygon fill="#ff9999" stroke="#ff9999" points="306,-355 276,-355 264,-343 264,-331 276,-319 306,-319 318,-331 318,-343 306,-355"/>
<path fill="#ff9999" stroke="#ff9999" d="M276,-355C270,-355 264,-349 264,-343"/>
<path fill="#ff9999" stroke="#ff9999" d="M264,-331C264,-325 270,-319 276,-319"/>
<path fill="#ff9999" stroke="#ff9999" d="M306,-319C312,-319 318,-325 318,-331"/>
<path fill="#ff9999" stroke="#ff9999" d="M318,-343C318,-349 312,-355 306,-355"/>
<polyline fill="none" stroke="black" points="306,-355 276,-355 "/>
<path fill="none" stroke="black" d="M276,-355C270,-355 264,-349 264,-343"/>
<polyline fill="none" stroke="black" points="264,-343 264,-331 "/>
<path fill="none" stroke="black" d="M264,-331C264,-325 270,-319 276,-319"/>
<polyline fill="none" stroke="black" points="276,-319 306,-319 "/>
<path fill="none" stroke="black" d="M306,-319C312,-319 318,-325 318,-331"/>
<polyline fill="none" stroke="black" points="318,-331 318,-343 "/>
<path fill="none" stroke="black" d="M318,-343C318,-349 312,-355 306,-355"/>
<text text-anchor="middle" x="291" y="-334.5" font-family="Times Roman,serif" font-size="10.00" fill="#000033">eval</text>
</g>
<!-- PackageX\\UnsupportedStmt&#45;&gt;eval -->
<g id="edge4" class="edge"><title>PackageX\\UnsupportedStmt&#45;&gt;eval</title>
<path fill="none" stroke="#ff9999" d="M96.6994,-226.187C124.143,-249.511 174.854,-289.935 224,-315 234.583,-320.397 246.768,-324.864 257.822,-328.329"/>
<polygon fill="#ff9999" stroke="#ff9999" points="257.477,-330.419 263.829,-330.152 258.697,-326.4 257.477,-330.419"/>
</g>
<!-- call_user_func -->
<g id="node4" class="node"><title>call_user_func</title>
<polygon fill="#ff9999" stroke="#ff9999" points="321,-312 261,-312 249,-300 249,-288 261,-276 321,-276 333,-288 333,-300 321,-312"/>
<path fill="#ff9999" stroke="#ff9999" d="M261,-312C255,-312 249,-306 249,-300"/>
<path fill="#ff9999" stroke="#ff9999" d="M249,-288C249,-282 255,-276 261,-276"/>
<path fill="#ff9999" stroke="#ff9999" d="M321,-276C327,-276 333,-282 333,-288"/>
<path fill="#ff9999" stroke="#ff9999" d="M333,-300C333,-306 327,-312 321,-312"/>
<polyline fill="none" stroke="black" points="321,-312 261,-312 "/>
<path fill="none" stroke="black" d="M261,-312C255,-312 249,-306 249,-300"/>
<polyline fill="none" stroke="black" points="249,-300 249,-288 "/>
<path fill="none" stroke="black" d="M249,-288C249,-282 255,-276 261,-276"/>
<polyline fill="none" stroke="black" points="261,-276 321,-276 "/>
<path fill="none" stroke="black" d="M321,-276C327,-276 333,-282 333,-288"/>
<polyline fill="none" stroke="black" points="333,-288 333,-300 "/>
<path fill="none" stroke="black" d="M333,-300C333,-306 327,-312 321,-312"/>
<text text-anchor="middle" x="291" y="-291.5" font-family="Times Roman,serif" font-size="10.00" fill="#000033">call_user_func</text>
</g>
<!-- PackageX\\UnsupportedStmt&#45;&gt;call_user_func -->
<g id="edge6" class="edge"><title>PackageX\\UnsupportedStmt&#45;&gt;call_user_func</title>
<path fill="none" stroke="#ff9999" d="M115.175,-226.099C144.779,-239.491 186.573,-257.797 224,-272 230.135,-274.328 236.637,-276.646 243.085,-278.855"/>
<polygon fill="#ff9999" stroke="#ff9999" points="242.621,-280.915 248.978,-280.851 243.969,-276.937 242.621,-280.915"/>
</g>
<!-- call_user_func_array -->
<g id="node5" class="node"><title>call_user_func_array</title>
<polygon fill="#ff9999" stroke="#ff9999" points="336,-269 246,-269 234,-257 234,-245 246,-233 336,-233 348,-245 348,-257 336,-269"/>
<path fill="#ff9999" stroke="#ff9999" d="M246,-269C240,-269 234,-263 234,-257"/>
<path fill="#ff9999" stroke="#ff9999" d="M234,-245C234,-239 240,-233 246,-233"/>
<path fill="#ff9999" stroke="#ff9999" d="M336,-233C342,-233 348,-239 348,-245"/>
<path fill="#ff9999" stroke="#ff9999" d="M348,-257C348,-263 342,-269 336,-269"/>
<polyline fill="none" stroke="black" points="336,-269 246,-269 "/>
<path fill="none" stroke="black" d="M246,-269C240,-269 234,-263 234,-257"/>
<polyline fill="none" stroke="black" points="234,-257 234,-245 "/>
<path fill="none" stroke="black" d="M234,-245C234,-239 240,-233 246,-233"/>
<polyline fill="none" stroke="black" points="246,-233 336,-233 "/>
<path fill="none" stroke="black" d="M336,-233C342,-233 348,-239 348,-245"/>
<polyline fill="none" stroke="black" points="348,-245 348,-257 "/>
<path fill="none" stroke="black" d="M348,-257C348,-263 342,-269 336,-269"/>
<text text-anchor="middle" x="291" y="-248.5" font-family="Times Roman,serif" font-size="10.00" fill="#000033">call_user_func_array</text>
</g>
<!-- PackageX\\UnsupportedStmt&#45;&gt;call_user_func_array -->
<g id="edge8" class="edge"><title>PackageX\\UnsupportedStmt&#45;&gt;call_user_func_array</title>
<path fill="none" stroke="#ff9999" d="M152.104,-223.221C176.937,-228.187 204.221,-233.644 227.984,-238.397"/>
<polygon fill="#ff9999" stroke="#ff9999" points="227.65,-240.472 233.946,-239.589 228.474,-236.353 227.65,-240.472"/>
</g>
<!-- forward_static_call -->
<g id="node6" class="node"><title>forward_static_call</title>
<polygon fill="#ff9999" stroke="#ff9999" points="331,-226 251,-226 239,-214 239,-202 251,-190 331,-190 343,-202 343,-214 331,-226"/>
<path fill="#ff9999" stroke="#ff9999" d="M251,-226C245,-226 239,-220 239,-214"/>
<path fill="#ff9999" stroke="#ff9999" d="M239,-202C239,-196 245,-190 251,-190"/>
<path fill="#ff9999" stroke="#ff9999" d="M331,-190C337,-190 343,-196 343,-202"/>
<path fill="#ff9999" stroke="#ff9999" d="M343,-214C343,-220 337,-226 331,-226"/>
<polyline fill="none" stroke="black" points="331,-226 251,-226 "/>
<path fill="none" stroke="black" d="M251,-226C245,-226 239,-220 239,-214"/>
<polyline fill="none" stroke="black" points="239,-214 239,-202 "/>
<path fill="none" stroke="black" d="M239,-202C239,-196 245,-190 251,-190"/>
<polyline fill="none" stroke="black" points="251,-190 331,-190 "/>
<path fill="none" stroke="black" d="M331,-190C337,-190 343,-196 343,-202"/>
<polyline fill="none" stroke="black" points="343,-202 343,-214 "/>
<path fill="none" stroke="black" d="M343,-214C343,-220 337,-226 331,-226"/>
<text text-anchor="middle" x="291" y="-205.5" font-family="Times Roman,serif" font-size="10.00" fill="#000033">forward_static_call</text>
</g>
<!-- PackageX\\UnsupportedStmt&#45;&gt;forward_static_call -->
<g id="edge10" class="edge"><title>PackageX\\UnsupportedStmt&#45;&gt;forward_static_call</title>
<path fill="none" stroke="#ff9999" d="M152.104,-208C178.607,-208 207.902,-208 232.729,-208"/>
<polygon fill="#ff9999" stroke="#ff9999" points="232.941,-210.1 238.941,-208 232.941,-205.9 232.941,-210.1"/>
</g>
<!-- forward_static_call_array -->
<g id="node7" class="node"><title>forward_static_call_array</title>
<polygon fill="#ff9999" stroke="#ff9999" points="346,-183 236,-183 224,-171 224,-159 236,-147 346,-147 358,-159 358,-171 346,-183"/>
<path fill="#ff9999" stroke="#ff9999" d="M236,-183C230,-183 224,-177 224,-171"/>
<path fill="#ff9999" stroke="#ff9999" d="M224,-159C224,-153 230,-147 236,-147"/>
<path fill="#ff9999" stroke="#ff9999" d="M346,-147C352,-147 358,-153 358,-159"/>
<path fill="#ff9999" stroke="#ff9999" d="M358,-171C358,-177 352,-183 346,-183"/>
<polyline fill="none" stroke="black" points="346,-183 236,-183 "/>
<path fill="none" stroke="black" d="M236,-183C230,-183 224,-177 224,-171"/>
<polyline fill="none" stroke="black" points="224,-171 224,-159 "/>
<path fill="none" stroke="black" d="M224,-159C224,-153 230,-147 236,-147"/>
<polyline fill="none" stroke="black" points="236,-147 346,-147 "/>
<path fill="none" stroke="black" d="M346,-147C352,-147 358,-153 358,-159"/>
<polyline fill="none" stroke="black" points="358,-159 358,-171 "/>
<path fill="none" stroke="black" d="M358,-171C358,-177 352,-183 346,-183"/>
<text text-anchor="middle" x="291" y="-162.5" font-family="Times Roman,serif" font-size="10.00" fill="#000033">forward_static_call_array</text>
</g>
<!-- PackageX\\UnsupportedStmt&#45;&gt;forward_static_call_array -->
<g id="edge12" class="edge"><title>PackageX\\UnsupportedStmt&#45;&gt;forward_static_call_array</title>
<path fill="none" stroke="#ff9999" d="M152.104,-192.779C173.524,-188.495 196.769,-183.846 218.003,-179.599"/>
<polygon fill="#ff9999" stroke="#ff9999" points="218.465,-181.649 223.936,-178.413 217.641,-177.53 218.465,-181.649"/>
</g>
<!-- call_user_method -->
<g id="node8" class="node"><title>call_user_method</title>
<polygon fill="#ff9999" stroke="#ff9999" points="329,-140 253,-140 241,-128 241,-116 253,-104 329,-104 341,-116 341,-128 329,-140"/>
<path fill="#ff9999" stroke="#ff9999" d="M253,-140C247,-140 241,-134 241,-128"/>
<path fill="#ff9999" stroke="#ff9999" d="M241,-116C241,-110 247,-104 253,-104"/>
<path fill="#ff9999" stroke="#ff9999" d="M329,-104C335,-104 341,-110 341,-116"/>
<path fill="#ff9999" stroke="#ff9999" d="M341,-128C341,-134 335,-140 329,-140"/>
<polyline fill="none" stroke="black" points="329,-140 253,-140 "/>
<path fill="none" stroke="black" d="M253,-140C247,-140 241,-134 241,-128"/>
<polyline fill="none" stroke="black" points="241,-128 241,-116 "/>
<path fill="none" stroke="black" d="M241,-116C241,-110 247,-104 253,-104"/>
<polyline fill="none" stroke="black" points="253,-104 329,-104 "/>
<path fill="none" stroke="black" d="M329,-104C335,-104 341,-110 341,-116"/>
<polyline fill="none" stroke="black" points="341,-116 341,-128 "/>
<path fill="none" stroke="black" d="M341,-128C341,-134 335,-140 329,-140"/>
<text text-anchor="middle" x="291" y="-119.5" font-family="Times Roman,serif" font-size="10.00" fill="#000033">call_user_method</text>
</g>
<!-- PackageX\\UnsupportedStmt&#45;&gt;call_user_method -->
<g id="edge14" class="edge"><title>PackageX\\UnsupportedStmt&#45;&gt;call_user_method</title>
<path fill="none" stroke="#ff9999" d="M115.175,-189.901C144.779,-176.509 186.573,-158.203 224,-144 227.455,-142.689 231.028,-141.381 234.641,-140.094"/>
<polygon fill="#ff9999" stroke="#ff9999" points="235.377,-142.061 240.342,-138.09 233.985,-138.098 235.377,-142.061"/>
</g>
<!-- call_user_method_array -->
<g id="node9" class="node"><title>call_user_method_array</title>
<polygon fill="#ff9999" stroke="#ff9999" points="344,-97 238,-97 226,-85 226,-73 238,-61 344,-61 356,-73 356,-85 344,-97"/>
<path fill="#ff9999" stroke="#ff9999" d="M238,-97C232,-97 226,-91 226,-85"/>
<path fill="#ff9999" stroke="#ff9999" d="M226,-73C226,-67 232,-61 238,-61"/>
<path fill="#ff9999" stroke="#ff9999" d="M344,-61C350,-61 356,-67 356,-73"/>
<path fill="#ff9999" stroke="#ff9999" d="M356,-85C356,-91 350,-97 344,-97"/>
<polyline fill="none" stroke="black" points="344,-97 238,-97 "/>
<path fill="none" stroke="black" d="M238,-97C232,-97 226,-91 226,-85"/>
<polyline fill="none" stroke="black" points="226,-85 226,-73 "/>
<path fill="none" stroke="black" d="M226,-73C226,-67 232,-61 238,-61"/>
<polyline fill="none" stroke="black" points="238,-61 344,-61 "/>
<path fill="none" stroke="black" d="M344,-61C350,-61 356,-67 356,-73"/>
<polyline fill="none" stroke="black" points="356,-73 356,-85 "/>
<path fill="none" stroke="black" d="M356,-85C356,-91 350,-97 344,-97"/>
<text text-anchor="middle" x="291" y="-76.5" font-family="Times Roman,serif" font-size="10.00" fill="#000033">call_user_method_array</text>
</g>
<!-- PackageX\\UnsupportedStmt&#45;&gt;call_user_method_array -->
<g id="edge16" class="edge"><title>PackageX\\UnsupportedStmt&#45;&gt;call_user_method_array</title>
<path fill="none" stroke="#ff9999" d="M96.6994,-189.813C124.143,-166.489 174.854,-126.065 224,-101 224.937,-100.522 225.887,-100.051 226.848,-99.5879"/>
<polygon fill="#ff9999" stroke="#ff9999" points="227.876,-101.427 232.452,-97.0148 226.123,-97.6098 227.876,-101.427"/>
</g>
<!-- create_function -->
<g id="node10" class="node"><title>create_function</title>
<polygon fill="#ff9999" stroke="#ff9999" points="324,-54 258,-54 246,-42 246,-30 258,-18 324,-18 336,-30 336,-42 324,-54"/>
<path fill="#ff9999" stroke="#ff9999" d="M258,-54C252,-54 246,-48 246,-42"/>
<path fill="#ff9999" stroke="#ff9999" d="M246,-30C246,-24 252,-18 258,-18"/>
<path fill="#ff9999" stroke="#ff9999" d="M324,-18C330,-18 336,-24 336,-30"/>
<path fill="#ff9999" stroke="#ff9999" d="M336,-42C336,-48 330,-54 324,-54"/>
<polyline fill="none" stroke="black" points="324,-54 258,-54 "/>
<path fill="none" stroke="black" d="M258,-54C252,-54 246,-48 246,-42"/>
<polyline fill="none" stroke="black" points="246,-42 246,-30 "/>
<path fill="none" stroke="black" d="M246,-30C246,-24 252,-18 258,-18"/>
<polyline fill="none" stroke="black" points="258,-18 324,-18 "/>
<path fill="none" stroke="black" d="M324,-18C330,-18 336,-24 336,-30"/>
<polyline fill="none" stroke="black" points="336,-30 336,-42 "/>
<path fill="none" stroke="black" d="M336,-42C336,-48 330,-54 324,-54"/>
<text text-anchor="middle" x="291" y="-33.5" font-family="Times Roman,serif" font-size="10.00" fill="#000033">create_function</text>
</g>
<!-- PackageX\\UnsupportedStmt&#45;&gt;create_function -->
<g id="edge18" class="edge"><title>PackageX\\UnsupportedStmt&#45;&gt;create_function</title>
<path fill="none" stroke="#ff9999" d="M89.4043,-189.539C113.123,-158.14 165.535,-94.2236 224,-58 228.815,-55.0167 234.078,-52.3932 239.47,-50.0969"/>
<polygon fill="#ff9999" stroke="#ff9999" points="240.571,-51.9175 245.356,-47.7319 239.005,-48.0203 240.571,-51.9175"/>
</g>
<!-- PackageX\\UnsupportedVar1 -->
<g id="node11" class="node"><title>PackageX\\UnsupportedVar1</title>
<polygon fill="#9999cc" stroke="#9999cc" points="138,-613 14,-613 2,-601 2,-589 14,-577 138,-577 150,-589 150,-601 138,-613"/>
<path fill="#9999cc" stroke="#9999cc" d="M14,-613C8,-613 2,-607 2,-601"/>
<path fill="#9999cc" stroke="#9999cc" d="M2,-589C2,-583 8,-577 14,-577"/>
<path fill="#9999cc" stroke="#9999cc" d="M138,-577C144,-577 150,-583 150,-589"/>
<path fill="#9999cc" stroke="#9999cc" d="M150,-601C150,-607 144,-613 138,-613"/>
<polyline fill="none" stroke="black" points="138,-613 14,-613 "/>
<path fill="none" stroke="black" d="M14,-613C8,-613 2,-607 2,-601"/>
<polyline fill="none" stroke="black" points="2,-601 2,-589 "/>
<path fill="none" stroke="black" d="M2,-589C2,-583 8,-577 14,-577"/>
<polyline fill="none" stroke="black" points="14,-577 138,-577 "/>
<path fill="none" stroke="black" d="M138,-577C144,-577 150,-583 150,-589"/>
<polyline fill="none" stroke="black" points="150,-589 150,-601 "/>
<path fill="none" stroke="black" d="M150,-601C150,-607 144,-613 138,-613"/>
<text text-anchor="middle" x="76" y="-592.5" font-family="Times Roman,serif" font-size="10.00" fill="#000033">PackageX\UnsupportedVar1</text>
</g>
<!-- dynamic varname -->
<g id="node12" class="node"><title>dynamic varname</title>
<polygon fill="#ff9999" stroke="#ff9999" points="330,-527 252,-527 240,-515 240,-503 252,-491 330,-491 342,-503 342,-515 330,-527"/>
<path fill="#ff9999" stroke="#ff9999" d="M252,-527C246,-527 240,-521 240,-515"/>
<path fill="#ff9999" stroke="#ff9999" d="M240,-503C240,-497 246,-491 252,-491"/>
<path fill="#ff9999" stroke="#ff9999" d="M330,-491C336,-491 342,-497 342,-503"/>
<path fill="#ff9999" stroke="#ff9999" d="M342,-515C342,-521 336,-527 330,-527"/>
<polyline fill="none" stroke="black" points="330,-527 252,-527 "/>
<path fill="none" stroke="black" d="M252,-527C246,-527 240,-521 240,-515"/>
<polyline fill="none" stroke="black" points="240,-515 240,-503 "/>
<path fill="none" stroke="black" d="M240,-503C240,-497 246,-491 252,-491"/>
<polyline fill="none" stroke="black" points="252,-491 330,-491 "/>
<path fill="none" stroke="black" d="M330,-491C336,-491 342,-497 342,-503"/>
<polyline fill="none" stroke="black" points="342,-503 342,-515 "/>
<path fill="none" stroke="black" d="M342,-515C342,-521 336,-527 330,-527"/>
<text text-anchor="middle" x="291" y="-506.5" font-family="Times Roman,serif" font-size="10.00" fill="#000033">dynamic varname</text>
</g>
<!-- PackageX\\UnsupportedVar1&#45;&gt;dynamic varname -->
<g id="edge20" class="edge"><title>PackageX\\UnsupportedVar1&#45;&gt;dynamic varname</title>
<path fill="none" stroke="#ff9999" d="M140.895,-576.927C144.671,-575.655 148.396,-574.343 152,-573 185.701,-560.444 222.628,-543.271 249.945,-529.875"/>
<polygon fill="#ff9999" stroke="#ff9999" points="251.17,-531.613 255.624,-527.077 249.314,-527.845 251.17,-531.613"/>
</g>
<!-- PackageX\\UnsupportedVar2 -->
<g id="node13" class="node"><title>PackageX\\UnsupportedVar2</title>
<polygon fill="#9999cc" stroke="#9999cc" points="138,-441 14,-441 2,-429 2,-417 14,-405 138,-405 150,-417 150,-429 138,-441"/>
<path fill="#9999cc" stroke="#9999cc" d="M14,-441C8,-441 2,-435 2,-429"/>
<path fill="#9999cc" stroke="#9999cc" d="M2,-417C2,-411 8,-405 14,-405"/>
<path fill="#9999cc" stroke="#9999cc" d="M138,-405C144,-405 150,-411 150,-417"/>
<path fill="#9999cc" stroke="#9999cc" d="M150,-429C150,-435 144,-441 138,-441"/>
<polyline fill="none" stroke="black" points="138,-441 14,-441 "/>
<path fill="none" stroke="black" d="M14,-441C8,-441 2,-435 2,-429"/>
<polyline fill="none" stroke="black" points="2,-429 2,-417 "/>
<path fill="none" stroke="black" d="M2,-417C2,-411 8,-405 14,-405"/>
<polyline fill="none" stroke="black" points="14,-405 138,-405 "/>
<path fill="none" stroke="black" d="M138,-405C144,-405 150,-411 150,-417"/>
<polyline fill="none" stroke="black" points="150,-417 150,-429 "/>
<path fill="none" stroke="black" d="M150,-429C150,-435 144,-441 138,-441"/>
<text text-anchor="middle" x="76" y="-420.5" font-family="Times Roman,serif" font-size="10.00" fill="#000033">PackageX\UnsupportedVar2</text>
</g>
<!-- PackageX\\UnsupportedVar2&#45;&gt;dynamic varname -->
<g id="edge24" class="edge"><title>PackageX\\UnsupportedVar2&#45;&gt;dynamic varname</title>
<path fill="none" stroke="#ff9999" d="M140.895,-441.073C144.671,-442.345 148.396,-443.657 152,-445 185.701,-457.556 222.628,-474.729 249.945,-488.125"/>
<polygon fill="#ff9999" stroke="#ff9999" points="249.314,-490.155 255.624,-490.923 251.17,-486.387 249.314,-490.155"/>
</g>
<!-- Locale -->
<g id="node14" class="node"><title>Locale</title>
<polygon fill="#9999cc" stroke="#9999cc" points="306,-441 276,-441 264,-429 264,-417 276,-405 306,-405 318,-417 318,-429 306,-441"/>
<path fill="#9999cc" stroke="#9999cc" d="M276,-441C270,-441 264,-435 264,-429"/>
<path fill="#9999cc" stroke="#9999cc" d="M264,-417C264,-411 270,-405 276,-405"/>
<path fill="#9999cc" stroke="#9999cc" d="M306,-405C312,-405 318,-411 318,-417"/>
<path fill="#9999cc" stroke="#9999cc" d="M318,-429C318,-435 312,-441 306,-441"/>
<polyline fill="none" stroke="black" points="306,-441 276,-441 "/>
<path fill="none" stroke="black" d="M276,-441C270,-441 264,-435 264,-429"/>
<polyline fill="none" stroke="black" points="264,-429 264,-417 "/>
<path fill="none" stroke="black" d="M264,-417C264,-411 270,-405 276,-405"/>
<polyline fill="none" stroke="black" points="276,-405 306,-405 "/>
<path fill="none" stroke="black" d="M306,-405C312,-405 318,-411 318,-417"/>
<polyline fill="none" stroke="black" points="318,-417 318,-429 "/>
<path fill="none" stroke="black" d="M318,-429C318,-435 312,-441 306,-441"/>
<text text-anchor="middle" x="291" y="-420.5" font-family="Times Roman,serif" font-size="10.00" fill="#000033">Locale</text>
</g>
<!-- PackageX\\UnsupportedVar2&#45;&gt;Locale -->
<g id="edge22" class="edge"><title>PackageX\\UnsupportedVar2&#45;&gt;Locale</title>
<path fill="none" stroke="#999999" d="M150.593,-423C187.013,-423 229.01,-423 257.514,-423"/>
<polygon fill="#999999" stroke="#999999" points="257.742,-425.1 263.742,-423 257.742,-420.9 257.742,-425.1"/>
</g>
<!-- PackageX\\UnsupportedVar3 -->
<g id="node15" class="node"><title>PackageX\\UnsupportedVar3</title>
<polygon fill="#9999cc" stroke="#9999cc" points="138,-570 14,-570 2,-558 2,-546 14,-534 138,-534 150,-546 150,-558 138,-570"/>
<path fill="#9999cc" stroke="#9999cc" d="M14,-570C8,-570 2,-564 2,-558"/>
<path fill="#9999cc" stroke="#9999cc" d="M2,-546C2,-540 8,-534 14,-534"/>
<path fill="#9999cc" stroke="#9999cc" d="M138,-534C144,-534 150,-540 150,-546"/>
<path fill="#9999cc" stroke="#9999cc" d="M150,-558C150,-564 144,-570 138,-570"/>
<polyline fill="none" stroke="black" points="138,-570 14,-570 "/>
<path fill="none" stroke="black" d="M14,-570C8,-570 2,-564 2,-558"/>
<polyline fill="none" stroke="black" points="2,-558 2,-546 "/>
<path fill="none" stroke="black" d="M2,-546C2,-540 8,-534 14,-534"/>
<polyline fill="none" stroke="black" points="14,-534 138,-534 "/>
<path fill="none" stroke="black" d="M138,-534C144,-534 150,-540 150,-546"/>
<polyline fill="none" stroke="black" points="150,-546 150,-558 "/>
<path fill="none" stroke="black" d="M150,-558C150,-564 144,-570 138,-570"/>
<text text-anchor="middle" x="76" y="-549.5" font-family="Times Roman,serif" font-size="10.00" fill="#000033">PackageX\UnsupportedVar3</text>
</g>
<!-- PackageX\\UnsupportedVar3&#45;&gt;dynamic varname -->
<g id="edge26" class="edge"><title>PackageX\\UnsupportedVar3&#45;&gt;dynamic varname</title>
<path fill="none" stroke="#ff9999" d="M150.593,-537.081C177.653,-531.669 207.792,-525.642 233.187,-520.563"/>
<polygon fill="#ff9999" stroke="#ff9999" points="233.728,-522.596 239.2,-519.36 232.904,-518.478 233.728,-522.596"/>
</g>
<!-- PackageX\\UnsupportedVar4 -->
<g id="node16" class="node"><title>PackageX\\UnsupportedVar4</title>
<polygon fill="#9999cc" stroke="#9999cc" points="138,-527 14,-527 2,-515 2,-503 14,-491 138,-491 150,-503 150,-515 138,-527"/>
<path fill="#9999cc" stroke="#9999cc" d="M14,-527C8,-527 2,-521 2,-515"/>
<path fill="#9999cc" stroke="#9999cc" d="M2,-503C2,-497 8,-491 14,-491"/>
<path fill="#9999cc" stroke="#9999cc" d="M138,-491C144,-491 150,-497 150,-503"/>
<path fill="#9999cc" stroke="#9999cc" d="M150,-515C150,-521 144,-527 138,-527"/>
<polyline fill="none" stroke="black" points="138,-527 14,-527 "/>
<path fill="none" stroke="black" d="M14,-527C8,-527 2,-521 2,-515"/>
<polyline fill="none" stroke="black" points="2,-515 2,-503 "/>
<path fill="none" stroke="black" d="M2,-503C2,-497 8,-491 14,-491"/>
<polyline fill="none" stroke="black" points="14,-491 138,-491 "/>
<path fill="none" stroke="black" d="M138,-491C144,-491 150,-497 150,-503"/>
<polyline fill="none" stroke="black" points="150,-503 150,-515 "/>
<path fill="none" stroke="black" d="M150,-515C150,-521 144,-527 138,-527"/>
<text text-anchor="middle" x="76" y="-506.5" font-family="Times Roman,serif" font-size="10.00" fill="#000033">PackageX\UnsupportedVar4</text>
</g>
<!-- PackageX\\UnsupportedVar4&#45;&gt;dynamic varname -->
<g id="edge28" class="edge"><title>PackageX\\UnsupportedVar4&#45;&gt;dynamic varname</title>
<path fill="none" stroke="#ff9999" d="M150.593,-509C177.653,-509 207.792,-509 233.187,-509"/>
<polygon fill="#ff9999" stroke="#ff9999" points="233.2,-511.1 239.2,-509 233.2,-506.9 233.2,-511.1"/>
</g>
<!-- PackageX\\UnsupportedVar5 -->
<g id="node17" class="node"><title>PackageX\\UnsupportedVar5</title>
<polygon fill="#9999cc" stroke="#9999cc" points="138,-484 14,-484 2,-472 2,-460 14,-448 138,-448 150,-460 150,-472 138,-484"/>
<path fill="#9999cc" stroke="#9999cc" d="M14,-484C8,-484 2,-478 2,-472"/>
<path fill="#9999cc" stroke="#9999cc" d="M2,-460C2,-454 8,-448 14,-448"/>
<path fill="#9999cc" stroke="#9999cc" d="M138,-448C144,-448 150,-454 150,-460"/>
<path fill="#9999cc" stroke="#9999cc" d="M150,-472C150,-478 144,-484 138,-484"/>
<polyline fill="none" stroke="black" points="138,-484 14,-484 "/>
<path fill="none" stroke="black" d="M14,-484C8,-484 2,-478 2,-472"/>
<polyline fill="none" stroke="black" points="2,-472 2,-460 "/>
<path fill="none" stroke="black" d="M2,-460C2,-454 8,-448 14,-448"/>
<polyline fill="none" stroke="black" points="14,-448 138,-448 "/>
<path fill="none" stroke="black" d="M138,-448C144,-448 150,-454 150,-460"/>
<polyline fill="none" stroke="black" points="150,-460 150,-472 "/>
<path fill="none" stroke="black" d="M150,-472C150,-478 144,-484 138,-484"/>
<text text-anchor="middle" x="76" y="-463.5" font-family="Times Roman,serif" font-size="10.00" fill="#000033">PackageX\UnsupportedVar5</text>
</g>
<!-- PackageX\\UnsupportedVar5&#45;&gt;dynamic varname -->
<g id="edge30" class="edge"><title>PackageX\\UnsupportedVar5&#45;&gt;dynamic varname</title>
<path fill="none" stroke="#ff9999" d="M150.593,-480.919C177.653,-486.331 207.792,-492.358 233.187,-497.437"/>
<polygon fill="#ff9999" stroke="#ff9999" points="232.904,-499.522 239.2,-498.64 233.728,-495.404 232.904,-499.522"/>
</g>
</g>
</svg>
