<?xml version="1.0" encoding="UTF-8" standalone="no"?>
<!DOCTYPE svg PUBLIC "-//W3C//DTD SVG 1.1//EN"
 "http://www.w3.org/Graphics/SVG/1.1/DTD/svg11.dtd">
<!-- Generated by graphviz version 2.26.3 (20100126.1600)
 -->
<!-- Title: G Pages: 1 -->
<svg width="1367pt" height="318pt"
 viewBox="0.00 0.00 1367.00 318.00" xmlns="http://www.w3.org/2000/svg" xmlns:xlink="http://www.w3.org/1999/xlink">
<g id="graph1" class="graph" transform="scale(1 1) rotate(0) translate(4 314)">
<title>G</title>
<polygon fill="white" stroke="white" points="-4,5 -4,-314 1364,-314 1364,5 -4,5"/>
<!-- PackageX\\UnsupportedStmt -->
<g id="node1" class="node"><title>PackageX\\UnsupportedStmt</title>
<ellipse fill="#eeeeee" stroke="black" cx="367" cy="-237" rx="72.9205" ry="72.9205"/>
<text text-anchor="middle" x="367" y="-234.5" font-family="Times Roman,serif" font-size="10.00" fill="#314b5f">PackageX\UnsupportedStmt</text>
</g>
<!-- global -->
<g id="node2" class="node"><title>global</title>
<ellipse fill="#ecb4b4" stroke="black" cx="18" cy="-64" rx="18" ry="18"/>
<text text-anchor="middle" x="18" y="-61.5" font-family="Times Roman,serif" font-size="10.00" fill="#314b5f">global</text>
</g>
<!-- PackageX\\UnsupportedStmt&#45;&gt;global -->
<g id="edge2" class="edge"><title>PackageX\\UnsupportedStmt&#45;&gt;global</title>
<path fill="none" stroke="#ecb4b4" d="M294.293,-229.637C222.65,-218.801 114.159,-192.297 45,-128 33.588,-117.39 26.8177,-101.186 22.9106,-87.7384"/>
<polygon fill="#ecb4b4" stroke="#ecb4b4" points="24.8957,-87.033 21.3106,-81.7835 20.8395,-88.1229 24.8957,-87.033"/>
</g>
<!-- eval -->
<g id="node3" class="node"><title>eval</title>
<ellipse fill="#ecb4b4" stroke="black" cx="72" cy="-64" rx="18" ry="18"/>
<text text-anchor="middle" x="72" y="-61.5" font-family="Times Roman,serif" font-size="10.00" fill="#314b5f">eval</text>
</g>
<!-- PackageX\\UnsupportedStmt&#45;&gt;eval -->
<g id="edge4" class="edge"><title>PackageX\\UnsupportedStmt&#45;&gt;eval</title>
<path fill="none" stroke="#ecb4b4" d="M295.082,-223.708C235.69,-209.349 152.709,-181.018 99,-128 87.9852,-117.127 81.2285,-101.07 77.2288,-87.7599"/>
<polygon fill="#ecb4b4" stroke="#ecb4b4" points="79.2189,-87.0785 75.5798,-81.8663 75.1742,-88.2103 79.2189,-87.0785"/>
</g>
<!-- call_user_func -->
<g id="node4" class="node"><title>call_user_func</title>
<ellipse fill="#ecb4b4" stroke="black" cx="144" cy="-64" rx="35.9608" ry="36.4602"/>
<text text-anchor="middle" x="144" y="-61.5" font-family="Times Roman,serif" font-size="10.00" fill="#314b5f">call_user_func</text>
</g>
<!-- PackageX\\UnsupportedStmt&#45;&gt;call_user_func -->
<g id="edge6" class="edge"><title>PackageX\\UnsupportedStmt&#45;&gt;call_user_func</title>
<path fill="none" stroke="#ecb4b4" d="M301.243,-205.166C265.586,-185.926 222.159,-159.122 189,-128 180.482,-120.005 172.608,-110.158 165.907,-100.607"/>
<polygon fill="#ecb4b4" stroke="#ecb4b4" points="167.635,-99.4136 162.513,-95.6497 164.17,-101.787 167.635,-99.4136"/>
</g>
<!-- call_user_func_array -->
<g id="node5" class="node"><title>call_user_func_array</title>
<ellipse fill="#ecb4b4" stroke="black" cx="250" cy="-64" rx="52.0452" ry="52.5456"/>
<text text-anchor="middle" x="250" y="-61.5" font-family="Times Roman,serif" font-size="10.00" fill="#314b5f">call_user_func_array</text>
</g>
<!-- PackageX\\UnsupportedStmt&#45;&gt;call_user_func_array -->
<g id="edge8" class="edge"><title>PackageX\\UnsupportedStmt&#45;&gt;call_user_func_array</title>
<path fill="none" stroke="#ecb4b4" d="M326.079,-176.493C311.925,-155.564 296.256,-132.396 282.836,-112.552"/>
<polygon fill="#ecb4b4" stroke="#ecb4b4" points="284.575,-111.376 279.474,-107.582 281.096,-113.728 284.575,-111.376"/>
</g>
<!-- forward_static_call -->
<g id="node6" class="node"><title>forward_static_call</title>
<ellipse fill="#ecb4b4" stroke="black" cx="367" cy="-64" rx="47.1838" ry="47.1838"/>
<text text-anchor="middle" x="367" y="-61.5" font-family="Times Roman,serif" font-size="10.00" fill="#314b5f">forward_static_call</text>
</g>
<!-- PackageX\\UnsupportedStmt&#45;&gt;forward_static_call -->
<g id="edge10" class="edge"><title>PackageX\\UnsupportedStmt&#45;&gt;forward_static_call</title>
<path fill="none" stroke="#ecb4b4" d="M367,-163.883C367,-148.229 367,-131.976 367,-117.241"/>
<polygon fill="#ecb4b4" stroke="#ecb4b4" points="369.1,-117.026 367,-111.026 364.9,-117.026 369.1,-117.026"/>
</g>
<!-- forward_static_call_array -->
<g id="node7" class="node"><title>forward_static_call_array</title>
<ellipse fill="#ecb4b4" stroke="black" cx="495" cy="-64" rx="62.771" ry="63.2692"/>
<text text-anchor="middle" x="495" y="-61.5" font-family="Times Roman,serif" font-size="10.00" fill="#314b5f">forward_static_call_array</text>
</g>
<!-- PackageX\\UnsupportedStmt&#45;&gt;forward_static_call_array -->
<g id="edge12" class="edge"><title>PackageX\\UnsupportedStmt&#45;&gt;forward_static_call_array</title>
<path fill="none" stroke="#ecb4b4" d="M410.692,-177.947C424.528,-159.247 439.776,-138.638 453.457,-120.148"/>
<polygon fill="#ecb4b4" stroke="#ecb4b4" points="455.391,-121.065 457.271,-114.993 452.014,-118.567 455.391,-121.065"/>
</g>
<!-- call_user_method -->
<g id="node8" class="node"><title>call_user_method</title>
<ellipse fill="#ecb4b4" stroke="black" cx="621" cy="-64" rx="45.0745" ry="45.5753"/>
<text text-anchor="middle" x="621" y="-61.5" font-family="Times Roman,serif" font-size="10.00" fill="#314b5f">call_user_method</text>
</g>
<!-- PackageX\\UnsupportedStmt&#45;&gt;call_user_method -->
<g id="edge14" class="edge"><title>PackageX\\UnsupportedStmt&#45;&gt;call_user_method</title>
<path fill="none" stroke="#ecb4b4" d="M434.314,-208.063C475.042,-188.74 526.712,-160.878 567,-128 575.022,-121.454 582.759,-113.597 589.75,-105.665"/>
<polygon fill="#ecb4b4" stroke="#ecb4b4" points="591.678,-106.644 594.002,-100.727 588.496,-103.903 591.678,-106.644"/>
</g>
<!-- call_user_method_array -->
<g id="node9" class="node"><title>call_user_method_array</title>
<ellipse fill="#ecb4b4" stroke="black" cx="745" cy="-64" rx="61.1594" ry="61.6607"/>
<text text-anchor="middle" x="745" y="-61.5" font-family="Times Roman,serif" font-size="10.00" fill="#314b5f">call_user_method_array</text>
</g>
<!-- PackageX\\UnsupportedStmt&#45;&gt;call_user_method_array -->
<g id="edge16" class="edge"><title>PackageX\\UnsupportedStmt&#45;&gt;call_user_method_array</title>
<path fill="none" stroke="#ecb4b4" d="M435.695,-211.592C474.462,-197.369 523.844,-179.444 568,-164 615.362,-147.435 631.775,-153.478 675,-128 682.607,-123.516 690.099,-118.103 697.19,-112.346"/>
<polygon fill="#ecb4b4" stroke="#ecb4b4" points="698.765,-113.766 702.031,-108.312 696.077,-110.539 698.765,-113.766"/>
</g>
<!-- create_function -->
<g id="node10" class="node"><title>create_function</title>
<ellipse fill="#ecb4b4" stroke="black" cx="864" cy="-64" rx="40.2135" ry="40.2135"/>
<text text-anchor="middle" x="864" y="-61.5" font-family="Times Roman,serif" font-size="10.00" fill="#314b5f">create_function</text>
</g>
<!-- PackageX\\UnsupportedStmt&#45;&gt;create_function -->
<g id="edge18" class="edge"><title>PackageX\\UnsupportedStmt&#45;&gt;create_function</title>
<path fill="none" stroke="#ecb4b4" d="M434.303,-208.658C472.843,-193.421 522.456,-175.462 568,-164 675.583,-136.925 719.341,-184.183 815,-128 825.07,-122.086 833.782,-113.226 840.95,-103.97"/>
<polygon fill="#ecb4b4" stroke="#ecb4b4" points="842.67,-105.177 844.558,-99.1073 839.296,-102.675 842.67,-105.177"/>
</g>
<!-- PackageX\\UnsupportedVar1 -->
<g id="node11" class="node"><title>PackageX\\UnsupportedVar1</title>
<ellipse fill="#eeeeee" stroke="black" cx="648" cy="-237" rx="70.8132" ry="71.3119"/>
<text text-anchor="middle" x="648" y="-234.5" font-family="Times Roman,serif" font-size="10.00" fill="#314b5f">PackageX\UnsupportedVar1</text>
</g>
<!-- dynamic varname -->
<g id="node12" class="node"><title>dynamic varname</title>
<ellipse fill="#ecb4b4" stroke="black" cx="968" cy="-64" rx="46.1461" ry="46.6477"/>
<text text-anchor="middle" x="968" y="-61.5" font-family="Times Roman,serif" font-size="10.00" fill="#314b5f">dynamic varname</text>
</g>
<!-- PackageX\\UnsupportedVar1&#45;&gt;dynamic varname -->
<g id="edge20" class="edge"><title>PackageX\\UnsupportedVar1&#45;&gt;dynamic varname</title>
<path fill="none" stroke="#ecb4b4" d="M696.913,-184.898C706.55,-176.899 717.081,-169.491 728,-164 802.835,-126.368 840.581,-170.095 913,-128 922.298,-122.596 930.785,-115.028 938.163,-106.983"/>
<polygon fill="#ecb4b4" stroke="#ecb4b4" points="939.747,-108.362 942.146,-102.475 936.6,-105.581 939.747,-108.362"/>
</g>
<!-- PackageX\\UnsupportedVar2 -->
<g id="node13" class="node"><title>PackageX\\UnsupportedVar2</title>
<ellipse fill="#eeeeee" stroke="black" cx="1288" cy="-237" rx="70.8132" ry="71.3119"/>
<text text-anchor="middle" x="1288" y="-234.5" font-family="Times Roman,serif" font-size="10.00" fill="#314b5f">PackageX\UnsupportedVar2</text>
</g>
<!-- PackageX\\UnsupportedVar2&#45;&gt;dynamic varname -->
<g id="edge24" class="edge"><title>PackageX\\UnsupportedVar2&#45;&gt;dynamic varname</title>
<path fill="none" stroke="#ecb4b4" d="M1237.63,-186.317C1228.22,-178.261 1218.15,-170.466 1208,-164 1147.09,-125.196 1068.57,-95.8351 1018.24,-79.2709"/>
<polygon fill="#ecb4b4" stroke="#ecb4b4" points="1018.61,-77.1798 1012.25,-77.3146 1017.3,-81.1725 1018.61,-77.1798"/>
</g>
<!-- Locale -->
<g id="node14" class="node"><title>Locale</title>
<ellipse fill="#eeeeee" stroke="black" cx="1288" cy="-64" rx="18" ry="18"/>
<text text-anchor="middle" x="1288" y="-61.5" font-family="Times Roman,serif" font-size="10.00" fill="#314b5f">Locale</text>
</g>
<!-- PackageX\\UnsupportedVar2&#45;&gt;Locale -->
<g id="edge22" class="edge"><title>PackageX\\UnsupportedVar2&#45;&gt;Locale</title>
<path fill="none" stroke="#1a2833" d="M1288,-165.385C1288,-137.873 1288,-108.29 1288,-88.2235"/>
<polygon fill="#1a2833" stroke="#1a2833" points="1290.1,-88.0574 1288,-82.0574 1285.9,-88.0575 1290.1,-88.0574"/>
</g>
<!-- PackageX\\UnsupportedVar3 -->
<g id="node15" class="node"><title>PackageX\\UnsupportedVar3</title>
<ellipse fill="#eeeeee" stroke="black" cx="808" cy="-237" rx="70.8132" ry="71.3119"/>
<text text-anchor="middle" x="808" y="-234.5" font-family="Times Roman,serif" font-size="10.00" fill="#314b5f">PackageX\UnsupportedVar3</text>
</g>
<!-- PackageX\\UnsupportedVar3&#45;&gt;dynamic varname -->
<g id="edge26" class="edge"><title>PackageX\\UnsupportedVar3&#45;&gt;dynamic varname</title>
<path fill="none" stroke="#ecb4b4" d="M858.282,-186.004C875.823,-167.899 895.492,-147.239 913,-128 919.859,-120.463 927.051,-112.296 933.89,-104.398"/>
<polygon fill="#ecb4b4" stroke="#ecb4b4" points="935.766,-105.439 938.096,-99.524 932.586,-102.695 935.766,-105.439"/>
</g>
<!-- PackageX\\UnsupportedVar4 -->
<g id="node16" class="node"><title>PackageX\\UnsupportedVar4</title>
<ellipse fill="#eeeeee" stroke="black" cx="968" cy="-237" rx="70.8132" ry="71.3119"/>
<text text-anchor="middle" x="968" y="-234.5" font-family="Times Roman,serif" font-size="10.00" fill="#314b5f">PackageX\UnsupportedVar4</text>
</g>
<!-- PackageX\\UnsupportedVar4&#45;&gt;dynamic varname -->
<g id="edge28" class="edge"><title>PackageX\\UnsupportedVar4&#45;&gt;dynamic varname</title>
<path fill="none" stroke="#ecb4b4" d="M968,-165.385C968,-149.055 968,-131.995 968,-116.628"/>
<polygon fill="#ecb4b4" stroke="#ecb4b4" points="970.1,-116.604 968,-110.604 965.9,-116.604 970.1,-116.604"/>
</g>
<!-- PackageX\\UnsupportedVar5 -->
<g id="node17" class="node"><title>PackageX\\UnsupportedVar5</title>
<ellipse fill="#eeeeee" stroke="black" cx="1128" cy="-237" rx="70.8132" ry="71.3119"/>
<text text-anchor="middle" x="1128" y="-234.5" font-family="Times Roman,serif" font-size="10.00" fill="#314b5f">PackageX\UnsupportedVar5</text>
</g>
<!-- PackageX\\UnsupportedVar5&#45;&gt;dynamic varname -->
<g id="edge30" class="edge"><title>PackageX\\UnsupportedVar5&#45;&gt;dynamic varname</title>
<path fill="none" stroke="#ecb4b4" d="M1079.56,-184.625C1055.14,-158.223 1026.05,-126.77 1003.7,-102.603"/>
<polygon fill="#ecb4b4" stroke="#ecb4b4" points="1005.23,-101.157 999.609,-98.1776 1002.14,-104.008 1005.23,-101.157"/>
</g>
</g>
</svg>
